<?xml version="1.0" encoding="UTF-8"?>
<svg xmlns="http://www.w3.org/2000/svg" xmlns:xlink="http://www.w3.org/1999/xlink" width="444.216pt" height="257.627pt" viewBox="0 0 444.216 257.627">
<defs>
<g>
<g id="glyph-0-0">
<path d="M 10.703125 -4.484375 L 11.765625 -5.53125 C 12.09375 -5.828125 11.9375 -6.375 11.515625 -6.46875 L 10.046875 -6.84375 L 10.46875 -8.28125 C 10.59375 -8.703125 10.1875 -9.09375 9.78125 -8.984375 L 8.328125 -8.578125 L 7.96875 -10.03125 C 7.859375 -10.453125 7.3125 -10.59375 7.015625 -10.28125 L 5.96875 -9.1875 L 4.921875 -10.28125 C 4.625 -10.59375 4.078125 -10.453125 3.96875 -10.03125 L 3.609375 -8.578125 L 2.15625 -8.984375 C 1.75 -9.09375 1.34375 -8.703125 1.46875 -8.28125 L 1.890625 -6.84375 L 0.421875 -6.46875 C 0 -6.375 -0.15625 -5.828125 0.171875 -5.53125 L 1.234375 -4.484375 L 0.171875 -3.421875 C -0.15625 -3.125 0 -2.578125 0.421875 -2.484375 L 1.890625 -2.109375 L 1.46875 -0.671875 C 1.34375 -0.25 1.75 0.140625 2.15625 0.03125 L 3.609375 -0.390625 L 3.96875 1.078125 C 4.078125 1.5 4.625 1.640625 4.921875 1.328125 L 5.96875 0.25 L 7.015625 1.328125 C 7.3125 1.640625 7.859375 1.5 7.96875 1.078125 L 8.328125 -0.390625 L 9.78125 0.03125 C 10.1875 0.140625 10.59375 -0.25 10.46875 -0.671875 L 10.046875 -2.109375 L 11.515625 -2.484375 C 11.9375 -2.578125 12.09375 -3.125 11.765625 -3.421875 Z M 10.703125 -4.484375 "/>
</g>
<g id="glyph-0-1">
<path d="M 7.84375 -6.703125 C 7.515625 -8.78125 6.703125 -10.25 5.78125 -10.25 C 4.84375 -10.25 4.0625 -8.78125 3.71875 -6.703125 Z M 3.546875 -4.484375 C 3.546875 -3.96875 3.5625 -3.46875 3.609375 -2.984375 L 7.9375 -2.984375 C 7.984375 -3.46875 8.015625 -3.96875 8.015625 -4.484375 C 8.015625 -4.984375 7.984375 -5.484375 7.9375 -5.96875 L 3.609375 -5.96875 C 3.5625 -5.484375 3.546875 -4.984375 3.546875 -4.484375 Z M 11.109375 -6.703125 C 10.453125 -8.296875 9.09375 -9.53125 7.421875 -10.015625 C 8 -9.234375 8.390625 -8.03125 8.59375 -6.703125 Z M 4.125 -10.015625 C 2.46875 -9.53125 1.125 -8.296875 0.453125 -6.703125 L 2.96875 -6.703125 C 3.171875 -8.03125 3.5625 -9.234375 4.125 -10.015625 Z M 11.359375 -5.96875 L 8.6875 -5.96875 C 8.734375 -5.484375 8.765625 -4.984375 8.765625 -4.484375 C 8.765625 -3.96875 8.734375 -3.46875 8.6875 -2.984375 L 11.359375 -2.984375 C 11.5 -3.46875 11.5625 -3.96875 11.5625 -4.484375 C 11.5625 -4.984375 11.5 -5.484375 11.359375 -5.96875 Z M 2.796875 -4.484375 C 2.796875 -4.984375 2.828125 -5.484375 2.875 -5.96875 L 0.203125 -5.96875 C 0.078125 -5.484375 0 -4.984375 0 -4.484375 C 0 -3.96875 0.078125 -3.46875 0.203125 -2.984375 L 2.875 -2.984375 C 2.828125 -3.46875 2.796875 -3.96875 2.796875 -4.484375 Z M 3.71875 -2.25 C 4.0625 -0.171875 4.84375 1.296875 5.78125 1.296875 C 6.703125 1.296875 7.515625 -0.171875 7.84375 -2.25 Z M 7.4375 1.0625 C 9.09375 0.578125 10.453125 -0.65625 11.109375 -2.25 L 8.59375 -2.25 C 8.390625 -0.921875 8.015625 0.28125 7.4375 1.0625 Z M 0.453125 -2.25 C 1.125 -0.65625 2.453125 0.578125 4.125 1.0625 C 3.5625 0.28125 3.171875 -0.921875 2.96875 -2.25 Z M 0.453125 -2.25 "/>
</g>
<g id="glyph-1-0">
<path d="M 4.1875 0.140625 C 5.171875 0.140625 6.03125 -0.234375 6.703125 -1 L 5.734375 -2.09375 C 5.375 -1.703125 4.875 -1.453125 4.25 -1.453125 C 3.15625 -1.453125 2.4375 -2.359375 2.4375 -3.90625 C 2.4375 -5.40625 3.265625 -6.3125 4.28125 -6.3125 C 4.828125 -6.3125 5.234375 -6.140625 5.625 -5.78125 L 6.59375 -6.90625 C 6.0625 -7.46875 5.25 -7.921875 4.234375 -7.921875 C 2.28125 -7.921875 0.53125 -6.421875 0.53125 -3.828125 C 0.53125 -1.203125 2.203125 0.140625 4.1875 0.140625 Z M 4.1875 0.140625 "/>
</g>
<g id="glyph-1-1">
<path d="M 2.78125 -3.890625 C 2.984375 -4.65625 3.1875 -5.578125 3.375 -6.390625 L 3.421875 -6.390625 C 3.625 -5.578125 3.828125 -4.65625 4.03125 -3.890625 L 4.203125 -3.21875 L 2.609375 -3.21875 Z M -0.09375 0 L 1.796875 0 L 2.25 -1.796875 L 4.5625 -1.796875 L 5.015625 0 L 6.96875 0 L 4.546875 -7.765625 L 2.328125 -7.765625 Z M -0.09375 0 "/>
</g>
<g id="glyph-1-2">
<path d="M 0.75 0 L 2.59375 0 L 2.59375 -3.390625 C 2.90625 -4.171875 3.4375 -4.46875 3.875 -4.46875 C 4.140625 -4.46875 4.28125 -4.4375 4.484375 -4.390625 L 4.828125 -5.953125 C 4.671875 -6.046875 4.46875 -6.078125 4.125 -6.078125 C 3.515625 -6.078125 2.859375 -5.703125 2.4375 -4.90625 L 2.390625 -4.90625 L 2.25 -5.9375 L 0.75 -5.9375 Z M 0.75 0 "/>
</g>
<g id="glyph-1-3">
<path d="M 2.25 0.140625 C 2.921875 0.140625 3.46875 -0.15625 3.953125 -0.59375 L 4 -0.59375 L 4.125 0 L 5.640625 0 L 5.640625 -3.359375 C 5.640625 -5.234375 4.78125 -6.078125 3.25 -6.078125 C 2.3125 -6.078125 1.46875 -5.78125 0.6875 -5.296875 L 1.34375 -4.109375 C 1.9375 -4.4375 2.40625 -4.609375 2.890625 -4.609375 C 3.5 -4.609375 3.75 -4.328125 3.796875 -3.828125 C 1.453125 -3.59375 0.484375 -2.90625 0.484375 -1.65625 C 0.484375 -0.671875 1.171875 0.140625 2.25 0.140625 Z M 2.890625 -1.296875 C 2.484375 -1.296875 2.25 -1.453125 2.25 -1.796875 C 2.25 -2.21875 2.609375 -2.546875 3.796875 -2.703125 L 3.796875 -1.75 C 3.515625 -1.46875 3.265625 -1.296875 2.890625 -1.296875 Z M 2.890625 -1.296875 "/>
</g>
<g id="glyph-1-4">
<path d="M 3.359375 0.140625 C 4 0.140625 4.75 -0.03125 5.328125 -0.5625 L 4.609375 -1.71875 C 4.3125 -1.5 3.96875 -1.34375 3.578125 -1.34375 C 2.859375 -1.34375 2.296875 -1.984375 2.296875 -2.96875 C 2.296875 -3.953125 2.8125 -4.59375 3.640625 -4.59375 C 3.90625 -4.59375 4.125 -4.515625 4.40625 -4.3125 L 5.265625 -5.4375 C 4.828125 -5.828125 4.265625 -6.078125 3.53125 -6.078125 C 1.890625 -6.078125 0.421875 -4.9375 0.421875 -2.96875 C 0.421875 -1 1.6875 0.140625 3.359375 0.140625 Z M 3.359375 0.140625 "/>
</g>
<g id="glyph-1-5">
<path d="M 0.75 0 L 2.59375 0 L 2.59375 -5.9375 L 0.75 -5.9375 Z M 1.671875 -6.765625 C 2.28125 -6.765625 2.703125 -7.140625 2.703125 -7.71875 C 2.703125 -8.296875 2.28125 -8.671875 1.671875 -8.671875 C 1.0625 -8.671875 0.625 -8.296875 0.625 -7.71875 C 0.625 -7.140625 1.0625 -6.765625 1.671875 -6.765625 Z M 1.671875 -6.765625 "/>
</g>
<g id="glyph-1-6">
<path d="M 0.75 0 L 2.59375 0 L 2.59375 -3.96875 C 2.953125 -4.3125 3.21875 -4.515625 3.625 -4.515625 C 4.109375 -4.515625 4.328125 -4.265625 4.328125 -3.4375 L 4.328125 0 L 6.171875 0 L 6.171875 -3.671875 C 6.171875 -5.15625 5.625 -6.078125 4.328125 -6.078125 C 3.515625 -6.078125 2.921875 -5.671875 2.4375 -5.1875 L 2.390625 -5.1875 L 2.25 -5.9375 L 0.75 -5.9375 Z M 0.75 0 "/>
</g>
<g id="glyph-1-7">
<path d="M 3.421875 0.140625 C 4.125 0.140625 4.9375 -0.078125 5.5625 -0.53125 L 4.96875 -1.640625 C 4.546875 -1.390625 4.125 -1.265625 3.6875 -1.265625 C 2.9375 -1.265625 2.375 -1.609375 2.203125 -2.40625 L 5.703125 -2.40625 C 5.734375 -2.578125 5.78125 -2.890625 5.78125 -3.21875 C 5.78125 -4.828125 4.9375 -6.078125 3.21875 -6.078125 C 1.796875 -6.078125 0.421875 -4.890625 0.421875 -2.96875 C 0.421875 -0.984375 1.734375 0.140625 3.421875 0.140625 Z M 2.1875 -3.65625 C 2.296875 -4.34375 2.75 -4.671875 3.265625 -4.671875 C 3.9375 -4.671875 4.203125 -4.234375 4.203125 -3.65625 Z M 2.1875 -3.65625 "/>
</g>
<g id="glyph-1-8">
<path d="M 3.078125 0.140625 C 3.671875 0.140625 4.125 0.03125 4.421875 -0.09375 L 4.140625 -1.390625 C 3.984375 -1.328125 3.78125 -1.296875 3.59375 -1.296875 C 3.15625 -1.296875 2.84375 -1.546875 2.84375 -2.21875 L 2.84375 -4.484375 L 4.234375 -4.484375 L 4.234375 -5.9375 L 2.84375 -5.9375 L 2.84375 -7.75 L 1.3125 -7.75 L 1.09375 -5.9375 L 0.1875 -5.875 L 0.1875 -4.484375 L 0.984375 -4.484375 L 0.984375 -2.203125 C 0.984375 -0.796875 1.59375 0.140625 3.078125 0.140625 Z M 3.078125 0.140625 "/>
</g>
<g id="glyph-1-9">
<path d="M 0.75 0 L 2.59375 0 L 2.59375 -3.96875 C 2.953125 -4.328125 3.265625 -4.515625 3.546875 -4.515625 C 4.015625 -4.515625 4.234375 -4.265625 4.234375 -3.4375 L 4.234375 0 L 6.09375 0 L 6.09375 -3.96875 C 6.453125 -4.328125 6.75 -4.515625 7.046875 -4.515625 C 7.515625 -4.515625 7.734375 -4.265625 7.734375 -3.4375 L 7.734375 0 L 9.578125 0 L 9.578125 -3.671875 C 9.578125 -5.15625 9 -6.078125 7.71875 -6.078125 C 6.921875 -6.078125 6.375 -5.625 5.859375 -5.09375 C 5.5625 -5.734375 5.046875 -6.078125 4.21875 -6.078125 C 3.4375 -6.078125 2.90625 -5.671875 2.4375 -5.1875 L 2.390625 -5.1875 L 2.25 -5.9375 L 0.75 -5.9375 Z M 0.75 0 "/>
</g>
<g id="glyph-1-10">
<path d="M 3.421875 0.140625 C 4.125 0.140625 4.9375 -0.078125 5.5625 -0.53125 L 4.96875 -1.640625 C 4.546875 -1.390625 4.125 -1.265625 3.6875 -1.265625 C 2.9375 -1.265625 2.375 -1.609375 2.203125 -2.40625 L 5.703125 -2.40625 C 5.734375 -2.578125 5.78125 -2.890625 5.78125 -3.21875 C 5.78125 -4.828125 4.9375 -6.078125 3.21875 -6.078125 C 1.796875 -6.078125 0.421875 -4.890625 0.421875 -2.96875 C 0.421875 -0.984375 1.734375 0.140625 3.421875 0.140625 Z M 2.1875 -3.65625 C 2.296875 -4.34375 2.75 -4.671875 3.265625 -4.671875 C 3.9375 -4.671875 4.203125 -4.234375 4.203125 -3.65625 Z M 2.734375 -6.828125 L 5.359375 -8.703125 L 4.3125 -9.9375 L 1.8125 -7.734375 Z M 2.734375 -6.828125 "/>
</g>
<g id="glyph-1-11">
<path d="M 2.875 0.140625 C 3.4375 0.140625 4.015625 -0.15625 4.4375 -0.578125 L 4.484375 -0.578125 L 4.609375 0 L 6.125 0 L 6.125 -8.34375 L 4.28125 -8.34375 L 4.28125 -6.34375 L 4.328125 -5.46875 C 3.953125 -5.84375 3.5625 -6.078125 2.90625 -6.078125 C 1.671875 -6.078125 0.453125 -4.90625 0.453125 -2.96875 C 0.453125 -1.03125 1.40625 0.140625 2.875 0.140625 Z M 3.359375 -1.375 C 2.734375 -1.375 2.359375 -1.84375 2.359375 -2.984375 C 2.359375 -4.09375 2.8125 -4.578125 3.34375 -4.578125 C 3.640625 -4.578125 3.984375 -4.484375 4.28125 -4.21875 L 4.28125 -1.859375 C 4 -1.5 3.71875 -1.375 3.359375 -1.375 Z M 3.359375 -1.375 "/>
</g>
<g id="glyph-1-12">
<path d="M 1.0625 0 L 2.90625 0 L 2.90625 -4.484375 L 3.96875 -4.484375 L 3.96875 -5.9375 L 2.90625 -5.9375 L 2.90625 -6.234375 C 2.90625 -6.8125 3.15625 -7.046875 3.5625 -7.046875 C 3.765625 -7.046875 3.96875 -7.015625 4.171875 -6.953125 L 4.515625 -8.265625 C 4.25 -8.375 3.8125 -8.484375 3.3125 -8.484375 C 1.640625 -8.484375 1.0625 -7.421875 1.0625 -6.171875 L 1.0625 -5.921875 L 0.28125 -5.875 L 0.28125 -4.484375 L 1.0625 -4.484375 Z M 1.0625 0 "/>
</g>
<g id="glyph-1-13">
<path d="M 2.546875 0.140625 C 3.34375 0.140625 3.90625 -0.234375 4.390625 -0.8125 L 4.4375 -0.8125 L 4.578125 0 L 6.078125 0 L 6.078125 -5.9375 L 4.21875 -5.9375 L 4.21875 -2.046875 C 3.90625 -1.59375 3.65625 -1.4375 3.234375 -1.4375 C 2.75 -1.4375 2.546875 -1.671875 2.546875 -2.5 L 2.546875 -5.9375 L 0.6875 -5.9375 L 0.6875 -2.25 C 0.6875 -0.78125 1.234375 0.140625 2.546875 0.140625 Z M 2.546875 0.140625 "/>
</g>
<g id="glyph-1-14">
<path d="M 2.4375 0.140625 C 2.84375 0.140625 3.15625 0.078125 3.359375 -0.015625 L 3.140625 -1.375 C 3.046875 -1.34375 3 -1.34375 2.921875 -1.34375 C 2.78125 -1.34375 2.59375 -1.46875 2.59375 -1.84375 L 2.59375 -8.34375 L 0.75 -8.34375 L 0.75 -1.921875 C 0.75 -0.6875 1.171875 0.140625 2.4375 0.140625 Z M 2.4375 0.140625 "/>
</g>
<g id="glyph-1-15">
<path d="M 0.890625 0 L 2.65625 0 L 2.65625 -2.609375 C 2.65625 -3.546875 2.515625 -4.625 2.421875 -5.484375 L 2.46875 -5.484375 C 2.703125 -4.875 2.953125 -4.25 3.21875 -3.71875 L 5.140625 0 L 7.0625 0 L 7.0625 -7.765625 L 5.296875 -7.765625 L 5.296875 -5.15625 C 5.296875 -4.234375 5.4375 -3.125 5.53125 -2.296875 L 5.484375 -2.296875 C 5.25 -2.90625 5 -3.515625 4.734375 -4.046875 L 2.8125 -7.765625 L 0.890625 -7.765625 Z M 0.890625 0 "/>
</g>
<g id="glyph-1-16">
<path d="M 2.125 0 L 4.265625 0 L 6.171875 -5.9375 L 4.40625 -5.9375 L 3.671875 -3.203125 C 3.53125 -2.609375 3.375 -2 3.21875 -1.375 L 3.171875 -1.375 C 3.03125 -2 2.875 -2.609375 2.734375 -3.203125 L 2 -5.9375 L 0.140625 -5.9375 Z M 2.125 0 "/>
</g>
<g id="glyph-1-17">
<path d="M 2.875 2.5 C 4.9375 2.5 6.25 1.609375 6.25 0.359375 C 6.25 -0.71875 5.421875 -1.15625 3.953125 -1.15625 L 3.015625 -1.15625 C 2.375 -1.15625 2.140625 -1.296875 2.140625 -1.578125 C 2.140625 -1.765625 2.203125 -1.859375 2.328125 -1.984375 C 2.59375 -1.90625 2.828125 -1.875 3.03125 -1.875 C 4.34375 -1.875 5.390625 -2.484375 5.390625 -3.875 C 5.390625 -4.15625 5.3125 -4.421875 5.21875 -4.59375 L 6.140625 -4.59375 L 6.140625 -5.9375 L 3.96875 -5.9375 C 3.6875 -6.03125 3.359375 -6.078125 3.03125 -6.078125 C 1.75 -6.078125 0.546875 -5.375 0.546875 -3.921875 C 0.546875 -3.234375 0.9375 -2.6875 1.34375 -2.40625 L 1.34375 -2.359375 C 0.96875 -2.078125 0.6875 -1.640625 0.6875 -1.234375 C 0.6875 -0.734375 0.921875 -0.4375 1.234375 -0.21875 L 1.234375 -0.171875 C 0.6875 0.125 0.390625 0.515625 0.390625 1 C 0.390625 2.0625 1.5 2.5 2.875 2.5 Z M 3.03125 -2.984375 C 2.609375 -2.984375 2.28125 -3.3125 2.28125 -3.921875 C 2.28125 -4.53125 2.59375 -4.84375 3.03125 -4.84375 C 3.46875 -4.84375 3.78125 -4.53125 3.78125 -3.921875 C 3.78125 -3.3125 3.46875 -2.984375 3.03125 -2.984375 Z M 3.171875 1.34375 C 2.40625 1.34375 1.90625 1.140625 1.90625 0.703125 C 1.90625 0.515625 2 0.34375 2.203125 0.171875 C 2.375 0.234375 2.609375 0.25 3.03125 0.25 L 3.609375 0.25 C 4.171875 0.25 4.484375 0.328125 4.484375 0.6875 C 4.484375 1.0625 3.921875 1.34375 3.171875 1.34375 Z M 3.171875 1.34375 "/>
</g>
<g id="glyph-2-0">
<path d="M 2.765625 0.125 C 3.421875 0.125 3.9375 -0.078125 4.359375 -0.375 L 4.078125 -0.90625 C 3.734375 -0.671875 3.328125 -0.546875 2.859375 -0.546875 C 1.953125 -0.546875 1.34375 -1.203125 1.265625 -2.203125 L 4.515625 -2.203125 C 4.546875 -2.359375 4.5625 -2.5 4.5625 -2.6875 C 4.5625 -4.078125 3.859375 -4.953125 2.625 -4.953125 C 1.515625 -4.953125 0.453125 -3.984375 0.453125 -2.421875 C 0.453125 -0.8125 1.46875 0.125 2.765625 0.125 Z M 1.265625 -2.828125 C 1.375 -3.75 1.96875 -4.296875 2.640625 -4.296875 C 3.375 -4.296875 3.828125 -3.78125 3.828125 -2.828125 Z M 1.265625 -2.828125 "/>
</g>
<g id="glyph-2-1">
<path d="M 0.140625 0 L 1 0 L 1.65625 -1.125 C 1.8125 -1.40625 1.984375 -1.703125 2.140625 -1.984375 L 2.171875 -1.984375 C 2.359375 -1.703125 2.53125 -1.40625 2.703125 -1.125 L 3.40625 0 L 4.296875 0 L 2.734375 -2.4375 L 4.1875 -4.828125 L 3.328125 -4.828125 L 2.75 -3.78125 C 2.59375 -3.515625 2.453125 -3.234375 2.3125 -2.96875 L 2.265625 -2.96875 C 2.109375 -3.234375 1.953125 -3.515625 1.796875 -3.78125 L 1.15625 -4.828125 L 0.265625 -4.828125 L 1.71875 -2.53125 Z M 0.140625 0 "/>
</g>
<g id="glyph-2-2">
<path d="M 1.25 0.125 C 1.5625 0.125 1.84375 -0.140625 1.84375 -0.5 C 1.84375 -0.890625 1.5625 -1.140625 1.25 -1.140625 C 0.921875 -1.140625 0.640625 -0.890625 0.640625 -0.5 C 0.640625 -0.140625 0.921875 0.125 1.25 0.125 Z M 1.25 0.125 "/>
</g>
<g id="glyph-2-3">
<path d="M 0.890625 0 L 1.734375 0 L 1.734375 -6.515625 L 0.890625 -6.515625 Z M 0.890625 0 "/>
</g>
<g id="glyph-2-4">
<path d="M 2.703125 0.125 C 4.078125 0.125 4.921875 -0.703125 4.921875 -1.734375 C 4.921875 -2.703125 4.34375 -3.15625 3.59375 -3.484375 L 2.65625 -3.890625 C 2.140625 -4.09375 1.578125 -4.328125 1.578125 -4.953125 C 1.578125 -5.53125 2.0625 -5.90625 2.78125 -5.90625 C 3.34375 -5.90625 3.859375 -5.671875 4.25 -5.296875 L 4.703125 -5.859375 C 4.25 -6.3125 3.578125 -6.640625 2.78125 -6.640625 C 1.59375 -6.640625 0.734375 -5.90625 0.734375 -4.90625 C 0.734375 -3.9375 1.4375 -3.484375 2.046875 -3.234375 L 2.984375 -2.8125 C 3.59375 -2.546875 4.078125 -2.328125 4.078125 -1.671875 C 4.078125 -1.046875 3.5625 -0.609375 2.71875 -0.609375 C 2.03125 -0.609375 1.359375 -0.921875 0.890625 -1.40625 L 0.421875 -0.859375 C 0.984375 -0.25 1.765625 0.125 2.703125 0.125 Z M 2.703125 0.125 "/>
</g>
<g id="glyph-2-5">
<path d="M 0.890625 0 L 1.734375 0 L 1.734375 -2.75 L 2.90625 -2.75 L 4.46875 0 L 5.421875 0 L 3.75 -2.84375 C 4.640625 -3.078125 5.21875 -3.671875 5.21875 -4.6875 C 5.21875 -6.046875 4.265625 -6.515625 2.9375 -6.515625 L 0.890625 -6.515625 Z M 1.734375 -3.421875 L 1.734375 -5.84375 L 2.8125 -5.84375 C 3.828125 -5.84375 4.375 -5.53125 4.375 -4.6875 C 4.375 -3.84375 3.828125 -3.421875 2.8125 -3.421875 Z M 1.734375 -3.421875 "/>
</g>
<g id="glyph-2-6">
<path d="M 3.453125 0.125 C 4.328125 0.125 5.046875 -0.203125 5.46875 -0.640625 L 5.46875 -3.375 L 3.328125 -3.375 L 3.328125 -2.6875 L 4.703125 -2.6875 L 4.703125 -1 C 4.453125 -0.75 4 -0.609375 3.53125 -0.609375 C 2.140625 -0.609375 1.375 -1.640625 1.375 -3.28125 C 1.375 -4.90625 2.21875 -5.90625 3.53125 -5.90625 C 4.1875 -5.90625 4.59375 -5.65625 4.921875 -5.3125 L 5.390625 -5.828125 C 5.015625 -6.234375 4.40625 -6.640625 3.515625 -6.640625 C 1.78125 -6.640625 0.515625 -5.359375 0.515625 -3.265625 C 0.515625 -1.140625 1.734375 0.125 3.453125 0.125 Z M 3.453125 0.125 "/>
</g>
<g id="glyph-2-7">
<path d="M 2.6875 0.125 C 3.875 0.125 4.9375 -0.8125 4.9375 -2.40625 C 4.9375 -4.03125 3.875 -4.953125 2.6875 -4.953125 C 1.515625 -4.953125 0.453125 -4.03125 0.453125 -2.40625 C 0.453125 -0.8125 1.515625 0.125 2.6875 0.125 Z M 2.6875 -0.5625 C 1.875 -0.5625 1.3125 -1.296875 1.3125 -2.40625 C 1.3125 -3.515625 1.875 -4.265625 2.6875 -4.265625 C 3.53125 -4.265625 4.078125 -3.515625 4.078125 -2.40625 C 4.078125 -1.296875 3.53125 -0.5625 2.6875 -0.5625 Z M 2.6875 -0.5625 "/>
</g>
<g id="glyph-2-8">
<path d="M 2.328125 0.125 C 2.65625 0.125 2.984375 0.03125 3.25 -0.09375 L 3.078125 -0.671875 C 2.875 -0.59375 2.703125 -0.5625 2.53125 -0.5625 C 1.984375 -0.5625 1.78125 -0.890625 1.78125 -1.484375 L 1.78125 -4.15625 L 3.09375 -4.15625 L 3.09375 -4.828125 L 1.78125 -4.828125 L 1.78125 -6.375 L 1.09375 -6.375 L 1 -4.828125 L 0.234375 -4.78125 L 0.234375 -4.15625 L 0.953125 -4.15625 L 0.953125 -1.5 C 0.953125 -0.53125 1.296875 0.125 2.328125 0.125 Z M 2.328125 0.125 "/>
</g>
<g id="glyph-2-9">
<path d="M 0.15625 0 L 1.03125 0 L 1.96875 -1.75 C 2.140625 -2.078125 2.296875 -2.40625 2.484375 -2.796875 L 2.53125 -2.796875 C 2.734375 -2.40625 2.90625 -2.078125 3.078125 -1.75 L 4.03125 0 L 4.953125 0 L 3.0625 -3.328125 L 4.84375 -6.515625 L 3.953125 -6.515625 L 3.09375 -4.859375 C 2.9375 -4.5625 2.796875 -4.296875 2.640625 -3.90625 L 2.59375 -3.90625 C 2.390625 -4.296875 2.25 -4.5625 2.09375 -4.859375 L 1.203125 -6.515625 L 0.28125 -6.515625 L 2.046875 -3.375 Z M 0.15625 0 "/>
</g>
<g id="glyph-2-10">
<path d="M 0.78125 0 L 4.359375 0 L 4.359375 -0.6875 L 3.0625 -0.6875 L 3.0625 -6.34375 L 2.421875 -6.34375 C 2.078125 -6.125 1.65625 -5.96875 1.078125 -5.875 L 1.078125 -5.34375 L 2.234375 -5.34375 L 2.234375 -0.6875 L 0.78125 -0.6875 Z M 0.78125 0 "/>
</g>
<g id="glyph-2-11">
<path d="M 1.921875 0.125 C 2.53125 0.125 3.0625 -0.1875 3.515625 -0.578125 L 3.546875 -0.578125 L 3.625 0 L 4.296875 0 L 4.296875 -2.96875 C 4.296875 -4.15625 3.796875 -4.953125 2.625 -4.953125 C 1.84375 -4.953125 1.171875 -4.625 0.71875 -4.328125 L 1.046875 -3.765625 C 1.421875 -4.015625 1.921875 -4.265625 2.484375 -4.265625 C 3.265625 -4.265625 3.46875 -3.671875 3.484375 -3.078125 C 1.40625 -2.84375 0.515625 -2.328125 0.515625 -1.25 C 0.515625 -0.375 1.125 0.125 1.921875 0.125 Z M 2.15625 -0.5625 C 1.6875 -0.5625 1.328125 -0.765625 1.328125 -1.296875 C 1.328125 -1.921875 1.84375 -2.296875 3.484375 -2.484375 L 3.484375 -1.171875 C 3.015625 -0.765625 2.625 -0.5625 2.15625 -0.5625 Z M 2.15625 -0.5625 "/>
</g>
<g id="glyph-2-12">
<path d="M 2.21875 0.125 C 2.890625 0.125 3.375 -0.234375 3.8125 -0.75 L 3.84375 -0.75 L 3.921875 0 L 4.59375 0 L 4.59375 -4.828125 L 3.765625 -4.828125 L 3.765625 -1.40625 C 3.3125 -0.84375 2.96875 -0.59375 2.484375 -0.59375 C 1.84375 -0.59375 1.5625 -0.984375 1.5625 -1.875 L 1.5625 -4.828125 L 0.75 -4.828125 L 0.75 -1.765625 C 0.75 -0.53125 1.203125 0.125 2.21875 0.125 Z M 2.21875 0.125 "/>
</g>
<g id="glyph-2-13">
<path d="M 0.40625 -2.171875 L 2.6875 -2.171875 L 2.6875 -2.8125 L 0.40625 -2.8125 Z M 0.40625 -2.171875 "/>
</g>
<g id="glyph-2-14">
<path d="M 2.078125 0.125 C 3.21875 0.125 3.84375 -0.53125 3.84375 -1.328125 C 3.84375 -2.203125 3.125 -2.53125 2.359375 -2.796875 C 1.765625 -3 1.34375 -3.1875 1.34375 -3.625 C 1.34375 -3.96875 1.609375 -4.3125 2.21875 -4.3125 C 2.65625 -4.3125 3 -4.171875 3.34375 -3.921875 L 3.71875 -4.40625 C 3.34375 -4.71875 2.828125 -4.953125 2.21875 -4.953125 C 1.15625 -4.953125 0.546875 -4.359375 0.546875 -3.578125 C 0.546875 -2.78125 1.25 -2.4375 1.96875 -2.171875 C 2.515625 -1.984375 3.046875 -1.765625 3.046875 -1.265625 C 3.046875 -0.859375 2.75 -0.53125 2.109375 -0.53125 C 1.515625 -0.53125 1.078125 -0.703125 0.65625 -1.046875 L 0.28125 -0.578125 C 0.71875 -0.140625 1.375 0.125 2.078125 0.125 Z M 2.078125 0.125 "/>
</g>
<g id="glyph-2-15">
<path d="M 0.8125 0 L 1.640625 0 L 1.640625 -4.828125 L 0.8125 -4.828125 Z M 1.234375 -5.828125 C 1.546875 -5.828125 1.78125 -6.03125 1.78125 -6.359375 C 1.78125 -6.671875 1.546875 -6.890625 1.234375 -6.890625 C 0.921875 -6.890625 0.6875 -6.671875 0.6875 -6.359375 C 0.6875 -6.03125 0.921875 -5.828125 1.234375 -5.828125 Z M 1.234375 -5.828125 "/>
</g>
<g id="glyph-2-16">
<path d="M 2.4375 2.21875 C 3.9375 2.21875 4.890625 1.453125 4.890625 0.546875 C 4.890625 -0.25 4.328125 -0.609375 3.203125 -0.609375 L 2.265625 -0.609375 C 1.625 -0.609375 1.421875 -0.828125 1.421875 -1.125 C 1.421875 -1.390625 1.546875 -1.546875 1.734375 -1.703125 C 1.953125 -1.59375 2.203125 -1.53125 2.4375 -1.53125 C 3.421875 -1.53125 4.21875 -2.171875 4.21875 -3.203125 C 4.21875 -3.625 4.046875 -3.96875 3.828125 -4.1875 L 4.8125 -4.1875 L 4.8125 -4.828125 L 3.125 -4.828125 C 2.953125 -4.90625 2.71875 -4.953125 2.4375 -4.953125 C 1.453125 -4.953125 0.625 -4.28125 0.625 -3.234375 C 0.625 -2.65625 0.9375 -2.1875 1.25 -1.921875 L 1.25 -1.890625 C 1 -1.71875 0.71875 -1.40625 0.71875 -1 C 0.71875 -0.609375 0.921875 -0.359375 1.15625 -0.203125 L 1.15625 -0.171875 C 0.71875 0.125 0.453125 0.515625 0.453125 0.921875 C 0.453125 1.765625 1.265625 2.21875 2.4375 2.21875 Z M 2.4375 -2.09375 C 1.890625 -2.09375 1.421875 -2.53125 1.421875 -3.234375 C 1.421875 -3.9375 1.875 -4.359375 2.4375 -4.359375 C 3.015625 -4.359375 3.46875 -3.921875 3.46875 -3.234375 C 3.46875 -2.53125 3 -2.09375 2.4375 -2.09375 Z M 2.5625 1.65625 C 1.6875 1.65625 1.15625 1.328125 1.15625 0.8125 C 1.15625 0.53125 1.3125 0.25 1.65625 0 C 1.875 0.0625 2.09375 0.078125 2.28125 0.078125 L 3.109375 0.078125 C 3.75 0.078125 4.078125 0.234375 4.078125 0.671875 C 4.078125 1.171875 3.484375 1.65625 2.5625 1.65625 Z M 2.5625 1.65625 "/>
</g>
<g id="glyph-2-17">
<path d="M 0.8125 0 L 1.640625 0 L 1.640625 -3.5 C 2.109375 -3.984375 2.46875 -4.234375 2.953125 -4.234375 C 3.59375 -4.234375 3.859375 -3.859375 3.859375 -2.953125 L 3.859375 0 L 4.6875 0 L 4.6875 -3.0625 C 4.6875 -4.296875 4.234375 -4.953125 3.203125 -4.953125 C 2.546875 -4.953125 2.046875 -4.59375 1.59375 -4.140625 L 1.5625 -4.140625 L 1.484375 -4.828125 L 0.8125 -4.828125 Z M 0.8125 0 "/>
</g>
<g id="glyph-2-18">
<path d="M 2.765625 0.125 C 3.421875 0.125 3.9375 -0.078125 4.359375 -0.375 L 4.078125 -0.90625 C 3.734375 -0.671875 3.328125 -0.546875 2.859375 -0.546875 C 1.953125 -0.546875 1.34375 -1.203125 1.265625 -2.203125 L 4.515625 -2.203125 C 4.546875 -2.359375 4.5625 -2.5 4.5625 -2.6875 C 4.5625 -4.078125 3.859375 -4.953125 2.625 -4.953125 C 1.515625 -4.953125 0.453125 -3.984375 0.453125 -2.421875 C 0.453125 -0.8125 1.46875 0.125 2.765625 0.125 Z M 1.265625 -2.828125 C 1.375 -3.75 1.96875 -4.296875 2.640625 -4.296875 C 3.375 -4.296875 3.828125 -3.78125 3.828125 -2.828125 Z M 2.203125 -5.6875 L 3.96875 -7.21875 L 3.46875 -7.765625 L 1.78125 -6.109375 Z M 2.203125 -5.6875 "/>
</g>
<g id="glyph-2-19">
<path d="M 0.671875 1.6875 C 1.484375 1.359375 1.984375 0.6875 1.984375 -0.171875 C 1.984375 -0.78125 1.71875 -1.140625 1.28125 -1.140625 C 0.953125 -1.140625 0.671875 -0.921875 0.671875 -0.5625 C 0.671875 -0.1875 0.9375 0.015625 1.265625 0.015625 C 1.296875 0.015625 1.328125 0.015625 1.375 0 C 1.375 0.53125 1.03125 0.96875 0.46875 1.21875 Z M 0.671875 1.6875 "/>
</g>
<g id="glyph-2-20">
<path d="M 0.8125 2.03125 L 1.640625 2.03125 L 1.640625 0.40625 L 1.625 -0.4375 C 2.0625 -0.09375 2.515625 0.125 2.953125 0.125 C 4.046875 0.125 5.046875 -0.84375 5.046875 -2.484375 C 5.046875 -3.984375 4.375 -4.953125 3.125 -4.953125 C 2.578125 -4.953125 2.03125 -4.640625 1.59375 -4.265625 L 1.5625 -4.265625 L 1.484375 -4.828125 L 0.8125 -4.828125 Z M 2.8125 -0.578125 C 2.5 -0.578125 2.078125 -0.703125 1.640625 -1.078125 L 1.640625 -3.59375 C 2.109375 -4.03125 2.515625 -4.25 2.921875 -4.25 C 3.828125 -4.25 4.1875 -3.546875 4.1875 -2.484375 C 4.1875 -1.296875 3.609375 -0.578125 2.8125 -0.578125 Z M 2.8125 -0.578125 "/>
</g>
<g id="glyph-2-21">
<path d="M 0.8125 0 L 1.640625 0 L 1.640625 -3.09375 C 1.96875 -3.921875 2.453125 -4.203125 2.859375 -4.203125 C 3.046875 -4.203125 3.15625 -4.1875 3.296875 -4.140625 L 3.484375 -4.84375 C 3.328125 -4.921875 3.1875 -4.953125 2.96875 -4.953125 C 2.421875 -4.953125 1.921875 -4.5625 1.59375 -3.953125 L 1.5625 -3.953125 L 1.484375 -4.828125 L 0.8125 -4.828125 Z M 0.8125 0 "/>
</g>
<g id="glyph-2-22">
<path d="M 1.671875 0.125 C 1.890625 0.125 2.03125 0.09375 2.15625 0.03125 L 2.046875 -0.59375 C 1.96875 -0.5625 1.921875 -0.5625 1.875 -0.5625 C 1.75 -0.5625 1.640625 -0.65625 1.640625 -0.921875 L 1.640625 -7.078125 L 0.8125 -7.078125 L 0.8125 -0.96875 C 0.8125 -0.28125 1.0625 0.125 1.671875 0.125 Z M 1.671875 0.125 "/>
</g>
<g id="glyph-2-23">
<path d="M 2.46875 0.125 C 3.03125 0.125 3.546875 -0.203125 3.921875 -0.5625 L 3.953125 -0.5625 L 4.03125 0 L 4.703125 0 L 4.703125 -7.078125 L 3.875 -7.078125 L 3.875 -5.21875 L 3.921875 -4.390625 C 3.484375 -4.734375 3.125 -4.953125 2.5625 -4.953125 C 1.453125 -4.953125 0.46875 -3.96875 0.46875 -2.40625 C 0.46875 -0.796875 1.25 0.125 2.46875 0.125 Z M 2.640625 -0.578125 C 1.796875 -0.578125 1.328125 -1.265625 1.328125 -2.421875 C 1.328125 -3.515625 1.9375 -4.25 2.703125 -4.25 C 3.09375 -4.25 3.46875 -4.125 3.875 -3.75 L 3.875 -1.234375 C 3.484375 -0.796875 3.09375 -0.578125 2.640625 -0.578125 Z M 2.640625 -0.578125 "/>
</g>
<g id="glyph-2-24">
<path d="M 0.8125 0 L 1.640625 0 L 1.640625 -3.5 C 2.09375 -4 2.484375 -4.234375 2.84375 -4.234375 C 3.453125 -4.234375 3.734375 -3.859375 3.734375 -2.953125 L 3.734375 0 L 4.5625 0 L 4.5625 -3.5 C 5.015625 -4 5.390625 -4.234375 5.78125 -4.234375 C 6.375 -4.234375 6.671875 -3.859375 6.671875 -2.953125 L 6.671875 0 L 7.5 0 L 7.5 -3.0625 C 7.5 -4.296875 7.015625 -4.953125 6.015625 -4.953125 C 5.4375 -4.953125 4.921875 -4.578125 4.4375 -4.03125 C 4.234375 -4.59375 3.828125 -4.953125 3.09375 -4.953125 C 2.515625 -4.953125 2.015625 -4.59375 1.59375 -4.140625 L 1.5625 -4.140625 L 1.484375 -4.828125 L 0.8125 -4.828125 Z M 0.8125 0 "/>
</g>
<g id="glyph-2-25">
<path d="M 2.71875 0.125 C 3.296875 0.125 3.84375 -0.09375 4.28125 -0.5 L 3.921875 -1.03125 C 3.640625 -0.765625 3.234375 -0.5625 2.796875 -0.5625 C 1.90625 -0.5625 1.3125 -1.296875 1.3125 -2.40625 C 1.3125 -3.515625 1.953125 -4.265625 2.828125 -4.265625 C 3.203125 -4.265625 3.515625 -4.109375 3.78125 -3.859375 L 4.1875 -4.375 C 3.859375 -4.703125 3.421875 -4.953125 2.78125 -4.953125 C 1.546875 -4.953125 0.453125 -4.03125 0.453125 -2.40625 C 0.453125 -0.8125 1.4375 0.125 2.71875 0.125 Z M 2.71875 0.125 "/>
</g>
<g id="glyph-2-26">
<path d="M 0.953125 0 L 1.78125 0 L 1.78125 -4.15625 L 2.796875 -4.15625 L 2.796875 -4.828125 L 1.78125 -4.828125 L 1.78125 -5.578125 C 1.78125 -6.203125 2 -6.53125 2.453125 -6.53125 C 2.625 -6.53125 2.796875 -6.484375 2.984375 -6.421875 L 3.171875 -7.03125 C 2.96875 -7.125 2.65625 -7.1875 2.359375 -7.1875 C 1.40625 -7.1875 0.953125 -6.5625 0.953125 -5.578125 L 0.953125 -4.828125 L 0.296875 -4.78125 L 0.296875 -4.15625 L 0.953125 -4.15625 Z M 0.953125 0 "/>
</g>
<g id="glyph-2-27">
<path d="M 0.859375 -4.265625 C 1.546875 -4.671875 1.921875 -5.25 1.921875 -6.046875 C 1.921875 -6.625 1.6875 -6.953125 1.296875 -6.953125 C 0.984375 -6.953125 0.765625 -6.734375 0.765625 -6.390625 C 0.765625 -6.0625 1.015625 -5.890625 1.296875 -5.890625 C 1.328125 -5.890625 1.34375 -5.890625 1.375 -5.890625 C 1.375 -5.34375 1.125 -4.984375 0.625 -4.65625 Z M 0.859375 -4.265625 "/>
</g>
<g id="glyph-2-28">
<path d="M 3.296875 0.125 C 4.9375 0.125 6.09375 -1.1875 6.09375 -3.296875 C 6.09375 -5.359375 4.9375 -6.640625 3.296875 -6.640625 C 1.65625 -6.640625 0.515625 -5.375 0.515625 -3.296875 C 0.515625 -1.1875 1.65625 0.125 3.296875 0.125 Z M 3.296875 -0.609375 C 2.140625 -0.609375 1.375 -1.65625 1.375 -3.296875 C 1.375 -4.90625 2.140625 -5.90625 3.296875 -5.90625 C 4.46875 -5.90625 5.234375 -4.90625 5.234375 -3.296875 C 5.234375 -1.65625 4.46875 -0.609375 3.296875 -0.609375 Z M 3.296875 -0.609375 "/>
</g>
<g id="glyph-2-29">
<path d="M 1.859375 0 L 2.828125 0 L 4.53125 -4.828125 L 3.71875 -4.828125 L 2.8125 -2.09375 C 2.65625 -1.625 2.5 -1.140625 2.359375 -0.671875 L 2.328125 -0.671875 C 2.171875 -1.140625 2.03125 -1.625 1.875 -2.09375 L 0.96875 -4.828125 L 0.125 -4.828125 Z M 1.859375 0 "/>
</g>
<g id="glyph-2-30">
<path d="M 0.890625 0 L 4.578125 0 L 4.578125 -0.703125 L 1.734375 -0.703125 L 1.734375 -6.515625 L 0.890625 -6.515625 Z M 0.890625 0 "/>
</g>
<g id="glyph-2-31">
<path d="M 0.890625 0 L 4.75 0 L 4.75 -0.703125 L 1.734375 -0.703125 L 1.734375 -3.078125 L 4.1875 -3.078125 L 4.1875 -3.78125 L 1.734375 -3.78125 L 1.734375 -5.8125 L 4.65625 -5.8125 L 4.65625 -6.515625 L 0.890625 -6.515625 Z M 0.890625 0 "/>
</g>
<g id="glyph-2-32">
<path d="M 0.90625 2.078125 C 1.875 2.078125 2.375 1.34375 2.71875 0.390625 L 4.53125 -4.828125 L 3.734375 -4.828125 L 2.859375 -2.171875 C 2.734375 -1.734375 2.59375 -1.25 2.46875 -0.8125 L 2.421875 -0.8125 C 2.265625 -1.25 2.109375 -1.75 1.953125 -2.171875 L 0.96875 -4.828125 L 0.125 -4.828125 L 2.0625 0.015625 L 1.953125 0.375 C 1.75 0.96875 1.40625 1.390625 0.859375 1.390625 C 0.75 1.390625 0.625 1.375 0.5 1.328125 L 0.328125 1.984375 C 0.484375 2.03125 0.671875 2.078125 0.90625 2.078125 Z M 0.90625 2.078125 "/>
</g>
<g id="glyph-2-33">
<path d="M 0.8125 0 L 1.640625 0 L 1.640625 -3.5 C 2.109375 -3.984375 2.46875 -4.234375 2.953125 -4.234375 C 3.59375 -4.234375 3.859375 -3.859375 3.859375 -2.953125 L 3.859375 0 L 4.6875 0 L 4.6875 -3.0625 C 4.6875 -4.296875 4.234375 -4.953125 3.203125 -4.953125 C 2.546875 -4.953125 2.0625 -4.59375 1.609375 -4.15625 L 1.640625 -5.140625 L 1.640625 -7.078125 L 0.8125 -7.078125 Z M 0.8125 0 "/>
</g>
<g id="glyph-2-34">
<path d="M 0.8125 0 L 1.640625 0 L 1.640625 -4.828125 L 0.8125 -4.828125 Z M 0.046875 -5.640625 L 1.21875 -6.765625 L 1.25 -6.765625 L 2.421875 -5.640625 L 2.765625 -5.96875 L 1.65625 -7.359375 L 0.8125 -7.359375 L -0.3125 -5.96875 Z M 0.046875 -5.640625 "/>
</g>
<g id="glyph-3-0">
<path d="M 4.328125 -1.515625 C 4.328125 -1.8125 4.09375 -1.8125 4 -1.8125 C 3.953125 -1.8125 3.6875 -1.8125 3.671875 -1.578125 C 3.59375 -0.5 2.65625 -0.484375 2.5625 -0.484375 C 1.75 -0.484375 1.015625 -1.4375 1.015625 -2.734375 C 1.015625 -4.0625 1.78125 -4.984375 2.546875 -4.984375 C 2.75 -4.984375 3.5 -4.90625 3.671875 -3.796875 C 3.703125 -3.578125 3.9375 -3.578125 4 -3.578125 C 4.328125 -3.578125 4.328125 -3.78125 4.328125 -3.953125 L 4.328125 -5.1875 C 4.328125 -5.328125 4.328125 -5.5625 4.046875 -5.5625 C 3.84375 -5.5625 3.796875 -5.46875 3.65625 -5.15625 C 3.453125 -5.328125 3.046875 -5.5625 2.515625 -5.5625 C 1.359375 -5.5625 0.359375 -4.34375 0.359375 -2.734375 C 0.359375 -1.125 1.34375 0.09375 2.53125 0.09375 C 3.53125 0.09375 4.328125 -0.65625 4.328125 -1.515625 Z M 4.328125 -1.515625 "/>
</g>
<g id="glyph-3-1">
<path d="M 4.46875 -5.171875 C 4.46875 -5.46875 4.234375 -5.46875 4.09375 -5.46875 L 3.125 -5.46875 C 2.984375 -5.46875 2.75 -5.46875 2.75 -5.1875 C 2.75 -4.890625 2.984375 -4.890625 3.125 -4.890625 L 3.34375 -4.890625 L 3.34375 -0.6875 L 3.328125 -0.6875 L 2.90625 -1.9375 L 1.75 -5.125 C 1.625 -5.46875 1.4375 -5.46875 1.234375 -5.46875 L 0.59375 -5.46875 C 0.46875 -5.46875 0.21875 -5.46875 0.21875 -5.1875 C 0.21875 -4.890625 0.453125 -4.890625 0.59375 -4.890625 L 0.8125 -4.890625 L 0.8125 -0.578125 L 0.59375 -0.578125 C 0.46875 -0.578125 0.21875 -0.578125 0.21875 -0.296875 C 0.21875 0 0.453125 0 0.59375 0 L 1.5625 0 C 1.703125 0 1.9375 0 1.9375 -0.28125 C 1.9375 -0.578125 1.703125 -0.578125 1.5625 -0.578125 L 1.359375 -0.578125 L 1.359375 -4.78125 L 1.796875 -3.53125 L 2.953125 -0.34375 C 3.078125 0 3.265625 0 3.46875 0 C 3.71875 0 3.875 -0.015625 3.875 -0.375 L 3.875 -4.890625 L 4.09375 -4.890625 C 4.21875 -4.890625 4.46875 -4.890625 4.46875 -5.171875 Z M 4.46875 -5.171875 "/>
</g>
<g id="glyph-3-2">
<path d="M 4.359375 -3.40625 C 4.359375 -3.75 4.015625 -3.75 3.890625 -3.75 L 0.8125 -3.75 C 0.6875 -3.75 0.328125 -3.75 0.328125 -3.40625 C 0.328125 -3.078125 0.65625 -3.078125 0.75 -3.078125 L 3.9375 -3.078125 C 4.03125 -3.078125 4.359375 -3.078125 4.359375 -3.40625 Z M 4.359375 -2.0625 C 4.359375 -2.390625 4.03125 -2.390625 3.9375 -2.390625 L 0.75 -2.390625 C 0.65625 -2.390625 0.328125 -2.390625 0.328125 -2.0625 C 0.328125 -1.71875 0.6875 -1.71875 0.8125 -1.71875 L 3.890625 -1.71875 C 4.015625 -1.71875 4.359375 -1.71875 4.359375 -2.0625 Z M 4.359375 -2.0625 "/>
</g>
<g id="glyph-3-3">
<path d="M 4.21875 -0.28125 C 4.21875 -0.578125 3.984375 -0.578125 3.84375 -0.578125 L 2.671875 -0.578125 L 2.671875 -5.09375 C 2.671875 -5.390625 2.609375 -5.46875 2.296875 -5.46875 L 0.84375 -5.46875 C 0.71875 -5.46875 0.46875 -5.46875 0.46875 -5.1875 C 0.46875 -4.890625 0.703125 -4.890625 0.84375 -4.890625 L 2.015625 -4.890625 L 2.015625 -0.578125 L 0.84375 -0.578125 C 0.71875 -0.578125 0.46875 -0.578125 0.46875 -0.296875 C 0.46875 0 0.703125 0 0.84375 0 L 3.84375 0 C 3.96875 0 4.21875 0 4.21875 -0.28125 Z M 4.21875 -0.28125 "/>
</g>
<g id="glyph-3-4">
<path d="M 4.125 -0.28125 C 4.125 -0.578125 3.875 -0.578125 3.734375 -0.578125 L 2.796875 -0.578125 L 2.796875 -3.484375 C 2.796875 -3.78125 2.71875 -3.859375 2.421875 -3.859375 L 1.125 -3.859375 C 0.984375 -3.859375 0.734375 -3.859375 0.734375 -3.578125 C 0.734375 -3.28125 0.96875 -3.28125 1.125 -3.28125 L 2.125 -3.28125 L 2.125 -0.578125 L 1.03125 -0.578125 C 0.90625 -0.578125 0.65625 -0.578125 0.65625 -0.296875 C 0.65625 0 0.90625 0 1.03125 0 L 3.734375 0 C 3.859375 0 4.125 0 4.125 -0.28125 Z M 2.8125 -4.984375 C 2.8125 -5.234375 2.609375 -5.4375 2.359375 -5.4375 C 2.109375 -5.4375 1.890625 -5.234375 1.890625 -4.984375 C 1.890625 -4.734375 2.109375 -4.515625 2.359375 -4.515625 C 2.609375 -4.515625 2.8125 -4.734375 2.8125 -4.984375 Z M 2.8125 -4.984375 "/>
</g>
<g id="glyph-3-5">
<path d="M 4.109375 -1.125 C 4.109375 -1.5625 3.828125 -1.84375 3.609375 -1.984375 C 3.265625 -2.203125 3.03125 -2.25 2.1875 -2.375 C 1.8125 -2.4375 1.234375 -2.53125 1.234375 -2.859375 C 1.234375 -3.09375 1.515625 -3.34375 2.328125 -3.34375 C 3.140625 -3.34375 3.171875 -3.046875 3.171875 -2.84375 C 3.203125 -2.59375 3.4375 -2.59375 3.515625 -2.59375 C 3.84375 -2.59375 3.84375 -2.796875 3.84375 -2.96875 L 3.84375 -3.546875 C 3.84375 -3.6875 3.84375 -3.9375 3.546875 -3.9375 C 3.34375 -3.9375 3.296875 -3.828125 3.28125 -3.765625 C 2.9375 -3.9375 2.5 -3.9375 2.34375 -3.9375 C 0.78125 -3.9375 0.640625 -3.109375 0.640625 -2.859375 C 0.640625 -2.390625 1 -2.171875 1.109375 -2.109375 C 1.421875 -1.921875 1.671875 -1.875 2.59375 -1.734375 C 2.8125 -1.6875 3.53125 -1.578125 3.53125 -1.125 C 3.53125 -0.84375 3.265625 -0.53125 2.40625 -0.53125 C 1.859375 -0.53125 1.5 -0.71875 1.328125 -1.25 C 1.265625 -1.4375 1.234375 -1.53125 0.96875 -1.53125 C 0.640625 -1.53125 0.640625 -1.328125 0.640625 -1.140625 L 0.640625 -0.328125 C 0.640625 -0.203125 0.640625 0.046875 0.9375 0.046875 C 1.0625 0.046875 1.1875 -0.015625 1.265625 -0.265625 C 1.703125 0.046875 2.234375 0.046875 2.40625 0.046875 C 3.890625 0.046875 4.109375 -0.78125 4.109375 -1.125 Z M 4.109375 -1.125 "/>
</g>
<g id="glyph-3-6">
<path d="M 4.015625 -1.15625 C 4.015625 -1.46875 3.78125 -1.46875 3.6875 -1.46875 C 3.546875 -1.46875 3.359375 -1.453125 3.359375 -1.15625 C 3.34375 -0.734375 2.984375 -0.53125 2.671875 -0.53125 C 2.015625 -0.53125 2.015625 -1.015625 2.015625 -1.234375 L 2.015625 -3.28125 L 3.4375 -3.28125 C 3.5625 -3.28125 3.8125 -3.28125 3.8125 -3.5625 C 3.8125 -3.859375 3.578125 -3.859375 3.4375 -3.859375 L 2.015625 -3.859375 L 2.015625 -4.578125 C 2.015625 -4.75 2.015625 -4.953125 1.6875 -4.953125 C 1.359375 -4.953125 1.359375 -4.75 1.359375 -4.578125 L 1.359375 -3.859375 L 0.609375 -3.859375 C 0.46875 -3.859375 0.21875 -3.859375 0.21875 -3.5625 C 0.21875 -3.28125 0.46875 -3.28125 0.59375 -3.28125 L 1.359375 -3.28125 L 1.359375 -1.203125 C 1.359375 -0.265625 2 0.046875 2.625 0.046875 C 3.40625 0.046875 4.015625 -0.5 4.015625 -1.15625 Z M 4.015625 -1.15625 "/>
</g>
<g id="glyph-3-7">
<path d="M 3.90625 -4.953125 C 3.90625 -5.515625 3.171875 -5.515625 3.046875 -5.515625 C 2.359375 -5.515625 1.625 -5.125 1.625 -4.3125 L 1.625 -3.859375 L 0.765625 -3.859375 C 0.625 -3.859375 0.390625 -3.859375 0.390625 -3.5625 C 0.390625 -3.28125 0.625 -3.28125 0.765625 -3.28125 L 1.625 -3.28125 L 1.625 -0.578125 L 0.71875 -0.578125 C 0.59375 -0.578125 0.34375 -0.578125 0.34375 -0.296875 C 0.34375 0 0.59375 0 0.71875 0 L 3.203125 0 C 3.328125 0 3.578125 0 3.578125 -0.28125 C 3.578125 -0.578125 3.328125 -0.578125 3.203125 -0.578125 L 2.296875 -0.578125 L 2.296875 -3.28125 L 3.34375 -3.28125 C 3.46875 -3.28125 3.71875 -3.28125 3.71875 -3.5625 C 3.71875 -3.859375 3.46875 -3.859375 3.34375 -3.859375 L 2.296875 -3.859375 L 2.296875 -4.265625 C 2.296875 -4.921875 2.84375 -4.9375 3.109375 -4.9375 C 3.140625 -4.6875 3.328125 -4.546875 3.515625 -4.546875 C 3.6875 -4.546875 3.90625 -4.671875 3.90625 -4.953125 Z M 3.90625 -4.953125 "/>
</g>
<g id="glyph-3-8">
<path d="M 4.46875 -3.578125 C 4.46875 -3.859375 4.21875 -3.859375 4.078125 -3.859375 L 3.046875 -3.859375 C 2.90625 -3.859375 2.65625 -3.859375 2.65625 -3.578125 C 2.65625 -3.453125 2.703125 -3.328125 2.84375 -3.296875 C 2.890625 -3.28125 3.125 -3.28125 3.265625 -3.28125 L 2.828125 -1.9375 C 2.578125 -1.15625 2.484375 -0.859375 2.4375 -0.6875 L 2.421875 -0.6875 C 2.359375 -0.9375 2.1875 -1.40625 1.953125 -2.03125 C 1.75 -2.5625 1.6875 -2.703125 1.46875 -3.28125 C 1.609375 -3.28125 1.828125 -3.28125 1.875 -3.296875 C 2 -3.34375 2.0625 -3.4375 2.0625 -3.578125 C 2.0625 -3.859375 1.8125 -3.859375 1.65625 -3.859375 L 0.640625 -3.859375 C 0.5 -3.859375 0.234375 -3.859375 0.234375 -3.578125 C 0.234375 -3.40625 0.34375 -3.328125 0.421875 -3.296875 C 0.46875 -3.28125 0.71875 -3.28125 0.890625 -3.28125 L 2.109375 -0.140625 C 2.125 -0.109375 2.15625 0 2.15625 0 C 2.15625 0 1.953125 0.71875 1.8125 0.96875 C 1.625 1.328125 1.359375 1.4375 1.140625 1.453125 L 1.203125 1.28125 C 1.1875 0.96875 0.953125 0.875 0.796875 0.875 C 0.546875 0.875 0.390625 1.046875 0.390625 1.296875 C 0.390625 1.640625 0.65625 2.03125 1.125 2.03125 C 1.75 2.03125 2.234375 1.484375 2.5 0.703125 L 3.828125 -3.28125 C 3.984375 -3.28125 4.234375 -3.28125 4.28125 -3.296875 C 4.34375 -3.3125 4.46875 -3.375 4.46875 -3.578125 Z M 4.46875 -3.578125 "/>
</g>
<g id="glyph-3-9">
<path d="M 2.921875 -0.5625 C 2.921875 -0.890625 2.640625 -1.140625 2.359375 -1.140625 C 2.015625 -1.140625 1.78125 -0.859375 1.78125 -0.578125 C 1.78125 -0.234375 2.0625 0 2.34375 0 C 2.671875 0 2.921875 -0.28125 2.921875 -0.5625 Z M 2.921875 -0.5625 "/>
</g>
<g id="glyph-3-10">
<path d="M 4.15625 -0.96875 C 4.15625 -1.15625 4.015625 -1.25 3.828125 -1.25 C 3.703125 -1.25 3.578125 -1.25 3.5 -1.046875 C 3.28125 -0.53125 2.71875 -0.53125 2.609375 -0.53125 C 2.09375 -0.53125 1.34375 -0.84375 1.15625 -1.6875 L 3.78125 -1.6875 C 3.953125 -1.6875 4.15625 -1.6875 4.15625 -2.03125 C 4.15625 -3.078125 3.578125 -3.9375 2.421875 -3.9375 C 1.328125 -3.9375 0.46875 -3.015625 0.46875 -1.953125 C 0.46875 -0.84375 1.40625 0.046875 2.546875 0.046875 C 3.75 0.046875 4.15625 -0.765625 4.15625 -0.96875 Z M 3.46875 -2.265625 L 1.171875 -2.265625 C 1.34375 -3 1.90625 -3.34375 2.421875 -3.34375 C 3.046875 -3.34375 3.40625 -2.9375 3.46875 -2.265625 Z M 3.46875 -2.265625 "/>
</g>
<g id="glyph-3-11">
<path d="M 4.421875 -0.28125 C 4.421875 -0.578125 4.1875 -0.578125 4.046875 -0.578125 L 3.6875 -0.578125 L 2.59375 -1.984375 L 3.5625 -3.28125 L 3.921875 -3.28125 C 4.0625 -3.28125 4.296875 -3.28125 4.296875 -3.5625 C 4.296875 -3.859375 4.0625 -3.859375 3.921875 -3.859375 L 2.859375 -3.859375 C 2.71875 -3.859375 2.484375 -3.859375 2.484375 -3.578125 C 2.484375 -3.28125 2.6875 -3.28125 2.921875 -3.28125 L 2.3125 -2.4375 L 1.703125 -3.28125 C 1.921875 -3.28125 2.125 -3.28125 2.125 -3.578125 C 2.125 -3.859375 1.890625 -3.859375 1.75 -3.859375 L 0.6875 -3.859375 C 0.5625 -3.859375 0.3125 -3.859375 0.3125 -3.578125 C 0.3125 -3.28125 0.546875 -3.28125 0.6875 -3.28125 L 1.046875 -3.28125 L 2.0625 -1.984375 L 1 -0.578125 L 0.640625 -0.578125 C 0.5 -0.578125 0.265625 -0.578125 0.265625 -0.28125 C 0.265625 0 0.5 0 0.640625 0 L 1.703125 0 C 1.828125 0 2.078125 0 2.078125 -0.28125 C 2.078125 -0.578125 1.875 -0.578125 1.609375 -0.578125 L 2.3125 -1.625 L 3.046875 -0.578125 C 2.8125 -0.578125 2.609375 -0.578125 2.609375 -0.28125 C 2.609375 0 2.84375 0 2.984375 0 L 4.046875 0 C 4.1875 0 4.421875 0 4.421875 -0.28125 Z M 4.421875 -0.28125 "/>
</g>
<g id="glyph-3-12">
<path d="M 4.640625 -0.296875 C 4.640625 -0.578125 4.40625 -0.578125 4.265625 -0.578125 C 4.125 -0.578125 3.9375 -0.578125 3.765625 -0.640625 L 3.765625 -2.53125 C 3.765625 -3.234375 3.234375 -3.9375 1.984375 -3.9375 C 1.5625 -3.9375 0.65625 -3.9375 0.65625 -3.265625 C 0.65625 -3 0.859375 -2.84375 1.078125 -2.84375 C 1.21875 -2.84375 1.5 -2.890625 1.5 -3.328125 C 1.75 -3.34375 1.90625 -3.34375 1.984375 -3.34375 C 2.6875 -3.34375 3.109375 -3.046875 3.109375 -2.5 C 1.609375 -2.484375 0.4375 -2.0625 0.4375 -1.1875 C 0.4375 -0.515625 1.046875 0.046875 1.921875 0.046875 C 2.015625 0.046875 2.703125 0.046875 3.1875 -0.296875 C 3.40625 0 3.890625 0 4.1875 0 C 4.4375 0 4.640625 0 4.640625 -0.296875 Z M 3.109375 -1.265625 C 3.109375 -1.0625 3.109375 -0.875 2.75 -0.6875 C 2.421875 -0.53125 2.015625 -0.53125 1.984375 -0.53125 C 1.453125 -0.53125 1.09375 -0.828125 1.09375 -1.1875 C 1.09375 -1.625 2 -1.9375 3.109375 -1.9375 Z M 3.109375 -1.265625 "/>
</g>
<g id="glyph-3-13">
<path d="M 4.625 -0.28125 C 4.625 -0.578125 4.421875 -0.578125 4.109375 -0.578125 L 4.109375 -2.703125 C 4.109375 -2.90625 4.109375 -3.90625 3.3125 -3.90625 C 3.21875 -3.90625 2.796875 -3.90625 2.421875 -3.453125 C 2.40625 -3.484375 2.234375 -3.90625 1.75 -3.90625 C 1.546875 -3.90625 1.25 -3.828125 1 -3.59375 C 0.953125 -3.859375 0.78125 -3.859375 0.625 -3.859375 L 0.328125 -3.859375 C 0.1875 -3.859375 -0.046875 -3.859375 -0.046875 -3.578125 C -0.046875 -3.28125 0.140625 -3.28125 0.453125 -3.28125 L 0.453125 -0.578125 C 0.140625 -0.578125 -0.046875 -0.578125 -0.046875 -0.28125 C -0.046875 0 0.1875 0 0.328125 0 L 1.125 0 C 1.265625 0 1.5 0 1.5 -0.28125 C 1.5 -0.578125 1.3125 -0.578125 1 -0.578125 L 1 -2.15625 C 1 -2.90625 1.359375 -3.328125 1.71875 -3.328125 C 1.890625 -3.328125 2.015625 -3.203125 2.015625 -2.640625 L 2.015625 -0.578125 C 1.9375 -0.578125 1.671875 -0.578125 1.671875 -0.296875 C 1.671875 0 1.921875 0 2.046875 0 L 2.6875 0 C 2.8125 0 3.0625 0 3.0625 -0.28125 C 3.0625 -0.578125 2.859375 -0.578125 2.546875 -0.578125 L 2.546875 -2.15625 C 2.546875 -2.90625 2.921875 -3.328125 3.28125 -3.328125 C 3.453125 -3.328125 3.578125 -3.203125 3.578125 -2.640625 L 3.578125 -0.578125 C 3.484375 -0.578125 3.234375 -0.578125 3.234375 -0.296875 C 3.234375 0 3.46875 0 3.609375 0 L 4.25 0 C 4.375 0 4.625 0 4.625 -0.28125 Z M 4.625 -0.28125 "/>
</g>
<g id="glyph-3-14">
<path d="M 4.390625 -1.9375 C 4.390625 -3 3.609375 -3.90625 2.609375 -3.90625 C 2.1875 -3.90625 1.8125 -3.75 1.5 -3.484375 C 1.5 -3.8125 1.390625 -3.859375 1.125 -3.859375 L 0.453125 -3.859375 C 0.328125 -3.859375 0.078125 -3.859375 0.078125 -3.578125 C 0.078125 -3.28125 0.3125 -3.28125 0.453125 -3.28125 L 0.84375 -3.28125 L 0.84375 1.40625 L 0.453125 1.40625 C 0.328125 1.40625 0.078125 1.40625 0.078125 1.6875 C 0.078125 1.984375 0.3125 1.984375 0.453125 1.984375 L 1.890625 1.984375 C 2.015625 1.984375 2.28125 1.984375 2.28125 1.703125 C 2.28125 1.40625 2.03125 1.40625 1.890625 1.40625 L 1.5 1.40625 L 1.5 -0.390625 C 1.78125 -0.109375 2.125 0.046875 2.53125 0.046875 C 3.515625 0.046875 4.390625 -0.8125 4.390625 -1.9375 Z M 3.71875 -1.9375 C 3.71875 -1.140625 3.140625 -0.53125 2.484375 -0.53125 C 1.859375 -0.53125 1.5 -1.265625 1.5 -1.734375 L 1.5 -2.359375 C 1.5 -2.890625 2.03125 -3.328125 2.578125 -3.328125 C 3.203125 -3.328125 3.71875 -2.71875 3.71875 -1.9375 Z M 3.71875 -1.9375 "/>
</g>
<g id="glyph-3-15">
<path d="M 4.171875 -0.96875 C 4.171875 -1.15625 4.03125 -1.25 3.84375 -1.25 C 3.71875 -1.25 3.59375 -1.25 3.515625 -1.046875 C 3.453125 -0.90625 3.296875 -0.53125 2.671875 -0.53125 C 1.921875 -0.53125 1.296875 -1.15625 1.296875 -1.9375 C 1.296875 -2.390625 1.578125 -3.34375 2.71875 -3.34375 C 2.875 -3.34375 3 -3.34375 3.03125 -3.34375 C 3.21875 -3.328125 3.21875 -3.3125 3.234375 -3.234375 C 3.265625 -2.921875 3.5 -2.84375 3.640625 -2.84375 C 3.890625 -2.84375 4.0625 -3.015625 4.0625 -3.265625 C 4.0625 -3.9375 3.15625 -3.9375 2.734375 -3.9375 C 1.1875 -3.9375 0.640625 -2.71875 0.640625 -1.9375 C 0.640625 -0.84375 1.515625 0.046875 2.609375 0.046875 C 3.890625 0.046875 4.171875 -0.84375 4.171875 -0.96875 Z M 4.171875 -0.96875 "/>
</g>
<g id="glyph-3-16">
<path d="M 4.203125 -1.9375 C 4.203125 -3.046875 3.359375 -3.9375 2.34375 -3.9375 C 1.328125 -3.9375 0.5 -3.046875 0.5 -1.9375 C 0.5 -0.828125 1.34375 0.046875 2.34375 0.046875 C 3.34375 0.046875 4.203125 -0.828125 4.203125 -1.9375 Z M 3.53125 -2 C 3.53125 -1.1875 3 -0.53125 2.34375 -0.53125 C 1.6875 -0.53125 1.15625 -1.1875 1.15625 -2 C 1.15625 -2.796875 1.734375 -3.34375 2.34375 -3.34375 C 2.96875 -3.34375 3.53125 -2.796875 3.53125 -2 Z M 3.53125 -2 "/>
</g>
</g>
</defs>
<path fill-rule="nonzero" fill="rgb(90.194702%, 92.547607%, 96.076965%)" fill-opacity="1" stroke-width="0.69739" stroke-linecap="round" stroke-linejoin="round" stroke="rgb(12.156677%, 22.744751%, 40.783691%)" stroke-opacity="1" stroke-miterlimit="10" d="M 105.727003 31.082158 L -105.723655 31.082158 C -106.827162 31.082158 -107.719359 30.189961 -107.719359 29.090368 L -107.719359 -29.09026 C -107.719359 -30.189853 -106.827162 -31.08205 -105.723655 -31.08205 L 105.727003 -31.08205 C 106.826596 -31.08205 107.718793 -30.189853 107.718793 -29.09026 L 107.718793 29.090368 C 107.718793 30.189961 106.826596 31.082158 105.727003 31.082158 Z M 105.727003 31.082158 " transform="matrix(0.998238, 0, 0, -0.998238, 113.842079, 37.382867)"/>
<g fill="rgb(12.156677%, 22.744751%, 40.783691%)" fill-opacity="1">
<use xlink:href="#glyph-0-0" x="14.803873" y="20.256094"/>
</g>
<g fill="rgb(12.156677%, 14.118958%, 18.824768%)" fill-opacity="1">
<use xlink:href="#glyph-1-0" x="32.705278" y="20.256094"/>
<use xlink:href="#glyph-1-1" x="39.662863" y="20.256094"/>
</g>
<g fill="rgb(12.156677%, 14.118958%, 18.824768%)" fill-opacity="1">
<use xlink:href="#glyph-1-2" x="48.92373" y="20.256094"/>
</g>
<g fill="rgb(12.156677%, 14.118958%, 18.824768%)" fill-opacity="1">
<use xlink:href="#glyph-1-3" x="53.410955" y="20.256094"/>
<use xlink:href="#glyph-1-4" x="59.736032" y="20.256094"/>
<use xlink:href="#glyph-1-5" x="65.333128" y="20.256094"/>
<use xlink:href="#glyph-1-6" x="68.674678" y="20.256094"/>
<use xlink:href="#glyph-1-7" x="75.53679" y="20.256094"/>
</g>
<g fill="rgb(35.68573%, 38.430786%, 44.706726%)" fill-opacity="1">
<use xlink:href="#glyph-2-0" x="14.803873" y="37.009525"/>
</g>
<g fill="rgb(35.68573%, 38.430786%, 44.706726%)" fill-opacity="1">
<use xlink:href="#glyph-2-1" x="19.66702" y="37.009525"/>
</g>
<g fill="rgb(35.68573%, 38.430786%, 44.706726%)" fill-opacity="1">
<use xlink:href="#glyph-2-2" x="24.042859" y="37.009525"/>
</g>
<g fill="rgb(35.68573%, 38.430786%, 44.706726%)" fill-opacity="1">
<use xlink:href="#glyph-2-3" x="29.174524" y="37.009525"/>
<use xlink:href="#glyph-2-4" x="31.790083" y="37.009525"/>
<use xlink:href="#glyph-2-5" x="37.100759" y="37.009525"/>
<use xlink:href="#glyph-2-6" x="42.76946" y="37.009525"/>
</g>
<g fill="rgb(35.68573%, 38.430786%, 44.706726%)" fill-opacity="1">
<use xlink:href="#glyph-2-5" x="50.894596" y="37.009525"/>
</g>
<g fill="rgb(35.68573%, 38.430786%, 44.706726%)" fill-opacity="1">
<use xlink:href="#glyph-2-7" x="56.473791" y="37.009525"/>
<use xlink:href="#glyph-2-7" x="61.864028" y="37.009525"/>
</g>
<g fill="rgb(35.68573%, 38.430786%, 44.706726%)" fill-opacity="1">
<use xlink:href="#glyph-2-8" x="67.085199" y="37.009525"/>
</g>
<g fill="rgb(35.68573%, 38.430786%, 44.706726%)" fill-opacity="1">
<use xlink:href="#glyph-2-9" x="72.435657" y="37.009525"/>
<use xlink:href="#glyph-2-10" x="77.547432" y="37.009525"/>
</g>
<g fill="rgb(12.156677%, 14.118958%, 18.824768%)" fill-opacity="1">
<use xlink:href="#glyph-2-11" x="14.803873" y="48.943463"/>
<use xlink:href="#glyph-2-12" x="19.816197" y="48.943463"/>
<use xlink:href="#glyph-2-8" x="25.226325" y="48.943463"/>
</g>
<g fill="rgb(12.156677%, 14.118958%, 18.824768%)" fill-opacity="1">
<use xlink:href="#glyph-2-7" x="28.458478" y="48.943463"/>
</g>
<g fill="rgb(12.156677%, 14.118958%, 18.824768%)" fill-opacity="1">
<use xlink:href="#glyph-2-13" x="33.908386" y="48.943463"/>
<use xlink:href="#glyph-2-14" x="37.001309" y="48.943463"/>
<use xlink:href="#glyph-2-15" x="41.1683" y="48.943463"/>
<use xlink:href="#glyph-2-16" x="43.624737" y="48.943463"/>
<use xlink:href="#glyph-2-17" x="48.647006" y="48.943463"/>
<use xlink:href="#glyph-2-18" x="54.08697" y="48.943463"/>
<use xlink:href="#glyph-2-0" x="59.019733" y="48.943463"/>
<use xlink:href="#glyph-2-19" x="63.952497" y="48.943463"/>
</g>
<g fill="rgb(12.156677%, 14.118958%, 18.824768%)" fill-opacity="1">
<use xlink:href="#glyph-2-20" x="68.427786" y="48.943463"/>
<use xlink:href="#glyph-2-21" x="73.94731" y="48.943463"/>
</g>
<g fill="rgb(12.156677%, 14.118958%, 18.824768%)" fill-opacity="1">
<use xlink:href="#glyph-2-18" x="77.30875" y="48.943463"/>
</g>
<g fill="rgb(12.156677%, 14.118958%, 18.824768%)" fill-opacity="1">
<use xlink:href="#glyph-2-13" x="82.340964" y="48.943463"/>
<use xlink:href="#glyph-2-15" x="85.433886" y="48.943463"/>
<use xlink:href="#glyph-2-17" x="87.890323" y="48.943463"/>
<use xlink:href="#glyph-2-14" x="93.330286" y="48.943463"/>
</g>
<g fill="rgb(12.156677%, 14.118958%, 18.824768%)" fill-opacity="1">
<use xlink:href="#glyph-2-8" x="97.298376" y="48.943463"/>
</g>
<g fill="rgb(12.156677%, 14.118958%, 18.824768%)" fill-opacity="1">
<use xlink:href="#glyph-2-11" x="100.460914" y="48.943463"/>
<use xlink:href="#glyph-2-22" x="105.473238" y="48.943463"/>
<use xlink:href="#glyph-2-22" x="108.009236" y="48.943463"/>
<use xlink:href="#glyph-2-18" x="110.545233" y="48.943463"/>
<use xlink:href="#glyph-2-0" x="115.477997" y="48.943463"/>
</g>
<g fill="rgb(12.156677%, 14.118958%, 18.824768%)" fill-opacity="1">
<use xlink:href="#glyph-2-23" x="122.399778" y="48.943463"/>
<use xlink:href="#glyph-2-11" x="127.919302" y="48.943463"/>
<use xlink:href="#glyph-2-17" x="132.931626" y="48.943463"/>
<use xlink:href="#glyph-2-14" x="138.371589" y="48.943463"/>
</g>
<g fill="rgb(12.156677%, 14.118958%, 18.824768%)" fill-opacity="1">
<use xlink:href="#glyph-2-22" x="144.527598" y="48.943463"/>
<use xlink:href="#glyph-2-0" x="147.063596" y="48.943463"/>
</g>
<g fill="rgb(12.156677%, 14.118958%, 18.824768%)" fill-opacity="1">
<use xlink:href="#glyph-2-24" x="153.985377" y="48.943463"/>
<use xlink:href="#glyph-2-11" x="162.229855" y="48.943463"/>
<use xlink:href="#glyph-2-16" x="167.242179" y="48.943463"/>
</g>
<g fill="rgb(12.156677%, 14.118958%, 18.824768%)" fill-opacity="1">
<use xlink:href="#glyph-2-11" x="172.105327" y="48.943463"/>
<use xlink:href="#glyph-2-14" x="177.117651" y="48.943463"/>
<use xlink:href="#glyph-2-15" x="181.284643" y="48.943463"/>
<use xlink:href="#glyph-2-17" x="183.74108" y="48.943463"/>
</g>
<g fill="rgb(12.156677%, 14.118958%, 18.824768%)" fill-opacity="1">
<use xlink:href="#glyph-2-23" x="14.803873" y="62.86689"/>
<use xlink:href="#glyph-2-0" x="20.323396" y="62.86689"/>
</g>
<g fill="rgb(12.156677%, 14.118958%, 18.824768%)" fill-opacity="1">
<use xlink:href="#glyph-2-25" x="27.245177" y="62.86689"/>
</g>
<g fill="rgb(12.156677%, 14.118958%, 18.824768%)" fill-opacity="1">
<use xlink:href="#glyph-2-7" x="31.571291" y="62.86689"/>
<use xlink:href="#glyph-2-17" x="36.961528" y="62.86689"/>
<use xlink:href="#glyph-2-26" x="42.401491" y="62.86689"/>
<use xlink:href="#glyph-2-15" x="45.305457" y="62.86689"/>
<use xlink:href="#glyph-2-11" x="47.761894" y="62.86689"/>
<use xlink:href="#glyph-2-17" x="52.774218" y="62.86689"/>
<use xlink:href="#glyph-2-25" x="58.214181" y="62.86689"/>
</g>
<g fill="rgb(12.156677%, 14.118958%, 18.824768%)" fill-opacity="1">
<use xlink:href="#glyph-2-0" x="62.540294" y="62.86689"/>
</g>
<g fill="rgb(12.156677%, 14.118958%, 18.824768%)" fill-opacity="1">
<use xlink:href="#glyph-2-23" x="69.462075" y="62.86689"/>
<use xlink:href="#glyph-2-0" x="74.981599" y="62.86689"/>
</g>
<g fill="rgb(12.156677%, 14.118958%, 18.824768%)" fill-opacity="1">
<use xlink:href="#glyph-2-22" x="81.90338" y="62.86689"/>
<use xlink:href="#glyph-2-27" x="84.439378" y="62.86689"/>
<use xlink:href="#glyph-2-28" x="86.92565" y="62.86689"/>
<use xlink:href="#glyph-2-4" x="93.529188" y="62.86689"/>
</g>
<g fill="rgb(12.156677%, 14.118958%, 18.824768%)" fill-opacity="1">
<use xlink:href="#glyph-2-7" x="100.828882" y="62.86689"/>
<use xlink:href="#glyph-2-12" x="106.21912" y="62.86689"/>
</g>
<g fill="rgb(12.156677%, 14.118958%, 18.824768%)" fill-opacity="1">
<use xlink:href="#glyph-2-23" x="113.618265" y="62.86689"/>
<use xlink:href="#glyph-2-12" x="119.137789" y="62.86689"/>
</g>
<g fill="rgb(12.156677%, 14.118958%, 18.824768%)" fill-opacity="1">
<use xlink:href="#glyph-2-17" x="126.536934" y="62.86689"/>
<use xlink:href="#glyph-2-11" x="131.976898" y="62.86689"/>
<use xlink:href="#glyph-2-29" x="136.989222" y="62.86689"/>
<use xlink:href="#glyph-2-15" x="141.643523" y="62.86689"/>
<use xlink:href="#glyph-2-16" x="144.09996" y="62.86689"/>
</g>
<g fill="rgb(12.156677%, 14.118958%, 18.824768%)" fill-opacity="1">
<use xlink:href="#glyph-2-11" x="148.963108" y="62.86689"/>
</g>
<g fill="rgb(12.156677%, 14.118958%, 18.824768%)" fill-opacity="1">
<use xlink:href="#glyph-2-8" x="153.836201" y="62.86689"/>
</g>
<g fill="rgb(12.156677%, 14.118958%, 18.824768%)" fill-opacity="1">
<use xlink:href="#glyph-2-0" x="157.068354" y="62.86689"/>
<use xlink:href="#glyph-2-12" x="162.001118" y="62.86689"/>
<use xlink:href="#glyph-2-21" x="167.411245" y="62.86689"/>
</g>
<path fill-rule="nonzero" fill="rgb(90.194702%, 92.547607%, 96.076965%)" fill-opacity="1" stroke-width="0.69739" stroke-linecap="round" stroke-linejoin="round" stroke="rgb(12.156677%, 22.744751%, 40.783691%)" stroke-opacity="1" stroke-miterlimit="10" d="M 105.727003 -68.628668 L -105.723655 -68.628668 C -106.827162 -68.628668 -107.719359 -69.520865 -107.719359 -70.620459 L -107.719359 -120.497394 C -107.719359 -121.596988 -106.827162 -122.489185 -105.723655 -122.489185 L 105.727003 -122.489185 C 106.826596 -122.489185 107.718793 -121.596988 107.718793 -120.497394 L 107.718793 -70.620459 C 107.718793 -69.520865 106.826596 -68.628668 105.727003 -68.628668 Z M 105.727003 -68.628668 " transform="matrix(0.998238, 0, 0, -0.998238, 113.842079, 37.382867)"/>
<g fill="rgb(12.156677%, 22.744751%, 40.783691%)" fill-opacity="1">
<use xlink:href="#glyph-0-0" x="14.803873" y="121.613208"/>
</g>
<g fill="rgb(12.156677%, 14.118958%, 18.824768%)" fill-opacity="1">
<use xlink:href="#glyph-1-0" x="32.705278" y="121.613208"/>
<use xlink:href="#glyph-1-1" x="39.662863" y="121.613208"/>
</g>
<g fill="rgb(12.156677%, 14.118958%, 18.824768%)" fill-opacity="1">
<use xlink:href="#glyph-1-5" x="48.92373" y="121.613208"/>
<use xlink:href="#glyph-1-6" x="52.26528" y="121.613208"/>
<use xlink:href="#glyph-1-8" x="59.127392" y="121.613208"/>
</g>
<g fill="rgb(12.156677%, 14.118958%, 18.824768%)" fill-opacity="1">
<use xlink:href="#glyph-1-7" x="63.531078" y="121.613208"/>
<use xlink:href="#glyph-1-2" x="69.736814" y="121.613208"/>
<use xlink:href="#glyph-1-9" x="74.570127" y="121.613208"/>
<use xlink:href="#glyph-1-10" x="84.845393" y="121.613208"/>
<use xlink:href="#glyph-1-11" x="91.051129" y="121.613208"/>
<use xlink:href="#glyph-1-5" x="97.913241" y="121.613208"/>
<use xlink:href="#glyph-1-3" x="101.254791" y="121.613208"/>
<use xlink:href="#glyph-1-5" x="107.579868" y="121.613208"/>
<use xlink:href="#glyph-1-2" x="110.921418" y="121.613208"/>
</g>
<g fill="rgb(12.156677%, 14.118958%, 18.824768%)" fill-opacity="1">
<use xlink:href="#glyph-1-7" x="115.635391" y="121.613208"/>
</g>
<g fill="rgb(35.68573%, 38.430786%, 44.706726%)" fill-opacity="1">
<use xlink:href="#glyph-2-0" x="14.803873" y="138.365641"/>
</g>
<g fill="rgb(35.68573%, 38.430786%, 44.706726%)" fill-opacity="1">
<use xlink:href="#glyph-2-1" x="19.66702" y="138.365641"/>
</g>
<g fill="rgb(35.68573%, 38.430786%, 44.706726%)" fill-opacity="1">
<use xlink:href="#glyph-2-2" x="24.042859" y="138.365641"/>
</g>
<g fill="rgb(35.68573%, 38.430786%, 44.706726%)" fill-opacity="1">
<use xlink:href="#glyph-2-30" x="29.174524" y="138.365641"/>
</g>
<g fill="rgb(35.68573%, 38.430786%, 44.706726%)" fill-opacity="1">
<use xlink:href="#glyph-2-0" x="33.898441" y="138.365641"/>
</g>
<g fill="rgb(35.68573%, 38.430786%, 44.706726%)" fill-opacity="1">
<use xlink:href="#glyph-2-8" x="38.731754" y="138.365641"/>
<use xlink:href="#glyph-2-27" x="42.103139" y="138.365641"/>
<use xlink:href="#glyph-2-14" x="44.589411" y="138.365641"/>
</g>
<g fill="rgb(35.68573%, 38.430786%, 44.706726%)" fill-opacity="1">
<use xlink:href="#glyph-2-31" x="50.735475" y="138.365641"/>
<use xlink:href="#glyph-2-17" x="55.976536" y="138.365641"/>
<use xlink:href="#glyph-2-25" x="61.416499" y="138.365641"/>
<use xlink:href="#glyph-2-21" x="65.951459" y="138.365641"/>
</g>
<g fill="rgb(35.68573%, 38.430786%, 44.706726%)" fill-opacity="1">
<use xlink:href="#glyph-2-32" x="69.660977" y="138.365641"/>
<use xlink:href="#glyph-2-20" x="74.315278" y="138.365641"/>
</g>
<g fill="rgb(35.68573%, 38.430786%, 44.706726%)" fill-opacity="1">
<use xlink:href="#glyph-2-8" x="79.675681" y="138.365641"/>
</g>
<g fill="rgb(35.68573%, 38.430786%, 44.706726%)" fill-opacity="1">
<use xlink:href="#glyph-2-5" x="85.026138" y="138.365641"/>
<use xlink:href="#glyph-2-10" x="90.694838" y="138.365641"/>
<use xlink:href="#glyph-2-10" x="95.637547" y="138.365641"/>
</g>
<g fill="rgb(12.156677%, 14.118958%, 18.824768%)" fill-opacity="1">
<use xlink:href="#glyph-2-25" x="14.803873" y="152.289068"/>
</g>
<g fill="rgb(12.156677%, 14.118958%, 18.824768%)" fill-opacity="1">
<use xlink:href="#glyph-2-0" x="19.129986" y="152.289068"/>
<use xlink:href="#glyph-2-21" x="24.062749" y="152.289068"/>
<use xlink:href="#glyph-2-8" x="27.52364" y="152.289068"/>
<use xlink:href="#glyph-2-15" x="30.895025" y="152.289068"/>
<use xlink:href="#glyph-2-26" x="33.351461" y="152.289068"/>
<use xlink:href="#glyph-2-15" x="36.255427" y="152.289068"/>
<use xlink:href="#glyph-2-25" x="38.711864" y="152.289068"/>
</g>
<g fill="rgb(12.156677%, 14.118958%, 18.824768%)" fill-opacity="1">
<use xlink:href="#glyph-2-11" x="43.147373" y="152.289068"/>
</g>
<g fill="rgb(12.156677%, 14.118958%, 18.824768%)" fill-opacity="1">
<use xlink:href="#glyph-2-8" x="48.020466" y="152.289068"/>
</g>
<g fill="rgb(12.156677%, 14.118958%, 18.824768%)" fill-opacity="1">
<use xlink:href="#glyph-2-14" x="53.380868" y="152.289068"/>
<use xlink:href="#glyph-2-15" x="57.54786" y="152.289068"/>
<use xlink:href="#glyph-2-16" x="60.004297" y="152.289068"/>
<use xlink:href="#glyph-2-17" x="65.026566" y="152.289068"/>
<use xlink:href="#glyph-2-18" x="70.466529" y="152.289068"/>
</g>
<g fill="rgb(12.156677%, 14.118958%, 18.824768%)" fill-opacity="1">
<use xlink:href="#glyph-2-20" x="77.38831" y="152.289068"/>
</g>
<g fill="rgb(12.156677%, 14.118958%, 18.824768%)" fill-opacity="1">
<use xlink:href="#glyph-2-11" x="82.768603" y="152.289068"/>
<use xlink:href="#glyph-2-21" x="87.780927" y="152.289068"/>
</g>
<g fill="rgb(12.156677%, 14.118958%, 18.824768%)" fill-opacity="1">
<use xlink:href="#glyph-2-22" x="93.230835" y="152.289068"/>
<use xlink:href="#glyph-2-11" x="95.766833" y="152.289068"/>
</g>
<g fill="rgb(12.156677%, 14.118958%, 18.824768%)" fill-opacity="1">
<use xlink:href="#glyph-2-21" x="102.768175" y="152.289068"/>
</g>
<g fill="rgb(12.156677%, 14.118958%, 18.824768%)" fill-opacity="1">
<use xlink:href="#glyph-2-11" x="105.990383" y="152.289068"/>
<use xlink:href="#glyph-2-25" x="111.002707" y="152.289068"/>
<use xlink:href="#glyph-2-15" x="115.537667" y="152.289068"/>
<use xlink:href="#glyph-2-17" x="117.994104" y="152.289068"/>
<use xlink:href="#glyph-2-0" x="123.434067" y="152.289068"/>
</g>
<path fill-rule="nonzero" fill="rgb(88.233948%, 93.725586%, 92.547607%)" fill-opacity="1" stroke-width="0.69739" stroke-linecap="round" stroke-linejoin="round" stroke="rgb(11.373901%, 43.528748%, 41.569519%)" stroke-opacity="1" stroke-miterlimit="10" d="M 105.727003 -160.035803 L -105.723655 -160.035803 C -106.827162 -160.035803 -107.719359 -160.928 -107.719359 -162.027593 L -107.719359 -211.904529 C -107.719359 -213.004122 -106.827162 -213.896319 -105.723655 -213.896319 L 105.727003 -213.896319 C 106.826596 -213.896319 107.718793 -213.004122 107.718793 -211.904529 L 107.718793 -162.027593 C 107.718793 -160.928 106.826596 -160.035803 105.727003 -160.035803 Z M 105.727003 -160.035803 " transform="matrix(0.998238, 0, 0, -0.998238, 113.842079, 37.382867)"/>
<g fill="rgb(11.373901%, 43.528748%, 41.569519%)" fill-opacity="1">
<use xlink:href="#glyph-0-0" x="14.803873" y="213.852414"/>
</g>
<g fill="rgb(12.156677%, 14.118958%, 18.824768%)" fill-opacity="1">
<use xlink:href="#glyph-1-0" x="32.705278" y="213.852414"/>
<use xlink:href="#glyph-1-7" x="39.662863" y="213.852414"/>
<use xlink:href="#glyph-1-2" x="45.868599" y="213.852414"/>
<use xlink:href="#glyph-1-8" x="50.701912" y="213.852414"/>
<use xlink:href="#glyph-1-5" x="55.332346" y="213.852414"/>
<use xlink:href="#glyph-1-12" x="58.673896" y="213.852414"/>
<use xlink:href="#glyph-1-5" x="62.815031" y="213.852414"/>
<use xlink:href="#glyph-1-4" x="66.156581" y="213.852414"/>
</g>
<g fill="rgb(12.156677%, 14.118958%, 18.824768%)" fill-opacity="1">
<use xlink:href="#glyph-1-3" x="71.634337" y="213.852414"/>
</g>
<g fill="rgb(12.156677%, 14.118958%, 18.824768%)" fill-opacity="1">
<use xlink:href="#glyph-1-8" x="77.732665" y="213.852414"/>
</g>
<g fill="rgb(12.156677%, 14.118958%, 18.824768%)" fill-opacity="1">
<use xlink:href="#glyph-1-12" x="84.749921" y="213.852414"/>
</g>
<g fill="rgb(12.156677%, 14.118958%, 18.824768%)" fill-opacity="1">
<use xlink:href="#glyph-1-7" x="88.771715" y="213.852414"/>
<use xlink:href="#glyph-1-13" x="94.977451" y="213.852414"/>
<use xlink:href="#glyph-1-5" x="101.80376" y="213.852414"/>
<use xlink:href="#glyph-1-14" x="105.14531" y="213.852414"/>
<use xlink:href="#glyph-1-14" x="108.606201" y="213.852414"/>
<use xlink:href="#glyph-1-7" x="112.067092" y="213.852414"/>
</g>
<g fill="rgb(12.156677%, 14.118958%, 18.824768%)" fill-opacity="1">
<use xlink:href="#glyph-3-0" x="14.803873" y="228.616357"/>
<use xlink:href="#glyph-3-1" x="19.502929" y="228.616357"/>
<use xlink:href="#glyph-3-2" x="24.201985" y="228.616357"/>
<use xlink:href="#glyph-3-3" x="28.901041" y="228.616357"/>
<use xlink:href="#glyph-3-4" x="33.600097" y="228.616357"/>
<use xlink:href="#glyph-3-5" x="38.299153" y="228.616357"/>
<use xlink:href="#glyph-3-6" x="42.998209" y="228.616357"/>
<use xlink:href="#glyph-3-4" x="47.697265" y="228.616357"/>
<use xlink:href="#glyph-3-7" x="52.396321" y="228.616357"/>
<use xlink:href="#glyph-3-8" x="57.095377" y="228.616357"/>
<use xlink:href="#glyph-3-9" x="61.794434" y="228.616357"/>
<use xlink:href="#glyph-3-10" x="66.49349" y="228.616357"/>
<use xlink:href="#glyph-3-11" x="71.192546" y="228.616357"/>
<use xlink:href="#glyph-3-12" x="75.891602" y="228.616357"/>
<use xlink:href="#glyph-3-13" x="80.590658" y="228.616357"/>
<use xlink:href="#glyph-3-14" x="85.289714" y="228.616357"/>
<use xlink:href="#glyph-3-3" x="89.98877" y="228.616357"/>
<use xlink:href="#glyph-3-10" x="94.687826" y="228.616357"/>
<use xlink:href="#glyph-3-9" x="99.386882" y="228.616357"/>
<use xlink:href="#glyph-3-15" x="104.085938" y="228.616357"/>
<use xlink:href="#glyph-3-16" x="108.784995" y="228.616357"/>
<use xlink:href="#glyph-3-13" x="113.484051" y="228.616357"/>
</g>
<g fill="rgb(12.156677%, 14.118958%, 18.824768%)" fill-opacity="1">
<use xlink:href="#glyph-2-14" x="14.803873" y="242.539784"/>
<use xlink:href="#glyph-2-15" x="18.970864" y="242.539784"/>
<use xlink:href="#glyph-2-16" x="21.427301" y="242.539784"/>
<use xlink:href="#glyph-2-17" x="26.44957" y="242.539784"/>
<use xlink:href="#glyph-2-18" x="31.889533" y="242.539784"/>
</g>
<g fill="rgb(12.156677%, 14.118958%, 18.824768%)" fill-opacity="1">
<use xlink:href="#glyph-2-20" x="38.811315" y="242.539784"/>
</g>
<g fill="rgb(12.156677%, 14.118958%, 18.824768%)" fill-opacity="1">
<use xlink:href="#glyph-2-11" x="44.191607" y="242.539784"/>
<use xlink:href="#glyph-2-21" x="49.203931" y="242.539784"/>
</g>
<g fill="rgb(12.156677%, 14.118958%, 18.824768%)" fill-opacity="1">
<use xlink:href="#glyph-2-22" x="54.65384" y="242.539784"/>
<use xlink:href="#glyph-2-27" x="57.189837" y="242.539784"/>
<use xlink:href="#glyph-2-15" x="59.676109" y="242.539784"/>
<use xlink:href="#glyph-2-17" x="62.132546" y="242.539784"/>
<use xlink:href="#glyph-2-8" x="67.572509" y="242.539784"/>
</g>
<g fill="rgb(12.156677%, 14.118958%, 18.824768%)" fill-opacity="1">
<use xlink:href="#glyph-2-0" x="70.804662" y="242.539784"/>
<use xlink:href="#glyph-2-21" x="75.737426" y="242.539784"/>
<use xlink:href="#glyph-2-24" x="79.198316" y="242.539784"/>
<use xlink:href="#glyph-2-18" x="87.442794" y="242.539784"/>
<use xlink:href="#glyph-2-23" x="92.375558" y="242.539784"/>
<use xlink:href="#glyph-2-15" x="97.895081" y="242.539784"/>
<use xlink:href="#glyph-2-11" x="100.351518" y="242.539784"/>
<use xlink:href="#glyph-2-15" x="105.363842" y="242.539784"/>
<use xlink:href="#glyph-2-21" x="107.820279" y="242.539784"/>
</g>
<g fill="rgb(12.156677%, 14.118958%, 18.824768%)" fill-opacity="1">
<use xlink:href="#glyph-2-0" x="111.181719" y="242.539784"/>
</g>
<path fill="none" stroke-width="0.79701" stroke-linecap="round" stroke-linejoin="round" stroke="rgb(12.156677%, 22.744751%, 40.783691%)" stroke-opacity="1" stroke-miterlimit="10" d="M 0.00167365 -31.43032 L 0.00167365 -64.406386 " transform="matrix(0.998238, 0, 0, -0.998238, 113.842079, 37.382867)"/>
<path fill-rule="nonzero" fill="rgb(12.156677%, 22.744751%, 40.783691%)" fill-opacity="1" stroke-width="0.79701" stroke-linecap="round" stroke-linejoin="miter" stroke="rgb(12.156677%, 22.744751%, 40.783691%)" stroke-opacity="1" stroke-miterlimit="10" d="M 5.069571 0.00167365 L 1.312953 1.3791 L 2.561246 0.00167365 L 1.312953 -1.379666 Z M 5.069571 0.00167365 " transform="matrix(0, 0.998238, 0.998238, 0, 113.842079, 99.318266)"/>
<path fill-rule="nonzero" fill="rgb(96.862793%, 96.470642%, 94.900513%)" fill-opacity="1" d="M 119.898438 92.910156 L 144.304688 92.910156 L 144.304688 81.390625 L 119.898438 81.390625 Z M 119.898438 92.910156 "/>
<g fill="rgb(12.156677%, 14.118958%, 18.824768%)" fill-opacity="1">
<use xlink:href="#glyph-2-14" x="121.092283" y="89.486908"/>
<use xlink:href="#glyph-2-15" x="125.259275" y="89.486908"/>
<use xlink:href="#glyph-2-16" x="127.715712" y="89.486908"/>
<use xlink:href="#glyph-2-17" x="132.737981" y="89.486908"/>
<use xlink:href="#glyph-2-0" x="138.177944" y="89.486908"/>
</g>
<path fill="none" stroke-width="0.79701" stroke-linecap="round" stroke-linejoin="round" stroke="rgb(12.156677%, 22.744751%, 40.783691%)" stroke-opacity="1" stroke-miterlimit="10" d="M 0.00167365 -122.837454 L 0.00167365 -155.81352 " transform="matrix(0.998238, 0, 0, -0.998238, 113.842079, 37.382867)"/>
<path fill-rule="nonzero" fill="rgb(12.156677%, 22.744751%, 40.783691%)" fill-opacity="1" stroke-width="0.79701" stroke-linecap="round" stroke-linejoin="miter" stroke="rgb(12.156677%, 22.744751%, 40.783691%)" stroke-opacity="1" stroke-miterlimit="10" d="M 5.069546 0.00167365 L 1.312928 1.3791 L 2.561221 0.00167365 L 1.312928 -1.379666 Z M 5.069546 0.00167365 " transform="matrix(0, 0.998238, 0.998238, 0, 113.842079, 190.564385)"/>
<path fill-rule="nonzero" fill="rgb(96.862793%, 96.470642%, 94.900513%)" fill-opacity="1" d="M 119.898438 184.15625 L 144.304688 184.15625 L 144.304688 172.636719 L 119.898438 172.636719 Z M 119.898438 184.15625 "/>
<g fill="rgb(12.156677%, 14.118958%, 18.824768%)" fill-opacity="1">
<use xlink:href="#glyph-2-14" x="121.092283" y="180.731869"/>
<use xlink:href="#glyph-2-15" x="125.259275" y="180.731869"/>
<use xlink:href="#glyph-2-16" x="127.715712" y="180.731869"/>
<use xlink:href="#glyph-2-17" x="132.737981" y="180.731869"/>
<use xlink:href="#glyph-2-0" x="138.177944" y="180.731869"/>
</g>
<path fill-rule="nonzero" fill="rgb(100%, 100%, 100%)" fill-opacity="1" stroke-width="0.69739" stroke-linecap="round" stroke-linejoin="round" stroke="rgb(78.823853%, 80.39093%, 83.921814%)" stroke-opacity="1" stroke-miterlimit="10" d="M 321.857782 -63.287226 L 172.770902 -63.287226 C 171.671308 -63.287226 170.779111 -64.179423 170.779111 -65.279017 L 170.779111 -125.838836 C 170.779111 -126.93843 171.671308 -127.830626 172.770902 -127.830626 L 321.857782 -127.830626 C 322.957375 -127.830626 323.849572 -126.93843 323.849572 -125.838836 L 323.849572 -65.279017 C 323.849572 -64.179423 322.957375 -63.287226 321.857782 -63.287226 Z M 321.857782 -63.287226 " transform="matrix(0.998238, 0, 0, -0.998238, 113.842079, 37.382867)"/>
<g fill="rgb(35.68573%, 38.430786%, 44.706726%)" fill-opacity="1">
<use xlink:href="#glyph-0-1" x="354.941561" y="114.123427"/>
</g>
<g fill="rgb(12.156677%, 14.118958%, 18.824768%)" fill-opacity="1">
<use xlink:href="#glyph-1-15" x="331.466992" y="130.876858"/>
<use xlink:href="#glyph-1-3" x="339.427041" y="130.876858"/>
<use xlink:href="#glyph-1-16" x="345.752118" y="130.876858"/>
<use xlink:href="#glyph-1-5" x="352.065261" y="130.876858"/>
<use xlink:href="#glyph-1-17" x="355.406811" y="130.876858"/>
</g>
<g fill="rgb(12.156677%, 14.118958%, 18.824768%)" fill-opacity="1">
<use xlink:href="#glyph-1-3" x="361.600613" y="130.876858"/>
</g>
<g fill="rgb(12.156677%, 14.118958%, 18.824768%)" fill-opacity="1">
<use xlink:href="#glyph-1-8" x="367.698942" y="130.876858"/>
</g>
<g fill="rgb(12.156677%, 14.118958%, 18.824768%)" fill-opacity="1">
<use xlink:href="#glyph-1-7" x="372.102627" y="130.876858"/>
<use xlink:href="#glyph-1-13" x="378.308363" y="130.876858"/>
<use xlink:href="#glyph-1-2" x="385.134673" y="130.876858"/>
</g>
<g fill="rgb(12.156677%, 14.118958%, 18.824768%)" fill-opacity="1">
<use xlink:href="#glyph-2-29" x="293.394186" y="147.629292"/>
</g>
<g fill="rgb(12.156677%, 14.118958%, 18.824768%)" fill-opacity="1">
<use xlink:href="#glyph-2-18" x="298.008707" y="147.629292"/>
<use xlink:href="#glyph-2-21" x="302.941471" y="147.629292"/>
<use xlink:href="#glyph-2-15" x="306.402361" y="147.629292"/>
<use xlink:href="#glyph-2-26" x="308.858798" y="147.629292"/>
<use xlink:href="#glyph-2-15" x="311.762764" y="147.629292"/>
<use xlink:href="#glyph-2-0" x="314.2192" y="147.629292"/>
</g>
<g fill="rgb(12.156677%, 14.118958%, 18.824768%)" fill-opacity="1">
<use xlink:href="#glyph-2-22" x="321.140982" y="147.629292"/>
<use xlink:href="#glyph-2-11" x="323.676979" y="147.629292"/>
</g>
<g fill="rgb(12.156677%, 14.118958%, 18.824768%)" fill-opacity="1">
<use xlink:href="#glyph-2-25" x="330.678321" y="147.629292"/>
<use xlink:href="#glyph-2-33" x="335.213281" y="147.629292"/>
<use xlink:href="#glyph-2-11" x="340.623409" y="147.629292"/>
<use xlink:href="#glyph-2-34" x="345.635733" y="147.629292"/>
<use xlink:href="#glyph-2-17" x="348.09217" y="147.629292"/>
<use xlink:href="#glyph-2-0" x="353.532133" y="147.629292"/>
</g>
<g fill="rgb(12.156677%, 14.118958%, 18.824768%)" fill-opacity="1">
<use xlink:href="#glyph-2-23" x="360.453914" y="147.629292"/>
<use xlink:href="#glyph-2-0" x="365.973438" y="147.629292"/>
</g>
<g fill="rgb(12.156677%, 14.118958%, 18.824768%)" fill-opacity="1">
<use xlink:href="#glyph-2-14" x="372.895219" y="147.629292"/>
<use xlink:href="#glyph-2-15" x="377.062211" y="147.629292"/>
<use xlink:href="#glyph-2-16" x="379.518647" y="147.629292"/>
<use xlink:href="#glyph-2-17" x="384.540917" y="147.629292"/>
<use xlink:href="#glyph-2-11" x="389.98088" y="147.629292"/>
</g>
<g fill="rgb(12.156677%, 14.118958%, 18.824768%)" fill-opacity="1">
<use xlink:href="#glyph-2-8" x="394.853973" y="147.629292"/>
<use xlink:href="#glyph-2-12" x="398.225357" y="147.629292"/>
<use xlink:href="#glyph-2-21" x="403.635485" y="147.629292"/>
</g>
<g fill="rgb(12.156677%, 14.118958%, 18.824768%)" fill-opacity="1">
<use xlink:href="#glyph-2-0" x="406.996925" y="147.629292"/>
<use xlink:href="#glyph-2-14" x="411.929689" y="147.629292"/>
<use xlink:href="#glyph-2-19" x="416.09668" y="147.629292"/>
</g>
<g fill="rgb(12.156677%, 14.118958%, 18.824768%)" fill-opacity="1">
<use xlink:href="#glyph-2-22" x="420.57197" y="147.629292"/>
<use xlink:href="#glyph-2-0" x="423.107967" y="147.629292"/>
</g>
<g fill="rgb(12.156677%, 14.118958%, 18.824768%)" fill-opacity="1">
<use xlink:href="#glyph-2-17" x="304.398764" y="161.552718"/>
<use xlink:href="#glyph-2-7" x="309.838727" y="161.552718"/>
<use xlink:href="#glyph-2-24" x="315.228965" y="161.552718"/>
</g>
<g fill="rgb(12.156677%, 14.118958%, 18.824768%)" fill-opacity="1">
<use xlink:href="#glyph-2-0" x="325.46246" y="161.552718"/>
</g>
<g fill="rgb(12.156677%, 14.118958%, 18.824768%)" fill-opacity="1">
<use xlink:href="#glyph-2-8" x="330.295773" y="161.552718"/>
</g>
<g fill="rgb(12.156677%, 14.118958%, 18.824768%)" fill-opacity="1">
<use xlink:href="#glyph-2-22" x="335.656176" y="161.552718"/>
<use xlink:href="#glyph-2-0" x="338.192173" y="161.552718"/>
<use xlink:href="#glyph-2-14" x="343.124937" y="161.552718"/>
</g>
<g fill="rgb(12.156677%, 14.118958%, 18.824768%)" fill-opacity="1">
<use xlink:href="#glyph-2-23" x="349.280946" y="161.552718"/>
<use xlink:href="#glyph-2-11" x="354.80047" y="161.552718"/>
</g>
<g fill="rgb(12.156677%, 14.118958%, 18.824768%)" fill-opacity="1">
<use xlink:href="#glyph-2-8" x="359.673563" y="161.552718"/>
</g>
<g fill="rgb(12.156677%, 14.118958%, 18.824768%)" fill-opacity="1">
<use xlink:href="#glyph-2-0" x="362.905716" y="161.552718"/>
<use xlink:href="#glyph-2-14" x="367.83848" y="161.552718"/>
</g>
<g fill="rgb(12.156677%, 14.118958%, 18.824768%)" fill-opacity="1">
<use xlink:href="#glyph-2-23" x="373.994489" y="161.552718"/>
<use xlink:href="#glyph-2-0" x="379.514013" y="161.552718"/>
</g>
<g fill="rgb(12.156677%, 14.118958%, 18.824768%)" fill-opacity="1">
<use xlink:href="#glyph-2-29" x="386.435794" y="161.552718"/>
</g>
<g fill="rgb(12.156677%, 14.118958%, 18.824768%)" fill-opacity="1">
<use xlink:href="#glyph-2-11" x="390.891193" y="161.552718"/>
<use xlink:href="#glyph-2-22" x="395.903518" y="161.552718"/>
<use xlink:href="#glyph-2-15" x="398.439515" y="161.552718"/>
<use xlink:href="#glyph-2-23" x="400.895952" y="161.552718"/>
<use xlink:href="#glyph-2-15" x="406.415476" y="161.552718"/>
<use xlink:href="#glyph-2-8" x="408.871912" y="161.552718"/>
</g>
<g fill="rgb(12.156677%, 14.118958%, 18.824768%)" fill-opacity="1">
<use xlink:href="#glyph-2-18" x="412.104066" y="161.552718"/>
</g>
<path fill="none" stroke-width="0.79701" stroke-linecap="round" stroke-linejoin="round" stroke="rgb(35.68573%, 38.430786%, 44.706726%)" stroke-opacity="1" stroke-dasharray="2.98883 1.99255" stroke-miterlimit="10" d="M 247.316298 -128.178896 L 247.316298 -186.966061 L 111.941076 -186.966061 " transform="matrix(0.998238, 0, 0, -0.998238, 113.842079, 37.382867)"/>
<path fill-rule="nonzero" fill="rgb(35.68573%, 38.430786%, 44.706726%)" fill-opacity="1" stroke-width="0.79701" stroke-linecap="round" stroke-linejoin="miter" stroke="rgb(35.68573%, 38.430786%, 44.706726%)" stroke-opacity="1" stroke-miterlimit="10" d="M 5.06968 -0.000248944 L 1.313062 1.377178 L 2.561355 -0.000248944 L 1.313062 -1.377676 Z M 5.06968 -0.000248944 " transform="matrix(-0.998238, 0, 0, 0.998238, 227.943561, 224.01978)"/>
<path fill-rule="nonzero" fill="rgb(96.862793%, 96.470642%, 94.900513%)" fill-opacity="1" d="M 277.148438 237.519531 L 305.292969 237.519531 L 305.292969 227.246094 L 277.148438 227.246094 Z M 277.148438 237.519531 "/>
<g fill="rgb(12.156677%, 14.118958%, 18.824768%)" fill-opacity="1">
<use xlink:href="#glyph-2-29" x="278.33776" y="236.204964"/>
</g>
<g fill="rgb(12.156677%, 14.118958%, 18.824768%)" fill-opacity="1">
<use xlink:href="#glyph-2-18" x="282.95228" y="236.204964"/>
<use xlink:href="#glyph-2-21" x="287.885044" y="236.204964"/>
<use xlink:href="#glyph-2-15" x="291.345935" y="236.204964"/>
<use xlink:href="#glyph-2-26" x="293.802371" y="236.204964"/>
<use xlink:href="#glyph-2-15" x="296.706337" y="236.204964"/>
<use xlink:href="#glyph-2-0" x="299.162774" y="236.204964"/>
</g>
<path fill="none" stroke-width="0.79701" stroke-linecap="round" stroke-linejoin="round" stroke="rgb(35.68573%, 38.430786%, 44.706726%)" stroke-opacity="1" stroke-dasharray="2.98883 1.99255" stroke-miterlimit="10" d="M 247.316298 -62.938957 L 247.316298 0.0000541752 L 111.941076 0.0000541752 " transform="matrix(0.998238, 0, 0, -0.998238, 113.842079, 37.382867)"/>
<path fill-rule="nonzero" fill="rgb(35.68573%, 38.430786%, 44.706726%)" fill-opacity="1" stroke-width="0.79701" stroke-linecap="round" stroke-linejoin="miter" stroke="rgb(35.68573%, 38.430786%, 44.706726%)" stroke-opacity="1" stroke-miterlimit="10" d="M 5.06968 -0.0000541752 L 1.313062 1.377373 L 2.561355 -0.0000541752 L 1.313062 -1.377481 Z M 5.06968 -0.0000541752 " transform="matrix(-0.998238, 0, 0, 0.998238, 227.943561, 37.382867)"/>
<path fill-rule="nonzero" fill="rgb(96.862793%, 96.470642%, 94.900513%)" fill-opacity="1" d="M 262.144531 34.15625 L 320.292969 34.15625 L 320.292969 24.449219 L 262.144531 24.449219 Z M 262.144531 34.15625 "/>
<g fill="rgb(12.156677%, 14.118958%, 18.824768%)" fill-opacity="1">
<use xlink:href="#glyph-2-26" x="263.336236" y="32.841881"/>
</g>
<g fill="rgb(12.156677%, 14.118958%, 18.824768%)" fill-opacity="1">
<use xlink:href="#glyph-2-11" x="266.0413" y="32.841881"/>
<use xlink:href="#glyph-2-15" x="271.053624" y="32.841881"/>
<use xlink:href="#glyph-2-8" x="273.510061" y="32.841881"/>
</g>
<g fill="rgb(12.156677%, 14.118958%, 18.824768%)" fill-opacity="1">
<use xlink:href="#glyph-2-25" x="278.870463" y="32.841881"/>
</g>
<g fill="rgb(12.156677%, 14.118958%, 18.824768%)" fill-opacity="1">
<use xlink:href="#glyph-2-7" x="283.196576" y="32.841881"/>
<use xlink:href="#glyph-2-17" x="288.586814" y="32.841881"/>
<use xlink:href="#glyph-2-26" x="294.026777" y="32.841881"/>
<use xlink:href="#glyph-2-15" x="296.930743" y="32.841881"/>
<use xlink:href="#glyph-2-11" x="299.387179" y="32.841881"/>
<use xlink:href="#glyph-2-17" x="304.399504" y="32.841881"/>
<use xlink:href="#glyph-2-25" x="309.839467" y="32.841881"/>
</g>
<g fill="rgb(12.156677%, 14.118958%, 18.824768%)" fill-opacity="1">
<use xlink:href="#glyph-2-0" x="314.16558" y="32.841881"/>
</g>
</svg>
