<?xml version="1.0" encoding="UTF-8"?>
<svg xmlns="http://www.w3.org/2000/svg" xmlns:xlink="http://www.w3.org/1999/xlink" width="426.509pt" height="285.536pt" viewBox="0 0 426.509 285.536">
<defs>
<g>
<g id="glyph-0-0">
<path d="M 0.890625 0 L 2.75 0 L 2.75 -2.578125 L 3.671875 -2.578125 C 5.3125 -2.578125 6.734375 -3.390625 6.734375 -5.25 C 6.734375 -7.15625 5.34375 -7.765625 3.625 -7.765625 L 0.890625 -7.765625 Z M 2.75 -4.046875 L 2.75 -6.296875 L 3.515625 -6.296875 C 4.421875 -6.296875 4.921875 -6.03125 4.921875 -5.25 C 4.921875 -4.484375 4.484375 -4.046875 3.5625 -4.046875 Z M 2.75 -4.046875 "/>
</g>
<g id="glyph-0-1">
<path d="M 0.75 0 L 2.59375 0 L 2.59375 -3.390625 C 2.90625 -4.171875 3.4375 -4.46875 3.875 -4.46875 C 4.140625 -4.46875 4.28125 -4.4375 4.484375 -4.390625 L 4.828125 -5.953125 C 4.671875 -6.046875 4.46875 -6.078125 4.125 -6.078125 C 3.515625 -6.078125 2.859375 -5.703125 2.4375 -4.90625 L 2.390625 -4.90625 L 2.25 -5.9375 L 0.75 -5.9375 Z M 0.75 0 "/>
</g>
<g id="glyph-0-2">
<path d="M 3.3125 0.140625 C 4.828125 0.140625 6.234375 -1 6.234375 -2.96875 C 6.234375 -4.9375 4.828125 -6.078125 3.3125 -6.078125 C 1.8125 -6.078125 0.421875 -4.9375 0.421875 -2.96875 C 0.421875 -1 1.8125 0.140625 3.3125 0.140625 Z M 3.3125 -1.34375 C 2.625 -1.34375 2.296875 -1.984375 2.296875 -2.96875 C 2.296875 -3.953125 2.625 -4.59375 3.3125 -4.59375 C 4.015625 -4.59375 4.328125 -3.953125 4.328125 -2.96875 C 4.328125 -1.984375 4.015625 -1.34375 3.3125 -1.34375 Z M 3.3125 -1.34375 "/>
</g>
<g id="glyph-0-3">
<path d="M 2.125 0 L 4.265625 0 L 6.171875 -5.9375 L 4.40625 -5.9375 L 3.671875 -3.203125 C 3.53125 -2.609375 3.375 -2 3.21875 -1.375 L 3.171875 -1.375 C 3.03125 -2 2.875 -2.609375 2.734375 -3.203125 L 2 -5.9375 L 0.140625 -5.9375 Z M 2.125 0 "/>
</g>
<g id="glyph-0-4">
<path d="M 0.75 0 L 2.59375 0 L 2.59375 -5.9375 L 0.75 -5.9375 Z M 1.671875 -6.765625 C 2.28125 -6.765625 2.703125 -7.140625 2.703125 -7.71875 C 2.703125 -8.296875 2.28125 -8.671875 1.671875 -8.671875 C 1.0625 -8.671875 0.625 -8.296875 0.625 -7.71875 C 0.625 -7.140625 1.0625 -6.765625 1.671875 -6.765625 Z M 1.671875 -6.765625 "/>
</g>
<g id="glyph-0-5">
<path d="M 2.53125 0.140625 C 4.140625 0.140625 5 -0.703125 5 -1.796875 C 5 -2.765625 4.28125 -3.3125 3.375 -3.59375 C 2.625 -3.828125 2.296875 -3.96875 2.296875 -4.28125 C 2.296875 -4.546875 2.5 -4.71875 2.921875 -4.71875 C 3.328125 -4.71875 3.765625 -4.59375 4.203125 -4.28125 L 4.984375 -5.328125 C 4.484375 -5.75 3.734375 -6.078125 2.859375 -6.078125 C 1.484375 -6.078125 0.578125 -5.328125 0.578125 -4.203125 C 0.578125 -3.28125 1.296875 -2.75 2.140625 -2.4375 C 2.765625 -2.203125 3.265625 -2.046875 3.265625 -1.6875 C 3.265625 -1.390625 3.0625 -1.21875 2.5625 -1.21875 C 2.09375 -1.21875 1.5625 -1.359375 1.015625 -1.796875 L 0.234375 -0.75 C 0.828125 -0.171875 1.75 0.140625 2.53125 0.140625 Z M 2.53125 0.140625 "/>
</g>
<g id="glyph-0-6">
<path d="M 0.75 0 L 2.59375 0 L 2.59375 -3.96875 C 2.953125 -4.3125 3.21875 -4.515625 3.625 -4.515625 C 4.109375 -4.515625 4.328125 -4.265625 4.328125 -3.4375 L 4.328125 0 L 6.171875 0 L 6.171875 -3.671875 C 6.171875 -5.15625 5.625 -6.078125 4.328125 -6.078125 C 3.515625 -6.078125 2.921875 -5.671875 2.4375 -5.1875 L 2.390625 -5.1875 L 2.25 -5.9375 L 0.75 -5.9375 Z M 0.75 0 "/>
</g>
<g id="glyph-0-7">
<path d="M 3.421875 0.140625 C 4.125 0.140625 4.9375 -0.078125 5.5625 -0.53125 L 4.96875 -1.640625 C 4.546875 -1.390625 4.125 -1.265625 3.6875 -1.265625 C 2.9375 -1.265625 2.375 -1.609375 2.203125 -2.40625 L 5.703125 -2.40625 C 5.734375 -2.578125 5.78125 -2.890625 5.78125 -3.21875 C 5.78125 -4.828125 4.9375 -6.078125 3.21875 -6.078125 C 1.796875 -6.078125 0.421875 -4.890625 0.421875 -2.96875 C 0.421875 -0.984375 1.734375 0.140625 3.421875 0.140625 Z M 2.1875 -3.65625 C 2.296875 -4.34375 2.75 -4.671875 3.265625 -4.671875 C 3.9375 -4.671875 4.203125 -4.234375 4.203125 -3.65625 Z M 2.1875 -3.65625 "/>
</g>
<g id="glyph-0-8">
<path d="M 4.1875 0.140625 C 5.171875 0.140625 6.03125 -0.234375 6.703125 -1 L 5.734375 -2.09375 C 5.375 -1.703125 4.875 -1.453125 4.25 -1.453125 C 3.15625 -1.453125 2.4375 -2.359375 2.4375 -3.90625 C 2.4375 -5.40625 3.265625 -6.3125 4.28125 -6.3125 C 4.828125 -6.3125 5.234375 -6.140625 5.625 -5.78125 L 6.59375 -6.90625 C 6.0625 -7.46875 5.25 -7.921875 4.234375 -7.921875 C 2.28125 -7.921875 0.53125 -6.421875 0.53125 -3.828125 C 0.53125 -1.203125 2.203125 0.140625 4.1875 0.140625 Z M 4.1875 0.140625 "/>
</g>
<g id="glyph-0-9">
<path d="M 1.0625 0 L 2.90625 0 L 2.90625 -4.484375 L 3.96875 -4.484375 L 3.96875 -5.9375 L 2.90625 -5.9375 L 2.90625 -6.234375 C 2.90625 -6.8125 3.15625 -7.046875 3.5625 -7.046875 C 3.765625 -7.046875 3.96875 -7.015625 4.171875 -6.953125 L 4.515625 -8.265625 C 4.25 -8.375 3.8125 -8.484375 3.3125 -8.484375 C 1.640625 -8.484375 1.0625 -7.421875 1.0625 -6.171875 L 1.0625 -5.921875 L 0.28125 -5.875 L 0.28125 -4.484375 L 1.0625 -4.484375 Z M 1.0625 0 "/>
</g>
<g id="glyph-0-10">
<path d="M 2.875 2.5 C 4.9375 2.5 6.25 1.609375 6.25 0.359375 C 6.25 -0.71875 5.421875 -1.15625 3.953125 -1.15625 L 3.015625 -1.15625 C 2.375 -1.15625 2.140625 -1.296875 2.140625 -1.578125 C 2.140625 -1.765625 2.203125 -1.859375 2.328125 -1.984375 C 2.59375 -1.90625 2.828125 -1.875 3.03125 -1.875 C 4.34375 -1.875 5.390625 -2.484375 5.390625 -3.875 C 5.390625 -4.15625 5.3125 -4.421875 5.21875 -4.59375 L 6.140625 -4.59375 L 6.140625 -5.9375 L 3.96875 -5.9375 C 3.6875 -6.03125 3.359375 -6.078125 3.03125 -6.078125 C 1.75 -6.078125 0.546875 -5.375 0.546875 -3.921875 C 0.546875 -3.234375 0.9375 -2.6875 1.34375 -2.40625 L 1.34375 -2.359375 C 0.96875 -2.078125 0.6875 -1.640625 0.6875 -1.234375 C 0.6875 -0.734375 0.921875 -0.4375 1.234375 -0.21875 L 1.234375 -0.171875 C 0.6875 0.125 0.390625 0.515625 0.390625 1 C 0.390625 2.0625 1.5 2.5 2.875 2.5 Z M 3.03125 -2.984375 C 2.609375 -2.984375 2.28125 -3.3125 2.28125 -3.921875 C 2.28125 -4.53125 2.59375 -4.84375 3.03125 -4.84375 C 3.46875 -4.84375 3.78125 -4.53125 3.78125 -3.921875 C 3.78125 -3.3125 3.46875 -2.984375 3.03125 -2.984375 Z M 3.171875 1.34375 C 2.40625 1.34375 1.90625 1.140625 1.90625 0.703125 C 1.90625 0.515625 2 0.34375 2.203125 0.171875 C 2.375 0.234375 2.609375 0.25 3.03125 0.25 L 3.609375 0.25 C 4.171875 0.25 4.484375 0.328125 4.484375 0.6875 C 4.484375 1.0625 3.921875 1.34375 3.171875 1.34375 Z M 3.171875 1.34375 "/>
</g>
<g id="glyph-0-11">
<path d="M 2.546875 0.140625 C 3.34375 0.140625 3.90625 -0.234375 4.390625 -0.8125 L 4.4375 -0.8125 L 4.578125 0 L 6.078125 0 L 6.078125 -5.9375 L 4.21875 -5.9375 L 4.21875 -2.046875 C 3.90625 -1.59375 3.65625 -1.4375 3.234375 -1.4375 C 2.75 -1.4375 2.546875 -1.671875 2.546875 -2.5 L 2.546875 -5.9375 L 0.6875 -5.9375 L 0.6875 -2.25 C 0.6875 -0.78125 1.234375 0.140625 2.546875 0.140625 Z M 2.546875 0.140625 "/>
</g>
<g id="glyph-0-12">
<path d="M 4.09375 0.140625 C 6.203125 0.140625 7.65625 -1.375 7.65625 -3.921875 C 7.65625 -6.453125 6.203125 -7.921875 4.09375 -7.921875 C 1.984375 -7.921875 0.53125 -6.46875 0.53125 -3.921875 C 0.53125 -1.375 1.984375 0.140625 4.09375 0.140625 Z M 4.09375 -1.453125 C 3.078125 -1.453125 2.4375 -2.40625 2.4375 -3.921875 C 2.4375 -5.4375 3.078125 -6.3125 4.09375 -6.3125 C 5.125 -6.3125 5.75 -5.4375 5.75 -3.921875 C 5.75 -2.40625 5.125 -1.453125 4.09375 -1.453125 Z M 4.09375 -1.453125 "/>
</g>
<g id="glyph-0-13">
<path d="M 3.359375 0.140625 C 4 0.140625 4.75 -0.03125 5.328125 -0.5625 L 4.609375 -1.71875 C 4.3125 -1.5 3.96875 -1.34375 3.578125 -1.34375 C 2.859375 -1.34375 2.296875 -1.984375 2.296875 -2.96875 C 2.296875 -3.953125 2.8125 -4.59375 3.640625 -4.59375 C 3.90625 -4.59375 4.125 -4.515625 4.40625 -4.3125 L 5.265625 -5.4375 C 4.828125 -5.828125 4.265625 -6.078125 3.53125 -6.078125 C 1.890625 -6.078125 0.421875 -4.9375 0.421875 -2.96875 C 0.421875 -1 1.6875 0.140625 3.359375 0.140625 Z M 3.359375 0.140625 "/>
</g>
<g id="glyph-0-14">
<path d="M 0.75 0 L 2.59375 0 L 2.59375 -3.96875 C 2.953125 -4.3125 3.21875 -4.515625 3.625 -4.515625 C 4.109375 -4.515625 4.328125 -4.265625 4.328125 -3.4375 L 4.328125 0 L 6.171875 0 L 6.171875 -3.671875 C 6.171875 -5.15625 5.625 -6.078125 4.328125 -6.078125 C 3.515625 -6.078125 2.953125 -5.671875 2.5 -5.28125 L 2.59375 -6.34375 L 2.59375 -8.34375 L 0.75 -8.34375 Z M 0.75 0 "/>
</g>
<g id="glyph-0-15">
<path d="M 3.078125 0.140625 C 3.671875 0.140625 4.125 0.03125 4.421875 -0.09375 L 4.140625 -1.390625 C 3.984375 -1.328125 3.78125 -1.296875 3.59375 -1.296875 C 3.15625 -1.296875 2.84375 -1.546875 2.84375 -2.21875 L 2.84375 -4.484375 L 4.234375 -4.484375 L 4.234375 -5.9375 L 2.84375 -5.9375 L 2.84375 -7.75 L 1.3125 -7.75 L 1.09375 -5.9375 L 0.1875 -5.875 L 0.1875 -4.484375 L 0.984375 -4.484375 L 0.984375 -2.203125 C 0.984375 -0.796875 1.59375 0.140625 3.078125 0.140625 Z M 3.078125 0.140625 "/>
</g>
<g id="glyph-0-16">
<path d="M 2.1875 0 L 4.421875 0 L 6.796875 -7.765625 L 4.90625 -7.765625 L 3.96875 -4.21875 C 3.765625 -3.375 3.59375 -2.59375 3.359375 -1.75 L 3.3125 -1.75 C 3.09375 -2.59375 2.921875 -3.375 2.703125 -4.21875 L 1.859375 -7.765625 L -0.09375 -7.765625 Z M 2.1875 0 "/>
</g>
<g id="glyph-0-17">
<path d="M 2.25 0.140625 C 2.921875 0.140625 3.46875 -0.15625 3.953125 -0.59375 L 4 -0.59375 L 4.125 0 L 5.640625 0 L 5.640625 -3.359375 C 5.640625 -5.234375 4.78125 -6.078125 3.25 -6.078125 C 2.3125 -6.078125 1.46875 -5.78125 0.6875 -5.296875 L 1.34375 -4.109375 C 1.9375 -4.4375 2.40625 -4.609375 2.890625 -4.609375 C 3.5 -4.609375 3.75 -4.328125 3.796875 -3.828125 C 1.453125 -3.59375 0.484375 -2.90625 0.484375 -1.65625 C 0.484375 -0.671875 1.171875 0.140625 2.25 0.140625 Z M 2.890625 -1.296875 C 2.484375 -1.296875 2.25 -1.453125 2.25 -1.796875 C 2.25 -2.21875 2.609375 -2.546875 3.796875 -2.703125 L 3.796875 -1.75 C 3.515625 -1.46875 3.265625 -1.296875 2.890625 -1.296875 Z M 2.890625 -1.296875 "/>
</g>
<g id="glyph-0-18">
<path d="M 2.40625 0 L 4.265625 0 L 4.265625 -6.21875 L 6.375 -6.21875 L 6.375 -7.765625 L 0.296875 -7.765625 L 0.296875 -6.21875 L 2.40625 -6.21875 Z M 2.40625 0 "/>
</g>
<g id="glyph-0-19">
<path d="M 0.75 0 L 2.59375 0 L 2.59375 -3.96875 C 2.953125 -4.328125 3.265625 -4.515625 3.546875 -4.515625 C 4.015625 -4.515625 4.234375 -4.265625 4.234375 -3.4375 L 4.234375 0 L 6.09375 0 L 6.09375 -3.96875 C 6.453125 -4.328125 6.75 -4.515625 7.046875 -4.515625 C 7.515625 -4.515625 7.734375 -4.265625 7.734375 -3.4375 L 7.734375 0 L 9.578125 0 L 9.578125 -3.671875 C 9.578125 -5.15625 9 -6.078125 7.71875 -6.078125 C 6.921875 -6.078125 6.375 -5.625 5.859375 -5.09375 C 5.5625 -5.734375 5.046875 -6.078125 4.21875 -6.078125 C 3.4375 -6.078125 2.90625 -5.671875 2.4375 -5.1875 L 2.390625 -5.1875 L 2.25 -5.9375 L 0.75 -5.9375 Z M 0.75 0 "/>
</g>
<g id="glyph-0-20">
<path d="M 2.78125 -3.890625 C 2.984375 -4.65625 3.1875 -5.578125 3.375 -6.390625 L 3.421875 -6.390625 C 3.625 -5.578125 3.828125 -4.65625 4.03125 -3.890625 L 4.203125 -3.21875 L 2.609375 -3.21875 Z M -0.09375 0 L 1.796875 0 L 2.25 -1.796875 L 4.5625 -1.796875 L 5.015625 0 L 6.96875 0 L 4.546875 -7.765625 L 2.328125 -7.765625 Z M -0.09375 0 "/>
</g>
<g id="glyph-0-21">
<path d="M 3.921875 0.140625 C 5.203125 0.140625 6.40625 -1.03125 6.40625 -3.0625 C 6.40625 -4.890625 5.515625 -6.078125 4.078125 -6.078125 C 3.53125 -6.078125 3 -5.84375 2.546875 -5.4375 L 2.59375 -6.34375 L 2.59375 -8.34375 L 0.75 -8.34375 L 0.75 0 L 2.203125 0 L 2.34375 -0.625 L 2.390625 -0.625 C 2.859375 -0.125 3.390625 0.140625 3.921875 0.140625 Z M 3.484375 -1.375 C 3.203125 -1.375 2.890625 -1.453125 2.59375 -1.71875 L 2.59375 -4.078125 C 2.90625 -4.421875 3.203125 -4.578125 3.546875 -4.578125 C 4.203125 -4.578125 4.515625 -4.078125 4.515625 -3.046875 C 4.515625 -1.84375 4.0625 -1.375 3.484375 -1.375 Z M 3.484375 -1.375 "/>
</g>
<g id="glyph-0-22">
<path d="M 2.4375 0.140625 C 2.84375 0.140625 3.15625 0.078125 3.359375 -0.015625 L 3.140625 -1.375 C 3.046875 -1.34375 3 -1.34375 2.921875 -1.34375 C 2.78125 -1.34375 2.59375 -1.46875 2.59375 -1.84375 L 2.59375 -8.34375 L 0.75 -8.34375 L 0.75 -1.921875 C 0.75 -0.6875 1.171875 0.140625 2.4375 0.140625 Z M 2.4375 0.140625 "/>
</g>
<g id="glyph-0-23">
<path d="M 0.75 2.171875 L 2.59375 2.171875 L 2.59375 0.453125 L 2.53125 -0.46875 C 2.953125 -0.078125 3.421875 0.140625 3.921875 0.140625 C 5.203125 0.140625 6.40625 -1.03125 6.40625 -3.0625 C 6.40625 -4.890625 5.53125 -6.078125 4.09375 -6.078125 C 3.484375 -6.078125 2.890625 -5.78125 2.4375 -5.359375 L 2.390625 -5.359375 L 2.25 -5.9375 L 0.75 -5.9375 Z M 3.484375 -1.375 C 3.203125 -1.375 2.890625 -1.453125 2.59375 -1.71875 L 2.59375 -4.078125 C 2.90625 -4.421875 3.203125 -4.578125 3.546875 -4.578125 C 4.203125 -4.578125 4.515625 -4.078125 4.515625 -3.046875 C 4.515625 -1.84375 4.0625 -1.375 3.484375 -1.375 Z M 3.484375 -1.375 "/>
</g>
<g id="glyph-0-24">
<path d="M 2.875 0.140625 C 3.4375 0.140625 4.015625 -0.15625 4.4375 -0.578125 L 4.484375 -0.578125 L 4.609375 0 L 6.125 0 L 6.125 -8.34375 L 4.28125 -8.34375 L 4.28125 -6.34375 L 4.328125 -5.46875 C 3.953125 -5.84375 3.5625 -6.078125 2.90625 -6.078125 C 1.671875 -6.078125 0.453125 -4.90625 0.453125 -2.96875 C 0.453125 -1.03125 1.40625 0.140625 2.875 0.140625 Z M 3.359375 -1.375 C 2.734375 -1.375 2.359375 -1.84375 2.359375 -2.984375 C 2.359375 -4.09375 2.8125 -4.578125 3.34375 -4.578125 C 3.640625 -4.578125 3.984375 -4.484375 4.28125 -4.21875 L 4.28125 -1.859375 C 4 -1.5 3.71875 -1.375 3.359375 -1.375 Z M 3.359375 -1.375 "/>
</g>
<g id="glyph-1-0">
<path d="M 2.734375 0.125 C 3.296875 0.125 3.859375 -0.09375 4.296875 -0.5 L 3.9375 -1.03125 C 3.640625 -0.765625 3.25 -0.5625 2.796875 -0.5625 C 1.90625 -0.5625 1.3125 -1.296875 1.3125 -2.40625 C 1.3125 -3.515625 1.953125 -4.265625 2.828125 -4.265625 C 3.21875 -4.265625 3.515625 -4.125 3.796875 -3.875 L 4.203125 -4.390625 C 3.859375 -4.703125 3.421875 -4.953125 2.78125 -4.953125 C 1.546875 -4.953125 0.453125 -4.03125 0.453125 -2.40625 C 0.453125 -0.8125 1.4375 0.125 2.734375 0.125 Z M 2.734375 0.125 "/>
</g>
<g id="glyph-1-1">
<path d="M 0.8125 0 L 1.640625 0 L 1.640625 -3.109375 C 1.96875 -3.921875 2.453125 -4.203125 2.859375 -4.203125 C 3.0625 -4.203125 3.171875 -4.1875 3.296875 -4.15625 L 3.484375 -4.859375 C 3.328125 -4.921875 3.1875 -4.953125 2.96875 -4.953125 C 2.421875 -4.953125 1.9375 -4.5625 1.59375 -3.96875 L 1.5625 -3.96875 L 1.5 -4.84375 L 0.8125 -4.84375 Z M 0.8125 0 "/>
</g>
<g id="glyph-1-2">
<path d="M 2.765625 0.125 C 3.4375 0.125 3.953125 -0.078125 4.375 -0.375 L 4.078125 -0.90625 C 3.75 -0.671875 3.328125 -0.546875 2.859375 -0.546875 C 1.953125 -0.546875 1.34375 -1.203125 1.28125 -2.203125 L 4.53125 -2.203125 C 4.5625 -2.359375 4.5625 -2.515625 4.5625 -2.6875 C 4.5625 -4.078125 3.859375 -4.953125 2.625 -4.953125 C 1.515625 -4.953125 0.453125 -3.984375 0.453125 -2.421875 C 0.453125 -0.8125 1.46875 0.125 2.765625 0.125 Z M 1.28125 -2.84375 C 1.375 -3.765625 1.96875 -4.296875 2.640625 -4.296875 C 3.390625 -4.296875 3.828125 -3.796875 3.828125 -2.84375 Z M 2.203125 -5.703125 L 3.984375 -7.21875 L 3.46875 -7.765625 L 1.78125 -6.125 Z M 2.203125 -5.703125 "/>
</g>
<g id="glyph-1-3">
<path d="M 2.765625 0.125 C 3.4375 0.125 3.953125 -0.078125 4.375 -0.375 L 4.078125 -0.90625 C 3.75 -0.671875 3.328125 -0.546875 2.859375 -0.546875 C 1.953125 -0.546875 1.34375 -1.203125 1.28125 -2.203125 L 4.53125 -2.203125 C 4.5625 -2.359375 4.5625 -2.515625 4.5625 -2.6875 C 4.5625 -4.078125 3.859375 -4.953125 2.625 -4.953125 C 1.515625 -4.953125 0.453125 -3.984375 0.453125 -2.421875 C 0.453125 -0.8125 1.46875 0.125 2.765625 0.125 Z M 1.28125 -2.84375 C 1.375 -3.765625 1.96875 -4.296875 2.640625 -4.296875 C 3.390625 -4.296875 3.828125 -3.796875 3.828125 -2.84375 Z M 1.28125 -2.84375 "/>
</g>
<g id="glyph-1-4">
<path d="M 0.8125 0 L 1.640625 0 L 1.640625 -3.5 C 2.09375 -4 2.484375 -4.234375 2.84375 -4.234375 C 3.46875 -4.234375 3.75 -3.859375 3.75 -2.953125 L 3.75 0 L 4.5625 0 L 4.5625 -3.5 C 5.015625 -4 5.40625 -4.234375 5.78125 -4.234375 C 6.390625 -4.234375 6.671875 -3.859375 6.671875 -2.953125 L 6.671875 0 L 7.5 0 L 7.5 -3.0625 C 7.5 -4.296875 7.03125 -4.953125 6.03125 -4.953125 C 5.4375 -4.953125 4.9375 -4.578125 4.4375 -4.046875 C 4.234375 -4.609375 3.84375 -4.953125 3.09375 -4.953125 C 2.515625 -4.953125 2.015625 -4.59375 1.59375 -4.140625 L 1.5625 -4.140625 L 1.5 -4.84375 L 0.8125 -4.84375 Z M 0.8125 0 "/>
</g>
<g id="glyph-1-5">
<path d="M 1.9375 0.125 C 2.53125 0.125 3.0625 -0.1875 3.515625 -0.578125 L 3.546875 -0.578125 L 3.640625 0 L 4.3125 0 L 4.3125 -2.96875 C 4.3125 -4.171875 3.796875 -4.953125 2.625 -4.953125 C 1.84375 -4.953125 1.171875 -4.625 0.734375 -4.328125 L 1.046875 -3.765625 C 1.421875 -4.015625 1.9375 -4.265625 2.484375 -4.265625 C 3.28125 -4.265625 3.46875 -3.6875 3.484375 -3.078125 C 1.40625 -2.84375 0.515625 -2.328125 0.515625 -1.25 C 0.515625 -0.375 1.125 0.125 1.9375 0.125 Z M 2.15625 -0.5625 C 1.6875 -0.5625 1.328125 -0.765625 1.328125 -1.296875 C 1.328125 -1.9375 1.84375 -2.296875 3.484375 -2.484375 L 3.484375 -1.171875 C 3.015625 -0.765625 2.625 -0.5625 2.15625 -0.5625 Z M 2.15625 -0.5625 "/>
</g>
<g id="glyph-1-6">
<path d="M 0.8125 0 L 1.640625 0 L 1.640625 -3.5 C 2.125 -3.984375 2.46875 -4.234375 2.953125 -4.234375 C 3.59375 -4.234375 3.875 -3.859375 3.875 -2.953125 L 3.875 0 L 4.703125 0 L 4.703125 -3.0625 C 4.703125 -4.296875 4.234375 -4.953125 3.21875 -4.953125 C 2.546875 -4.953125 2.0625 -4.59375 1.609375 -4.15625 L 1.640625 -5.15625 L 1.640625 -7.09375 L 0.8125 -7.09375 Z M 0.8125 0 "/>
</g>
<g id="glyph-1-7">
<path d="M 0.8125 0 L 1.640625 0 L 1.640625 -4.84375 L 0.8125 -4.84375 Z M 1.234375 -5.828125 C 1.546875 -5.828125 1.78125 -6.046875 1.78125 -6.375 C 1.78125 -6.6875 1.546875 -6.90625 1.234375 -6.90625 C 0.921875 -6.90625 0.6875 -6.6875 0.6875 -6.375 C 0.6875 -6.046875 0.921875 -5.828125 1.234375 -5.828125 Z M 1.234375 -5.828125 "/>
</g>
<g id="glyph-1-8">
<path d="M 0.8125 0 L 1.640625 0 L 1.640625 -3.5 C 2.125 -3.984375 2.46875 -4.234375 2.953125 -4.234375 C 3.59375 -4.234375 3.875 -3.859375 3.875 -2.953125 L 3.875 0 L 4.703125 0 L 4.703125 -3.0625 C 4.703125 -4.296875 4.234375 -4.953125 3.21875 -4.953125 C 2.546875 -4.953125 2.046875 -4.59375 1.59375 -4.140625 L 1.5625 -4.140625 L 1.5 -4.84375 L 0.8125 -4.84375 Z M 0.8125 0 "/>
</g>
<g id="glyph-1-9">
<path d="M 2.078125 0.125 C 3.21875 0.125 3.859375 -0.53125 3.859375 -1.328125 C 3.859375 -2.203125 3.125 -2.53125 2.375 -2.796875 C 1.765625 -3 1.34375 -3.1875 1.34375 -3.625 C 1.34375 -3.984375 1.609375 -4.3125 2.234375 -4.3125 C 2.65625 -4.3125 3 -4.1875 3.34375 -3.9375 L 3.71875 -4.40625 C 3.34375 -4.734375 2.828125 -4.953125 2.21875 -4.953125 C 1.171875 -4.953125 0.546875 -4.359375 0.546875 -3.578125 C 0.546875 -2.78125 1.25 -2.4375 1.96875 -2.1875 C 2.515625 -1.984375 3.0625 -1.765625 3.0625 -1.28125 C 3.0625 -0.859375 2.75 -0.53125 2.109375 -0.53125 C 1.515625 -0.53125 1.078125 -0.703125 0.65625 -1.0625 L 0.28125 -0.578125 C 0.734375 -0.140625 1.375 0.125 2.078125 0.125 Z M 2.078125 0.125 "/>
</g>
<g id="glyph-1-10">
<path d="M 0.671875 1.6875 C 1.484375 1.359375 1.984375 0.6875 1.984375 -0.171875 C 1.984375 -0.78125 1.71875 -1.140625 1.28125 -1.140625 C 0.953125 -1.140625 0.671875 -0.921875 0.671875 -0.5625 C 0.671875 -0.1875 0.953125 0.015625 1.265625 0.015625 C 1.296875 0.015625 1.328125 0.015625 1.375 0 C 1.375 0.53125 1.03125 0.96875 0.46875 1.21875 Z M 0.671875 1.6875 "/>
</g>
<g id="glyph-1-11">
<path d="M 2.234375 0.125 C 2.890625 0.125 3.375 -0.234375 3.828125 -0.75 L 3.859375 -0.75 L 3.921875 0 L 4.59375 0 L 4.59375 -4.84375 L 3.765625 -4.84375 L 3.765625 -1.40625 C 3.328125 -0.84375 2.96875 -0.59375 2.484375 -0.59375 C 1.84375 -0.59375 1.578125 -0.984375 1.578125 -1.875 L 1.578125 -4.84375 L 0.75 -4.84375 L 0.75 -1.765625 C 0.75 -0.53125 1.203125 0.125 2.234375 0.125 Z M 2.234375 0.125 "/>
</g>
<g id="glyph-1-12">
<path d="M 0.140625 0 L 1 0 L 1.65625 -1.125 C 1.828125 -1.40625 1.984375 -1.71875 2.140625 -1.984375 L 2.1875 -1.984375 C 2.359375 -1.71875 2.53125 -1.40625 2.703125 -1.125 L 3.40625 0 L 4.3125 0 L 2.734375 -2.4375 L 4.203125 -4.84375 L 3.328125 -4.84375 L 2.75 -3.78125 C 2.59375 -3.515625 2.453125 -3.25 2.3125 -2.96875 L 2.265625 -2.96875 C 2.109375 -3.25 1.953125 -3.515625 1.796875 -3.78125 L 1.15625 -4.84375 L 0.265625 -4.84375 L 1.71875 -2.53125 Z M 0.140625 0 "/>
</g>
<g id="glyph-1-13">
<path d="M 2.46875 0.125 C 3.03125 0.125 3.546875 -0.203125 3.9375 -0.5625 L 3.96875 -0.5625 L 4.03125 0 L 4.703125 0 L 4.703125 -7.09375 L 3.875 -7.09375 L 3.875 -5.21875 L 3.921875 -4.40625 C 3.5 -4.75 3.125 -4.953125 2.5625 -4.953125 C 1.46875 -4.953125 0.46875 -3.984375 0.46875 -2.40625 C 0.46875 -0.796875 1.25 0.125 2.46875 0.125 Z M 2.640625 -0.578125 C 1.796875 -0.578125 1.328125 -1.265625 1.328125 -2.421875 C 1.328125 -3.515625 1.9375 -4.265625 2.703125 -4.265625 C 3.109375 -4.265625 3.46875 -4.125 3.875 -3.765625 L 3.875 -1.234375 C 3.484375 -0.796875 3.09375 -0.578125 2.640625 -0.578125 Z M 2.640625 -0.578125 "/>
</g>
<g id="glyph-1-14">
<path d="M 3.875 2.046875 L 4.703125 2.046875 L 4.703125 -4.84375 L 4.046875 -4.84375 L 3.96875 -4.375 L 3.9375 -4.375 C 3.515625 -4.75 3.125 -4.953125 2.5625 -4.953125 C 1.46875 -4.953125 0.46875 -3.984375 0.46875 -2.40625 C 0.46875 -0.796875 1.25 0.125 2.46875 0.125 C 3.03125 0.125 3.53125 -0.171875 3.921875 -0.5625 L 3.875 0.3125 Z M 2.640625 -0.578125 C 1.796875 -0.578125 1.328125 -1.265625 1.328125 -2.421875 C 1.328125 -3.515625 1.9375 -4.265625 2.703125 -4.265625 C 3.109375 -4.265625 3.46875 -4.125 3.875 -3.765625 L 3.875 -1.234375 C 3.484375 -0.796875 3.09375 -0.578125 2.640625 -0.578125 Z M 2.640625 -0.578125 "/>
</g>
<g id="glyph-1-15">
<path d="M 1.6875 0.125 C 1.890625 0.125 2.046875 0.09375 2.15625 0.03125 L 2.046875 -0.59375 C 1.96875 -0.5625 1.9375 -0.5625 1.875 -0.5625 C 1.75 -0.5625 1.640625 -0.65625 1.640625 -0.921875 L 1.640625 -7.09375 L 0.8125 -7.09375 L 0.8125 -0.96875 C 0.8125 -0.28125 1.0625 0.125 1.6875 0.125 Z M 1.6875 0.125 "/>
</g>
<g id="glyph-1-16">
<path d="M 0.859375 -4.28125 C 1.546875 -4.671875 1.921875 -5.25 1.921875 -6.046875 C 1.921875 -6.625 1.6875 -6.953125 1.296875 -6.953125 C 0.984375 -6.953125 0.765625 -6.75 0.765625 -6.40625 C 0.765625 -6.078125 1.015625 -5.890625 1.296875 -5.890625 C 1.328125 -5.890625 1.359375 -5.890625 1.390625 -5.90625 C 1.390625 -5.34375 1.125 -5 0.625 -4.671875 Z M 0.859375 -4.28125 "/>
</g>
<g id="glyph-1-17">
<path d="M 2.34375 0.125 C 2.671875 0.125 3 0.03125 3.25 -0.09375 L 3.078125 -0.671875 C 2.890625 -0.59375 2.703125 -0.5625 2.53125 -0.5625 C 1.984375 -0.5625 1.78125 -0.890625 1.78125 -1.484375 L 1.78125 -4.171875 L 3.09375 -4.171875 L 3.09375 -4.84375 L 1.78125 -4.84375 L 1.78125 -6.390625 L 1.09375 -6.390625 L 1 -4.84375 L 0.234375 -4.78125 L 0.234375 -4.171875 L 0.953125 -4.171875 L 0.953125 -1.5 C 0.953125 -0.53125 1.296875 0.125 2.34375 0.125 Z M 2.34375 0.125 "/>
</g>
<g id="glyph-1-18">
<path d="M 1.859375 0 L 2.828125 0 L 4.53125 -4.84375 L 3.71875 -4.84375 L 2.8125 -2.09375 C 2.671875 -1.625 2.515625 -1.140625 2.375 -0.671875 L 2.328125 -0.671875 C 2.1875 -1.140625 2.03125 -1.625 1.875 -2.09375 L 0.96875 -4.84375 L 0.125 -4.84375 Z M 1.859375 0 "/>
</g>
<g id="glyph-1-19">
<path d="M 2.703125 0.125 C 3.875 0.125 4.953125 -0.8125 4.953125 -2.40625 C 4.953125 -4.03125 3.875 -4.953125 2.703125 -4.953125 C 1.515625 -4.953125 0.453125 -4.03125 0.453125 -2.40625 C 0.453125 -0.8125 1.515625 0.125 2.703125 0.125 Z M 2.703125 -0.5625 C 1.875 -0.5625 1.3125 -1.296875 1.3125 -2.40625 C 1.3125 -3.515625 1.875 -4.265625 2.703125 -4.265625 C 3.53125 -4.265625 4.09375 -3.515625 4.09375 -2.40625 C 4.09375 -1.296875 3.53125 -0.5625 2.703125 -0.5625 Z M 2.703125 -0.5625 "/>
</g>
<g id="glyph-1-20">
<path d="M 2.953125 0.125 C 4.0625 0.125 5.0625 -0.84375 5.0625 -2.5 C 5.0625 -3.984375 4.375 -4.953125 3.140625 -4.953125 C 2.59375 -4.953125 2.0625 -4.671875 1.609375 -4.296875 L 1.640625 -5.15625 L 1.640625 -7.09375 L 0.8125 -7.09375 L 0.8125 0 L 1.46875 0 L 1.546875 -0.5 L 1.578125 -0.5 C 2.015625 -0.109375 2.515625 0.125 2.953125 0.125 Z M 2.8125 -0.578125 C 2.5 -0.578125 2.0625 -0.703125 1.640625 -1.078125 L 1.640625 -3.609375 C 2.09375 -4.046875 2.515625 -4.265625 2.921875 -4.265625 C 3.828125 -4.265625 4.203125 -3.546875 4.203125 -2.484375 C 4.203125 -1.296875 3.609375 -0.578125 2.8125 -0.578125 Z M 2.8125 -0.578125 "/>
</g>
<g id="glyph-1-21">
<path d="M 1.9375 0.125 C 2.53125 0.125 3.0625 -0.1875 3.515625 -0.578125 L 3.546875 -0.578125 L 3.640625 0 L 4.3125 0 L 4.3125 -2.96875 C 4.3125 -4.171875 3.796875 -4.953125 2.625 -4.953125 C 1.84375 -4.953125 1.171875 -4.625 0.734375 -4.328125 L 1.046875 -3.765625 C 1.421875 -4.015625 1.9375 -4.265625 2.484375 -4.265625 C 3.28125 -4.265625 3.46875 -3.6875 3.484375 -3.078125 C 1.40625 -2.84375 0.515625 -2.328125 0.515625 -1.25 C 0.515625 -0.375 1.125 0.125 1.9375 0.125 Z M 2.15625 -0.5625 C 1.6875 -0.5625 1.328125 -0.765625 1.328125 -1.296875 C 1.328125 -1.9375 1.84375 -2.296875 3.484375 -2.484375 L 3.484375 -1.171875 C 3.015625 -0.765625 2.625 -0.5625 2.15625 -0.5625 Z M 3.078125 -5.703125 L 3.5 -6.125 L 1.8125 -7.765625 L 1.296875 -7.21875 Z M 3.078125 -5.703125 "/>
</g>
<g id="glyph-1-22">
<path d="M 1.25 0.125 C 1.578125 0.125 1.84375 -0.140625 1.84375 -0.5 C 1.84375 -0.890625 1.578125 -1.140625 1.25 -1.140625 C 0.921875 -1.140625 0.640625 -0.890625 0.640625 -0.5 C 0.640625 -0.140625 0.921875 0.125 1.25 0.125 Z M 1.25 0.125 "/>
</g>
<g id="glyph-1-23">
<path d="M 0.78125 0 L 4.375 0 L 4.375 -0.6875 L 3.0625 -0.6875 L 3.0625 -6.34375 L 2.421875 -6.34375 C 2.078125 -6.140625 1.65625 -5.984375 1.078125 -5.875 L 1.078125 -5.34375 L 2.234375 -5.34375 L 2.234375 -0.6875 L 0.78125 -0.6875 Z M 0.78125 0 "/>
</g>
<g id="glyph-1-24">
<path d="M 2.25 0 L 3.078125 0 L 3.078125 -5.828125 L 5.0625 -5.828125 L 5.0625 -6.53125 L 0.28125 -6.53125 L 0.28125 -5.828125 L 2.25 -5.828125 Z M 2.25 0 "/>
</g>
<g id="glyph-1-25">
<path d="M 0.890625 0 L 1.734375 0 L 1.734375 -2.59375 L 2.796875 -2.59375 C 4.234375 -2.59375 5.21875 -3.21875 5.21875 -4.609375 C 5.21875 -6.046875 4.21875 -6.53125 2.75 -6.53125 L 0.890625 -6.53125 Z M 1.734375 -3.265625 L 1.734375 -5.859375 L 2.65625 -5.859375 C 3.796875 -5.859375 4.375 -5.546875 4.375 -4.609375 C 4.375 -3.6875 3.828125 -3.265625 2.703125 -3.265625 Z M 1.734375 -3.265625 "/>
</g>
<g id="glyph-1-26">
<path d="M 1.703125 0 L 2.546875 0 C 2.65625 -2.484375 3 -3.90625 4.53125 -5.84375 L 4.53125 -6.34375 L 0.4375 -6.34375 L 0.4375 -5.640625 L 3.609375 -5.640625 C 2.3125 -3.875 1.8125 -2.390625 1.703125 0 Z M 1.703125 0 "/>
</g>
<g id="glyph-1-27">
<path d="M 2.046875 0 L 3.015625 0 L 5.140625 -6.53125 L 4.28125 -6.53125 L 3.1875 -3 C 2.96875 -2.234375 2.8125 -1.609375 2.5625 -0.859375 L 2.53125 -0.859375 C 2.296875 -1.609375 2.125 -2.234375 1.90625 -3 L 0.890625 -6.53125 L 0 -6.53125 Z M 2.046875 0 "/>
</g>
<g id="glyph-1-28">
<path d="M 0.890625 0 L 1.65625 0 L 1.65625 -3.609375 C 1.65625 -4.1875 1.578125 -4.984375 1.53125 -5.546875 L 1.578125 -5.546875 L 2.09375 -4.03125 L 3.296875 -0.65625 L 3.90625 -0.65625 L 5.140625 -4.03125 L 5.640625 -5.546875 L 5.6875 -5.546875 C 5.640625 -4.984375 5.5625 -4.1875 5.5625 -3.609375 L 5.5625 0 L 6.34375 0 L 6.34375 -6.53125 L 5.3125 -6.53125 L 4.078125 -3.03125 C 3.90625 -2.578125 3.796875 -2.15625 3.640625 -1.671875 L 3.609375 -1.671875 C 3.46875 -2.15625 3.328125 -2.578125 3.171875 -3.03125 L 1.9375 -6.53125 L 0.890625 -6.53125 Z M 0.890625 0 "/>
</g>
<g id="glyph-1-29">
<path d="M 2.34375 0.125 C 3.515625 0.125 4.453125 -0.5625 4.453125 -1.6875 C 4.453125 -2.5625 3.84375 -3.125 3.078125 -3.296875 L 3.078125 -3.34375 C 3.765625 -3.609375 4.21875 -4.09375 4.21875 -4.859375 C 4.21875 -5.875 3.421875 -6.46875 2.3125 -6.46875 C 1.578125 -6.46875 0.984375 -6.125 0.5 -5.671875 L 0.9375 -5.15625 C 1.3125 -5.53125 1.765625 -5.796875 2.296875 -5.796875 C 2.96875 -5.796875 3.390625 -5.40625 3.390625 -4.796875 C 3.390625 -4.125 2.921875 -3.609375 1.578125 -3.609375 L 1.578125 -2.984375 C 3.09375 -2.984375 3.609375 -2.484375 3.609375 -1.71875 C 3.609375 -1.015625 3.0625 -0.5625 2.296875 -0.5625 C 1.546875 -0.5625 1.0625 -0.921875 0.671875 -1.3125 L 0.265625 -0.78125 C 0.6875 -0.3125 1.328125 0.125 2.34375 0.125 Z M 2.34375 0.125 "/>
</g>
<g id="glyph-1-30">
<path d="M 2.484375 0.125 C 3.75 0.125 4.515625 -1.0625 4.515625 -3.1875 C 4.515625 -5.328125 3.75 -6.46875 2.484375 -6.46875 C 1.203125 -6.46875 0.4375 -5.328125 0.4375 -3.1875 C 0.4375 -1.0625 1.203125 0.125 2.484375 0.125 Z M 2.484375 -0.546875 C 1.734375 -0.546875 1.25 -1.328125 1.25 -3.1875 C 1.25 -5.0625 1.734375 -5.796875 2.484375 -5.796875 C 3.21875 -5.796875 3.71875 -5.0625 3.71875 -3.1875 C 3.71875 -1.328125 3.21875 -0.546875 2.484375 -0.546875 Z M 2.484375 -0.546875 "/>
</g>
<g id="glyph-1-31">
<path d="M 0.8125 2.046875 L 1.640625 2.046875 L 1.640625 0.40625 L 1.625 -0.4375 C 2.0625 -0.09375 2.515625 0.125 2.953125 0.125 C 4.0625 0.125 5.0625 -0.84375 5.0625 -2.484375 C 5.0625 -3.984375 4.375 -4.953125 3.140625 -4.953125 C 2.578125 -4.953125 2.03125 -4.640625 1.59375 -4.28125 L 1.5625 -4.28125 L 1.5 -4.84375 L 0.8125 -4.84375 Z M 2.8125 -0.578125 C 2.5 -0.578125 2.078125 -0.703125 1.640625 -1.078125 L 1.640625 -3.609375 C 2.109375 -4.046875 2.515625 -4.265625 2.921875 -4.265625 C 3.828125 -4.265625 4.203125 -3.546875 4.203125 -2.484375 C 4.203125 -1.296875 3.609375 -0.578125 2.8125 -0.578125 Z M 2.8125 -0.578125 "/>
</g>
<g id="glyph-1-32">
<path d="M 0.09375 1.59375 L 0.703125 1.59375 L 3.34375 -7.0625 L 2.75 -7.0625 Z M 0.09375 1.59375 "/>
</g>
<g id="glyph-1-33">
<path d="M 0.90625 2.078125 C 1.875 2.078125 2.375 1.359375 2.71875 0.390625 L 4.53125 -4.84375 L 3.734375 -4.84375 L 2.859375 -2.171875 C 2.734375 -1.734375 2.59375 -1.25 2.46875 -0.8125 L 2.421875 -0.8125 C 2.265625 -1.25 2.109375 -1.75 1.953125 -2.171875 L 0.96875 -4.84375 L 0.125 -4.84375 L 2.0625 0.015625 L 1.953125 0.375 C 1.75 0.96875 1.40625 1.390625 0.859375 1.390625 C 0.75 1.390625 0.625 1.375 0.5 1.328125 L 0.328125 1.984375 C 0.484375 2.046875 0.671875 2.078125 0.90625 2.078125 Z M 0.90625 2.078125 "/>
</g>
<g id="glyph-1-34">
<path d="M 0.390625 0 L 4.5 0 L 4.5 -0.703125 L 2.59375 -0.703125 C 2.265625 -0.703125 1.875 -0.6875 1.53125 -0.65625 C 3.078125 -2.234375 4.1875 -3.375 4.1875 -4.609375 C 4.1875 -5.71875 3.453125 -6.46875 2.28125 -6.46875 C 1.46875 -6.46875 0.890625 -6.078125 0.375 -5.484375 L 0.84375 -5.03125 C 1.1875 -5.453125 1.65625 -5.796875 2.1875 -5.796875 C 2.984375 -5.796875 3.390625 -5.28125 3.390625 -4.5625 C 3.390625 -3.53125 2.296875 -2.359375 0.390625 -0.5 Z M 0.390625 0 "/>
</g>
<g id="glyph-1-35">
<path d="M 2.484375 0.125 C 3.71875 0.125 4.53125 -0.625 4.53125 -1.578125 C 4.53125 -2.421875 4 -2.875 3.4375 -3.203125 L 3.4375 -3.25 C 3.828125 -3.546875 4.3125 -4.109375 4.3125 -4.78125 C 4.3125 -5.765625 3.625 -6.46875 2.515625 -6.46875 C 1.5 -6.46875 0.71875 -5.8125 0.71875 -4.84375 C 0.71875 -4.171875 1.140625 -3.703125 1.609375 -3.375 L 1.609375 -3.328125 C 1 -3.015625 0.40625 -2.453125 0.40625 -1.625 C 0.40625 -0.609375 1.296875 0.125 2.484375 0.125 Z M 2.9375 -3.46875 C 2.171875 -3.765625 1.46875 -4.078125 1.46875 -4.84375 C 1.46875 -5.453125 1.90625 -5.859375 2.5 -5.859375 C 3.1875 -5.859375 3.609375 -5.359375 3.609375 -4.734375 C 3.609375 -4.265625 3.359375 -3.84375 2.9375 -3.46875 Z M 2.515625 -0.5 C 1.734375 -0.5 1.15625 -1 1.15625 -1.703125 C 1.15625 -2.28125 1.53125 -2.75 2.03125 -3.078125 C 2.953125 -2.703125 3.75 -2.421875 3.75 -1.609375 C 3.75 -0.953125 3.25 -0.5 2.515625 -0.5 Z M 2.515625 -0.5 "/>
</g>
<g id="glyph-1-36">
<path d="M 2.703125 0.125 C 3.875 0.125 4.953125 -0.8125 4.953125 -2.40625 C 4.953125 -4.03125 3.875 -4.953125 2.703125 -4.953125 C 1.515625 -4.953125 0.453125 -4.03125 0.453125 -2.40625 C 0.453125 -0.8125 1.515625 0.125 2.703125 0.125 Z M 2.703125 -0.5625 C 1.875 -0.5625 1.3125 -1.296875 1.3125 -2.40625 C 1.3125 -3.515625 1.875 -4.265625 2.703125 -4.265625 C 3.53125 -4.265625 4.09375 -3.515625 4.09375 -2.40625 C 4.09375 -1.296875 3.53125 -0.5625 2.703125 -0.5625 Z M 1.5 -5.65625 L 2.671875 -6.78125 L 2.71875 -6.78125 L 3.890625 -5.65625 L 4.234375 -5.96875 L 3.109375 -7.359375 L 2.28125 -7.359375 L 1.15625 -5.96875 Z M 1.5 -5.65625 "/>
</g>
<g id="glyph-1-37">
<path d="M 2.703125 0.125 C 4.078125 0.125 4.9375 -0.703125 4.9375 -1.734375 C 4.9375 -2.703125 4.34375 -3.171875 3.59375 -3.484375 L 2.65625 -3.890625 C 2.15625 -4.09375 1.578125 -4.34375 1.578125 -4.96875 C 1.578125 -5.546875 2.0625 -5.90625 2.78125 -5.90625 C 3.359375 -5.90625 3.859375 -5.6875 4.265625 -5.3125 L 4.71875 -5.859375 C 4.265625 -6.3125 3.578125 -6.65625 2.78125 -6.65625 C 1.609375 -6.65625 0.734375 -5.90625 0.734375 -4.921875 C 0.734375 -3.953125 1.4375 -3.5 2.046875 -3.234375 L 3 -2.8125 C 3.609375 -2.546875 4.078125 -2.34375 4.078125 -1.671875 C 4.078125 -1.046875 3.578125 -0.609375 2.71875 -0.609375 C 2.03125 -0.609375 1.359375 -0.921875 0.890625 -1.40625 L 0.421875 -0.859375 C 0.984375 -0.25 1.765625 0.125 2.703125 0.125 Z M 2.703125 0.125 "/>
</g>
<g id="glyph-1-38">
<path d="M 0.890625 0 L 1.734375 0 L 1.734375 -3.0625 L 4.75 -3.0625 L 4.75 0 L 5.59375 0 L 5.59375 -6.53125 L 4.75 -6.53125 L 4.75 -3.796875 L 1.734375 -3.796875 L 1.734375 -6.53125 L 0.890625 -6.53125 Z M 0.890625 0 "/>
</g>
<g id="glyph-1-39">
<path d="M 0.890625 0 L 1.734375 0 L 1.734375 -2.0625 L 2.84375 -3.390625 L 4.78125 0 L 5.71875 0 L 3.359375 -4.046875 L 5.421875 -6.53125 L 4.453125 -6.53125 L 1.765625 -3.265625 L 1.734375 -3.265625 L 1.734375 -6.53125 L 0.890625 -6.53125 Z M 0.890625 0 "/>
</g>
<g id="glyph-1-40">
<path d="M 2.125 1.75 L 2.640625 1.515625 C 1.875 0.25 1.5 -1.25 1.5 -2.765625 C 1.5 -4.28125 1.875 -5.78125 2.640625 -7.046875 L 2.125 -7.28125 C 1.296875 -5.953125 0.8125 -4.515625 0.8125 -2.765625 C 0.8125 -1.015625 1.296875 0.421875 2.125 1.75 Z M 2.125 1.75 "/>
</g>
<g id="glyph-1-41">
<path d="M 0.890625 1.75 C 1.71875 0.421875 2.203125 -1.015625 2.203125 -2.765625 C 2.203125 -4.515625 1.71875 -5.953125 0.890625 -7.28125 L 0.375 -7.046875 C 1.140625 -5.78125 1.515625 -4.28125 1.515625 -2.765625 C 1.515625 -1.25 1.140625 0.25 0.375 1.515625 Z M 0.890625 1.75 "/>
</g>
<g id="glyph-1-42">
<path d="M 2.03125 -3.640625 C 2.265625 -4.375 2.46875 -5.09375 2.671875 -5.84375 L 2.703125 -5.84375 C 2.921875 -5.09375 3.125 -4.375 3.359375 -3.640625 L 3.671875 -2.65625 L 1.71875 -2.65625 Z M 0.03125 0 L 0.875 0 L 1.5 -1.984375 L 3.875 -1.984375 L 4.5 0 L 5.390625 0 L 3.1875 -6.53125 L 2.234375 -6.53125 Z M 0.03125 0 "/>
</g>
<g id="glyph-1-43">
<path d="M 0.953125 0 L 1.78125 0 L 1.78125 -4.171875 L 2.796875 -4.171875 L 2.796875 -4.84375 L 1.78125 -4.84375 L 1.78125 -5.59375 C 1.78125 -6.203125 2 -6.546875 2.453125 -6.546875 C 2.625 -6.546875 2.8125 -6.5 3 -6.4375 L 3.171875 -7.046875 C 2.96875 -7.140625 2.671875 -7.203125 2.375 -7.203125 C 1.40625 -7.203125 0.953125 -6.578125 0.953125 -5.59375 L 0.953125 -4.84375 L 0.296875 -4.78125 L 0.296875 -4.171875 L 0.953125 -4.171875 Z M 0.953125 0 "/>
</g>
<g id="glyph-1-44">
<path d="M 1.59375 0 L 2.59375 0 L 3.234375 -2.59375 C 3.359375 -3.03125 3.453125 -3.46875 3.546875 -4.03125 L 3.578125 -4.03125 C 3.6875 -3.46875 3.78125 -3.046875 3.90625 -2.59375 L 4.5625 0 L 5.609375 0 L 6.90625 -4.84375 L 6.125 -4.84375 L 5.421875 -2.03125 C 5.3125 -1.59375 5.21875 -1.171875 5.125 -0.65625 L 5.09375 -0.65625 C 4.984375 -1.171875 4.875 -1.59375 4.765625 -2.03125 L 4.03125 -4.84375 L 3.140625 -4.84375 L 2.421875 -2.03125 C 2.3125 -1.59375 2.21875 -1.171875 2.125 -0.65625 L 2.078125 -0.65625 C 2 -1.171875 1.90625 -1.59375 1.796875 -2.03125 L 1.078125 -4.84375 L 0.234375 -4.84375 Z M 1.59375 0 "/>
</g>
<g id="glyph-2-0">
<path d="M 0.75 0 L 4.8125 0 L 4.8125 -1.296875 L 2.296875 -1.296875 L 2.296875 -6.484375 L 0.75 -6.484375 Z M 0.75 0 "/>
</g>
<g id="glyph-2-1">
<path d="M 0.75 0 L 4.953125 0 L 4.953125 -1.296875 L 2.296875 -1.296875 L 2.296875 -2.671875 L 4.484375 -2.671875 L 4.484375 -3.96875 L 2.296875 -3.96875 L 2.296875 -5.1875 L 4.84375 -5.1875 L 4.84375 -6.484375 L 0.75 -6.484375 Z M 0.75 0 "/>
</g>
<g id="glyph-2-2">
<path d="M 2.75 0.125 C 4.3125 0.125 5.21875 -0.828125 5.21875 -1.90625 C 5.21875 -2.8125 4.75 -3.359375 3.9375 -3.671875 L 3.140625 -4 C 2.5625 -4.234375 2.15625 -4.359375 2.15625 -4.734375 C 2.15625 -5.078125 2.453125 -5.265625 2.9375 -5.265625 C 3.34375 -5.265625 3.796875 -5.09375 4.234375 -4.78125 L 5.03125 -5.796875 C 4.484375 -6.3125 3.71875 -6.59375 2.9375 -6.59375 C 1.5625 -6.59375 0.59375 -5.71875 0.59375 -4.640625 C 0.59375 -3.703125 1.21875 -3.140625 1.90625 -2.859375 L 2.734375 -2.515625 C 3.296875 -2.28125 3.640625 -2.15625 3.640625 -1.78125 C 3.640625 -1.4375 3.375 -1.21875 2.78125 -1.21875 C 2.234375 -1.21875 1.609375 -1.4375 1.15625 -1.828125 L 0.34375 -0.828125 C 1.015625 -0.171875 1.875 0.125 2.75 0.125 Z M 2.75 0.125 "/>
</g>
<g id="glyph-2-3">
<path d="M 2.015625 0 L 3.546875 0 L 3.546875 -5.1875 L 5.3125 -5.1875 L 5.3125 -6.484375 L 0.25 -6.484375 L 0.25 -5.1875 L 2.015625 -5.1875 Z M 2.015625 0 "/>
</g>
<g id="glyph-2-4">
<path d="M 0.75 0 L 2.296875 0 L 2.296875 -2.28125 L 3.0625 -2.28125 L 4.25 0 L 5.984375 0 L 4.53125 -2.5625 C 5.203125 -2.890625 5.65625 -3.5 5.65625 -4.4375 C 5.65625 -6 4.5 -6.484375 3.125 -6.484375 L 0.75 -6.484375 Z M 2.296875 -3.5 L 2.296875 -5.25 L 3 -5.25 C 3.75 -5.25 4.140625 -5.0625 4.140625 -4.4375 C 4.140625 -3.828125 3.75 -3.5 3 -3.5 Z M 2.296875 -3.5 "/>
</g>
<g id="glyph-2-5">
<path d="M 3.40625 0.125 C 5.171875 0.125 6.375 -1.140625 6.375 -3.265625 C 6.375 -5.390625 5.171875 -6.59375 3.40625 -6.59375 C 1.65625 -6.59375 0.453125 -5.390625 0.453125 -3.265625 C 0.453125 -1.140625 1.65625 0.125 3.40625 0.125 Z M 3.40625 -1.21875 C 2.5625 -1.21875 2.03125 -2.015625 2.03125 -3.265625 C 2.03125 -4.53125 2.5625 -5.265625 3.40625 -5.265625 C 4.265625 -5.265625 4.796875 -4.53125 4.796875 -3.265625 C 4.796875 -2.015625 4.265625 -1.21875 3.40625 -1.21875 Z M 3.40625 -1.21875 "/>
</g>
<g id="glyph-2-6">
<path d="M 0.75 0 L 2.296875 0 L 2.296875 -6.484375 L 0.75 -6.484375 Z M 0.75 0 "/>
</g>
<g id="glyph-2-7">
<path d="M 0.75 0 L 2.296875 0 L 2.296875 -2.15625 L 3.0625 -2.15625 C 4.421875 -2.15625 5.609375 -2.828125 5.609375 -4.375 C 5.609375 -5.96875 4.453125 -6.484375 3.03125 -6.484375 L 0.75 -6.484375 Z M 2.296875 -3.375 L 2.296875 -5.25 L 2.9375 -5.25 C 3.6875 -5.25 4.09375 -5.03125 4.09375 -4.375 C 4.09375 -3.734375 3.75 -3.375 2.96875 -3.375 Z M 2.296875 -3.375 "/>
</g>
<g id="glyph-2-8">
<path d="M 0.75 0 L 3.1875 0 C 4.59375 0 5.734375 -0.59375 5.734375 -1.90625 C 5.734375 -2.78125 5.21875 -3.25 4.5625 -3.4375 L 4.5625 -3.46875 C 5.09375 -3.671875 5.421875 -4.296875 5.421875 -4.859375 C 5.421875 -6.125 4.34375 -6.484375 3 -6.484375 L 0.75 -6.484375 Z M 2.296875 -3.90625 L 2.296875 -5.296875 L 2.953125 -5.296875 C 3.59375 -5.296875 3.90625 -5.109375 3.90625 -4.640625 C 3.90625 -4.1875 3.609375 -3.90625 2.953125 -3.90625 Z M 2.296875 -1.1875 L 2.296875 -2.765625 L 3.078125 -2.765625 C 3.84375 -2.765625 4.21875 -2.5625 4.21875 -2.015625 C 4.21875 -1.46875 3.828125 -1.1875 3.078125 -1.1875 Z M 2.296875 -1.1875 "/>
</g>
<g id="glyph-2-9">
<path d="M 0.75 0 L 4.953125 0 L 4.953125 -1.296875 L 2.296875 -1.296875 L 2.296875 -2.671875 L 4.484375 -2.671875 L 4.484375 -3.96875 L 2.296875 -3.96875 L 2.296875 -5.1875 L 4.84375 -5.1875 L 4.84375 -6.484375 L 0.75 -6.484375 Z M 3.5 -6.75 L 4.046875 -7.5 L 1.875 -8.921875 L 1.234375 -7.9375 Z M 3.5 -6.75 "/>
</g>
<g id="glyph-2-10">
<path d="M 0.75 0 L 2.140625 0 L 2.140625 -2.25 C 2.140625 -2.890625 2.015625 -3.984375 1.9375 -4.625 L 1.96875 -4.625 L 2.484375 -2.9375 L 3.359375 -0.546875 L 4.234375 -0.546875 L 5.109375 -2.9375 L 5.640625 -4.625 L 5.6875 -4.625 C 5.609375 -3.984375 5.46875 -2.890625 5.46875 -2.25 L 5.46875 0 L 6.875 0 L 6.875 -6.484375 L 5.1875 -6.484375 L 4.203125 -3.65625 C 4.078125 -3.28125 3.96875 -2.890625 3.859375 -2.484375 L 3.8125 -2.484375 C 3.6875 -2.890625 3.578125 -3.28125 3.46875 -3.65625 L 2.4375 -6.484375 L 0.75 -6.484375 Z M 0.75 0 "/>
</g>
<g id="glyph-2-11">
<path d="M 2.015625 1.78125 L 2.984375 1.390625 C 2.265625 0.09375 1.9375 -1.359375 1.9375 -2.765625 C 1.9375 -4.171875 2.265625 -5.640625 2.984375 -6.921875 L 2.015625 -7.3125 C 1.1875 -5.953125 0.703125 -4.515625 0.703125 -2.765625 C 0.703125 -1.015625 1.1875 0.421875 2.015625 1.78125 Z M 2.015625 1.78125 "/>
</g>
<g id="glyph-2-12">
<path d="M 3.5 0.125 C 4.3125 0.125 5.03125 -0.1875 5.59375 -0.84375 L 4.78125 -1.75 C 4.484375 -1.421875 4.078125 -1.21875 3.546875 -1.21875 C 2.640625 -1.21875 2.03125 -1.953125 2.03125 -3.25 C 2.03125 -4.515625 2.71875 -5.265625 3.578125 -5.265625 C 4.03125 -5.265625 4.375 -5.109375 4.6875 -4.8125 L 5.5 -5.75 C 5.0625 -6.21875 4.375 -6.59375 3.53125 -6.59375 C 1.90625 -6.59375 0.453125 -5.359375 0.453125 -3.1875 C 0.453125 -1 1.84375 0.125 3.5 0.125 Z M 3.5 0.125 "/>
</g>
<g id="glyph-2-13">
<path d="M 0.75 0 L 2.296875 0 L 2.296875 -2.671875 L 4.4375 -2.671875 L 4.4375 0 L 5.984375 0 L 5.984375 -6.484375 L 4.4375 -6.484375 L 4.4375 -4.015625 L 2.296875 -4.015625 L 2.296875 -6.484375 L 0.75 -6.484375 Z M 0.75 0 "/>
</g>
<g id="glyph-2-14">
<path d="M 1.515625 0.125 C 2.046875 0.125 2.453125 -0.296875 2.453125 -0.84375 C 2.453125 -1.375 2.046875 -1.796875 1.515625 -1.796875 C 1 -1.796875 0.609375 -1.375 0.609375 -0.84375 C 0.609375 -0.296875 1 0.125 1.515625 0.125 Z M 1.515625 0.125 "/>
</g>
<g id="glyph-2-15">
<path d="M 0.671875 0 L 4.765625 0 L 4.765625 -1.25 L 3.59375 -1.25 L 3.59375 -6.3125 L 2.453125 -6.3125 C 2.015625 -6.03125 1.546875 -5.859375 0.859375 -5.734375 L 0.859375 -4.78125 L 2.046875 -4.78125 L 2.046875 -1.25 L 0.671875 -1.25 Z M 0.671875 0 "/>
</g>
<g id="glyph-2-16">
<path d="M 2.640625 0.125 C 4.015625 0.125 4.9375 -1.03125 4.9375 -3.1875 C 4.9375 -5.328125 4.015625 -6.4375 2.640625 -6.4375 C 1.28125 -6.4375 0.359375 -5.34375 0.359375 -3.1875 C 0.359375 -1.03125 1.28125 0.125 2.640625 0.125 Z M 2.640625 -1.0625 C 2.1875 -1.0625 1.8125 -1.484375 1.8125 -3.1875 C 1.8125 -4.890625 2.1875 -5.25 2.640625 -5.25 C 3.109375 -5.25 3.484375 -4.890625 3.484375 -3.1875 C 3.484375 -1.484375 3.109375 -1.0625 2.640625 -1.0625 Z M 2.640625 -1.0625 "/>
</g>
<g id="glyph-2-17">
<path d="M 1.46875 1.78125 C 2.296875 0.421875 2.78125 -1.015625 2.78125 -2.765625 C 2.78125 -4.515625 2.296875 -5.953125 1.46875 -7.3125 L 0.484375 -6.921875 C 1.21875 -5.640625 1.53125 -4.171875 1.53125 -2.765625 C 1.53125 -1.359375 1.21875 0.09375 0.484375 1.390625 Z M 1.46875 1.78125 "/>
</g>
<g id="glyph-2-18">
<path d="M 3.328125 0.125 C 5.0625 0.125 5.921875 -0.859375 5.921875 -3.046875 L 5.921875 -6.484375 L 4.4375 -6.484375 L 4.4375 -2.875 C 4.4375 -1.640625 4.046875 -1.21875 3.328125 -1.21875 C 2.625 -1.21875 2.265625 -1.640625 2.265625 -2.875 L 2.265625 -6.484375 L 0.71875 -6.484375 L 0.71875 -3.046875 C 0.71875 -0.859375 1.609375 0.125 3.328125 0.125 Z M 3.328125 0.125 "/>
</g>
<g id="glyph-2-19">
<path d="M 0.75 0 L 2.703125 0 C 4.59375 0 5.890625 -1.03125 5.890625 -3.265625 C 5.890625 -5.515625 4.59375 -6.484375 2.609375 -6.484375 L 0.75 -6.484375 Z M 2.296875 -1.25 L 2.296875 -5.234375 L 2.515625 -5.234375 C 3.5625 -5.234375 4.3125 -4.8125 4.3125 -3.265625 C 4.3125 -1.734375 3.5625 -1.25 2.515625 -1.25 Z M 2.296875 -1.25 "/>
</g>
</g>
</defs>
<path fill-rule="nonzero" fill="rgb(90.194702%, 92.547607%, 96.076965%)" fill-opacity="1" stroke-width="0.69739" stroke-linecap="round" stroke-linejoin="round" stroke="rgb(12.156677%, 22.744751%, 40.783691%)" stroke-opacity="1" stroke-miterlimit="10" d="M 74.542492 52.442657 L -74.543131 52.442657 C -75.642571 52.442657 -76.534644 51.550585 -76.534644 50.447232 L -76.534644 0.573349 C -76.534644 -0.52609 -75.642571 -1.418163 -74.543131 -1.418163 L 74.542492 -1.418163 C 75.645844 -1.418163 76.537917 -0.52609 76.537917 0.573349 L 76.537917 50.447232 C 76.537917 51.550585 75.645844 52.442657 74.542492 52.442657 Z M 74.542492 52.442657 " transform="matrix(0.998378, 0, 0, -0.998378, 82.828444, 116.029451)"/>
<g fill="rgb(12.156677%, 14.118958%, 18.824768%)" fill-opacity="1">
<use xlink:href="#glyph-0-0" x="48.751819" y="80.513165"/>
<use xlink:href="#glyph-0-1" x="55.913284" y="80.513165"/>
</g>
<g fill="rgb(12.156677%, 14.118958%, 18.824768%)" fill-opacity="1">
<use xlink:href="#glyph-0-2" x="60.627914" y="80.513165"/>
</g>
<g fill="rgb(12.156677%, 14.118958%, 18.824768%)" fill-opacity="1">
<use xlink:href="#glyph-0-3" x="67.168719" y="80.513165"/>
<use xlink:href="#glyph-0-4" x="73.482743" y="80.513165"/>
<use xlink:href="#glyph-0-5" x="76.82476" y="80.513165"/>
<use xlink:href="#glyph-0-4" x="82.148115" y="80.513165"/>
<use xlink:href="#glyph-0-2" x="85.490132" y="80.513165"/>
<use xlink:href="#glyph-0-6" x="92.138358" y="80.513165"/>
<use xlink:href="#glyph-0-6" x="99.001429" y="80.513165"/>
<use xlink:href="#glyph-0-7" x="105.864499" y="80.513165"/>
<use xlink:href="#glyph-0-1" x="112.071101" y="80.513165"/>
</g>
<g fill="rgb(35.68573%, 38.430786%, 44.706726%)" fill-opacity="1">
<use xlink:href="#glyph-1-0" x="31.538791" y="93.306376"/>
<use xlink:href="#glyph-1-1" x="36.074384" y="93.306376"/>
</g>
<g fill="rgb(35.68573%, 38.430786%, 44.706726%)" fill-opacity="1">
<use xlink:href="#glyph-1-2" x="39.436293" y="93.306376"/>
<use xlink:href="#glyph-1-3" x="44.369746" y="93.306376"/>
<use xlink:href="#glyph-1-1" x="49.303198" y="93.306376"/>
</g>
<g fill="rgb(35.68573%, 38.430786%, 44.706726%)" fill-opacity="1">
<use xlink:href="#glyph-1-4" x="54.753868" y="93.306376"/>
<use xlink:href="#glyph-1-5" x="62.999497" y="93.306376"/>
<use xlink:href="#glyph-1-0" x="68.012521" y="93.306376"/>
<use xlink:href="#glyph-1-6" x="72.548115" y="93.306376"/>
<use xlink:href="#glyph-1-7" x="77.958998" y="93.306376"/>
<use xlink:href="#glyph-1-8" x="80.415778" y="93.306376"/>
<use xlink:href="#glyph-1-3" x="85.856501" y="93.306376"/>
<use xlink:href="#glyph-1-9" x="90.789953" y="93.306376"/>
<use xlink:href="#glyph-1-10" x="94.957527" y="93.306376"/>
</g>
<g fill="rgb(35.68573%, 38.430786%, 44.706726%)" fill-opacity="1">
<use xlink:href="#glyph-1-1" x="99.433441" y="93.306376"/>
</g>
<g fill="rgb(35.68573%, 38.430786%, 44.706726%)" fill-opacity="1">
<use xlink:href="#glyph-1-2" x="102.795351" y="93.306376"/>
<use xlink:href="#glyph-1-9" x="107.728803" y="93.306376"/>
<use xlink:href="#glyph-1-3" x="111.896377" y="93.306376"/>
</g>
<g fill="rgb(35.68573%, 38.430786%, 44.706726%)" fill-opacity="1">
<use xlink:href="#glyph-1-5" x="116.690579" y="93.306376"/>
<use xlink:href="#glyph-1-11" x="121.703603" y="93.306376"/>
<use xlink:href="#glyph-1-12" x="127.114486" y="93.306376"/>
</g>
<g fill="rgb(35.68573%, 38.430786%, 44.706726%)" fill-opacity="1">
<use xlink:href="#glyph-1-10" x="131.630187" y="93.306376"/>
</g>
<g fill="rgb(35.68573%, 38.430786%, 44.706726%)" fill-opacity="1">
<use xlink:href="#glyph-1-13" x="66.739589" y="107.231747"/>
<use xlink:href="#glyph-1-7" x="72.259883" y="107.231747"/>
<use xlink:href="#glyph-1-9" x="74.716663" y="107.231747"/>
<use xlink:href="#glyph-1-14" x="78.884237" y="107.231747"/>
<use xlink:href="#glyph-1-11" x="84.404532" y="107.231747"/>
<use xlink:href="#glyph-1-3" x="89.815415" y="107.231747"/>
<use xlink:href="#glyph-1-9" x="94.748868" y="107.231747"/>
</g>
<path fill-rule="nonzero" fill="rgb(90.194702%, 92.547607%, 96.076965%)" fill-opacity="1" stroke-width="0.69739" stroke-linecap="round" stroke-linejoin="round" stroke="rgb(12.156677%, 22.744751%, 40.783691%)" stroke-opacity="1" stroke-miterlimit="10" d="M 74.542492 -35.434287 L -74.543131 -35.434287 C -75.642571 -35.434287 -76.534644 -36.32636 -76.534644 -37.4258 L -76.534644 -87.299683 C -76.534644 -88.399122 -75.642571 -89.291195 -74.543131 -89.291195 L 74.542492 -89.291195 C 75.645844 -89.291195 76.537917 -88.399122 76.537917 -87.299683 L 76.537917 -37.4258 C 76.537917 -36.32636 75.645844 -35.434287 74.542492 -35.434287 Z M 74.542492 -35.434287 " transform="matrix(0.998378, 0, 0, -0.998378, 82.828444, 116.029451)"/>
<g fill="rgb(12.156677%, 14.118958%, 18.824768%)" fill-opacity="1">
<use xlink:href="#glyph-0-8" x="54.349722" y="176.166727"/>
<use xlink:href="#glyph-0-2" x="61.308279" y="176.166727"/>
<use xlink:href="#glyph-0-6" x="67.956505" y="176.166727"/>
<use xlink:href="#glyph-0-9" x="74.819575" y="176.166727"/>
<use xlink:href="#glyph-0-4" x="78.961289" y="176.166727"/>
<use xlink:href="#glyph-0-10" x="82.303306" y="176.166727"/>
<use xlink:href="#glyph-0-11" x="88.724752" y="176.166727"/>
<use xlink:href="#glyph-0-1" x="95.552015" y="176.166727"/>
</g>
<g fill="rgb(12.156677%, 14.118958%, 18.824768%)" fill-opacity="1">
<use xlink:href="#glyph-0-7" x="100.266646" y="176.166727"/>
<use xlink:href="#glyph-0-1" x="106.473248" y="176.166727"/>
</g>
<g fill="rgb(35.68573%, 38.430786%, 44.706726%)" fill-opacity="1">
<use xlink:href="#glyph-1-15" x="24.631016" y="188.959937"/>
<use xlink:href="#glyph-1-3" x="27.167367" y="188.959937"/>
<use xlink:href="#glyph-1-9" x="32.10082" y="188.959937"/>
</g>
<g fill="rgb(35.68573%, 38.430786%, 44.706726%)" fill-opacity="1">
<use xlink:href="#glyph-1-5" x="38.257689" y="188.959937"/>
<use xlink:href="#glyph-1-4" x="43.270713" y="188.959937"/>
<use xlink:href="#glyph-1-3" x="51.516343" y="188.959937"/>
<use xlink:href="#glyph-1-8" x="56.449795" y="188.959937"/>
<use xlink:href="#glyph-1-3" x="61.890518" y="188.959937"/>
<use xlink:href="#glyph-1-1" x="66.823971" y="188.959937"/>
</g>
<g fill="rgb(35.68573%, 38.430786%, 44.706726%)" fill-opacity="1">
<use xlink:href="#glyph-1-13" x="72.27464" y="188.959937"/>
<use xlink:href="#glyph-1-5" x="77.794934" y="188.959937"/>
<use xlink:href="#glyph-1-8" x="82.807959" y="188.959937"/>
<use xlink:href="#glyph-1-9" x="88.248682" y="188.959937"/>
</g>
<g fill="rgb(35.68573%, 38.430786%, 44.706726%)" fill-opacity="1">
<use xlink:href="#glyph-1-15" x="94.405551" y="188.959937"/>
<use xlink:href="#glyph-1-16" x="96.941902" y="188.959937"/>
<use xlink:href="#glyph-1-2" x="99.428522" y="188.959937"/>
</g>
<g fill="rgb(35.68573%, 38.430786%, 44.706726%)" fill-opacity="1">
<use xlink:href="#glyph-1-17" x="104.262509" y="188.959937"/>
</g>
<g fill="rgb(35.68573%, 38.430786%, 44.706726%)" fill-opacity="1">
<use xlink:href="#glyph-1-5" x="107.425489" y="188.959937"/>
</g>
<g fill="rgb(35.68573%, 38.430786%, 44.706726%)" fill-opacity="1">
<use xlink:href="#glyph-1-17" x="112.299263" y="188.959937"/>
</g>
<g fill="rgb(35.68573%, 38.430786%, 44.706726%)" fill-opacity="1">
<use xlink:href="#glyph-1-18" x="117.660414" y="188.959937"/>
</g>
<g fill="rgb(35.68573%, 38.430786%, 44.706726%)" fill-opacity="1">
<use xlink:href="#glyph-1-19" x="122.275579" y="188.959937"/>
<use xlink:href="#glyph-1-11" x="127.666569" y="188.959937"/>
<use xlink:href="#glyph-1-15" x="133.077453" y="188.959937"/>
<use xlink:href="#glyph-1-11" x="135.613804" y="188.959937"/>
</g>
<path fill-rule="nonzero" fill="rgb(90.194702%, 92.547607%, 96.076965%)" fill-opacity="1" stroke-width="0.69739" stroke-linecap="round" stroke-linejoin="round" stroke="rgb(12.156677%, 22.744751%, 40.783691%)" stroke-opacity="1" stroke-miterlimit="10" d="M 74.542492 -109.13589 L -74.543131 -109.13589 C -75.642571 -109.13589 -76.534644 -110.027963 -76.534644 -111.127403 L -76.534644 -161.001286 C -76.534644 -162.100726 -75.642571 -162.992798 -74.543131 -162.992798 L 74.542492 -162.992798 C 75.645844 -162.992798 76.537917 -162.100726 76.537917 -161.001286 L 76.537917 -111.127403 C 76.537917 -110.027963 75.645844 -109.13589 74.542492 -109.13589 Z M 74.542492 -109.13589 " transform="matrix(0.998378, 0, 0, -0.998378, 82.828444, 116.029451)"/>
<g fill="rgb(12.156677%, 14.118958%, 18.824768%)" fill-opacity="1">
<use xlink:href="#glyph-0-12" x="54.3018" y="243.189813"/>
<use xlink:href="#glyph-0-1" x="62.501677" y="243.189813"/>
</g>
<g fill="rgb(12.156677%, 14.118958%, 18.824768%)" fill-opacity="1">
<use xlink:href="#glyph-0-13" x="67.216308" y="243.189813"/>
<use xlink:href="#glyph-0-14" x="72.814186" y="243.189813"/>
<use xlink:href="#glyph-0-7" x="79.677256" y="243.189813"/>
<use xlink:href="#glyph-0-5" x="85.883859" y="243.189813"/>
</g>
<g fill="rgb(12.156677%, 14.118958%, 18.824768%)" fill-opacity="1">
<use xlink:href="#glyph-0-15" x="90.968499" y="243.189813"/>
<use xlink:href="#glyph-0-1" x="95.599579" y="243.189813"/>
</g>
<g fill="rgb(12.156677%, 14.118958%, 18.824768%)" fill-opacity="1">
<use xlink:href="#glyph-0-7" x="100.31421" y="243.189813"/>
<use xlink:href="#glyph-0-1" x="106.520812" y="243.189813"/>
</g>
<g fill="rgb(35.68573%, 38.430786%, 44.706726%)" fill-opacity="1">
<use xlink:href="#glyph-1-13" x="45.339364" y="255.983024"/>
<use xlink:href="#glyph-1-5" x="50.859659" y="255.983024"/>
<use xlink:href="#glyph-1-8" x="55.872683" y="255.983024"/>
<use xlink:href="#glyph-1-9" x="61.313406" y="255.983024"/>
</g>
<g fill="rgb(35.68573%, 38.430786%, 44.706726%)" fill-opacity="1">
<use xlink:href="#glyph-1-15" x="67.470275" y="255.983024"/>
<use xlink:href="#glyph-1-3" x="70.006627" y="255.983024"/>
</g>
<g fill="rgb(35.68573%, 38.430786%, 44.706726%)" fill-opacity="1">
<use xlink:href="#glyph-1-20" x="76.929375" y="255.983024"/>
<use xlink:href="#glyph-1-19" x="82.439723" y="255.983024"/>
<use xlink:href="#glyph-1-8" x="87.830713" y="255.983024"/>
</g>
<g fill="rgb(35.68573%, 38.430786%, 44.706726%)" fill-opacity="1">
<use xlink:href="#glyph-1-19" x="95.260732" y="255.983024"/>
<use xlink:href="#glyph-1-1" x="100.651722" y="255.983024"/>
</g>
<g fill="rgb(35.68573%, 38.430786%, 44.706726%)" fill-opacity="1">
<use xlink:href="#glyph-1-13" x="104.013631" y="255.983024"/>
<use xlink:href="#glyph-1-1" x="109.533926" y="255.983024"/>
</g>
<g fill="rgb(35.68573%, 38.430786%, 44.706726%)" fill-opacity="1">
<use xlink:href="#glyph-1-3" x="112.895835" y="255.983024"/>
<use xlink:href="#glyph-1-10" x="117.829288" y="255.983024"/>
</g>
<g fill="rgb(35.68573%, 38.430786%, 44.706726%)" fill-opacity="1">
<use xlink:href="#glyph-1-21" x="45.290444" y="268.776235"/>
</g>
<g fill="rgb(35.68573%, 38.430786%, 44.706726%)" fill-opacity="1">
<use xlink:href="#glyph-1-15" x="52.30271" y="268.776235"/>
<use xlink:href="#glyph-1-5" x="54.839062" y="268.776235"/>
</g>
<g fill="rgb(35.68573%, 38.430786%, 44.706726%)" fill-opacity="1">
<use xlink:href="#glyph-1-20" x="61.841381" y="268.776235"/>
<use xlink:href="#glyph-1-19" x="67.35173" y="268.776235"/>
<use xlink:href="#glyph-1-8" x="72.74272" y="268.776235"/>
<use xlink:href="#glyph-1-8" x="78.183443" y="268.776235"/>
<use xlink:href="#glyph-1-3" x="83.624166" y="268.776235"/>
</g>
<g fill="rgb(35.68573%, 38.430786%, 44.706726%)" fill-opacity="1">
<use xlink:href="#glyph-1-2" x="90.546914" y="268.776235"/>
<use xlink:href="#glyph-1-0" x="95.480366" y="268.776235"/>
<use xlink:href="#glyph-1-6" x="100.015959" y="268.776235"/>
<use xlink:href="#glyph-1-3" x="105.426843" y="268.776235"/>
<use xlink:href="#glyph-1-15" x="110.360295" y="268.776235"/>
<use xlink:href="#glyph-1-15" x="112.896647" y="268.776235"/>
<use xlink:href="#glyph-1-3" x="115.432999" y="268.776235"/>
</g>
<path fill-rule="nonzero" fill="rgb(88.233948%, 93.725586%, 92.547607%)" fill-opacity="1" stroke-width="0.69739" stroke-linecap="round" stroke-linejoin="round" stroke="rgb(11.373901%, 43.528748%, 41.569519%)" stroke-opacity="1" stroke-miterlimit="10" d="M 335.33278 77.952794 L 174.908448 77.952794 C 173.805096 77.952794 172.913024 77.060722 172.913024 75.961282 L 172.913024 37.426107 C 172.913024 36.326667 173.805096 35.434595 174.908448 35.434595 L 335.33278 35.434595 C 336.43222 35.434595 337.324292 36.326667 337.324292 37.426107 L 337.324292 75.961282 C 337.324292 77.060722 336.43222 77.952794 335.33278 77.952794 Z M 335.33278 77.952794 " transform="matrix(0.998378, 0, 0, -0.998378, 82.828444, 116.029451)"/>
<g fill="rgb(12.156677%, 14.118958%, 18.824768%)" fill-opacity="1">
<use xlink:href="#glyph-0-16" x="292.006527" y="56.857606"/>
</g>
<g fill="rgb(12.156677%, 14.118958%, 18.824768%)" fill-opacity="1">
<use xlink:href="#glyph-0-17" x="298.260873" y="56.857606"/>
<use xlink:href="#glyph-0-10" x="304.586833" y="56.857606"/>
<use xlink:href="#glyph-0-1" x="311.008279" y="56.857606"/>
</g>
<g fill="rgb(12.156677%, 14.118958%, 18.824768%)" fill-opacity="1">
<use xlink:href="#glyph-0-17" x="315.49613" y="56.857606"/>
<use xlink:href="#glyph-0-6" x="321.822091" y="56.857606"/>
<use xlink:href="#glyph-0-15" x="328.685161" y="56.857606"/>
</g>
<g fill="rgb(35.68573%, 38.430786%, 44.706726%)" fill-opacity="1">
<use xlink:href="#glyph-1-0" x="335.703519" y="56.857606"/>
<use xlink:href="#glyph-1-6" x="340.239112" y="56.857606"/>
<use xlink:href="#glyph-1-22" x="345.649995" y="56.857606"/>
</g>
<g fill="rgb(35.68573%, 38.430786%, 44.706726%)" fill-opacity="1">
<use xlink:href="#glyph-1-23" x="350.782378" y="56.857606"/>
<use xlink:href="#glyph-1-23" x="355.725776" y="56.857606"/>
<use xlink:href="#glyph-1-10" x="360.669175" y="56.857606"/>
</g>
<g fill="rgb(35.68573%, 38.430786%, 44.706726%)" fill-opacity="1">
<use xlink:href="#glyph-1-24" x="365.14509" y="56.857606"/>
<use xlink:href="#glyph-1-25" x="370.476402" y="56.857606"/>
</g>
<g fill="rgb(35.68573%, 38.430786%, 44.706726%)" fill-opacity="1">
<use xlink:href="#glyph-1-26" x="378.105349" y="56.857606"/>
</g>
<g fill="rgb(35.68573%, 38.430786%, 44.706726%)" fill-opacity="1">
<use xlink:href="#glyph-1-27" x="294.885848" y="69.650816"/>
<use xlink:href="#glyph-1-28" x="300.01823" y="69.650816"/>
</g>
<g fill="rgb(35.68573%, 38.430786%, 44.706726%)" fill-opacity="1">
<use xlink:href="#glyph-1-15" x="309.238614" y="69.650816"/>
<use xlink:href="#glyph-1-19" x="311.774966" y="69.650816"/>
<use xlink:href="#glyph-1-0" x="317.165956" y="69.650816"/>
</g>
<g fill="rgb(35.68573%, 38.430786%, 44.706726%)" fill-opacity="1">
<use xlink:href="#glyph-1-5" x="321.602085" y="69.650816"/>
<use xlink:href="#glyph-1-15" x="326.615109" y="69.650816"/>
<use xlink:href="#glyph-1-3" x="329.151461" y="69.650816"/>
<use xlink:href="#glyph-1-9" x="334.084913" y="69.650816"/>
</g>
<g fill="rgb(35.68573%, 38.430786%, 44.706726%)" fill-opacity="1">
<use xlink:href="#glyph-1-13" x="340.241782" y="69.650816"/>
<use xlink:href="#glyph-1-2" x="345.762077" y="69.650816"/>
<use xlink:href="#glyph-1-0" x="350.695529" y="69.650816"/>
<use xlink:href="#glyph-1-15" x="355.231123" y="69.650816"/>
<use xlink:href="#glyph-1-5" x="357.767474" y="69.650816"/>
<use xlink:href="#glyph-1-1" x="362.780499" y="69.650816"/>
</g>
<g fill="rgb(35.68573%, 38.430786%, 44.706726%)" fill-opacity="1">
<use xlink:href="#glyph-1-2" x="366.142408" y="69.650816"/>
<use xlink:href="#glyph-1-3" x="371.07586" y="69.650816"/>
<use xlink:href="#glyph-1-9" x="376.009313" y="69.650816"/>
</g>
<path fill-rule="nonzero" fill="rgb(88.233948%, 93.725586%, 92.547607%)" fill-opacity="1" stroke-width="0.69739" stroke-linecap="round" stroke-linejoin="round" stroke="rgb(11.373901%, 43.528748%, 41.569519%)" stroke-opacity="1" stroke-miterlimit="10" d="M 335.33278 18.426533 L 174.908448 18.426533 C 173.805096 18.426533 172.913024 17.534461 172.913024 16.431108 L 172.913024 -22.104067 C 172.913024 -23.203507 173.805096 -24.095579 174.908448 -24.095579 L 335.33278 -24.095579 C 336.43222 -24.095579 337.324292 -23.203507 337.324292 -22.104067 L 337.324292 16.431108 C 337.324292 17.534461 336.43222 18.426533 335.33278 18.426533 Z M 335.33278 18.426533 " transform="matrix(0.998378, 0, 0, -0.998378, 82.828444, 116.029451)"/>
<g fill="rgb(12.156677%, 14.118958%, 18.824768%)" fill-opacity="1">
<use xlink:href="#glyph-0-18" x="283.495358" y="115.667039"/>
</g>
<g fill="rgb(12.156677%, 14.118958%, 18.824768%)" fill-opacity="1">
<use xlink:href="#glyph-0-7" x="289.248401" y="115.667039"/>
<use xlink:href="#glyph-0-1" x="295.455003" y="115.667039"/>
<use xlink:href="#glyph-0-1" x="300.288992" y="115.667039"/>
</g>
<g fill="rgb(12.156677%, 14.118958%, 18.824768%)" fill-opacity="1">
<use xlink:href="#glyph-0-17" x="304.776843" y="115.667039"/>
<use xlink:href="#glyph-0-9" x="311.102803" y="115.667039"/>
</g>
<g fill="rgb(12.156677%, 14.118958%, 18.824768%)" fill-opacity="1">
<use xlink:href="#glyph-0-2" x="315.125159" y="115.667039"/>
<use xlink:href="#glyph-0-1" x="321.773385" y="115.667039"/>
<use xlink:href="#glyph-0-19" x="326.607374" y="115.667039"/>
</g>
<g fill="rgb(35.68573%, 38.430786%, 44.706726%)" fill-opacity="1">
<use xlink:href="#glyph-1-0" x="339.27172" y="115.667039"/>
<use xlink:href="#glyph-1-6" x="343.807314" y="115.667039"/>
<use xlink:href="#glyph-1-22" x="349.218197" y="115.667039"/>
</g>
<g fill="rgb(35.68573%, 38.430786%, 44.706726%)" fill-opacity="1">
<use xlink:href="#glyph-1-23" x="354.350579" y="115.667039"/>
<use xlink:href="#glyph-1-29" x="359.293978" y="115.667039"/>
<use xlink:href="#glyph-1-10" x="364.237377" y="115.667039"/>
</g>
<g fill="rgb(35.68573%, 38.430786%, 44.706726%)" fill-opacity="1">
<use xlink:href="#glyph-1-24" x="368.713292" y="115.667039"/>
<use xlink:href="#glyph-1-25" x="374.044603" y="115.667039"/>
</g>
<g fill="rgb(35.68573%, 38.430786%, 44.706726%)" fill-opacity="1">
<use xlink:href="#glyph-1-23" x="381.673551" y="115.667039"/>
<use xlink:href="#glyph-1-30" x="386.61695" y="115.667039"/>
</g>
<g fill="rgb(35.68573%, 38.430786%, 44.706726%)" fill-opacity="1">
<use xlink:href="#glyph-1-2" x="288.882603" y="128.46025"/>
</g>
<g fill="rgb(35.68573%, 38.430786%, 44.706726%)" fill-opacity="1">
<use xlink:href="#glyph-1-17" x="293.716591" y="128.46025"/>
</g>
<g fill="rgb(35.68573%, 38.430786%, 44.706726%)" fill-opacity="1">
<use xlink:href="#glyph-1-5" x="296.879571" y="128.46025"/>
</g>
<g fill="rgb(35.68573%, 38.430786%, 44.706726%)" fill-opacity="1">
<use xlink:href="#glyph-1-17" x="301.753344" y="128.46025"/>
</g>
<g fill="rgb(35.68573%, 38.430786%, 44.706726%)" fill-opacity="1">
<use xlink:href="#glyph-1-13" x="307.114495" y="128.46025"/>
<use xlink:href="#glyph-1-2" x="312.63479" y="128.46025"/>
<use xlink:href="#glyph-1-9" x="317.568242" y="128.46025"/>
<use xlink:href="#glyph-1-7" x="321.735816" y="128.46025"/>
<use xlink:href="#glyph-1-1" x="324.192596" y="128.46025"/>
</g>
<g fill="rgb(35.68573%, 38.430786%, 44.706726%)" fill-opacity="1">
<use xlink:href="#glyph-1-2" x="327.554505" y="128.46025"/>
<use xlink:href="#glyph-1-10" x="332.487958" y="128.46025"/>
</g>
<g fill="rgb(35.68573%, 38.430786%, 44.706726%)" fill-opacity="1">
<use xlink:href="#glyph-1-31" x="336.963872" y="128.46025"/>
<use xlink:href="#glyph-1-15" x="342.484167" y="128.46025"/>
<use xlink:href="#glyph-1-5" x="345.020519" y="128.46025"/>
<use xlink:href="#glyph-1-8" x="350.033543" y="128.46025"/>
</g>
<g fill="rgb(35.68573%, 38.430786%, 44.706726%)" fill-opacity="1">
<use xlink:href="#glyph-1-32" x="357.463561" y="128.46025"/>
</g>
<g fill="rgb(35.68573%, 38.430786%, 44.706726%)" fill-opacity="1">
<use xlink:href="#glyph-1-5" x="362.934123" y="128.46025"/>
<use xlink:href="#glyph-1-31" x="367.947148" y="128.46025"/>
<use xlink:href="#glyph-1-31" x="373.467442" y="128.46025"/>
<use xlink:href="#glyph-1-15" x="378.987737" y="128.46025"/>
<use xlink:href="#glyph-1-33" x="381.524089" y="128.46025"/>
</g>
<path fill-rule="nonzero" fill="rgb(88.233948%, 93.725586%, 92.547607%)" fill-opacity="1" stroke-width="0.69739" stroke-linecap="round" stroke-linejoin="round" stroke="rgb(11.373901%, 43.528748%, 41.569519%)" stroke-opacity="1" stroke-miterlimit="10" d="M 335.33278 -41.103641 L 174.908448 -41.103641 C 173.805096 -41.103641 172.913024 -41.995714 172.913024 -43.095154 L 172.913024 -81.630328 C 172.913024 -82.729768 173.805096 -83.621841 174.908448 -83.621841 L 335.33278 -83.621841 C 336.43222 -83.621841 337.324292 -82.729768 337.324292 -81.630328 L 337.324292 -43.095154 C 337.324292 -41.995714 336.43222 -41.103641 335.33278 -41.103641 Z M 335.33278 -41.103641 " transform="matrix(0.998378, 0, 0, -0.998378, 82.828444, 116.029451)"/>
<g fill="rgb(12.156677%, 14.118958%, 18.824768%)" fill-opacity="1">
<use xlink:href="#glyph-0-20" x="293.194596" y="175.207286"/>
<use xlink:href="#glyph-0-6" x="300.069602" y="175.207286"/>
<use xlink:href="#glyph-0-5" x="306.932672" y="175.207286"/>
<use xlink:href="#glyph-0-4" x="312.256028" y="175.207286"/>
<use xlink:href="#glyph-0-21" x="315.598044" y="175.207286"/>
<use xlink:href="#glyph-0-22" x="322.461115" y="175.207286"/>
<use xlink:href="#glyph-0-7" x="325.922489" y="175.207286"/>
</g>
<g fill="rgb(35.68573%, 38.430786%, 44.706726%)" fill-opacity="1">
<use xlink:href="#glyph-1-0" x="334.515449" y="175.207286"/>
<use xlink:href="#glyph-1-6" x="339.051043" y="175.207286"/>
<use xlink:href="#glyph-1-22" x="344.461926" y="175.207286"/>
</g>
<g fill="rgb(35.68573%, 38.430786%, 44.706726%)" fill-opacity="1">
<use xlink:href="#glyph-1-23" x="349.594308" y="175.207286"/>
<use xlink:href="#glyph-1-34" x="354.537707" y="175.207286"/>
<use xlink:href="#glyph-1-10" x="359.481106" y="175.207286"/>
</g>
<g fill="rgb(35.68573%, 38.430786%, 44.706726%)" fill-opacity="1">
<use xlink:href="#glyph-1-24" x="363.957021" y="175.207286"/>
<use xlink:href="#glyph-1-25" x="369.288332" y="175.207286"/>
</g>
<g fill="rgb(35.68573%, 38.430786%, 44.706726%)" fill-opacity="1">
<use xlink:href="#glyph-1-35" x="376.91728" y="175.207286"/>
</g>
<g fill="rgb(35.68573%, 38.430786%, 44.706726%)" fill-opacity="1">
<use xlink:href="#glyph-1-1" x="282.875365" y="188.000497"/>
</g>
<g fill="rgb(35.68573%, 38.430786%, 44.706726%)" fill-opacity="1">
<use xlink:href="#glyph-1-36" x="286.237274" y="188.000497"/>
<use xlink:href="#glyph-1-15" x="291.628265" y="188.000497"/>
<use xlink:href="#glyph-1-3" x="294.164616" y="188.000497"/>
<use xlink:href="#glyph-1-9" x="299.098069" y="188.000497"/>
</g>
<g fill="rgb(35.68573%, 38.430786%, 44.706726%)" fill-opacity="1">
<use xlink:href="#glyph-1-7" x="305.254938" y="188.000497"/>
<use xlink:href="#glyph-1-13" x="307.711718" y="188.000497"/>
<use xlink:href="#glyph-1-3" x="313.232012" y="188.000497"/>
<use xlink:href="#glyph-1-4" x="318.165465" y="188.000497"/>
<use xlink:href="#glyph-1-31" x="326.411094" y="188.000497"/>
<use xlink:href="#glyph-1-19" x="331.931389" y="188.000497"/>
</g>
<g fill="rgb(35.68573%, 38.430786%, 44.706726%)" fill-opacity="1">
<use xlink:href="#glyph-1-17" x="337.153289" y="188.000497"/>
</g>
<g fill="rgb(35.68573%, 38.430786%, 44.706726%)" fill-opacity="1">
<use xlink:href="#glyph-1-3" x="340.385894" y="188.000497"/>
<use xlink:href="#glyph-1-8" x="345.319347" y="188.000497"/>
<use xlink:href="#glyph-1-17" x="350.76007" y="188.000497"/>
</g>
<g fill="rgb(35.68573%, 38.430786%, 44.706726%)" fill-opacity="1">
<use xlink:href="#glyph-1-9" x="354.03246" y="188.000497"/>
</g>
<g fill="rgb(35.68573%, 38.430786%, 44.706726%)" fill-opacity="1">
<use xlink:href="#glyph-1-9" x="360.18933" y="188.000497"/>
<use xlink:href="#glyph-1-11" x="364.356903" y="188.000497"/>
<use xlink:href="#glyph-1-1" x="369.767787" y="188.000497"/>
</g>
<g fill="rgb(35.68573%, 38.430786%, 44.706726%)" fill-opacity="1">
<use xlink:href="#glyph-1-37" x="375.218456" y="188.000497"/>
</g>
<g fill="rgb(35.68573%, 38.430786%, 44.706726%)" fill-opacity="1">
<use xlink:href="#glyph-1-37" x="380.390624" y="188.000497"/>
<use xlink:href="#glyph-1-38" x="385.702043" y="188.000497"/>
</g>
<path fill-rule="nonzero" fill="rgb(100%, 100%, 100%)" fill-opacity="1" stroke-width="0.69739" stroke-linecap="round" stroke-linejoin="round" stroke="rgb(78.823853%, 80.39093%, 83.921814%)" stroke-opacity="1" stroke-dasharray="2.98883 1.99255" stroke-miterlimit="10" d="M 335.33278 -109.13589 L 174.908448 -109.13589 C 173.805096 -109.13589 172.913024 -110.027963 172.913024 -111.127403 L 172.913024 -161.001286 C 172.913024 -162.100726 173.805096 -162.992798 174.908448 -162.992798 L 335.33278 -162.992798 C 336.43222 -162.992798 337.324292 -162.100726 337.324292 -161.001286 L 337.324292 -111.127403 C 337.324292 -110.027963 336.43222 -109.13589 335.33278 -109.13589 Z M 335.33278 -109.13589 " transform="matrix(0.998378, 0, 0, -0.998378, 82.828444, 116.029451)"/>
<g fill="rgb(35.68573%, 38.430786%, 44.706726%)" fill-opacity="1">
<use xlink:href="#glyph-0-23" x="313.951865" y="242.374139"/>
<use xlink:href="#glyph-0-22" x="320.814936" y="242.374139"/>
<use xlink:href="#glyph-0-11" x="324.27631" y="242.374139"/>
<use xlink:href="#glyph-0-5" x="331.103573" y="242.374139"/>
</g>
<g fill="rgb(35.68573%, 38.430786%, 44.706726%)" fill-opacity="1">
<use xlink:href="#glyph-0-15" x="338.814083" y="242.374139"/>
</g>
<g fill="rgb(35.68573%, 38.430786%, 44.706726%)" fill-opacity="1">
<use xlink:href="#glyph-0-17" x="343.206448" y="242.374139"/>
<use xlink:href="#glyph-0-1" x="349.532408" y="242.374139"/>
</g>
<g fill="rgb(35.68573%, 38.430786%, 44.706726%)" fill-opacity="1">
<use xlink:href="#glyph-0-24" x="354.247039" y="242.374139"/>
</g>
<g fill="rgb(35.68573%, 38.430786%, 44.706726%)" fill-opacity="1">
<use xlink:href="#glyph-1-39" x="287.316149" y="255.167349"/>
</g>
<g fill="rgb(35.68573%, 38.430786%, 44.706726%)" fill-opacity="1">
<use xlink:href="#glyph-1-11" x="292.935908" y="255.167349"/>
<use xlink:href="#glyph-1-20" x="298.346792" y="255.167349"/>
<use xlink:href="#glyph-1-3" x="303.85714" y="255.167349"/>
<use xlink:href="#glyph-1-1" x="308.790592" y="255.167349"/>
<use xlink:href="#glyph-1-8" x="312.251966" y="255.167349"/>
<use xlink:href="#glyph-1-3" x="317.692689" y="255.167349"/>
</g>
<g fill="rgb(35.68573%, 38.430786%, 44.706726%)" fill-opacity="1">
<use xlink:href="#glyph-1-17" x="322.526677" y="255.167349"/>
</g>
<g fill="rgb(35.68573%, 38.430786%, 44.706726%)" fill-opacity="1">
<use xlink:href="#glyph-1-3" x="325.759282" y="255.167349"/>
<use xlink:href="#glyph-1-9" x="330.692734" y="255.167349"/>
</g>
<g fill="rgb(35.68573%, 38.430786%, 44.706726%)" fill-opacity="1">
<use xlink:href="#glyph-1-40" x="336.849603" y="255.167349"/>
<use xlink:href="#glyph-1-9" x="339.873332" y="255.167349"/>
<use xlink:href="#glyph-1-3" x="344.040906" y="255.167349"/>
<use xlink:href="#glyph-1-4" x="348.974359" y="255.167349"/>
<use xlink:href="#glyph-1-3" x="357.219988" y="255.167349"/>
<use xlink:href="#glyph-1-9" x="362.15344" y="255.167349"/>
</g>
<g fill="rgb(35.68573%, 38.430786%, 44.706726%)" fill-opacity="1">
<use xlink:href="#glyph-1-17" x="366.122085" y="255.167349"/>
<use xlink:href="#glyph-1-1" x="369.49394" y="255.167349"/>
</g>
<g fill="rgb(35.68573%, 38.430786%, 44.706726%)" fill-opacity="1">
<use xlink:href="#glyph-1-3" x="372.85585" y="255.167349"/>
</g>
<g fill="rgb(35.68573%, 38.430786%, 44.706726%)" fill-opacity="1">
<use xlink:href="#glyph-1-34" x="379.778597" y="255.167349"/>
<use xlink:href="#glyph-1-41" x="384.721996" y="255.167349"/>
</g>
<g fill="rgb(35.68573%, 38.430786%, 44.706726%)" fill-opacity="1">
<use xlink:href="#glyph-1-42" x="296.457294" y="267.96056"/>
<use xlink:href="#glyph-1-7" x="301.868178" y="267.96056"/>
<use xlink:href="#glyph-1-1" x="304.324957" y="267.96056"/>
<use xlink:href="#glyph-1-43" x="307.786331" y="267.96056"/>
<use xlink:href="#glyph-1-15" x="310.690703" y="267.96056"/>
<use xlink:href="#glyph-1-19" x="313.227054" y="267.96056"/>
</g>
<g fill="rgb(35.68573%, 38.430786%, 44.706726%)" fill-opacity="1">
<use xlink:href="#glyph-1-44" x="318.578259" y="267.96056"/>
</g>
<g fill="rgb(35.68573%, 38.430786%, 44.706726%)" fill-opacity="1">
<use xlink:href="#glyph-1-40" x="327.709125" y="267.96056"/>
<use xlink:href="#glyph-1-9" x="330.732853" y="267.96056"/>
<use xlink:href="#glyph-1-3" x="334.900427" y="267.96056"/>
<use xlink:href="#glyph-1-4" x="339.83388" y="267.96056"/>
<use xlink:href="#glyph-1-3" x="348.079509" y="267.96056"/>
<use xlink:href="#glyph-1-9" x="353.012962" y="267.96056"/>
</g>
<g fill="rgb(35.68573%, 38.430786%, 44.706726%)" fill-opacity="1">
<use xlink:href="#glyph-1-17" x="356.981606" y="267.96056"/>
<use xlink:href="#glyph-1-1" x="360.353461" y="267.96056"/>
</g>
<g fill="rgb(35.68573%, 38.430786%, 44.706726%)" fill-opacity="1">
<use xlink:href="#glyph-1-3" x="363.715371" y="267.96056"/>
</g>
<g fill="rgb(35.68573%, 38.430786%, 44.706726%)" fill-opacity="1">
<use xlink:href="#glyph-1-29" x="370.638119" y="267.96056"/>
<use xlink:href="#glyph-1-41" x="375.581518" y="267.96056"/>
</g>
<path fill="none" stroke-width="0.99628" stroke-linecap="round" stroke-linejoin="round" stroke="rgb(11.373901%, 43.528748%, 41.569519%)" stroke-opacity="1" stroke-miterlimit="10" d="M 76.886138 25.512247 L 172.564802 56.691738 " transform="matrix(0.998378, 0, 0, -0.998378, 82.828444, 116.029451)"/>
<path fill="none" stroke-width="0.99628" stroke-linecap="round" stroke-linejoin="round" stroke="rgb(11.373901%, 43.528748%, 41.569519%)" stroke-opacity="1" stroke-miterlimit="10" d="M 76.886138 25.512247 L 172.564802 -2.834523 " transform="matrix(0.998378, 0, 0, -0.998378, 82.828444, 116.029451)"/>
<path fill="none" stroke-width="0.99628" stroke-linecap="round" stroke-linejoin="round" stroke="rgb(11.373901%, 43.528748%, 41.569519%)" stroke-opacity="1" stroke-miterlimit="10" d="M 76.886138 -62.360785 L 172.564802 -62.360785 " transform="matrix(0.998378, 0, 0, -0.998378, 82.828444, 116.029451)"/>
<path fill="none" stroke-width="0.79701" stroke-linecap="round" stroke-linejoin="round" stroke="rgb(35.68573%, 38.430786%, 44.706726%)" stroke-opacity="1" stroke-dasharray="2.98883 1.99255" stroke-miterlimit="10" d="M 76.886138 -136.062388 L 168.691331 -136.062388 " transform="matrix(0.998378, 0, 0, -0.998378, 82.828444, 116.029451)"/>
<path fill-rule="nonzero" fill="rgb(35.68573%, 38.430786%, 44.706726%)" fill-opacity="1" stroke-width="0.79701" stroke-linecap="round" stroke-linejoin="miter" stroke="rgb(35.68573%, 38.430786%, 44.706726%)" stroke-opacity="1" stroke-miterlimit="10" d="M 5.069528 0.00164219 L 1.313434 1.378877 L 2.561553 0.00164219 L 1.313434 -1.379505 Z M 5.069528 0.00164219 " transform="matrix(0.998378, 0, 0, -0.998378, 248.887915, 251.872733)"/>
<g fill="rgb(12.156677%, 22.744751%, 40.783691%)" fill-opacity="1">
<use xlink:href="#glyph-2-0" x="13.481135" y="17.719206"/>
<use xlink:href="#glyph-2-1" x="18.673195" y="17.719206"/>
<use xlink:href="#glyph-2-2" x="24.143758" y="17.719206"/>
</g>
<g fill="rgb(12.156677%, 22.744751%, 40.783691%)" fill-opacity="1">
<use xlink:href="#glyph-2-3" x="31.683187" y="17.719206"/>
<use xlink:href="#glyph-2-4" x="37.243268" y="17.719206"/>
<use xlink:href="#glyph-2-5" x="43.39019" y="17.719206"/>
<use xlink:href="#glyph-2-6" x="50.22342" y="17.719206"/>
<use xlink:href="#glyph-2-2" x="53.267042" y="17.719206"/>
</g>
<g fill="rgb(12.156677%, 22.744751%, 40.783691%)" fill-opacity="1">
<use xlink:href="#glyph-2-7" x="60.806471" y="17.719206"/>
<use xlink:href="#glyph-2-4" x="66.774357" y="17.719206"/>
<use xlink:href="#glyph-2-5" x="72.92128" y="17.719206"/>
<use xlink:href="#glyph-2-8" x="79.75451" y="17.719206"/>
<use xlink:href="#glyph-2-0" x="85.792021" y="17.719206"/>
<use xlink:href="#glyph-2-9" x="90.984082" y="17.719206"/>
<use xlink:href="#glyph-2-10" x="96.454644" y="17.719206"/>
<use xlink:href="#glyph-2-1" x="104.073646" y="17.719206"/>
<use xlink:href="#glyph-2-2" x="109.544208" y="17.719206"/>
</g>
<g fill="rgb(12.156677%, 22.744751%, 40.783691%)" fill-opacity="1">
<use xlink:href="#glyph-2-11" x="117.083637" y="17.719206"/>
<use xlink:href="#glyph-2-12" x="120.554958" y="17.719206"/>
<use xlink:href="#glyph-2-13" x="126.353754" y="17.719206"/>
<use xlink:href="#glyph-2-14" x="133.077572" y="17.719206"/>
</g>
<g fill="rgb(12.156677%, 22.744751%, 40.783691%)" fill-opacity="1">
<use xlink:href="#glyph-2-15" x="138.120436" y="17.719206"/>
<use xlink:href="#glyph-2-16" x="143.411961" y="17.719206"/>
<use xlink:href="#glyph-2-17" x="148.703487" y="17.719206"/>
</g>
<g fill="rgb(11.373901%, 43.528748%, 41.569519%)" fill-opacity="1">
<use xlink:href="#glyph-2-0" x="291.946624" y="17.385748"/>
<use xlink:href="#glyph-2-1" x="297.138685" y="17.385748"/>
<use xlink:href="#glyph-2-2" x="302.609247" y="17.385748"/>
</g>
<g fill="rgb(11.373901%, 43.528748%, 41.569519%)" fill-opacity="1">
<use xlink:href="#glyph-2-5" x="310.148677" y="17.385748"/>
<use xlink:href="#glyph-2-18" x="316.981906" y="17.385748"/>
<use xlink:href="#glyph-2-3" x="323.616206" y="17.385748"/>
<use xlink:href="#glyph-2-6" x="329.176287" y="17.385748"/>
<use xlink:href="#glyph-2-0" x="332.219909" y="17.385748"/>
</g>
<g fill="rgb(11.373901%, 43.528748%, 41.569519%)" fill-opacity="1">
<use xlink:href="#glyph-2-2" x="337.123522" y="17.385748"/>
</g>
<g fill="rgb(11.373901%, 43.528748%, 41.569519%)" fill-opacity="1">
<use xlink:href="#glyph-2-19" x="344.662951" y="17.385748"/>
<use xlink:href="#glyph-2-18" x="350.998857" y="17.385748"/>
</g>
<g fill="rgb(11.373901%, 43.528748%, 41.569519%)" fill-opacity="1">
<use xlink:href="#glyph-2-8" x="359.622453" y="17.385748"/>
<use xlink:href="#glyph-2-0" x="365.659964" y="17.385748"/>
</g>
<g fill="rgb(11.373901%, 43.528748%, 41.569519%)" fill-opacity="1">
<use xlink:href="#glyph-2-5" x="370.484005" y="17.385748"/>
<use xlink:href="#glyph-2-12" x="377.317235" y="17.385748"/>
</g>
</svg>
