<?xml version="1.0" encoding="UTF-8"?>
<svg xmlns="http://www.w3.org/2000/svg" xmlns:xlink="http://www.w3.org/1999/xlink" width="705.126pt" height="284.701pt" viewBox="0 0 705.126 284.701">
<defs>
<g>
<g id="glyph-0-0">
<path d="M 0.890625 0 L 2.65625 0 L 2.65625 -2.609375 C 2.65625 -3.546875 2.515625 -4.625 2.421875 -5.484375 L 2.46875 -5.484375 C 2.703125 -4.875 2.953125 -4.25 3.21875 -3.71875 L 5.140625 0 L 7.0625 0 L 7.0625 -7.765625 L 5.296875 -7.765625 L 5.296875 -5.15625 C 5.296875 -4.234375 5.4375 -3.125 5.53125 -2.296875 L 5.484375 -2.296875 C 5.25 -2.90625 5 -3.515625 4.734375 -4.046875 L 2.8125 -7.765625 L 0.890625 -7.765625 Z M 0.890625 0 "/>
</g>
<g id="glyph-0-1">
<path d="M 0.75 0 L 2.59375 0 L 2.59375 -5.9375 L 0.75 -5.9375 Z M 1.671875 -6.765625 C 2.28125 -6.765625 2.703125 -7.140625 2.703125 -7.71875 C 2.703125 -8.296875 2.28125 -8.671875 1.671875 -8.671875 C 1.0625 -8.671875 0.625 -8.296875 0.625 -7.71875 C 0.625 -7.140625 1.0625 -6.765625 1.671875 -6.765625 Z M 1.671875 -6.765625 "/>
</g>
<g id="glyph-0-2">
<path d="M 2.125 0 L 4.265625 0 L 6.171875 -5.9375 L 4.40625 -5.9375 L 3.671875 -3.203125 C 3.53125 -2.609375 3.375 -2 3.21875 -1.375 L 3.171875 -1.375 C 3.03125 -2 2.875 -2.609375 2.734375 -3.203125 L 2 -5.9375 L 0.140625 -5.9375 Z M 2.125 0 "/>
</g>
<g id="glyph-0-3">
<path d="M 3.421875 0.140625 C 4.125 0.140625 4.9375 -0.078125 5.5625 -0.53125 L 4.96875 -1.640625 C 4.546875 -1.390625 4.125 -1.265625 3.6875 -1.265625 C 2.9375 -1.265625 2.375 -1.609375 2.203125 -2.40625 L 5.703125 -2.40625 C 5.734375 -2.578125 5.78125 -2.890625 5.78125 -3.21875 C 5.78125 -4.828125 4.9375 -6.078125 3.21875 -6.078125 C 1.796875 -6.078125 0.421875 -4.890625 0.421875 -2.96875 C 0.421875 -0.984375 1.734375 0.140625 3.421875 0.140625 Z M 2.1875 -3.65625 C 2.296875 -4.34375 2.75 -4.671875 3.265625 -4.671875 C 3.9375 -4.671875 4.203125 -4.234375 4.203125 -3.65625 Z M 2.1875 -3.65625 "/>
</g>
<g id="glyph-0-4">
<path d="M 2.25 0.140625 C 2.921875 0.140625 3.46875 -0.15625 3.953125 -0.59375 L 4 -0.59375 L 4.125 0 L 5.640625 0 L 5.640625 -3.359375 C 5.640625 -5.234375 4.78125 -6.078125 3.25 -6.078125 C 2.3125 -6.078125 1.46875 -5.78125 0.6875 -5.296875 L 1.34375 -4.109375 C 1.9375 -4.4375 2.40625 -4.609375 2.890625 -4.609375 C 3.5 -4.609375 3.75 -4.328125 3.796875 -3.828125 C 1.453125 -3.59375 0.484375 -2.90625 0.484375 -1.65625 C 0.484375 -0.671875 1.171875 0.140625 2.25 0.140625 Z M 2.890625 -1.296875 C 2.484375 -1.296875 2.25 -1.453125 2.25 -1.796875 C 2.25 -2.21875 2.609375 -2.546875 3.796875 -2.703125 L 3.796875 -1.75 C 3.515625 -1.46875 3.265625 -1.296875 2.890625 -1.296875 Z M 2.890625 -1.296875 "/>
</g>
<g id="glyph-0-5">
<path d="M 2.546875 0.140625 C 3.34375 0.140625 3.90625 -0.234375 4.390625 -0.8125 L 4.4375 -0.8125 L 4.578125 0 L 6.078125 0 L 6.078125 -5.9375 L 4.21875 -5.9375 L 4.21875 -2.046875 C 3.90625 -1.59375 3.65625 -1.4375 3.234375 -1.4375 C 2.75 -1.4375 2.546875 -1.671875 2.546875 -2.5 L 2.546875 -5.9375 L 0.6875 -5.9375 L 0.6875 -2.25 C 0.6875 -0.78125 1.234375 0.140625 2.546875 0.140625 Z M 2.546875 0.140625 "/>
</g>
<g id="glyph-0-6">
<path d="M 3.171875 0.140625 C 4.828125 0.140625 5.921875 -1.234375 5.921875 -3.8125 C 5.921875 -6.40625 4.828125 -7.71875 3.171875 -7.71875 C 1.53125 -7.71875 0.4375 -6.40625 0.4375 -3.8125 C 0.4375 -1.234375 1.53125 0.140625 3.171875 0.140625 Z M 3.171875 -1.28125 C 2.609375 -1.28125 2.171875 -1.78125 2.171875 -3.8125 C 2.171875 -5.875 2.609375 -6.296875 3.171875 -6.296875 C 3.71875 -6.296875 4.171875 -5.875 4.171875 -3.8125 C 4.171875 -1.78125 3.71875 -1.28125 3.171875 -1.28125 Z M 3.171875 -1.28125 "/>
</g>
<g id="glyph-0-7">
<path d="M 0.75 0 L 2.59375 0 L 2.59375 -3.96875 C 2.953125 -4.3125 3.21875 -4.515625 3.625 -4.515625 C 4.109375 -4.515625 4.328125 -4.265625 4.328125 -3.4375 L 4.328125 0 L 6.171875 0 L 6.171875 -3.671875 C 6.171875 -5.15625 5.625 -6.078125 4.328125 -6.078125 C 3.515625 -6.078125 2.921875 -5.671875 2.4375 -5.1875 L 2.390625 -5.1875 L 2.25 -5.9375 L 0.75 -5.9375 Z M 0.75 0 "/>
</g>
<g id="glyph-0-8">
<path d="M 3.3125 0.140625 C 4.828125 0.140625 6.234375 -1 6.234375 -2.96875 C 6.234375 -4.9375 4.828125 -6.078125 3.3125 -6.078125 C 1.8125 -6.078125 0.421875 -4.9375 0.421875 -2.96875 C 0.421875 -1 1.8125 0.140625 3.3125 0.140625 Z M 3.3125 -1.34375 C 2.625 -1.34375 2.296875 -1.984375 2.296875 -2.96875 C 2.296875 -3.953125 2.625 -4.59375 3.3125 -4.59375 C 4.015625 -4.59375 4.328125 -3.953125 4.328125 -2.96875 C 4.328125 -1.984375 4.015625 -1.34375 3.3125 -1.34375 Z M 3.3125 -1.34375 "/>
</g>
<g id="glyph-0-9">
<path d="M 3.078125 0.140625 C 3.671875 0.140625 4.125 0.03125 4.421875 -0.09375 L 4.140625 -1.390625 C 3.984375 -1.328125 3.78125 -1.296875 3.59375 -1.296875 C 3.15625 -1.296875 2.84375 -1.546875 2.84375 -2.21875 L 2.84375 -4.484375 L 4.234375 -4.484375 L 4.234375 -5.9375 L 2.84375 -5.9375 L 2.84375 -7.75 L 1.3125 -7.75 L 1.09375 -5.9375 L 0.1875 -5.875 L 0.1875 -4.484375 L 0.984375 -4.484375 L 0.984375 -2.203125 C 0.984375 -0.796875 1.59375 0.140625 3.078125 0.140625 Z M 3.078125 0.140625 "/>
</g>
<g id="glyph-0-10">
<path d="M 3.921875 0.140625 C 5.203125 0.140625 6.40625 -1.03125 6.40625 -3.0625 C 6.40625 -4.890625 5.515625 -6.078125 4.078125 -6.078125 C 3.53125 -6.078125 3 -5.84375 2.546875 -5.4375 L 2.59375 -6.34375 L 2.59375 -8.34375 L 0.75 -8.34375 L 0.75 0 L 2.203125 0 L 2.34375 -0.625 L 2.390625 -0.625 C 2.859375 -0.125 3.390625 0.140625 3.921875 0.140625 Z M 3.484375 -1.375 C 3.203125 -1.375 2.890625 -1.453125 2.59375 -1.71875 L 2.59375 -4.078125 C 2.90625 -4.421875 3.203125 -4.578125 3.546875 -4.578125 C 4.203125 -4.578125 4.515625 -4.078125 4.515625 -3.046875 C 4.515625 -1.84375 4.0625 -1.375 3.484375 -1.375 Z M 3.484375 -1.375 "/>
</g>
<g id="glyph-0-11">
<path d="M 0.75 0 L 2.578125 0 L 2.578125 -1.46875 L 3.265625 -2.25 L 4.546875 0 L 6.546875 0 L 4.34375 -3.46875 L 6.40625 -5.9375 L 4.375 -5.9375 L 2.609375 -3.6875 L 2.578125 -3.6875 L 2.578125 -8.34375 L 0.75 -8.34375 Z M 0.75 0 "/>
</g>
<g id="glyph-0-12">
<path d="M 1.0625 0 L 2.90625 0 L 2.90625 -4.484375 L 3.96875 -4.484375 L 3.96875 -5.9375 L 2.90625 -5.9375 L 2.90625 -6.234375 C 2.90625 -6.8125 3.15625 -7.046875 3.5625 -7.046875 C 3.765625 -7.046875 3.96875 -7.015625 4.171875 -6.953125 L 4.515625 -8.265625 C 4.25 -8.375 3.8125 -8.484375 3.3125 -8.484375 C 1.640625 -8.484375 1.0625 -7.421875 1.0625 -6.171875 L 1.0625 -5.921875 L 0.28125 -5.875 L 0.28125 -4.484375 L 1.0625 -4.484375 Z M 1.0625 0 "/>
</g>
<g id="glyph-0-13">
<path d="M 3.359375 0.140625 C 4 0.140625 4.75 -0.03125 5.328125 -0.5625 L 4.609375 -1.71875 C 4.3125 -1.5 3.96875 -1.34375 3.578125 -1.34375 C 2.859375 -1.34375 2.296875 -1.984375 2.296875 -2.96875 C 2.296875 -3.953125 2.8125 -4.59375 3.640625 -4.59375 C 3.90625 -4.59375 4.125 -4.515625 4.40625 -4.3125 L 5.265625 -5.4375 C 4.828125 -5.828125 4.265625 -6.078125 3.53125 -6.078125 C 1.890625 -6.078125 0.421875 -4.9375 0.421875 -2.96875 C 0.421875 -1 1.6875 0.140625 3.359375 0.140625 Z M 3.359375 0.140625 "/>
</g>
<g id="glyph-0-14">
<path d="M 0.75 0 L 2.59375 0 L 2.59375 -3.96875 C 2.953125 -4.3125 3.21875 -4.515625 3.625 -4.515625 C 4.109375 -4.515625 4.328125 -4.265625 4.328125 -3.4375 L 4.328125 0 L 6.171875 0 L 6.171875 -3.671875 C 6.171875 -5.15625 5.625 -6.078125 4.328125 -6.078125 C 3.515625 -6.078125 2.953125 -5.671875 2.5 -5.28125 L 2.59375 -6.34375 L 2.59375 -8.34375 L 0.75 -8.34375 Z M 0.75 0 "/>
</g>
<g id="glyph-0-15">
<path d="M 0.75 0 L 2.59375 0 L 2.59375 -3.390625 C 2.90625 -4.171875 3.4375 -4.46875 3.875 -4.46875 C 4.140625 -4.46875 4.28125 -4.4375 4.484375 -4.390625 L 4.828125 -5.953125 C 4.671875 -6.046875 4.46875 -6.078125 4.125 -6.078125 C 3.515625 -6.078125 2.859375 -5.703125 2.4375 -4.90625 L 2.390625 -4.90625 L 2.25 -5.9375 L 0.75 -5.9375 Z M 0.75 0 "/>
</g>
<g id="glyph-0-16">
<path d="M 0.75 0 L 2.59375 0 L 2.59375 -3.96875 C 2.953125 -4.328125 3.265625 -4.515625 3.546875 -4.515625 C 4.015625 -4.515625 4.234375 -4.265625 4.234375 -3.4375 L 4.234375 0 L 6.09375 0 L 6.09375 -3.96875 C 6.453125 -4.328125 6.75 -4.515625 7.046875 -4.515625 C 7.515625 -4.515625 7.734375 -4.265625 7.734375 -3.4375 L 7.734375 0 L 9.578125 0 L 9.578125 -3.671875 C 9.578125 -5.15625 9 -6.078125 7.71875 -6.078125 C 6.921875 -6.078125 6.375 -5.625 5.859375 -5.09375 C 5.5625 -5.734375 5.046875 -6.078125 4.21875 -6.078125 C 3.4375 -6.078125 2.90625 -5.671875 2.4375 -5.1875 L 2.390625 -5.1875 L 2.25 -5.9375 L 0.75 -5.9375 Z M 0.75 0 "/>
</g>
<g id="glyph-0-17">
<path d="M 2.875 0.140625 C 3.4375 0.140625 4.015625 -0.15625 4.4375 -0.578125 L 4.484375 -0.578125 L 4.609375 0 L 6.125 0 L 6.125 -8.34375 L 4.28125 -8.34375 L 4.28125 -6.34375 L 4.328125 -5.46875 C 3.953125 -5.84375 3.5625 -6.078125 2.90625 -6.078125 C 1.671875 -6.078125 0.453125 -4.90625 0.453125 -2.96875 C 0.453125 -1.03125 1.40625 0.140625 2.875 0.140625 Z M 3.359375 -1.375 C 2.734375 -1.375 2.359375 -1.84375 2.359375 -2.984375 C 2.359375 -4.09375 2.8125 -4.578125 3.34375 -4.578125 C 3.640625 -4.578125 3.984375 -4.484375 4.28125 -4.21875 L 4.28125 -1.859375 C 4 -1.5 3.71875 -1.375 3.359375 -1.375 Z M 3.359375 -1.375 "/>
</g>
<g id="glyph-0-18">
<path d="M 3.421875 0.140625 C 4.125 0.140625 4.9375 -0.078125 5.5625 -0.53125 L 4.96875 -1.640625 C 4.546875 -1.390625 4.125 -1.265625 3.6875 -1.265625 C 2.9375 -1.265625 2.375 -1.609375 2.203125 -2.40625 L 5.703125 -2.40625 C 5.734375 -2.578125 5.78125 -2.890625 5.78125 -3.21875 C 5.78125 -4.828125 4.9375 -6.078125 3.21875 -6.078125 C 1.796875 -6.078125 0.421875 -4.890625 0.421875 -2.96875 C 0.421875 -0.984375 1.734375 0.140625 3.421875 0.140625 Z M 2.1875 -3.65625 C 2.296875 -4.34375 2.75 -4.671875 3.265625 -4.671875 C 3.9375 -4.671875 4.203125 -4.234375 4.203125 -3.65625 Z M 3.6875 -6.828125 L 4.609375 -7.734375 L 2.109375 -9.9375 L 1.0625 -8.703125 Z M 3.6875 -6.828125 "/>
</g>
<g id="glyph-0-19">
<path d="M 2.4375 0.140625 C 2.84375 0.140625 3.15625 0.078125 3.359375 -0.015625 L 3.140625 -1.375 C 3.046875 -1.34375 3 -1.34375 2.921875 -1.34375 C 2.78125 -1.34375 2.59375 -1.46875 2.59375 -1.84375 L 2.59375 -8.34375 L 0.75 -8.34375 L 0.75 -1.921875 C 0.75 -0.6875 1.171875 0.140625 2.4375 0.140625 Z M 2.4375 0.140625 "/>
</g>
<g id="glyph-0-20">
<path d="M 2.53125 0.140625 C 4.140625 0.140625 5 -0.703125 5 -1.796875 C 5 -2.765625 4.28125 -3.3125 3.375 -3.59375 C 2.625 -3.828125 2.296875 -3.96875 2.296875 -4.28125 C 2.296875 -4.546875 2.5 -4.71875 2.921875 -4.71875 C 3.328125 -4.71875 3.765625 -4.59375 4.203125 -4.28125 L 4.984375 -5.328125 C 4.484375 -5.75 3.734375 -6.078125 2.859375 -6.078125 C 1.484375 -6.078125 0.578125 -5.328125 0.578125 -4.203125 C 0.578125 -3.28125 1.296875 -2.75 2.140625 -2.4375 C 2.765625 -2.203125 3.265625 -2.046875 3.265625 -1.6875 C 3.265625 -1.390625 3.0625 -1.21875 2.5625 -1.21875 C 2.09375 -1.21875 1.5625 -1.359375 1.015625 -1.796875 L 0.234375 -0.75 C 0.828125 -0.171875 1.75 0.140625 2.53125 0.140625 Z M 2.53125 0.140625 "/>
</g>
<g id="glyph-0-21">
<path d="M 0.8125 0 L 5.71875 0 L 5.71875 -1.5 L 4.3125 -1.5 L 4.3125 -7.578125 L 2.953125 -7.578125 C 2.40625 -7.234375 1.859375 -7.03125 1.03125 -6.875 L 1.03125 -5.734375 L 2.453125 -5.734375 L 2.453125 -1.5 L 0.8125 -1.5 Z M 0.8125 0 "/>
</g>
<g id="glyph-0-22">
<path d="M 0.75 2.171875 L 2.59375 2.171875 L 2.59375 0.453125 L 2.53125 -0.46875 C 2.953125 -0.078125 3.421875 0.140625 3.921875 0.140625 C 5.203125 0.140625 6.40625 -1.03125 6.40625 -3.0625 C 6.40625 -4.890625 5.53125 -6.078125 4.09375 -6.078125 C 3.484375 -6.078125 2.890625 -5.78125 2.4375 -5.359375 L 2.390625 -5.359375 L 2.25 -5.9375 L 0.75 -5.9375 Z M 3.484375 -1.375 C 3.203125 -1.375 2.890625 -1.453125 2.59375 -1.71875 L 2.59375 -4.078125 C 2.90625 -4.421875 3.203125 -4.578125 3.546875 -4.578125 C 4.203125 -4.578125 4.515625 -4.078125 4.515625 -3.046875 C 4.515625 -1.84375 4.0625 -1.375 3.484375 -1.375 Z M 3.484375 -1.375 "/>
</g>
<g id="glyph-0-23">
<path d="M 1.25 -4.09375 C 2.4375 -4.671875 3.015625 -5.546875 3.015625 -6.703125 C 3.015625 -7.71875 2.609375 -8.3125 1.84375 -8.3125 C 1.296875 -8.3125 0.890625 -7.921875 0.890625 -7.296875 C 0.890625 -6.75 1.3125 -6.390625 1.84375 -6.390625 C 1.875 -6.390625 1.921875 -6.390625 1.953125 -6.40625 C 1.953125 -5.703125 1.59375 -5.234375 0.859375 -4.890625 Z M 1.25 -4.09375 "/>
</g>
<g id="glyph-0-24">
<path d="M 0.75 0 L 2.59375 0 L 2.59375 -5.9375 L 0.75 -5.9375 Z M 0.140625 -6.6875 L 1.640625 -7.75 L 1.6875 -7.75 L 3.203125 -6.6875 L 3.90625 -7.34375 L 2.609375 -8.890625 L 0.734375 -8.890625 L -0.5625 -7.34375 Z M 0.140625 -6.6875 "/>
</g>
<g id="glyph-0-25">
<path d="M 0.4375 0 L 5.828125 0 L 5.828125 -1.546875 L 4.203125 -1.546875 C 3.859375 -1.546875 3.328125 -1.5 2.9375 -1.46875 C 4.21875 -2.703125 5.453125 -3.9375 5.453125 -5.296875 C 5.453125 -6.75 4.421875 -7.71875 2.90625 -7.71875 C 1.84375 -7.71875 1.140625 -7.3125 0.390625 -6.46875 L 1.34375 -5.515625 C 1.71875 -5.90625 2.140625 -6.265625 2.65625 -6.265625 C 3.296875 -6.265625 3.6875 -5.890625 3.6875 -5.1875 C 3.6875 -4.125 2.296875 -2.78125 0.4375 -1.140625 Z M 0.4375 0 "/>
</g>
<g id="glyph-0-26">
<path d="M 4.1875 0.140625 C 5.171875 0.140625 6.03125 -0.234375 6.703125 -1 L 5.734375 -2.09375 C 5.375 -1.703125 4.875 -1.453125 4.25 -1.453125 C 3.15625 -1.453125 2.4375 -2.359375 2.4375 -3.90625 C 2.4375 -5.40625 3.265625 -6.3125 4.28125 -6.3125 C 4.828125 -6.3125 5.234375 -6.140625 5.625 -5.78125 L 6.59375 -6.90625 C 6.0625 -7.46875 5.25 -7.921875 4.234375 -7.921875 C 2.28125 -7.921875 0.53125 -6.421875 0.53125 -3.828125 C 0.53125 -1.203125 2.203125 0.140625 4.1875 0.140625 Z M 4.1875 0.140625 "/>
</g>
<g id="glyph-0-27">
<path d="M 0.890625 0 L 2.75 0 L 2.75 -7.765625 L 0.890625 -7.765625 Z M 0.890625 0 "/>
</g>
<g id="glyph-0-28">
<path d="M 0.15625 1.90625 L 1.359375 1.90625 L 3.671875 -8.46875 L 2.46875 -8.46875 Z M 0.15625 1.90625 "/>
</g>
<g id="glyph-0-29">
<path d="M 0.890625 0 L 3.234375 0 C 5.5 0 7.0625 -1.234375 7.0625 -3.921875 C 7.0625 -6.609375 5.5 -7.765625 3.125 -7.765625 L 0.890625 -7.765625 Z M 2.75 -1.5 L 2.75 -6.28125 L 3.015625 -6.28125 C 4.28125 -6.28125 5.171875 -5.765625 5.171875 -3.921875 C 5.171875 -2.078125 4.28125 -1.5 3.015625 -1.5 Z M 2.75 -1.5 "/>
</g>
<g id="glyph-1-0">
<path d="M 0.8125 2.046875 L 1.640625 2.046875 L 1.640625 0.40625 L 1.625 -0.4375 C 2.0625 -0.09375 2.515625 0.125 2.953125 0.125 C 4.0625 0.125 5.0625 -0.84375 5.0625 -2.484375 C 5.0625 -3.984375 4.375 -4.953125 3.140625 -4.953125 C 2.578125 -4.953125 2.03125 -4.640625 1.59375 -4.28125 L 1.5625 -4.28125 L 1.5 -4.84375 L 0.8125 -4.84375 Z M 2.8125 -0.578125 C 2.5 -0.578125 2.078125 -0.703125 1.640625 -1.078125 L 1.640625 -3.609375 C 2.109375 -4.046875 2.515625 -4.265625 2.921875 -4.265625 C 3.828125 -4.265625 4.203125 -3.546875 4.203125 -2.484375 C 4.203125 -1.296875 3.609375 -0.578125 2.8125 -0.578125 Z M 2.8125 -0.578125 "/>
</g>
<g id="glyph-1-1">
<path d="M 0.8125 0 L 1.640625 0 L 1.640625 -3.109375 C 1.96875 -3.921875 2.453125 -4.203125 2.859375 -4.203125 C 3.0625 -4.203125 3.171875 -4.1875 3.296875 -4.15625 L 3.484375 -4.859375 C 3.328125 -4.921875 3.1875 -4.953125 2.96875 -4.953125 C 2.421875 -4.953125 1.9375 -4.5625 1.59375 -3.96875 L 1.5625 -3.96875 L 1.5 -4.84375 L 0.8125 -4.84375 Z M 0.8125 0 "/>
</g>
<g id="glyph-1-2">
<path d="M 2.703125 0.125 C 3.875 0.125 4.953125 -0.8125 4.953125 -2.40625 C 4.953125 -4.03125 3.875 -4.953125 2.703125 -4.953125 C 1.515625 -4.953125 0.453125 -4.03125 0.453125 -2.40625 C 0.453125 -0.8125 1.515625 0.125 2.703125 0.125 Z M 2.703125 -0.5625 C 1.875 -0.5625 1.3125 -1.296875 1.3125 -2.40625 C 1.3125 -3.515625 1.875 -4.265625 2.703125 -4.265625 C 3.53125 -4.265625 4.09375 -3.515625 4.09375 -2.40625 C 4.09375 -1.296875 3.53125 -0.5625 2.703125 -0.5625 Z M 2.703125 -0.5625 "/>
</g>
<g id="glyph-1-3">
<path d="M 2.734375 0.125 C 3.296875 0.125 3.859375 -0.09375 4.296875 -0.5 L 3.9375 -1.03125 C 3.640625 -0.765625 3.25 -0.5625 2.796875 -0.5625 C 1.90625 -0.5625 1.3125 -1.296875 1.3125 -2.40625 C 1.3125 -3.515625 1.953125 -4.265625 2.828125 -4.265625 C 3.21875 -4.265625 3.515625 -4.125 3.796875 -3.875 L 4.203125 -4.390625 C 3.859375 -4.703125 3.421875 -4.953125 2.78125 -4.953125 C 1.546875 -4.953125 0.453125 -4.03125 0.453125 -2.40625 C 0.453125 -0.8125 1.4375 0.125 2.734375 0.125 Z M 2.734375 0.125 "/>
</g>
<g id="glyph-1-4">
<path d="M 2.765625 0.125 C 3.4375 0.125 3.953125 -0.078125 4.375 -0.375 L 4.078125 -0.90625 C 3.75 -0.671875 3.328125 -0.546875 2.859375 -0.546875 C 1.953125 -0.546875 1.34375 -1.203125 1.28125 -2.203125 L 4.53125 -2.203125 C 4.5625 -2.359375 4.5625 -2.515625 4.5625 -2.6875 C 4.5625 -4.078125 3.859375 -4.953125 2.625 -4.953125 C 1.515625 -4.953125 0.453125 -3.984375 0.453125 -2.421875 C 0.453125 -0.8125 1.46875 0.125 2.765625 0.125 Z M 1.28125 -2.84375 C 1.375 -3.765625 1.96875 -4.296875 2.640625 -4.296875 C 3.390625 -4.296875 3.828125 -3.796875 3.828125 -2.84375 Z M 1.28125 -2.84375 "/>
</g>
<g id="glyph-1-5">
<path d="M 2.078125 0.125 C 3.21875 0.125 3.859375 -0.53125 3.859375 -1.328125 C 3.859375 -2.203125 3.125 -2.53125 2.375 -2.796875 C 1.765625 -3 1.34375 -3.1875 1.34375 -3.625 C 1.34375 -3.984375 1.609375 -4.3125 2.234375 -4.3125 C 2.65625 -4.3125 3 -4.1875 3.34375 -3.9375 L 3.71875 -4.40625 C 3.34375 -4.734375 2.828125 -4.953125 2.21875 -4.953125 C 1.171875 -4.953125 0.546875 -4.359375 0.546875 -3.578125 C 0.546875 -2.78125 1.25 -2.4375 1.96875 -2.1875 C 2.515625 -1.984375 3.0625 -1.765625 3.0625 -1.28125 C 3.0625 -0.859375 2.75 -0.53125 2.109375 -0.53125 C 1.515625 -0.53125 1.078125 -0.703125 0.65625 -1.0625 L 0.28125 -0.578125 C 0.734375 -0.140625 1.375 0.125 2.078125 0.125 Z M 2.078125 0.125 "/>
</g>
<g id="glyph-1-6">
<path d="M 2.234375 0.125 C 2.890625 0.125 3.375 -0.234375 3.828125 -0.75 L 3.859375 -0.75 L 3.921875 0 L 4.59375 0 L 4.59375 -4.84375 L 3.765625 -4.84375 L 3.765625 -1.40625 C 3.328125 -0.84375 2.96875 -0.59375 2.484375 -0.59375 C 1.84375 -0.59375 1.578125 -0.984375 1.578125 -1.875 L 1.578125 -4.84375 L 0.75 -4.84375 L 0.75 -1.765625 C 0.75 -0.53125 1.203125 0.125 2.234375 0.125 Z M 2.234375 0.125 "/>
</g>
<g id="glyph-1-7">
<path d="M 0.8125 0 L 1.640625 0 L 1.640625 -3.5 C 2.09375 -4 2.484375 -4.234375 2.84375 -4.234375 C 3.46875 -4.234375 3.75 -3.859375 3.75 -2.953125 L 3.75 0 L 4.5625 0 L 4.5625 -3.5 C 5.015625 -4 5.40625 -4.234375 5.78125 -4.234375 C 6.390625 -4.234375 6.671875 -3.859375 6.671875 -2.953125 L 6.671875 0 L 7.5 0 L 7.5 -3.0625 C 7.5 -4.296875 7.03125 -4.953125 6.03125 -4.953125 C 5.4375 -4.953125 4.9375 -4.578125 4.4375 -4.046875 C 4.234375 -4.609375 3.84375 -4.953125 3.09375 -4.953125 C 2.515625 -4.953125 2.015625 -4.59375 1.59375 -4.140625 L 1.5625 -4.140625 L 1.5 -4.84375 L 0.8125 -4.84375 Z M 0.8125 0 "/>
</g>
<g id="glyph-1-8">
<path d="M 1.9375 0.125 C 2.53125 0.125 3.0625 -0.1875 3.515625 -0.578125 L 3.546875 -0.578125 L 3.640625 0 L 4.3125 0 L 4.3125 -2.96875 C 4.3125 -4.171875 3.796875 -4.953125 2.625 -4.953125 C 1.84375 -4.953125 1.171875 -4.625 0.734375 -4.328125 L 1.046875 -3.765625 C 1.421875 -4.015625 1.9375 -4.265625 2.484375 -4.265625 C 3.28125 -4.265625 3.46875 -3.6875 3.484375 -3.078125 C 1.40625 -2.84375 0.515625 -2.328125 0.515625 -1.25 C 0.515625 -0.375 1.125 0.125 1.9375 0.125 Z M 2.15625 -0.5625 C 1.6875 -0.5625 1.328125 -0.765625 1.328125 -1.296875 C 1.328125 -1.9375 1.84375 -2.296875 3.484375 -2.484375 L 3.484375 -1.171875 C 3.015625 -0.765625 2.625 -0.5625 2.15625 -0.5625 Z M 2.15625 -0.5625 "/>
</g>
<g id="glyph-1-9">
<path d="M 0.8125 0 L 1.640625 0 L 1.640625 -3.5 C 2.125 -3.984375 2.46875 -4.234375 2.953125 -4.234375 C 3.59375 -4.234375 3.875 -3.859375 3.875 -2.953125 L 3.875 0 L 4.703125 0 L 4.703125 -3.0625 C 4.703125 -4.296875 4.234375 -4.953125 3.21875 -4.953125 C 2.546875 -4.953125 2.046875 -4.59375 1.59375 -4.140625 L 1.5625 -4.140625 L 1.5 -4.84375 L 0.8125 -4.84375 Z M 0.8125 0 "/>
</g>
<g id="glyph-1-10">
<path d="M 1.6875 0.125 C 1.890625 0.125 2.046875 0.09375 2.15625 0.03125 L 2.046875 -0.59375 C 1.96875 -0.5625 1.9375 -0.5625 1.875 -0.5625 C 1.75 -0.5625 1.640625 -0.65625 1.640625 -0.921875 L 1.640625 -7.09375 L 0.8125 -7.09375 L 0.8125 -0.96875 C 0.8125 -0.28125 1.0625 0.125 1.6875 0.125 Z M 1.6875 0.125 "/>
</g>
<g id="glyph-1-11">
<path d="M 1.9375 0.125 C 2.53125 0.125 3.0625 -0.1875 3.515625 -0.578125 L 3.546875 -0.578125 L 3.640625 0 L 4.3125 0 L 4.3125 -2.96875 C 4.3125 -4.171875 3.796875 -4.953125 2.625 -4.953125 C 1.84375 -4.953125 1.171875 -4.625 0.734375 -4.328125 L 1.046875 -3.765625 C 1.421875 -4.015625 1.9375 -4.265625 2.484375 -4.265625 C 3.28125 -4.265625 3.46875 -3.6875 3.484375 -3.078125 C 1.40625 -2.84375 0.515625 -2.328125 0.515625 -1.25 C 0.515625 -0.375 1.125 0.125 1.9375 0.125 Z M 2.15625 -0.5625 C 1.6875 -0.5625 1.328125 -0.765625 1.328125 -1.296875 C 1.328125 -1.9375 1.84375 -2.296875 3.484375 -2.484375 L 3.484375 -1.171875 C 3.015625 -0.765625 2.625 -0.5625 2.15625 -0.5625 Z M 3.078125 -5.703125 L 3.5 -6.125 L 1.8125 -7.765625 L 1.296875 -7.21875 Z M 3.078125 -5.703125 "/>
</g>
<g id="glyph-1-12">
<path d="M 0.8125 0 L 1.640625 0 L 1.640625 -4.84375 L 0.8125 -4.84375 Z M 1.234375 -5.828125 C 1.546875 -5.828125 1.78125 -6.046875 1.78125 -6.375 C 1.78125 -6.6875 1.546875 -6.90625 1.234375 -6.90625 C 0.921875 -6.90625 0.6875 -6.6875 0.6875 -6.375 C 0.6875 -6.046875 0.921875 -5.828125 1.234375 -5.828125 Z M 1.234375 -5.828125 "/>
</g>
<g id="glyph-1-13">
<path d="M 2.34375 0.125 C 2.671875 0.125 3 0.03125 3.25 -0.09375 L 3.078125 -0.671875 C 2.890625 -0.59375 2.703125 -0.5625 2.53125 -0.5625 C 1.984375 -0.5625 1.78125 -0.890625 1.78125 -1.484375 L 1.78125 -4.171875 L 3.09375 -4.171875 L 3.09375 -4.84375 L 1.78125 -4.84375 L 1.78125 -6.390625 L 1.09375 -6.390625 L 1 -4.84375 L 0.234375 -4.78125 L 0.234375 -4.171875 L 0.953125 -4.171875 L 0.953125 -1.5 C 0.953125 -0.53125 1.296875 0.125 2.34375 0.125 Z M 2.34375 0.125 "/>
</g>
<g id="glyph-1-14">
<path d="M 1.859375 0 L 2.828125 0 L 4.53125 -4.84375 L 3.71875 -4.84375 L 2.8125 -2.09375 C 2.671875 -1.625 2.515625 -1.140625 2.375 -0.671875 L 2.328125 -0.671875 C 2.1875 -1.140625 2.03125 -1.625 1.875 -2.09375 L 0.96875 -4.84375 L 0.125 -4.84375 Z M 1.859375 0 "/>
</g>
<g id="glyph-1-15">
<path d="M 2.46875 0.125 C 3.03125 0.125 3.546875 -0.203125 3.9375 -0.5625 L 3.96875 -0.5625 L 4.03125 0 L 4.703125 0 L 4.703125 -7.09375 L 3.875 -7.09375 L 3.875 -5.21875 L 3.921875 -4.40625 C 3.5 -4.75 3.125 -4.953125 2.5625 -4.953125 C 1.46875 -4.953125 0.46875 -3.984375 0.46875 -2.40625 C 0.46875 -0.796875 1.25 0.125 2.46875 0.125 Z M 2.640625 -0.578125 C 1.796875 -0.578125 1.328125 -1.265625 1.328125 -2.421875 C 1.328125 -3.515625 1.9375 -4.265625 2.703125 -4.265625 C 3.109375 -4.265625 3.46875 -4.125 3.875 -3.765625 L 3.875 -1.234375 C 3.484375 -0.796875 3.09375 -0.578125 2.640625 -0.578125 Z M 2.640625 -0.578125 "/>
</g>
<g id="glyph-1-16">
<path d="M 2.765625 0.125 C 3.4375 0.125 3.953125 -0.078125 4.375 -0.375 L 4.078125 -0.90625 C 3.75 -0.671875 3.328125 -0.546875 2.859375 -0.546875 C 1.953125 -0.546875 1.34375 -1.203125 1.28125 -2.203125 L 4.53125 -2.203125 C 4.5625 -2.359375 4.5625 -2.515625 4.5625 -2.6875 C 4.5625 -4.078125 3.859375 -4.953125 2.625 -4.953125 C 1.515625 -4.953125 0.453125 -3.984375 0.453125 -2.421875 C 0.453125 -0.8125 1.46875 0.125 2.765625 0.125 Z M 1.28125 -2.84375 C 1.375 -3.765625 1.96875 -4.296875 2.640625 -4.296875 C 3.390625 -4.296875 3.828125 -3.796875 3.828125 -2.84375 Z M 2.203125 -5.703125 L 3.984375 -7.21875 L 3.46875 -7.765625 L 1.78125 -6.125 Z M 2.203125 -5.703125 "/>
</g>
<g id="glyph-1-17">
<path d="M 3.46875 0.125 C 4.34375 0.125 5.0625 -0.203125 5.484375 -0.640625 L 5.484375 -3.390625 L 3.328125 -3.390625 L 3.328125 -2.703125 L 4.71875 -2.703125 L 4.71875 -1 C 4.453125 -0.75 4.015625 -0.609375 3.546875 -0.609375 C 2.15625 -0.609375 1.390625 -1.640625 1.390625 -3.28125 C 1.390625 -4.90625 2.21875 -5.90625 3.53125 -5.90625 C 4.1875 -5.90625 4.609375 -5.65625 4.9375 -5.328125 L 5.390625 -5.84375 C 5.015625 -6.25 4.421875 -6.65625 3.515625 -6.65625 C 1.78125 -6.65625 0.515625 -5.359375 0.515625 -3.265625 C 0.515625 -1.140625 1.734375 0.125 3.46875 0.125 Z M 3.46875 0.125 "/>
</g>
<g id="glyph-1-18">
<path d="M 0.90625 2.078125 C 1.875 2.078125 2.375 1.359375 2.71875 0.390625 L 4.53125 -4.84375 L 3.734375 -4.84375 L 2.859375 -2.171875 C 2.734375 -1.734375 2.59375 -1.25 2.46875 -0.8125 L 2.421875 -0.8125 C 2.265625 -1.25 2.109375 -1.75 1.953125 -2.171875 L 0.96875 -4.84375 L 0.125 -4.84375 L 2.0625 0.015625 L 1.953125 0.375 C 1.75 0.96875 1.40625 1.390625 0.859375 1.390625 C 0.75 1.390625 0.625 1.375 0.5 1.328125 L 0.328125 1.984375 C 0.484375 2.046875 0.671875 2.078125 0.90625 2.078125 Z M 0.90625 2.078125 "/>
</g>
<g id="glyph-1-19">
<path d="M 2.765625 0.125 C 3.4375 0.125 3.953125 -0.078125 4.375 -0.375 L 4.078125 -0.90625 C 3.75 -0.671875 3.328125 -0.546875 2.859375 -0.546875 C 1.953125 -0.546875 1.34375 -1.203125 1.28125 -2.203125 L 4.53125 -2.203125 C 4.5625 -2.359375 4.5625 -2.515625 4.5625 -2.6875 C 4.5625 -4.078125 3.859375 -4.953125 2.625 -4.953125 C 1.515625 -4.953125 0.453125 -3.984375 0.453125 -2.421875 C 0.453125 -0.8125 1.46875 0.125 2.765625 0.125 Z M 1.28125 -2.84375 C 1.375 -3.765625 1.96875 -4.296875 2.640625 -4.296875 C 3.390625 -4.296875 3.828125 -3.796875 3.828125 -2.84375 Z M 3.0625 -5.703125 L 3.46875 -6.125 L 1.78125 -7.765625 L 1.28125 -7.21875 Z M 3.0625 -5.703125 "/>
</g>
<g id="glyph-1-20">
<path d="M 0.8125 0 L 1.640625 0 L 1.640625 -3.5 C 2.125 -3.984375 2.46875 -4.234375 2.953125 -4.234375 C 3.59375 -4.234375 3.875 -3.859375 3.875 -2.953125 L 3.875 0 L 4.703125 0 L 4.703125 -3.0625 C 4.703125 -4.296875 4.234375 -4.953125 3.21875 -4.953125 C 2.546875 -4.953125 2.0625 -4.59375 1.609375 -4.15625 L 1.640625 -5.15625 L 1.640625 -7.09375 L 0.8125 -7.09375 Z M 0.8125 0 "/>
</g>
<g id="glyph-1-21">
<path d="M 3.359375 0.125 C 4.203125 0.125 4.84375 -0.21875 5.359375 -0.828125 L 4.90625 -1.328125 C 4.484375 -0.859375 4.015625 -0.609375 3.390625 -0.609375 C 2.15625 -0.609375 1.390625 -1.640625 1.390625 -3.28125 C 1.390625 -4.90625 2.203125 -5.90625 3.421875 -5.90625 C 3.984375 -5.90625 4.40625 -5.6875 4.75 -5.328125 L 5.21875 -5.84375 C 4.828125 -6.265625 4.203125 -6.65625 3.40625 -6.65625 C 1.75 -6.65625 0.515625 -5.359375 0.515625 -3.265625 C 0.515625 -1.140625 1.734375 0.125 3.359375 0.125 Z M 3.359375 0.125 "/>
</g>
<g id="glyph-1-22">
<path d="M 0.890625 0 L 1.734375 0 L 1.734375 -6.53125 L 0.890625 -6.53125 Z M 0.890625 0 "/>
</g>
<g id="glyph-1-23">
<path d="M 0.09375 1.59375 L 0.703125 1.59375 L 3.34375 -7.0625 L 2.75 -7.0625 Z M 0.09375 1.59375 "/>
</g>
<g id="glyph-1-24">
<path d="M 0.890625 0 L 2.5625 0 C 4.53125 0 5.609375 -1.21875 5.609375 -3.296875 C 5.609375 -5.359375 4.53125 -6.53125 2.53125 -6.53125 L 0.890625 -6.53125 Z M 1.734375 -0.6875 L 1.734375 -5.84375 L 2.46875 -5.84375 C 3.984375 -5.84375 4.75 -4.9375 4.75 -3.296875 C 4.75 -1.640625 3.984375 -0.6875 2.46875 -0.6875 Z M 1.734375 -0.6875 "/>
</g>
<g id="glyph-1-25">
<path d="M 0.671875 1.6875 C 1.484375 1.359375 1.984375 0.6875 1.984375 -0.171875 C 1.984375 -0.78125 1.71875 -1.140625 1.28125 -1.140625 C 0.953125 -1.140625 0.671875 -0.921875 0.671875 -0.5625 C 0.671875 -0.1875 0.953125 0.015625 1.265625 0.015625 C 1.296875 0.015625 1.328125 0.015625 1.375 0 C 1.375 0.53125 1.03125 0.96875 0.46875 1.21875 Z M 0.671875 1.6875 "/>
</g>
<g id="glyph-1-26">
<path d="M 2.953125 0.125 C 4.0625 0.125 5.0625 -0.84375 5.0625 -2.5 C 5.0625 -3.984375 4.375 -4.953125 3.140625 -4.953125 C 2.59375 -4.953125 2.0625 -4.671875 1.609375 -4.296875 L 1.640625 -5.15625 L 1.640625 -7.09375 L 0.8125 -7.09375 L 0.8125 0 L 1.46875 0 L 1.546875 -0.5 L 1.578125 -0.5 C 2.015625 -0.109375 2.515625 0.125 2.953125 0.125 Z M 2.8125 -0.578125 C 2.5 -0.578125 2.0625 -0.703125 1.640625 -1.078125 L 1.640625 -3.609375 C 2.09375 -4.046875 2.515625 -4.265625 2.921875 -4.265625 C 3.828125 -4.265625 4.203125 -3.546875 4.203125 -2.484375 C 4.203125 -1.296875 3.609375 -0.578125 2.8125 -0.578125 Z M 2.8125 -0.578125 "/>
</g>
<g id="glyph-2-0">
<path d="M 2.109375 0.125 C 3.4375 0.125 4.734375 -1.1875 4.734375 -3.015625 C 4.734375 -4.21875 4.046875 -4.953125 3 -4.953125 C 1.671875 -4.953125 0.390625 -3.65625 0.390625 -1.828125 C 0.390625 -0.609375 1.0625 0.125 2.109375 0.125 Z M 2.1875 -0.515625 C 1.515625 -0.515625 1.171875 -1 1.171875 -1.875 C 1.171875 -3.21875 2.03125 -4.3125 2.921875 -4.3125 C 3.578125 -4.3125 3.953125 -3.84375 3.953125 -2.96875 C 3.953125 -1.625 3.078125 -0.515625 2.1875 -0.515625 Z M 2.1875 -0.515625 "/>
</g>
<g id="glyph-2-1">
<path d="M 0.3125 0 L 1.078125 0 L 1.75 -3.421875 C 2.359375 -4.015625 2.828125 -4.296875 3.203125 -4.296875 C 3.703125 -4.296875 3.921875 -4.046875 3.921875 -3.546875 C 3.921875 -3.390625 3.890625 -3.25 3.84375 -2.984375 L 3.234375 0 L 4.015625 0 L 4.625 -3.078125 C 4.671875 -3.359375 4.703125 -3.515625 4.703125 -3.75 C 4.703125 -4.5 4.375 -4.953125 3.546875 -4.953125 C 2.953125 -4.953125 2.390625 -4.59375 1.875 -4.109375 L 1.828125 -4.109375 L 1.90625 -4.84375 L 1.28125 -4.84375 Z M 0.3125 0 "/>
</g>
<g id="glyph-2-2">
<path d="M 1.125 0.125 C 1.3125 0.125 1.453125 0.078125 1.59375 0.015625 L 1.53125 -0.53125 C 1.453125 -0.515625 1.4375 -0.515625 1.390625 -0.515625 C 1.296875 -0.515625 1.234375 -0.578125 1.234375 -0.671875 C 1.234375 -0.734375 1.234375 -0.78125 1.25 -0.890625 L 2.484375 -7.09375 L 1.71875 -7.09375 L 0.5 -0.921875 C 0.453125 -0.765625 0.4375 -0.625 0.4375 -0.515625 C 0.4375 -0.109375 0.65625 0.125 1.125 0.125 Z M 1.125 0.125 "/>
</g>
<g id="glyph-2-3">
<path d="M 0.3125 0 L 1.078125 0 L 2.046875 -4.84375 L 1.28125 -4.84375 Z M 1.90625 -5.84375 C 2.203125 -5.84375 2.484375 -6.078125 2.484375 -6.40625 C 2.484375 -6.703125 2.25 -6.875 1.984375 -6.875 C 1.6875 -6.875 1.40625 -6.625 1.40625 -6.296875 C 1.40625 -6 1.640625 -5.84375 1.90625 -5.84375 Z M 1.90625 -5.84375 "/>
</g>
<g id="glyph-2-4">
<path d="M 1.296875 0 L 2.21875 0 L 4.78125 -4.84375 L 4.015625 -4.84375 L 2.59375 -2.046875 C 2.359375 -1.5625 2.125 -1.078125 1.890625 -0.59375 L 1.84375 -0.59375 C 1.796875 -1.078125 1.765625 -1.578125 1.703125 -2.046875 L 1.359375 -4.84375 L 0.59375 -4.84375 Z M 1.296875 0 "/>
</g>
<g id="glyph-2-5">
<path d="M 0.3125 0 L 1.078125 0 L 1.671875 -3.046875 C 2.09375 -3.84375 2.625 -4.265625 3.109375 -4.265625 C 3.28125 -4.265625 3.40625 -4.25 3.515625 -4.203125 L 3.796875 -4.859375 C 3.65625 -4.921875 3.5 -4.953125 3.328125 -4.953125 C 2.734375 -4.953125 2.21875 -4.5 1.828125 -3.90625 L 1.796875 -3.90625 L 1.90625 -4.84375 L 1.28125 -4.84375 Z M 0.3125 0 "/>
</g>
<g id="glyph-2-6">
<path d="M 2.3125 0.125 C 2.921875 0.125 3.4375 -0.109375 3.828125 -0.40625 L 3.546875 -0.875 C 3.25 -0.65625 2.859375 -0.5 2.453125 -0.5 C 1.625 -0.5 0.96875 -1.015625 1.140625 -2.234375 L 4.28125 -2.234375 C 4.34375 -2.421875 4.453125 -2.8125 4.453125 -3.203125 C 4.453125 -4.203125 4.046875 -4.953125 2.953125 -4.953125 C 1.6875 -4.953125 0.375 -3.71875 0.375 -1.90625 C 0.375 -0.609375 1.140625 0.125 2.3125 0.125 Z M 1.234375 -2.828125 C 1.46875 -3.75 2.15625 -4.34375 2.859375 -4.34375 C 3.5625 -4.34375 3.796875 -3.828125 3.796875 -3.28125 C 3.796875 -3.109375 3.78125 -2.96875 3.75 -2.828125 Z M 1.234375 -2.828125 "/>
</g>
<g id="glyph-2-7">
<path d="M 1.671875 0.125 C 2.25 0.125 2.828125 -0.265625 3.328125 -0.734375 L 3.375 -0.734375 L 3.296875 0 L 3.9375 0 L 4.890625 -4.84375 L 4.125 -4.84375 L 3.4375 -1.40625 C 2.859375 -0.8125 2.390625 -0.546875 2.015625 -0.546875 C 1.515625 -0.546875 1.296875 -0.796875 1.296875 -1.296875 C 1.296875 -1.46875 1.328125 -1.609375 1.390625 -1.84375 L 1.984375 -4.84375 L 1.21875 -4.84375 L 0.59375 -1.75 C 0.53125 -1.5 0.515625 -1.3125 0.515625 -1.078125 C 0.515625 -0.34375 0.859375 0.125 1.671875 0.125 Z M 1.671875 0.125 "/>
</g>
<g id="glyph-2-8">
<path d="M 1.328125 -3.546875 C 1.71875 -3.546875 1.984375 -3.90625 1.984375 -4.234375 C 1.984375 -4.53125 1.828125 -4.75 1.53125 -4.75 C 1.15625 -4.75 0.859375 -4.390625 0.859375 -4.046875 C 0.859375 -3.765625 1.046875 -3.546875 1.328125 -3.546875 Z M -0.203125 1.640625 C 0.78125 1.359375 1.4375 0.5625 1.4375 -0.421875 C 1.4375 -0.828125 1.25 -1.078125 0.890625 -1.078125 C 0.5 -1.078125 0.265625 -0.765625 0.265625 -0.4375 C 0.265625 -0.140625 0.484375 0.046875 0.78125 0.046875 L 0.8125 0.046875 C 0.71875 0.515625 0.3125 0.9375 -0.3125 1.171875 Z M -0.203125 1.640625 "/>
</g>
<g id="glyph-2-9">
<path d="M 2.875 2.046875 L 3.640625 2.046875 L 5.03125 -4.84375 L 4.40625 -4.84375 L 4.203125 -4.234375 L 4.171875 -4.234375 C 3.9375 -4.671875 3.515625 -4.953125 3 -4.953125 C 1.65625 -4.953125 0.390625 -3.5 0.390625 -1.625 C 0.390625 -0.5 0.9375 0.125 1.78125 0.125 C 2.390625 0.125 2.984375 -0.21875 3.46875 -0.734375 L 3.5 -0.734375 L 3.1875 0.453125 Z M 2.0625 -0.53125 C 1.515625 -0.53125 1.1875 -0.921875 1.1875 -1.75 C 1.1875 -3.078125 2.0625 -4.3125 3.03125 -4.3125 C 3.40625 -4.3125 3.75 -4.109375 4.015625 -3.609375 L 3.578125 -1.4375 C 3.09375 -0.8125 2.5625 -0.53125 2.0625 -0.53125 Z M 2.0625 -0.53125 "/>
</g>
<g id="glyph-2-10">
<path d="M 1.625 0.125 C 2.65625 0.125 3.4375 -0.46875 3.4375 -1.375 C 3.4375 -1.953125 3.109375 -2.3125 2.3125 -2.75 C 1.8125 -3.015625 1.4375 -3.25 1.4375 -3.625 C 1.4375 -4.015625 1.8125 -4.359375 2.3125 -4.359375 C 2.734375 -4.359375 3.109375 -4.171875 3.375 -3.875 L 3.78125 -4.296875 C 3.40625 -4.703125 2.921875 -4.953125 2.328125 -4.953125 C 1.4375 -4.953125 0.71875 -4.375 0.71875 -3.53125 C 0.71875 -2.96875 1.140625 -2.5625 1.734375 -2.234375 C 2.484375 -1.8125 2.703125 -1.625 2.703125 -1.28125 C 2.703125 -0.8125 2.234375 -0.484375 1.6875 -0.484375 C 1.171875 -0.484375 0.703125 -0.734375 0.390625 -1.140625 L -0.015625 -0.78125 C 0.296875 -0.234375 0.96875 0.125 1.625 0.125 Z M 1.625 0.125 "/>
</g>
<g id="glyph-2-11">
<path d="M 0.421875 0 L 1.1875 0 L 2.03125 -4.21875 L 3.015625 -4.21875 L 3.140625 -4.84375 L 2.171875 -4.84375 L 2.328125 -5.65625 C 2.4375 -6.21875 2.71875 -6.578125 3.140625 -6.578125 C 3.390625 -6.578125 3.5625 -6.515625 3.703125 -6.421875 L 3.96875 -6.96875 C 3.734375 -7.109375 3.4375 -7.203125 3.09375 -7.203125 C 2.28125 -7.203125 1.765625 -6.609375 1.5625 -5.640625 L 1.40625 -4.84375 L 0.75 -4.78125 L 0.640625 -4.21875 L 1.28125 -4.21875 Z M 0.421875 0 "/>
</g>
<g id="glyph-2-12">
<path d="M -0.09375 2.046875 L 0.671875 2.046875 L 0.96875 0.453125 L 1.140625 -0.578125 L 1.171875 -0.578125 C 1.40625 -0.171875 1.828125 0.125 2.328125 0.125 C 3.65625 0.125 4.9375 -1.34375 4.9375 -3.203125 C 4.9375 -4.328125 4.40625 -4.953125 3.546875 -4.953125 C 2.953125 -4.953125 2.375 -4.609375 1.875 -4.203125 L 1.84375 -4.203125 L 1.90625 -4.84375 L 1.28125 -4.84375 Z M 2.296875 -0.53125 C 1.921875 -0.53125 1.59375 -0.71875 1.3125 -1.21875 L 1.78125 -3.515625 C 2.234375 -4.015625 2.8125 -4.3125 3.265625 -4.3125 C 3.796875 -4.3125 4.15625 -3.90625 4.15625 -3.09375 C 4.15625 -1.75 3.265625 -0.53125 2.296875 -0.53125 Z M 2.296875 -0.53125 "/>
</g>
<g id="glyph-2-13">
<path d="M 1.78125 0.125 C 2.390625 0.125 2.984375 -0.21875 3.46875 -0.71875 L 3.5 -0.71875 L 3.421875 0 L 4.046875 0 L 5.03125 -4.84375 L 4.40625 -4.84375 L 4.203125 -4.234375 L 4.171875 -4.234375 C 3.9375 -4.671875 3.515625 -4.953125 3 -4.953125 C 1.65625 -4.953125 0.390625 -3.5 0.390625 -1.625 C 0.390625 -0.5 0.9375 0.125 1.78125 0.125 Z M 2.0625 -0.53125 C 1.515625 -0.53125 1.1875 -0.921875 1.1875 -1.75 C 1.1875 -3.078125 2.0625 -4.3125 3.03125 -4.3125 C 3.40625 -4.3125 3.75 -4.109375 4.015625 -3.609375 L 3.578125 -1.4375 C 3.109375 -0.8125 2.5625 -0.53125 2.0625 -0.53125 Z M 2.0625 -0.53125 "/>
</g>
<g id="glyph-2-14">
<path d="M 2.3125 0.125 C 2.921875 0.125 3.4375 -0.109375 3.828125 -0.40625 L 3.546875 -0.875 C 3.25 -0.65625 2.859375 -0.5 2.453125 -0.5 C 1.625 -0.5 0.96875 -1.015625 1.140625 -2.234375 L 4.28125 -2.234375 C 4.34375 -2.421875 4.453125 -2.8125 4.453125 -3.203125 C 4.453125 -4.203125 4.046875 -4.953125 2.953125 -4.953125 C 1.6875 -4.953125 0.375 -3.71875 0.375 -1.90625 C 0.375 -0.609375 1.140625 0.125 2.3125 0.125 Z M 1.234375 -2.828125 C 1.46875 -3.75 2.15625 -4.34375 2.859375 -4.34375 C 3.5625 -4.34375 3.796875 -3.828125 3.796875 -3.28125 C 3.796875 -3.109375 3.78125 -2.96875 3.75 -2.828125 Z M 2.671875 -5.71875 L 4.71875 -7.21875 L 4.3125 -7.765625 L 2.34375 -6.125 Z M 2.671875 -5.71875 "/>
</g>
<g id="glyph-2-15">
<path d="M 1.828125 0.125 C 2.21875 0.125 2.53125 0 2.75 -0.125 L 2.578125 -0.640625 C 2.4375 -0.5625 2.25 -0.5 2.0625 -0.5 C 1.625 -0.5 1.46875 -0.703125 1.46875 -1.109375 C 1.46875 -1.21875 1.484375 -1.34375 1.5 -1.46875 L 2.0625 -4.21875 L 3.296875 -4.21875 L 3.4375 -4.84375 L 2.203125 -4.84375 L 2.515625 -6.375 L 1.859375 -6.375 L 1.46875 -4.84375 L 0.703125 -4.78125 L 0.59375 -4.21875 L 1.296875 -4.21875 L 0.734375 -1.5 C 0.703125 -1.3125 0.6875 -1.15625 0.6875 -0.96875 C 0.6875 -0.359375 1 0.125 1.828125 0.125 Z M 1.828125 0.125 "/>
</g>
<g id="glyph-2-16">
<path d="M 0.3125 0 L 1.078125 0 L 2.046875 -4.84375 L 1.28125 -4.84375 Z M 0.640625 -5.65625 L 2.046875 -6.8125 L 2.09375 -6.8125 L 3.03125 -5.65625 L 3.40625 -5.96875 L 2.53125 -7.359375 L 1.703125 -7.359375 L 0.328125 -5.984375 Z M 0.640625 -5.65625 "/>
</g>
<g id="glyph-2-17">
<path d="M 1.234375 1.765625 L 1.734375 1.578125 C 1.4375 0.8125 1.296875 -0.234375 1.296875 -1.265625 C 1.296875 -3.421875 2.015625 -5.609375 3.421875 -7 L 2.96875 -7.28125 C 1.5 -5.859375 0.640625 -3.75 0.640625 -1.28125 C 0.640625 -0.15625 0.890625 0.96875 1.234375 1.765625 Z M 1.234375 1.765625 "/>
</g>
<g id="glyph-2-18">
<path d="M 2.859375 0.125 C 3.6875 0.125 4.265625 -0.1875 4.75 -0.640625 L 4.40625 -1.125 C 3.984375 -0.78125 3.546875 -0.5625 3 -0.5625 C 1.859375 -0.5625 1.359375 -1.40625 1.359375 -2.59375 C 1.359375 -4.15625 2.34375 -5.96875 3.875 -5.96875 C 4.40625 -5.96875 4.8125 -5.71875 5.0625 -5.28125 L 5.53125 -5.71875 C 5.234375 -6.265625 4.65625 -6.65625 3.921875 -6.65625 C 1.921875 -6.65625 0.5625 -4.578125 0.5625 -2.515625 C 0.5625 -0.953125 1.390625 0.125 2.859375 0.125 Z M 2.859375 0.125 "/>
</g>
<g id="glyph-2-19">
<path d="M 1.65625 0 L 2.421875 0 L 3.59375 -5.859375 L 5.5 -5.859375 L 5.625 -6.53125 L 1.0625 -6.53125 L 0.921875 -5.859375 L 2.8125 -5.859375 Z M 1.65625 0 "/>
</g>
<g id="glyph-2-20">
<path d="M 0.015625 1.765625 C 1.484375 0.34375 2.34375 -1.765625 2.34375 -4.234375 C 2.34375 -5.359375 2.09375 -6.484375 1.734375 -7.28125 L 1.25 -7.09375 C 1.53125 -6.328125 1.6875 -5.265625 1.6875 -4.25 C 1.6875 -2.078125 0.96875 0.09375 -0.4375 1.484375 Z M 0.015625 1.765625 "/>
</g>
<g id="glyph-2-21">
<path d="M 0.34375 -2.203125 L 2.515625 -2.203125 L 2.640625 -2.796875 L 0.46875 -2.796875 Z M 0.34375 -2.203125 "/>
</g>
<g id="glyph-2-22">
<path d="M 0.3125 0 L 1.078125 0 L 1.75 -3.421875 C 2.3125 -4.015625 2.828125 -4.296875 3.109375 -4.296875 C 3.59375 -4.296875 3.8125 -4.046875 3.8125 -3.546875 C 3.8125 -3.390625 3.78125 -3.25 3.734375 -2.984375 L 3.125 0 L 3.90625 0 L 4.59375 -3.421875 C 5.15625 -4.015625 5.65625 -4.296875 5.9375 -4.296875 C 6.421875 -4.296875 6.640625 -4.046875 6.640625 -3.546875 C 6.640625 -3.390625 6.625 -3.25 6.5625 -2.984375 L 5.96875 0 L 6.734375 0 L 7.34375 -3.078125 C 7.40625 -3.359375 7.421875 -3.515625 7.421875 -3.75 C 7.421875 -4.5 7.09375 -4.953125 6.296875 -4.953125 C 5.78125 -4.953125 5.203125 -4.59375 4.578125 -4.015625 C 4.5 -4.53125 4.21875 -4.953125 3.453125 -4.953125 C 2.953125 -4.953125 2.375 -4.59375 1.875 -4.109375 L 1.828125 -4.109375 L 1.90625 -4.84375 L 1.28125 -4.84375 Z M 0.3125 0 "/>
</g>
<g id="glyph-2-23">
<path d="M 2.3125 0.125 C 2.921875 0.125 3.4375 -0.109375 3.828125 -0.40625 L 3.546875 -0.875 C 3.25 -0.65625 2.859375 -0.5 2.453125 -0.5 C 1.625 -0.5 0.96875 -1.015625 1.140625 -2.234375 L 4.28125 -2.234375 C 4.34375 -2.421875 4.453125 -2.8125 4.453125 -3.203125 C 4.453125 -4.203125 4.046875 -4.953125 2.953125 -4.953125 C 1.6875 -4.953125 0.375 -3.71875 0.375 -1.90625 C 0.375 -0.609375 1.140625 0.125 2.3125 0.125 Z M 1.234375 -2.828125 C 1.46875 -3.75 2.15625 -4.34375 2.859375 -4.34375 C 3.5625 -4.34375 3.796875 -3.828125 3.796875 -3.28125 C 3.796875 -3.109375 3.78125 -2.96875 3.75 -2.828125 Z M 1.921875 -5.65625 L 3.328125 -6.8125 L 3.375 -6.8125 L 4.3125 -5.65625 L 4.703125 -5.96875 L 3.8125 -7.359375 L 2.984375 -7.359375 L 1.609375 -5.984375 Z M 1.921875 -5.65625 "/>
</g>
<g id="glyph-2-24">
<path d="M 1.78125 0.125 C 2.390625 0.125 2.984375 -0.21875 3.46875 -0.71875 L 3.5 -0.71875 L 3.421875 0 L 4.046875 0 L 5.03125 -4.84375 L 4.40625 -4.84375 L 4.203125 -4.234375 L 4.171875 -4.234375 C 3.9375 -4.671875 3.515625 -4.953125 3 -4.953125 C 1.65625 -4.953125 0.390625 -3.5 0.390625 -1.625 C 0.390625 -0.5 0.9375 0.125 1.78125 0.125 Z M 2.0625 -0.53125 C 1.515625 -0.53125 1.1875 -0.921875 1.1875 -1.75 C 1.1875 -3.078125 2.0625 -4.3125 3.03125 -4.3125 C 3.40625 -4.3125 3.75 -4.109375 4.015625 -3.609375 L 3.578125 -1.4375 C 3.109375 -0.8125 2.5625 -0.53125 2.0625 -0.53125 Z M 3.75 -5.71875 L 4.171875 -6.078125 L 2.796875 -7.765625 L 2.25 -7.265625 Z M 3.75 -5.71875 "/>
</g>
<g id="glyph-2-25">
<path d="M 2.15625 0.125 C 2.84375 0.125 3.359375 -0.171875 3.703125 -0.453125 L 3.375 -0.9375 C 3.109375 -0.71875 2.703125 -0.515625 2.296875 -0.515625 C 1.53125 -0.515625 1.15625 -1 1.15625 -1.875 C 1.15625 -3.1875 2.046875 -4.3125 3.015625 -4.3125 C 3.40625 -4.3125 3.65625 -4.203125 3.875 -3.9375 L 4.3125 -4.375 C 4.078125 -4.703125 3.65625 -4.953125 3.0625 -4.953125 C 1.65625 -4.953125 0.375 -3.625 0.375 -1.828125 C 0.375 -0.59375 1.09375 0.125 2.15625 0.125 Z M 2.15625 0.125 "/>
</g>
<g id="glyph-2-26">
<path d="M 0.3125 0 L 1.078125 0 L 1.75 -3.421875 C 2.359375 -4.015625 2.828125 -4.296875 3.203125 -4.296875 C 3.703125 -4.296875 3.921875 -4.046875 3.921875 -3.546875 C 3.921875 -3.390625 3.890625 -3.25 3.84375 -2.984375 L 3.234375 0 L 4.015625 0 L 4.625 -3.078125 C 4.6875 -3.359375 4.703125 -3.515625 4.703125 -3.75 C 4.703125 -4.5 4.375 -4.953125 3.546875 -4.953125 C 2.96875 -4.953125 2.4375 -4.609375 1.890625 -4.140625 L 1.84375 -4.140625 L 2.015625 -4.75 L 2.484375 -7.09375 L 1.71875 -7.09375 Z M 0.3125 0 "/>
</g>
<g id="glyph-3-0">
<path d="M 0.125 0 L 1.546875 0 L 2.1875 -3.234375 C 2.59375 -3.65625 2.890625 -3.859375 3.125 -3.859375 C 3.40625 -3.859375 3.578125 -3.6875 3.578125 -3.359375 C 3.578125 -3.234375 3.546875 -3.09375 3.5 -2.90625 L 2.921875 0 L 4.34375 0 L 5 -3.234375 C 5.390625 -3.65625 5.703125 -3.859375 5.90625 -3.859375 C 6.21875 -3.859375 6.390625 -3.6875 6.390625 -3.359375 C 6.390625 -3.234375 6.34375 -3.09375 6.3125 -2.90625 L 5.734375 0 L 7.171875 0 L 7.78125 -3.078125 C 7.828125 -3.328125 7.859375 -3.578125 7.859375 -3.796875 C 7.859375 -4.625 7.5 -5.0625 6.6875 -5.0625 C 6.125 -5.0625 5.5625 -4.703125 5.03125 -4.203125 C 4.890625 -4.734375 4.609375 -5.0625 3.875 -5.0625 C 3.3125 -5.0625 2.78125 -4.703125 2.3125 -4.296875 L 2.265625 -4.296875 L 2.28125 -4.953125 L 1.109375 -4.953125 Z M 0.125 0 "/>
</g>
<g id="glyph-3-1">
<path d="M 2.21875 0.125 C 3.578125 0.125 5 -1.109375 5 -3.03125 C 5 -4.25 4.234375 -5.0625 3.0625 -5.0625 C 1.703125 -5.0625 0.28125 -3.84375 0.28125 -1.9375 C 0.28125 -0.703125 1.0625 0.125 2.21875 0.125 Z M 2.375 -1.03125 C 1.953125 -1.03125 1.734375 -1.390625 1.734375 -1.953125 C 1.734375 -3.078125 2.265625 -3.921875 2.90625 -3.921875 C 3.34375 -3.921875 3.546875 -3.5625 3.546875 -3 C 3.546875 -1.875 3.015625 -1.03125 2.375 -1.03125 Z M 2.375 -1.03125 "/>
</g>
<g id="glyph-3-2">
<path d="M 1.6875 0.125 C 2.203125 0.125 2.78125 -0.171875 3.21875 -0.640625 L 3.25 -0.640625 L 3.234375 0 L 4.40625 0 L 5.796875 -6.953125 L 4.359375 -6.953125 L 4.0625 -5.421875 L 3.953125 -4.484375 L 3.9375 -4.484375 C 3.75 -4.84375 3.375 -5.0625 2.9375 -5.0625 C 1.578125 -5.0625 0.296875 -3.578125 0.296875 -1.703125 C 0.296875 -0.53125 0.828125 0.125 1.6875 0.125 Z M 2.328125 -1.046875 C 2 -1.046875 1.796875 -1.296875 1.796875 -1.875 C 1.796875 -3.03125 2.390625 -3.90625 3.046875 -3.90625 C 3.25 -3.90625 3.515625 -3.765625 3.65625 -3.453125 L 3.328125 -1.765625 C 3 -1.203125 2.640625 -1.046875 2.328125 -1.046875 Z M 2.328125 -1.046875 "/>
</g>
<g id="glyph-3-3">
<path d="M 2.421875 0.125 C 3.109375 0.125 3.703125 -0.09375 4.109375 -0.421875 L 3.640625 -1.28125 C 3.40625 -1.109375 3.03125 -0.984375 2.734375 -0.984375 C 2.09375 -0.984375 1.609375 -1.296875 1.640625 -2.046875 L 4.421875 -2.046875 C 4.515625 -2.1875 4.671875 -2.734375 4.671875 -3.203125 C 4.671875 -4.234375 4.234375 -5.0625 3.046875 -5.0625 C 1.71875 -5.0625 0.28125 -3.828125 0.28125 -2 C 0.28125 -0.671875 1.125 0.125 2.421875 0.125 Z M 1.75 -3 C 1.96875 -3.65625 2.421875 -3.96875 2.859375 -3.96875 C 3.328125 -3.96875 3.5 -3.65625 3.5 -3.28125 C 3.5 -3.171875 3.46875 -3.078125 3.453125 -3 Z M 3.84375 -5.71875 L 4.59375 -6.390625 L 2.96875 -8.265625 L 1.953125 -7.3125 Z M 3.84375 -5.71875 "/>
</g>
<g id="glyph-3-4">
<path d="M 1.484375 0.125 C 1.765625 0.125 2.015625 0.046875 2.21875 -0.03125 L 2.15625 -1.0625 C 2.078125 -1.03125 2.046875 -1.03125 2 -1.03125 C 1.90625 -1.03125 1.828125 -1.09375 1.828125 -1.21875 C 1.828125 -1.296875 1.828125 -1.34375 1.84375 -1.46875 L 2.953125 -6.953125 L 1.515625 -6.953125 L 0.421875 -1.515625 C 0.375 -1.25 0.359375 -1.0625 0.359375 -0.890625 C 0.359375 -0.265625 0.65625 0.125 1.484375 0.125 Z M 1.484375 0.125 "/>
</g>
<g id="glyph-3-5">
<path d="M 2.421875 0.125 C 3.109375 0.125 3.703125 -0.09375 4.109375 -0.421875 L 3.640625 -1.28125 C 3.40625 -1.109375 3.03125 -0.984375 2.734375 -0.984375 C 2.09375 -0.984375 1.609375 -1.296875 1.640625 -2.046875 L 4.421875 -2.046875 C 4.515625 -2.1875 4.671875 -2.734375 4.671875 -3.203125 C 4.671875 -4.234375 4.234375 -5.0625 3.046875 -5.0625 C 1.71875 -5.0625 0.28125 -3.828125 0.28125 -2 C 0.28125 -0.671875 1.125 0.125 2.421875 0.125 Z M 1.75 -3 C 1.96875 -3.65625 2.421875 -3.96875 2.859375 -3.96875 C 3.328125 -3.96875 3.5 -3.65625 3.5 -3.28125 C 3.5 -3.171875 3.46875 -3.078125 3.453125 -3 Z M 1.75 -3 "/>
</g>
<g id="glyph-3-6">
<path d="M -0.25 1.8125 L 1.1875 1.8125 L 1.4375 0.5 L 1.578125 -0.453125 L 1.59375 -0.453125 C 1.796875 -0.09375 2.171875 0.125 2.5625 0.125 C 3.9375 0.125 5.21875 -1.375 5.21875 -3.25 C 5.21875 -4.421875 4.6875 -5.0625 3.828125 -5.0625 C 3.3125 -5.0625 2.765625 -4.796875 2.3125 -4.390625 L 2.296875 -4.390625 L 2.28125 -4.953125 L 1.109375 -4.953125 Z M 2.46875 -1.046875 C 2.234375 -1.046875 1.984375 -1.1875 1.859375 -1.5 L 2.21875 -3.296875 C 2.515625 -3.75 2.890625 -3.90625 3.1875 -3.90625 C 3.515625 -3.90625 3.71875 -3.640625 3.71875 -3.0625 C 3.71875 -1.90625 3.109375 -1.046875 2.46875 -1.046875 Z M 2.46875 -1.046875 "/>
</g>
<g id="glyph-3-7">
<path d="M 0.125 0 L 1.546875 0 L 2.546875 -4.953125 L 1.109375 -4.953125 Z M 2.046875 -5.65625 C 2.546875 -5.65625 2.9375 -6.015625 2.9375 -6.484375 C 2.9375 -6.921875 2.546875 -7.171875 2.171875 -7.171875 C 1.671875 -7.171875 1.28125 -6.78125 1.28125 -6.34375 C 1.28125 -5.875 1.65625 -5.65625 2.046875 -5.65625 Z M 2.046875 -5.65625 "/>
</g>
<g id="glyph-3-8">
<path d="M 0.125 0 L 1.546875 0 L 2.1875 -3.234375 C 2.59375 -3.65625 2.875 -3.859375 3.171875 -3.859375 C 3.46875 -3.859375 3.640625 -3.6875 3.640625 -3.359375 C 3.640625 -3.234375 3.609375 -3.09375 3.5625 -2.90625 L 2.984375 0 L 4.421875 0 L 5.03125 -3.078125 C 5.09375 -3.328125 5.109375 -3.578125 5.109375 -3.796875 C 5.109375 -4.625 4.765625 -5.0625 3.953125 -5.0625 C 3.3125 -5.0625 2.78125 -4.703125 2.3125 -4.296875 L 2.265625 -4.296875 L 2.28125 -4.953125 L 1.109375 -4.953125 Z M 0.125 0 "/>
</g>
</g>
</defs>
<g fill="rgb(63.920593%, 22.744751%, 16.862488%)" fill-opacity="1">
<use xlink:href="#glyph-0-0" x="65.714547" y="20.38967"/>
<use xlink:href="#glyph-0-1" x="73.678774" y="20.38967"/>
<use xlink:href="#glyph-0-2" x="77.022078" y="20.38967"/>
</g>
<g fill="rgb(63.920593%, 22.744751%, 16.862488%)" fill-opacity="1">
<use xlink:href="#glyph-0-3" x="83.23107" y="20.38967"/>
</g>
<g fill="rgb(63.920593%, 22.744751%, 16.862488%)" fill-opacity="1">
<use xlink:href="#glyph-0-4" x="89.308718" y="20.38967"/>
<use xlink:href="#glyph-0-5" x="95.637114" y="20.38967"/>
</g>
<g fill="rgb(63.920593%, 22.744751%, 16.862488%)" fill-opacity="1">
<use xlink:href="#glyph-0-6" x="104.85508" y="20.38967"/>
</g>
<g fill="rgb(63.920593%, 22.744751%, 16.862488%)" fill-opacity="1">
<use xlink:href="#glyph-1-0" x="36.162177" y="32.904158"/>
<use xlink:href="#glyph-1-1" x="41.684597" y="32.904158"/>
</g>
<g fill="rgb(63.920593%, 22.744751%, 16.862488%)" fill-opacity="1">
<use xlink:href="#glyph-1-2" x="45.047801" y="32.904158"/>
<use xlink:href="#glyph-1-3" x="50.440867" y="32.904158"/>
</g>
<g fill="rgb(63.920593%, 22.744751%, 16.862488%)" fill-opacity="1">
<use xlink:href="#glyph-1-4" x="54.769251" y="32.904158"/>
<use xlink:href="#glyph-1-5" x="59.704603" y="32.904158"/>
<use xlink:href="#glyph-1-5" x="63.873781" y="32.904158"/>
<use xlink:href="#glyph-1-6" x="68.04296" y="32.904158"/>
<use xlink:href="#glyph-1-5" x="73.455926" y="32.904158"/>
</g>
<g fill="rgb(63.920593%, 22.744751%, 16.862488%)" fill-opacity="1">
<use xlink:href="#glyph-1-7" x="79.615166" y="32.904158"/>
<use xlink:href="#glyph-1-8" x="87.863971" y="32.904158"/>
<use xlink:href="#glyph-1-9" x="92.878925" y="32.904158"/>
<use xlink:href="#glyph-1-6" x="98.321743" y="32.904158"/>
<use xlink:href="#glyph-1-4" x="103.73471" y="32.904158"/>
<use xlink:href="#glyph-1-10" x="108.670062" y="32.904158"/>
</g>
<path fill-rule="nonzero" fill="rgb(100%, 100%, 100%)" fill-opacity="1" stroke-width="0.69739" stroke-linecap="round" stroke-linejoin="round" stroke="rgb(78.823853%, 80.39093%, 83.921814%)" stroke-opacity="1" stroke-miterlimit="10" d="M 49.031487 17.00933 L -49.031317 17.00933 C -50.130334 17.00933 -51.025974 16.117601 -51.025974 15.014673 L -51.025974 -15.01469 C -51.025974 -16.117618 -50.130334 -17.009347 -49.031317 -17.009347 L 49.031487 -17.009347 C 50.130504 -17.009347 51.026144 -16.117618 51.026144 -15.01469 L 51.026144 15.014673 C 51.026144 16.117601 50.130504 17.00933 49.031487 17.00933 Z M 49.031487 17.00933 " transform="matrix(0.998762, 0, 0, -0.998762, 171.345618, 23.332023)"/>
<g fill="rgb(12.156677%, 14.118958%, 18.824768%)" fill-opacity="1">
<use xlink:href="#glyph-0-7" x="146.055964" y="21.046855"/>
<use xlink:href="#glyph-0-8" x="152.921677" y="21.046855"/>
</g>
<g fill="rgb(12.156677%, 14.118958%, 18.824768%)" fill-opacity="1">
<use xlink:href="#glyph-0-9" x="159.238133" y="21.046855"/>
</g>
<g fill="rgb(12.156677%, 14.118958%, 18.824768%)" fill-opacity="1">
<use xlink:href="#glyph-0-3" x="163.644129" y="21.046855"/>
<use xlink:href="#glyph-0-10" x="169.853122" y="21.046855"/>
<use xlink:href="#glyph-0-8" x="176.718834" y="21.046855"/>
<use xlink:href="#glyph-0-8" x="183.369621" y="21.046855"/>
<use xlink:href="#glyph-0-11" x="190.020407" y="21.046855"/>
</g>
<g fill="rgb(35.68573%, 38.430786%, 44.706726%)" fill-opacity="1">
<use xlink:href="#glyph-1-11" x="152.484996" y="33.844992"/>
</g>
<g fill="rgb(35.68573%, 38.430786%, 44.706726%)" fill-opacity="1">
<use xlink:href="#glyph-1-10" x="159.499962" y="33.844992"/>
<use xlink:href="#glyph-1-8" x="162.03729" y="33.844992"/>
</g>
<g fill="rgb(35.68573%, 38.430786%, 44.706726%)" fill-opacity="1">
<use xlink:href="#glyph-1-7" x="169.042306" y="33.844992"/>
<use xlink:href="#glyph-1-8" x="177.29111" y="33.844992"/>
<use xlink:href="#glyph-1-12" x="182.306065" y="33.844992"/>
<use xlink:href="#glyph-1-9" x="184.76379" y="33.844992"/>
</g>
<path fill-rule="nonzero" fill="rgb(100%, 100%, 100%)" fill-opacity="1" stroke-width="0.69739" stroke-linecap="round" stroke-linejoin="round" stroke="rgb(78.823853%, 80.39093%, 83.921814%)" stroke-opacity="1" stroke-miterlimit="10" d="M 207.77488 17.00933 L 109.708165 17.00933 C 108.609148 17.00933 107.717419 16.117601 107.717419 15.014673 L 107.717419 -15.01469 C 107.717419 -16.117618 108.609148 -17.009347 109.708165 -17.009347 L 207.77488 -17.009347 C 208.873897 -17.009347 209.765626 -16.117618 209.765626 -15.01469 L 209.765626 15.014673 C 209.765626 16.117601 208.873897 17.00933 207.77488 17.00933 Z M 207.77488 17.00933 " transform="matrix(0.998762, 0, 0, -0.998762, 171.345618, 23.332023)"/>
<g fill="rgb(12.156677%, 14.118958%, 18.824768%)" fill-opacity="1">
<use xlink:href="#glyph-0-12" x="291.684459" y="21.840871"/>
<use xlink:href="#glyph-0-1" x="295.827767" y="21.840871"/>
<use xlink:href="#glyph-0-13" x="299.171071" y="21.840871"/>
<use xlink:href="#glyph-0-14" x="304.771104" y="21.840871"/>
<use xlink:href="#glyph-0-1" x="311.636817" y="21.840871"/>
<use xlink:href="#glyph-0-3" x="314.98012" y="21.840871"/>
<use xlink:href="#glyph-0-15" x="321.189113" y="21.840871"/>
</g>
<g fill="rgb(12.156677%, 14.118958%, 18.824768%)" fill-opacity="1">
<use xlink:href="#glyph-0-16" x="328.413037" y="21.840871"/>
<use xlink:href="#glyph-0-8" x="338.693695" y="21.840871"/>
<use xlink:href="#glyph-0-17" x="345.344481" y="21.840871"/>
<use xlink:href="#glyph-0-18" x="352.210194" y="21.840871"/>
<use xlink:href="#glyph-0-19" x="358.419186" y="21.840871"/>
<use xlink:href="#glyph-0-3" x="361.881894" y="21.840871"/>
</g>
<g fill="rgb(35.68573%, 38.430786%, 44.706726%)" fill-opacity="1">
<use xlink:href="#glyph-1-13" x="311.838478" y="34.639008"/>
<use xlink:href="#glyph-1-1" x="315.211632" y="34.639008"/>
</g>
<g fill="rgb(35.68573%, 38.430786%, 44.706726%)" fill-opacity="1">
<use xlink:href="#glyph-1-8" x="318.435531" y="34.639008"/>
<use xlink:href="#glyph-1-9" x="323.450486" y="34.639008"/>
<use xlink:href="#glyph-1-5" x="328.893303" y="34.639008"/>
<use xlink:href="#glyph-1-7" x="333.062482" y="34.639008"/>
<use xlink:href="#glyph-1-12" x="341.311286" y="34.639008"/>
<use xlink:href="#glyph-1-5" x="343.769012" y="34.639008"/>
</g>
<path fill-rule="nonzero" fill="rgb(88.233948%, 93.725586%, 92.547607%)" fill-opacity="1" stroke-width="0.69739" stroke-linecap="round" stroke-linejoin="round" stroke="rgb(11.373901%, 43.528748%, 41.569519%)" stroke-opacity="1" stroke-miterlimit="10" d="M 366.514362 17.00933 L 268.451558 17.00933 C 267.34863 17.00933 266.456901 16.117601 266.456901 15.014673 L 266.456901 -15.01469 C 266.456901 -16.117618 267.34863 -17.009347 268.451558 -17.009347 L 366.514362 -17.009347 C 367.613379 -17.009347 368.505108 -16.117618 368.505108 -15.01469 L 368.505108 15.014673 C 368.505108 16.117601 367.613379 17.00933 366.514362 17.00933 Z M 366.514362 17.00933 " transform="matrix(0.998762, 0, 0, -0.998762, 171.345618, 23.332023)"/>
<g fill="rgb(12.156677%, 14.118958%, 18.824768%)" fill-opacity="1">
<use xlink:href="#glyph-0-20" x="469.648873" y="27.594739"/>
<use xlink:href="#glyph-0-3" x="474.974278" y="27.594739"/>
<use xlink:href="#glyph-0-15" x="481.18327" y="27.594739"/>
</g>
<g fill="rgb(12.156677%, 14.118958%, 18.824768%)" fill-opacity="1">
<use xlink:href="#glyph-0-2" x="486.078822" y="27.594739"/>
<use xlink:href="#glyph-0-1" x="492.395277" y="27.594739"/>
<use xlink:href="#glyph-0-13" x="495.738581" y="27.594739"/>
</g>
<g fill="rgb(12.156677%, 14.118958%, 18.824768%)" fill-opacity="1">
<use xlink:href="#glyph-0-3" x="501.004284" y="27.594739"/>
</g>
<path fill="none" stroke-width="0.79701" stroke-linecap="round" stroke-linejoin="round" stroke="rgb(12.156677%, 14.118958%, 18.824768%)" stroke-opacity="1" stroke-miterlimit="10" d="M 51.374231 -0.00000847863 L 103.49344 -0.00000847863 " transform="matrix(0.998762, 0, 0, -0.998762, 171.345618, 23.332023)"/>
<path fill-rule="nonzero" fill="rgb(12.156677%, 14.118958%, 18.824768%)" fill-opacity="1" stroke-width="0.79701" stroke-linecap="round" stroke-linejoin="miter" stroke="rgb(12.156677%, 14.118958%, 18.824768%)" stroke-opacity="1" stroke-miterlimit="10" d="M 5.071687 -0.00000847863 L 1.313128 1.380607 L 2.560766 -0.00000847863 L 1.313128 -1.380624 Z M 5.071687 -0.00000847863 " transform="matrix(0.998762, 0, 0, -0.998762, 272.35256, 23.332023)"/>
<g fill="rgb(12.156677%, 14.118958%, 18.824768%)" fill-opacity="1">
<use xlink:href="#glyph-1-4" x="239.193521" y="18.789653"/>
<use xlink:href="#glyph-1-9" x="244.128873" y="18.789653"/>
<use xlink:href="#glyph-1-14" x="249.571691" y="18.789653"/>
</g>
<g fill="rgb(12.156677%, 14.118958%, 18.824768%)" fill-opacity="1">
<use xlink:href="#glyph-1-2" x="254.188633" y="18.789653"/>
<use xlink:href="#glyph-1-12" x="259.581699" y="18.789653"/>
</g>
<path fill="none" stroke-width="0.79701" stroke-linecap="round" stroke-linejoin="round" stroke="rgb(12.156677%, 14.118958%, 18.824768%)" stroke-opacity="1" stroke-miterlimit="10" d="M 210.113713 -0.00000847863 L 262.236833 -0.00000847863 " transform="matrix(0.998762, 0, 0, -0.998762, 171.345618, 23.332023)"/>
<path fill-rule="nonzero" fill="rgb(12.156677%, 14.118958%, 18.824768%)" fill-opacity="1" stroke-width="0.79701" stroke-linecap="round" stroke-linejoin="miter" stroke="rgb(12.156677%, 14.118958%, 18.824768%)" stroke-opacity="1" stroke-miterlimit="10" d="M 5.069809 -0.00000847863 L 1.31125 1.380607 L 2.562799 -0.00000847863 L 1.31125 -1.380624 Z M 5.069809 -0.00000847863 " transform="matrix(0.998762, 0, 0, -0.998762, 430.897405, 23.332023)"/>
<g fill="rgb(12.156677%, 14.118958%, 18.824768%)" fill-opacity="1">
<use xlink:href="#glyph-1-15" x="382.507883" y="16.869034"/>
<use xlink:href="#glyph-1-16" x="388.030304" y="16.869034"/>
<use xlink:href="#glyph-1-0" x="392.965656" y="16.869034"/>
<use xlink:href="#glyph-1-10" x="398.488076" y="16.869034"/>
<use xlink:href="#glyph-1-2" x="401.025404" y="16.869034"/>
<use xlink:href="#glyph-1-12" x="406.41847" y="16.869034"/>
<use xlink:href="#glyph-1-4" x="408.876196" y="16.869034"/>
<use xlink:href="#glyph-1-7" x="413.811548" y="16.869034"/>
<use xlink:href="#glyph-1-4" x="422.060352" y="16.869034"/>
<use xlink:href="#glyph-1-9" x="426.995704" y="16.869034"/>
<use xlink:href="#glyph-1-13" x="432.438522" y="16.869034"/>
</g>
<g fill="rgb(35.68573%, 38.430786%, 44.706726%)" fill-opacity="1">
<use xlink:href="#glyph-2-0" x="548.569052" y="20.471568"/>
<use xlink:href="#glyph-2-1" x="553.683509" y="20.471568"/>
</g>
<g fill="rgb(35.68573%, 38.430786%, 44.706726%)" fill-opacity="1">
<use xlink:href="#glyph-2-2" x="560.907432" y="20.471568"/>
<use xlink:href="#glyph-2-3" x="563.375108" y="20.471568"/>
<use xlink:href="#glyph-2-4" x="565.73333" y="20.471568"/>
<use xlink:href="#glyph-2-5" x="570.201018" y="20.471568"/>
</g>
<g fill="rgb(35.68573%, 38.430786%, 44.706726%)" fill-opacity="1">
<use xlink:href="#glyph-2-6" x="573.50452" y="20.471568"/>
</g>
<g fill="rgb(35.68573%, 38.430786%, 44.706726%)" fill-opacity="1">
<use xlink:href="#glyph-2-7" x="580.270728" y="20.471568"/>
<use xlink:href="#glyph-2-1" x="585.464789" y="20.471568"/>
</g>
<g fill="rgb(35.68573%, 38.430786%, 44.706726%)" fill-opacity="1">
<use xlink:href="#glyph-3-0" x="592.688366" y="20.471568"/>
<use xlink:href="#glyph-3-1" x="600.957071" y="20.471568"/>
<use xlink:href="#glyph-3-2" x="606.260584" y="20.471568"/>
<use xlink:href="#glyph-3-3" x="611.703402" y="20.471568"/>
<use xlink:href="#glyph-3-4" x="616.658655" y="20.471568"/>
<use xlink:href="#glyph-3-5" x="619.43479" y="20.471568"/>
</g>
<g fill="rgb(35.68573%, 38.430786%, 44.706726%)" fill-opacity="1">
<use xlink:href="#glyph-2-8" x="626.380605" y="20.471568"/>
</g>
<g fill="rgb(35.68573%, 38.430786%, 44.706726%)" fill-opacity="1">
<use xlink:href="#glyph-2-9" x="548.569052" y="32.411768"/>
<use xlink:href="#glyph-2-7" x="553.882515" y="32.411768"/>
<use xlink:href="#glyph-2-6" x="559.076575" y="32.411768"/>
<use xlink:href="#glyph-2-2" x="563.852723" y="32.411768"/>
<use xlink:href="#glyph-2-9" x="566.320399" y="32.411768"/>
<use xlink:href="#glyph-2-7" x="571.633862" y="32.411768"/>
<use xlink:href="#glyph-2-6" x="576.827922" y="32.411768"/>
<use xlink:href="#glyph-2-10" x="581.60407" y="32.411768"/>
</g>
<g fill="rgb(35.68573%, 38.430786%, 44.706726%)" fill-opacity="1">
<use xlink:href="#glyph-2-11" x="587.594154" y="32.411768"/>
</g>
<g fill="rgb(35.68573%, 38.430786%, 44.706726%)" fill-opacity="1">
<use xlink:href="#glyph-2-0" x="590.310588" y="32.411768"/>
<use xlink:href="#glyph-2-3" x="595.425046" y="32.411768"/>
<use xlink:href="#glyph-2-10" x="597.783268" y="32.411768"/>
</g>
<g fill="rgb(35.68573%, 38.430786%, 44.706726%)" fill-opacity="1">
<use xlink:href="#glyph-2-12" x="603.773353" y="32.411768"/>
<use xlink:href="#glyph-2-13" x="609.096767" y="32.411768"/>
<use xlink:href="#glyph-2-5" x="614.440082" y="32.411768"/>
</g>
<g fill="rgb(35.68573%, 38.430786%, 44.706726%)" fill-opacity="1">
<use xlink:href="#glyph-2-13" x="619.833148" y="32.411768"/>
<use xlink:href="#glyph-2-1" x="625.176462" y="32.411768"/>
</g>
<g fill="rgb(65.879822%, 40.783691%, 4.705811%)" fill-opacity="1">
<use xlink:href="#glyph-0-0" x="65.714547" y="105.323395"/>
<use xlink:href="#glyph-0-1" x="73.678774" y="105.323395"/>
<use xlink:href="#glyph-0-2" x="77.022078" y="105.323395"/>
</g>
<g fill="rgb(65.879822%, 40.783691%, 4.705811%)" fill-opacity="1">
<use xlink:href="#glyph-0-3" x="83.23107" y="105.323395"/>
</g>
<g fill="rgb(65.879822%, 40.783691%, 4.705811%)" fill-opacity="1">
<use xlink:href="#glyph-0-4" x="89.308718" y="105.323395"/>
<use xlink:href="#glyph-0-5" x="95.637114" y="105.323395"/>
</g>
<g fill="rgb(65.879822%, 40.783691%, 4.705811%)" fill-opacity="1">
<use xlink:href="#glyph-0-21" x="104.85508" y="105.323395"/>
</g>
<g fill="rgb(65.879822%, 40.783691%, 4.705811%)" fill-opacity="1">
<use xlink:href="#glyph-1-0" x="28.291932" y="117.837883"/>
<use xlink:href="#glyph-1-12" x="33.814352" y="117.837883"/>
<use xlink:href="#glyph-1-0" x="36.272078" y="117.837883"/>
<use xlink:href="#glyph-1-4" x="41.794498" y="117.837883"/>
<use xlink:href="#glyph-1-10" x="46.729851" y="117.837883"/>
<use xlink:href="#glyph-1-12" x="49.267179" y="117.837883"/>
<use xlink:href="#glyph-1-9" x="51.724904" y="117.837883"/>
<use xlink:href="#glyph-1-4" x="57.167722" y="117.837883"/>
</g>
<g fill="rgb(65.879822%, 40.783691%, 4.705811%)" fill-opacity="1">
<use xlink:href="#glyph-1-8" x="64.093136" y="117.837883"/>
<use xlink:href="#glyph-1-6" x="69.10809" y="117.837883"/>
<use xlink:href="#glyph-1-13" x="74.521057" y="117.837883"/>
</g>
<g fill="rgb(65.879822%, 40.783691%, 4.705811%)" fill-opacity="1">
<use xlink:href="#glyph-1-2" x="77.754907" y="117.837883"/>
<use xlink:href="#glyph-1-7" x="83.147973" y="117.837883"/>
<use xlink:href="#glyph-1-8" x="91.396777" y="117.837883"/>
</g>
<g fill="rgb(65.879822%, 40.783691%, 4.705811%)" fill-opacity="1">
<use xlink:href="#glyph-1-13" x="96.272427" y="117.837883"/>
<use xlink:href="#glyph-1-12" x="99.645581" y="117.837883"/>
<use xlink:href="#glyph-1-5" x="102.103307" y="117.837883"/>
<use xlink:href="#glyph-1-16" x="106.272485" y="117.837883"/>
</g>
<path fill-rule="nonzero" fill="rgb(90.194702%, 92.547607%, 96.076965%)" fill-opacity="1" stroke-width="0.69739" stroke-linecap="round" stroke-linejoin="round" stroke="rgb(12.156677%, 22.744751%, 40.783691%)" stroke-opacity="1" stroke-miterlimit="10" d="M 49.031487 -64.098892 L -49.031317 -64.098892 C -50.130334 -64.098892 -51.025974 -64.990621 -51.025974 -66.093548 L -51.025974 -103.988117 C -51.025974 -105.087133 -50.130334 -105.978862 -49.031317 -105.978862 L 49.031487 -105.978862 C 50.130504 -105.978862 51.026144 -105.087133 51.026144 -103.988117 L 51.026144 -66.093548 C 51.026144 -64.990621 50.130504 -64.098892 49.031487 -64.098892 Z M 49.031487 -64.098892 " transform="matrix(0.998762, 0, 0, -0.998762, 171.345618, 23.332023)"/>
<g fill="rgb(12.156677%, 14.118958%, 18.824768%)" fill-opacity="1">
<use xlink:href="#glyph-0-13" x="150.808074" y="99.015214"/>
</g>
<g fill="rgb(12.156677%, 14.118958%, 18.824768%)" fill-opacity="1">
<use xlink:href="#glyph-0-8" x="156.073777" y="99.015214"/>
<use xlink:href="#glyph-0-17" x="162.724563" y="99.015214"/>
<use xlink:href="#glyph-0-3" x="169.590276" y="99.015214"/>
</g>
<g fill="rgb(12.156677%, 14.118958%, 18.824768%)" fill-opacity="1">
<use xlink:href="#glyph-0-17" x="178.187343" y="99.015214"/>
<use xlink:href="#glyph-0-5" x="185.053055" y="99.015214"/>
</g>
<g fill="rgb(12.156677%, 14.118958%, 18.824768%)" fill-opacity="1">
<use xlink:href="#glyph-0-22" x="149.763369" y="112.945947"/>
<use xlink:href="#glyph-0-1" x="156.629082" y="112.945947"/>
<use xlink:href="#glyph-0-22" x="159.972385" y="112.945947"/>
<use xlink:href="#glyph-0-3" x="166.838098" y="112.945947"/>
<use xlink:href="#glyph-0-19" x="173.047091" y="112.945947"/>
<use xlink:href="#glyph-0-1" x="176.509798" y="112.945947"/>
<use xlink:href="#glyph-0-7" x="179.853101" y="112.945947"/>
<use xlink:href="#glyph-0-3" x="186.718814" y="112.945947"/>
</g>
<g fill="rgb(35.68573%, 38.430786%, 44.706726%)" fill-opacity="1">
<use xlink:href="#glyph-1-15" x="154.290757" y="125.744084"/>
<use xlink:href="#glyph-1-8" x="159.813178" y="125.744084"/>
<use xlink:href="#glyph-1-9" x="164.828132" y="125.744084"/>
<use xlink:href="#glyph-1-5" x="170.27095" y="125.744084"/>
</g>
<g fill="rgb(35.68573%, 38.430786%, 44.706726%)" fill-opacity="1">
<use xlink:href="#glyph-1-17" x="176.43019" y="125.744084"/>
<use xlink:href="#glyph-1-12" x="182.569529" y="125.744084"/>
<use xlink:href="#glyph-1-13" x="185.027255" y="125.744084"/>
</g>
<path fill-rule="nonzero" fill="rgb(65.879822%, 40.783691%, 4.705811%)" fill-opacity="1" stroke-width="0.69739" stroke-linecap="round" stroke-linejoin="round" stroke="rgb(65.879822%, 40.783691%, 4.705811%)" stroke-opacity="1" stroke-miterlimit="10" d="M 207.77488 -68.03345 L 109.708165 -68.03345 C 108.609148 -68.03345 107.717419 -68.925179 107.717419 -70.024196 L 107.717419 -100.057469 C 107.717419 -101.156486 108.609148 -102.048215 109.708165 -102.048215 L 207.77488 -102.048215 C 208.873897 -102.048215 209.765626 -101.156486 209.765626 -100.057469 L 209.765626 -70.024196 C 209.765626 -68.925179 208.873897 -68.03345 207.77488 -68.03345 Z M 207.77488 -68.03345 " transform="matrix(0.998762, 0, 0, -0.998762, 171.345618, 23.332023)"/>
<g fill="rgb(100%, 100%, 100%)" fill-opacity="1">
<use xlink:href="#glyph-0-22" x="308.305856" y="105.563098"/>
<use xlink:href="#glyph-0-1" x="315.171569" y="105.563098"/>
<use xlink:href="#glyph-0-22" x="318.514873" y="105.563098"/>
<use xlink:href="#glyph-0-3" x="325.380586" y="105.563098"/>
<use xlink:href="#glyph-0-19" x="331.589578" y="105.563098"/>
<use xlink:href="#glyph-0-1" x="335.052285" y="105.563098"/>
<use xlink:href="#glyph-0-7" x="338.395589" y="105.563098"/>
<use xlink:href="#glyph-0-3" x="345.261302" y="105.563098"/>
</g>
<g fill="rgb(100%, 100%, 100%)" fill-opacity="1">
<use xlink:href="#glyph-0-17" x="288.156831" y="119.493831"/>
<use xlink:href="#glyph-0-23" x="295.022544" y="119.493831"/>
<use xlink:href="#glyph-0-3" x="298.688237" y="119.493831"/>
<use xlink:href="#glyph-0-7" x="304.89723" y="119.493831"/>
<use xlink:href="#glyph-0-9" x="311.762943" y="119.493831"/>
<use xlink:href="#glyph-0-15" x="316.395806" y="119.493831"/>
</g>
<g fill="rgb(100%, 100%, 100%)" fill-opacity="1">
<use xlink:href="#glyph-0-4" x="320.885385" y="119.493831"/>
<use xlink:href="#glyph-0-24" x="327.213781" y="119.493831"/>
<use xlink:href="#glyph-0-7" x="330.557085" y="119.493831"/>
<use xlink:href="#glyph-0-3" x="337.422798" y="119.493831"/>
<use xlink:href="#glyph-0-16" x="343.63179" y="119.493831"/>
<use xlink:href="#glyph-0-3" x="353.912449" y="119.493831"/>
<use xlink:href="#glyph-0-7" x="360.121441" y="119.493831"/>
<use xlink:href="#glyph-0-9" x="366.987154" y="119.493831"/>
</g>
<path fill-rule="nonzero" fill="rgb(88.233948%, 93.725586%, 92.547607%)" fill-opacity="1" stroke-width="0.69739" stroke-linecap="round" stroke-linejoin="round" stroke="rgb(11.373901%, 43.528748%, 41.569519%)" stroke-opacity="1" stroke-miterlimit="10" d="M 366.514362 -68.03345 L 268.451558 -68.03345 C 267.34863 -68.03345 266.456901 -68.925179 266.456901 -70.024196 L 266.456901 -100.057469 C 266.456901 -101.156486 267.34863 -102.048215 268.451558 -102.048215 L 366.514362 -102.048215 C 367.613379 -102.048215 368.505108 -101.156486 368.505108 -100.057469 L 368.505108 -70.024196 C 368.505108 -68.925179 367.613379 -68.03345 366.514362 -68.03345 Z M 366.514362 -68.03345 " transform="matrix(0.998762, 0, 0, -0.998762, 171.345618, 23.332023)"/>
<g fill="rgb(12.156677%, 14.118958%, 18.824768%)" fill-opacity="1">
<use xlink:href="#glyph-0-20" x="469.648873" y="112.528464"/>
<use xlink:href="#glyph-0-3" x="474.974278" y="112.528464"/>
<use xlink:href="#glyph-0-15" x="481.18327" y="112.528464"/>
</g>
<g fill="rgb(12.156677%, 14.118958%, 18.824768%)" fill-opacity="1">
<use xlink:href="#glyph-0-2" x="486.078822" y="112.528464"/>
<use xlink:href="#glyph-0-1" x="492.395277" y="112.528464"/>
<use xlink:href="#glyph-0-13" x="495.738581" y="112.528464"/>
</g>
<g fill="rgb(12.156677%, 14.118958%, 18.824768%)" fill-opacity="1">
<use xlink:href="#glyph-0-3" x="501.004284" y="112.528464"/>
</g>
<path fill="none" stroke-width="0.79701" stroke-linecap="round" stroke-linejoin="round" stroke="rgb(12.156677%, 14.118958%, 18.824768%)" stroke-opacity="1" stroke-miterlimit="10" d="M 51.374231 -85.038877 L 103.49344 -85.038877 " transform="matrix(0.998762, 0, 0, -0.998762, 171.345618, 23.332023)"/>
<path fill-rule="nonzero" fill="rgb(12.156677%, 14.118958%, 18.824768%)" fill-opacity="1" stroke-width="0.79701" stroke-linecap="round" stroke-linejoin="miter" stroke="rgb(12.156677%, 14.118958%, 18.824768%)" stroke-opacity="1" stroke-miterlimit="10" d="M 5.071687 0.00113302 L 1.313128 1.377837 L 2.560766 0.00113302 L 1.313128 -1.379482 Z M 5.071687 0.00113302 " transform="matrix(0.998762, 0, 0, -0.998762, 272.35256, 108.266757)"/>
<g fill="rgb(12.156677%, 14.118958%, 18.824768%)" fill-opacity="1">
<use xlink:href="#glyph-1-15" x="233.905076" y="101.762808"/>
<use xlink:href="#glyph-1-16" x="239.427496" y="101.762808"/>
<use xlink:href="#glyph-1-0" x="244.362848" y="101.762808"/>
<use xlink:href="#glyph-1-10" x="249.885268" y="101.762808"/>
<use xlink:href="#glyph-1-2" x="252.422597" y="101.762808"/>
</g>
<g fill="rgb(12.156677%, 14.118958%, 18.824768%)" fill-opacity="1">
<use xlink:href="#glyph-1-18" x="257.775862" y="101.762808"/>
</g>
<g fill="rgb(12.156677%, 14.118958%, 18.824768%)" fill-opacity="1">
<use xlink:href="#glyph-1-16" x="262.392804" y="101.762808"/>
</g>
<path fill="none" stroke-width="0.79701" stroke-linecap="round" stroke-linejoin="round" stroke="rgb(12.156677%, 14.118958%, 18.824768%)" stroke-opacity="1" stroke-miterlimit="10" d="M 210.113713 -85.038877 L 262.236833 -85.038877 " transform="matrix(0.998762, 0, 0, -0.998762, 171.345618, 23.332023)"/>
<path fill-rule="nonzero" fill="rgb(12.156677%, 14.118958%, 18.824768%)" fill-opacity="1" stroke-width="0.79701" stroke-linecap="round" stroke-linejoin="miter" stroke="rgb(12.156677%, 14.118958%, 18.824768%)" stroke-opacity="1" stroke-miterlimit="10" d="M 5.069809 0.00113302 L 1.31125 1.377837 L 2.562799 0.00113302 L 1.31125 -1.379482 Z M 5.069809 0.00113302 " transform="matrix(0.998762, 0, 0, -0.998762, 430.897405, 108.266757)"/>
<g fill="rgb(12.156677%, 14.118958%, 18.824768%)" fill-opacity="1">
<use xlink:href="#glyph-1-7" x="379.915097" y="103.723378"/>
<use xlink:href="#glyph-1-2" x="388.163901" y="103.723378"/>
<use xlink:href="#glyph-1-15" x="393.556968" y="103.723378"/>
<use xlink:href="#glyph-1-19" x="399.079388" y="103.723378"/>
<use xlink:href="#glyph-1-10" x="404.01474" y="103.723378"/>
<use xlink:href="#glyph-1-4" x="406.552068" y="103.723378"/>
</g>
<g fill="rgb(12.156677%, 14.118958%, 18.824768%)" fill-opacity="1">
<use xlink:href="#glyph-1-14" x="413.477482" y="103.723378"/>
</g>
<g fill="rgb(12.156677%, 14.118958%, 18.824768%)" fill-opacity="1">
<use xlink:href="#glyph-1-8" x="417.945169" y="103.723378"/>
</g>
<g fill="rgb(12.156677%, 14.118958%, 18.824768%)" fill-opacity="1">
<use xlink:href="#glyph-1-10" x="422.950173" y="103.723378"/>
<use xlink:href="#glyph-1-12" x="425.487502" y="103.723378"/>
<use xlink:href="#glyph-1-15" x="427.945227" y="103.723378"/>
<use xlink:href="#glyph-1-16" x="433.467648" y="103.723378"/>
</g>
<path fill="none" stroke-width="0.79701" stroke-linecap="round" stroke-linejoin="round" stroke="rgb(36.863708%, 24.705505%, 47.840881%)" stroke-opacity="1" stroke-dasharray="2.98883 1.99255" stroke-miterlimit="10" d="M 317.481005 -102.396302 L 317.481005 -118.255779 C 317.481005 -120.453813 315.697547 -122.241182 313.499513 -122.241182 L 162.726925 -122.241182 C 160.524981 -122.241182 158.741523 -120.453813 158.741523 -118.255779 L 158.741523 -106.272194 " transform="matrix(0.998762, 0, 0, -0.998762, 171.345618, 23.332023)"/>
<path fill-rule="nonzero" fill="rgb(36.863708%, 24.705505%, 47.840881%)" fill-opacity="1" stroke-width="0.79701" stroke-linecap="round" stroke-linejoin="miter" stroke="rgb(36.863708%, 24.705505%, 47.840881%)" stroke-opacity="1" stroke-miterlimit="10" d="M 5.071252 -0.000162709 L 1.312693 1.380453 L 2.560331 -0.000162709 L 1.312693 -1.380778 Z M 5.071252 -0.000162709 " transform="matrix(0, -0.998762, -0.998762, 0, 329.890462, 131.830599)"/>
<g fill="rgb(36.863708%, 24.705505%, 47.840881%)" fill-opacity="1">
<use xlink:href="#glyph-1-15" x="383.323872" y="157.613581"/>
<use xlink:href="#glyph-1-16" x="388.846292" y="157.613581"/>
<use xlink:href="#glyph-1-3" x="393.781644" y="157.613581"/>
<use xlink:href="#glyph-1-10" x="398.318984" y="157.613581"/>
<use xlink:href="#glyph-1-4" x="400.856312" y="157.613581"/>
<use xlink:href="#glyph-1-9" x="405.791664" y="157.613581"/>
<use xlink:href="#glyph-1-3" x="411.234482" y="157.613581"/>
<use xlink:href="#glyph-1-20" x="415.771822" y="157.613581"/>
<use xlink:href="#glyph-1-4" x="421.184789" y="157.613581"/>
<use xlink:href="#glyph-1-6" x="426.120141" y="157.613581"/>
<use xlink:href="#glyph-1-1" x="431.533108" y="157.613581"/>
</g>
<g fill="rgb(35.68573%, 38.430786%, 44.706726%)" fill-opacity="1">
<use xlink:href="#glyph-2-0" x="548.569052" y="104.997798"/>
<use xlink:href="#glyph-2-1" x="553.683509" y="104.997798"/>
</g>
<g fill="rgb(35.68573%, 38.430786%, 44.706726%)" fill-opacity="1">
<use xlink:href="#glyph-2-2" x="560.907432" y="104.997798"/>
<use xlink:href="#glyph-2-3" x="563.375108" y="104.997798"/>
<use xlink:href="#glyph-2-4" x="565.73333" y="104.997798"/>
<use xlink:href="#glyph-2-5" x="570.201018" y="104.997798"/>
</g>
<g fill="rgb(35.68573%, 38.430786%, 44.706726%)" fill-opacity="1">
<use xlink:href="#glyph-2-6" x="573.50452" y="104.997798"/>
</g>
<g fill="rgb(35.68573%, 38.430786%, 44.706726%)" fill-opacity="1">
<use xlink:href="#glyph-2-7" x="580.270728" y="104.997798"/>
<use xlink:href="#glyph-2-1" x="585.464789" y="104.997798"/>
</g>
<g fill="rgb(35.68573%, 38.430786%, 44.706726%)" fill-opacity="1">
<use xlink:href="#glyph-3-6" x="592.688366" y="104.997798"/>
<use xlink:href="#glyph-3-7" x="598.210786" y="104.997798"/>
<use xlink:href="#glyph-3-6" x="600.887419" y="104.997798"/>
<use xlink:href="#glyph-3-5" x="606.409839" y="104.997798"/>
<use xlink:href="#glyph-3-4" x="611.365091" y="104.997798"/>
<use xlink:href="#glyph-3-7" x="614.141227" y="104.997798"/>
<use xlink:href="#glyph-3-8" x="616.817859" y="104.997798"/>
<use xlink:href="#glyph-3-5" x="622.34028" y="104.997798"/>
</g>
<g fill="rgb(35.68573%, 38.430786%, 44.706726%)" fill-opacity="1">
<use xlink:href="#glyph-2-9" x="629.286003" y="104.997798"/>
<use xlink:href="#glyph-2-7" x="634.599467" y="104.997798"/>
<use xlink:href="#glyph-2-3" x="639.793527" y="104.997798"/>
</g>
<g fill="rgb(35.68573%, 38.430786%, 44.706726%)" fill-opacity="1">
<use xlink:href="#glyph-2-5" x="548.569052" y="116.937999"/>
</g>
<g fill="rgb(35.68573%, 38.430786%, 44.706726%)" fill-opacity="1">
<use xlink:href="#glyph-2-14" x="551.872553" y="116.937999"/>
<use xlink:href="#glyph-2-6" x="556.658651" y="116.937999"/>
<use xlink:href="#glyph-2-1" x="561.434798" y="116.937999"/>
<use xlink:href="#glyph-2-15" x="566.668659" y="116.937999"/>
<use xlink:href="#glyph-2-5" x="569.902509" y="116.937999"/>
</g>
<g fill="rgb(35.68573%, 38.430786%, 44.706726%)" fill-opacity="1">
<use xlink:href="#glyph-2-13" x="573.206011" y="116.937999"/>
<use xlink:href="#glyph-2-16" x="578.549325" y="116.937999"/>
<use xlink:href="#glyph-2-1" x="580.907548" y="116.937999"/>
<use xlink:href="#glyph-2-6" x="586.141409" y="116.937999"/>
</g>
<g fill="rgb(35.68573%, 38.430786%, 44.706726%)" fill-opacity="1">
<use xlink:href="#glyph-2-15" x="592.907618" y="116.937999"/>
</g>
<g fill="rgb(35.68573%, 38.430786%, 44.706726%)" fill-opacity="1">
<use xlink:href="#glyph-2-0" x="596.032014" y="116.937999"/>
<use xlink:href="#glyph-2-7" x="601.146472" y="116.937999"/>
<use xlink:href="#glyph-2-15" x="606.340532" y="116.937999"/>
</g>
<g fill="rgb(35.68573%, 38.430786%, 44.706726%)" fill-opacity="1">
<use xlink:href="#glyph-2-10" x="611.564443" y="116.937999"/>
<use xlink:href="#glyph-2-6" x="615.564466" y="116.937999"/>
<use xlink:href="#glyph-2-7" x="620.340613" y="116.937999"/>
<use xlink:href="#glyph-2-2" x="625.534673" y="116.937999"/>
</g>
<g fill="rgb(35.68573%, 38.430786%, 44.706726%)" fill-opacity="1">
<use xlink:href="#glyph-2-17" x="629.992411" y="116.937999"/>
<use xlink:href="#glyph-2-18" x="632.88795" y="116.937999"/>
</g>
<g fill="rgb(35.68573%, 38.430786%, 44.706726%)" fill-opacity="1">
<use xlink:href="#glyph-2-19" x="638.09196" y="116.937999"/>
<use xlink:href="#glyph-2-20" x="643.166617" y="116.937999"/>
</g>
<g fill="rgb(11.373901%, 43.528748%, 41.569519%)" fill-opacity="1">
<use xlink:href="#glyph-0-0" x="65.714547" y="207.243066"/>
<use xlink:href="#glyph-0-1" x="73.678774" y="207.243066"/>
<use xlink:href="#glyph-0-2" x="77.022078" y="207.243066"/>
</g>
<g fill="rgb(11.373901%, 43.528748%, 41.569519%)" fill-opacity="1">
<use xlink:href="#glyph-0-3" x="83.23107" y="207.243066"/>
</g>
<g fill="rgb(11.373901%, 43.528748%, 41.569519%)" fill-opacity="1">
<use xlink:href="#glyph-0-4" x="89.308718" y="207.243066"/>
<use xlink:href="#glyph-0-5" x="95.637114" y="207.243066"/>
</g>
<g fill="rgb(11.373901%, 43.528748%, 41.569519%)" fill-opacity="1">
<use xlink:href="#glyph-0-25" x="104.85508" y="207.243066"/>
</g>
<g fill="rgb(11.373901%, 43.528748%, 41.569519%)" fill-opacity="1">
<use xlink:href="#glyph-1-21" x="38.987675" y="219.758553"/>
<use xlink:href="#glyph-1-22" x="44.6693" y="219.758553"/>
<use xlink:href="#glyph-1-23" x="47.286231" y="219.758553"/>
</g>
<g fill="rgb(11.373901%, 43.528748%, 41.569519%)" fill-opacity="1">
<use xlink:href="#glyph-1-21" x="50.669335" y="219.758553"/>
<use xlink:href="#glyph-1-24" x="56.35096" y="219.758553"/>
</g>
<g fill="rgb(11.373901%, 43.528748%, 41.569519%)" fill-opacity="1">
<use xlink:href="#glyph-1-15" x="64.47041" y="219.758553"/>
<use xlink:href="#glyph-1-6" x="69.99283" y="219.758553"/>
</g>
<g fill="rgb(11.373901%, 43.528748%, 41.569519%)" fill-opacity="1">
<use xlink:href="#glyph-1-0" x="77.395859" y="219.758553"/>
<use xlink:href="#glyph-1-12" x="82.918279" y="219.758553"/>
<use xlink:href="#glyph-1-0" x="85.376005" y="219.758553"/>
<use xlink:href="#glyph-1-4" x="90.898425" y="219.758553"/>
<use xlink:href="#glyph-1-10" x="95.833777" y="219.758553"/>
<use xlink:href="#glyph-1-12" x="98.371105" y="219.758553"/>
<use xlink:href="#glyph-1-9" x="100.828831" y="219.758553"/>
<use xlink:href="#glyph-1-4" x="106.271649" y="219.758553"/>
</g>
<path fill-rule="nonzero" fill="rgb(90.194702%, 92.547607%, 96.076965%)" fill-opacity="1" stroke-width="0.69739" stroke-linecap="round" stroke-linejoin="round" stroke="rgb(12.156677%, 22.744751%, 40.783691%)" stroke-opacity="1" stroke-miterlimit="10" d="M 49.031487 -166.147098 L -49.031317 -166.147098 C -50.130334 -166.147098 -51.025974 -167.038827 -51.025974 -168.141755 L -51.025974 -206.036323 C -51.025974 -207.13534 -50.130334 -208.027069 -49.031317 -208.027069 L 49.031487 -208.027069 C 50.130504 -208.027069 51.026144 -207.13534 51.026144 -206.036323 L 51.026144 -168.141755 C 51.026144 -167.038827 50.130504 -166.147098 49.031487 -166.147098 Z M 49.031487 -166.147098 " transform="matrix(0.998762, 0, 0, -0.998762, 171.345618, 23.332023)"/>
<g fill="rgb(12.156677%, 14.118958%, 18.824768%)" fill-opacity="1">
<use xlink:href="#glyph-0-13" x="150.808074" y="200.935884"/>
</g>
<g fill="rgb(12.156677%, 14.118958%, 18.824768%)" fill-opacity="1">
<use xlink:href="#glyph-0-8" x="156.073777" y="200.935884"/>
<use xlink:href="#glyph-0-17" x="162.724563" y="200.935884"/>
<use xlink:href="#glyph-0-3" x="169.590276" y="200.935884"/>
</g>
<g fill="rgb(12.156677%, 14.118958%, 18.824768%)" fill-opacity="1">
<use xlink:href="#glyph-0-17" x="178.187343" y="200.935884"/>
<use xlink:href="#glyph-0-5" x="185.053055" y="200.935884"/>
</g>
<g fill="rgb(12.156677%, 14.118958%, 18.824768%)" fill-opacity="1">
<use xlink:href="#glyph-0-22" x="149.763369" y="214.865618"/>
<use xlink:href="#glyph-0-1" x="156.629082" y="214.865618"/>
<use xlink:href="#glyph-0-22" x="159.972385" y="214.865618"/>
<use xlink:href="#glyph-0-3" x="166.838098" y="214.865618"/>
<use xlink:href="#glyph-0-19" x="173.047091" y="214.865618"/>
<use xlink:href="#glyph-0-1" x="176.509798" y="214.865618"/>
<use xlink:href="#glyph-0-7" x="179.853101" y="214.865618"/>
<use xlink:href="#glyph-0-3" x="186.718814" y="214.865618"/>
</g>
<g fill="rgb(35.68573%, 38.430786%, 44.706726%)" fill-opacity="1">
<use xlink:href="#glyph-1-15" x="154.290757" y="227.663755"/>
<use xlink:href="#glyph-1-8" x="159.813178" y="227.663755"/>
<use xlink:href="#glyph-1-9" x="164.828132" y="227.663755"/>
<use xlink:href="#glyph-1-5" x="170.27095" y="227.663755"/>
</g>
<g fill="rgb(35.68573%, 38.430786%, 44.706726%)" fill-opacity="1">
<use xlink:href="#glyph-1-17" x="176.43019" y="227.663755"/>
<use xlink:href="#glyph-1-12" x="182.569529" y="227.663755"/>
<use xlink:href="#glyph-1-13" x="185.027255" y="227.663755"/>
</g>
<path fill-rule="nonzero" fill="rgb(12.156677%, 22.744751%, 40.783691%)" fill-opacity="1" stroke-width="0.69739" stroke-linecap="round" stroke-linejoin="round" stroke="rgb(12.156677%, 22.744751%, 40.783691%)" stroke-opacity="1" stroke-miterlimit="10" d="M 207.77488 -164.977682 L 109.708165 -164.977682 C 108.609148 -164.977682 107.717419 -165.873322 107.717419 -166.972339 L 107.717419 -207.20574 C 107.717419 -208.304756 108.609148 -209.196485 109.708165 -209.196485 L 207.77488 -209.196485 C 208.873897 -209.196485 209.765626 -208.304756 209.765626 -207.20574 L 209.765626 -166.972339 C 209.765626 -165.873322 208.873897 -164.977682 207.77488 -164.977682 Z M 207.77488 -164.977682 " transform="matrix(0.998762, 0, 0, -0.998762, 171.345618, 23.332023)"/>
<g fill="rgb(100%, 100%, 100%)" fill-opacity="1">
<use xlink:href="#glyph-0-26" x="315.345131" y="199.899169"/>
<use xlink:href="#glyph-0-27" x="322.306367" y="199.899169"/>
<use xlink:href="#glyph-0-28" x="325.96012" y="199.899169"/>
</g>
<g fill="rgb(100%, 100%, 100%)" fill-opacity="1">
<use xlink:href="#glyph-0-26" x="329.864621" y="199.899169"/>
<use xlink:href="#glyph-0-29" x="336.825857" y="199.899169"/>
</g>
<g fill="rgb(100%, 100%, 100%)" fill-opacity="1">
<use xlink:href="#glyph-1-13" x="305.892847" y="212.980954"/>
</g>
<g fill="rgb(100%, 100%, 100%)" fill-opacity="1">
<use xlink:href="#glyph-1-4" x="309.126697" y="212.980954"/>
<use xlink:href="#glyph-1-5" x="314.062049" y="212.980954"/>
</g>
<g fill="rgb(100%, 100%, 100%)" fill-opacity="1">
<use xlink:href="#glyph-1-13" x="318.032222" y="212.980954"/>
</g>
<g fill="rgb(100%, 100%, 100%)" fill-opacity="1">
<use xlink:href="#glyph-1-5" x="321.305872" y="212.980954"/>
<use xlink:href="#glyph-1-25" x="325.475051" y="212.980954"/>
</g>
<g fill="rgb(100%, 100%, 100%)" fill-opacity="1">
<use xlink:href="#glyph-1-26" x="329.952689" y="212.980954"/>
<use xlink:href="#glyph-1-6" x="335.465159" y="212.980954"/>
<use xlink:href="#glyph-1-12" x="340.878126" y="212.980954"/>
<use xlink:href="#glyph-1-10" x="343.335851" y="212.980954"/>
<use xlink:href="#glyph-1-15" x="345.87318" y="212.980954"/>
<use xlink:href="#glyph-1-25" x="351.3956" y="212.980954"/>
</g>
<g fill="rgb(100%, 100%, 100%)" fill-opacity="1">
<use xlink:href="#glyph-1-15" x="303.23614" y="226.910688"/>
<use xlink:href="#glyph-1-16" x="308.758561" y="226.910688"/>
<use xlink:href="#glyph-1-0" x="313.693913" y="226.910688"/>
<use xlink:href="#glyph-1-10" x="319.216333" y="226.910688"/>
<use xlink:href="#glyph-1-2" x="321.753661" y="226.910688"/>
<use xlink:href="#glyph-1-12" x="327.146727" y="226.910688"/>
<use xlink:href="#glyph-1-4" x="329.604453" y="226.910688"/>
<use xlink:href="#glyph-1-7" x="334.539805" y="226.910688"/>
<use xlink:href="#glyph-1-4" x="342.788609" y="226.910688"/>
<use xlink:href="#glyph-1-9" x="347.723961" y="226.910688"/>
<use xlink:href="#glyph-1-13" x="353.166779" y="226.910688"/>
</g>
<path fill-rule="nonzero" fill="rgb(65.879822%, 40.783691%, 4.705811%)" fill-opacity="1" stroke-width="0.69739" stroke-linecap="round" stroke-linejoin="round" stroke="rgb(65.879822%, 40.783691%, 4.705811%)" stroke-opacity="1" stroke-miterlimit="10" d="M 366.514362 -170.081657 L 268.451558 -170.081657 C 267.34863 -170.081657 266.456901 -170.973385 266.456901 -172.072402 L 266.456901 -202.101765 C 266.456901 -203.204693 267.34863 -204.096422 268.451558 -204.096422 L 366.514362 -204.096422 C 367.613379 -204.096422 368.505108 -203.204693 368.505108 -202.101765 L 368.505108 -172.072402 C 368.505108 -170.973385 367.613379 -170.081657 366.514362 -170.081657 Z M 366.514362 -170.081657 " transform="matrix(0.998762, 0, 0, -0.998762, 171.345618, 23.332023)"/>
<g fill="rgb(100%, 100%, 100%)" fill-opacity="1">
<use xlink:href="#glyph-0-22" x="466.848344" y="207.483768"/>
<use xlink:href="#glyph-0-1" x="473.714057" y="207.483768"/>
<use xlink:href="#glyph-0-22" x="477.05736" y="207.483768"/>
<use xlink:href="#glyph-0-3" x="483.923073" y="207.483768"/>
<use xlink:href="#glyph-0-19" x="490.132065" y="207.483768"/>
<use xlink:href="#glyph-0-1" x="493.594773" y="207.483768"/>
<use xlink:href="#glyph-0-7" x="496.938076" y="207.483768"/>
<use xlink:href="#glyph-0-3" x="503.803789" y="207.483768"/>
</g>
<g fill="rgb(100%, 100%, 100%)" fill-opacity="1">
<use xlink:href="#glyph-0-17" x="446.699319" y="221.414501"/>
<use xlink:href="#glyph-0-23" x="453.565031" y="221.414501"/>
<use xlink:href="#glyph-0-3" x="457.230725" y="221.414501"/>
<use xlink:href="#glyph-0-7" x="463.439717" y="221.414501"/>
<use xlink:href="#glyph-0-9" x="470.30543" y="221.414501"/>
<use xlink:href="#glyph-0-15" x="474.938294" y="221.414501"/>
</g>
<g fill="rgb(100%, 100%, 100%)" fill-opacity="1">
<use xlink:href="#glyph-0-4" x="479.427873" y="221.414501"/>
<use xlink:href="#glyph-0-24" x="485.756269" y="221.414501"/>
<use xlink:href="#glyph-0-7" x="489.099572" y="221.414501"/>
<use xlink:href="#glyph-0-3" x="495.965285" y="221.414501"/>
<use xlink:href="#glyph-0-16" x="502.174277" y="221.414501"/>
<use xlink:href="#glyph-0-3" x="512.454936" y="221.414501"/>
<use xlink:href="#glyph-0-7" x="518.663928" y="221.414501"/>
<use xlink:href="#glyph-0-9" x="525.529641" y="221.414501"/>
</g>
<path fill-rule="nonzero" fill="rgb(88.233948%, 93.725586%, 92.547607%)" fill-opacity="1" stroke-width="0.69739" stroke-linecap="round" stroke-linejoin="round" stroke="rgb(11.373901%, 43.528748%, 41.569519%)" stroke-opacity="1" stroke-miterlimit="10" d="M 525.257755 -170.081657 L 427.19104 -170.081657 C 426.092023 -170.081657 425.200294 -170.973385 425.200294 -172.072402 L 425.200294 -202.101765 C 425.200294 -203.204693 426.092023 -204.096422 427.19104 -204.096422 L 525.257755 -204.096422 C 526.356772 -204.096422 527.248501 -203.204693 527.248501 -202.101765 L 527.248501 -172.072402 C 527.248501 -170.973385 526.356772 -170.081657 525.257755 -170.081657 Z M 525.257755 -170.081657 " transform="matrix(0.998762, 0, 0, -0.998762, 171.345618, 23.332023)"/>
<g fill="rgb(12.156677%, 14.118958%, 18.824768%)" fill-opacity="1">
<use xlink:href="#glyph-0-20" x="628.19136" y="214.449134"/>
<use xlink:href="#glyph-0-3" x="633.516765" y="214.449134"/>
<use xlink:href="#glyph-0-15" x="639.725757" y="214.449134"/>
</g>
<g fill="rgb(12.156677%, 14.118958%, 18.824768%)" fill-opacity="1">
<use xlink:href="#glyph-0-2" x="644.621309" y="214.449134"/>
<use xlink:href="#glyph-0-1" x="650.937765" y="214.449134"/>
<use xlink:href="#glyph-0-13" x="654.281068" y="214.449134"/>
</g>
<g fill="rgb(12.156677%, 14.118958%, 18.824768%)" fill-opacity="1">
<use xlink:href="#glyph-0-3" x="659.546772" y="214.449134"/>
</g>
<path fill="none" stroke-width="0.79701" stroke-linecap="round" stroke-linejoin="round" stroke="rgb(12.156677%, 14.118958%, 18.824768%)" stroke-opacity="1" stroke-miterlimit="10" d="M 51.374231 -187.087084 L 103.49344 -187.087084 " transform="matrix(0.998762, 0, 0, -0.998762, 171.345618, 23.332023)"/>
<path fill-rule="nonzero" fill="rgb(12.156677%, 14.118958%, 18.824768%)" fill-opacity="1" stroke-width="0.79701" stroke-linecap="round" stroke-linejoin="miter" stroke="rgb(12.156677%, 14.118958%, 18.824768%)" stroke-opacity="1" stroke-miterlimit="10" d="M 5.071687 0.000946392 L 1.313128 1.377651 L 2.560766 0.000946392 L 1.313128 -1.379669 Z M 5.071687 0.000946392 " transform="matrix(0.998762, 0, 0, -0.998762, 272.35256, 210.188445)"/>
<path fill="none" stroke-width="0.79701" stroke-linecap="round" stroke-linejoin="round" stroke="rgb(12.156677%, 14.118958%, 18.824768%)" stroke-opacity="1" stroke-miterlimit="10" d="M 210.113713 -187.087084 L 262.236833 -187.087084 " transform="matrix(0.998762, 0, 0, -0.998762, 171.345618, 23.332023)"/>
<path fill-rule="nonzero" fill="rgb(12.156677%, 14.118958%, 18.824768%)" fill-opacity="1" stroke-width="0.79701" stroke-linecap="round" stroke-linejoin="miter" stroke="rgb(12.156677%, 14.118958%, 18.824768%)" stroke-opacity="1" stroke-miterlimit="10" d="M 5.069809 0.000946392 L 1.31125 1.377651 L 2.562799 0.000946392 L 1.31125 -1.379669 Z M 5.069809 0.000946392 " transform="matrix(0.998762, 0, 0, -0.998762, 430.897405, 210.188445)"/>
<path fill="none" stroke-width="0.79701" stroke-linecap="round" stroke-linejoin="round" stroke="rgb(12.156677%, 14.118958%, 18.824768%)" stroke-opacity="1" stroke-miterlimit="10" d="M 368.857106 -187.087084 L 420.976315 -187.087084 " transform="matrix(0.998762, 0, 0, -0.998762, 171.345618, 23.332023)"/>
<path fill-rule="nonzero" fill="rgb(12.156677%, 14.118958%, 18.824768%)" fill-opacity="1" stroke-width="0.79701" stroke-linecap="round" stroke-linejoin="miter" stroke="rgb(12.156677%, 14.118958%, 18.824768%)" stroke-opacity="1" stroke-miterlimit="10" d="M 5.071822 0.000946392 L 1.313263 1.377651 L 2.560901 0.000946392 L 1.313263 -1.379669 Z M 5.071822 0.000946392 " transform="matrix(0.998762, 0, 0, -0.998762, 589.442269, 210.188445)"/>
<path fill="none" stroke-width="0.79701" stroke-linecap="round" stroke-linejoin="round" stroke="rgb(36.863708%, 24.705505%, 47.840881%)" stroke-opacity="1" stroke-dasharray="2.98883 1.99255" stroke-miterlimit="10" d="M 476.224398 -204.444509 L 476.224398 -220.303986 C 476.224398 -222.50202 474.44094 -224.289389 472.238995 -224.289389 L 321.466407 -224.289389 C 319.268374 -224.289389 317.481005 -222.50202 317.481005 -220.303986 L 317.481005 -208.320401 " transform="matrix(0.998762, 0, 0, -0.998762, 171.345618, 23.332023)"/>
<path fill-rule="nonzero" fill="rgb(36.863708%, 24.705505%, 47.840881%)" fill-opacity="1" stroke-width="0.79701" stroke-linecap="round" stroke-linejoin="miter" stroke="rgb(36.863708%, 24.705505%, 47.840881%)" stroke-opacity="1" stroke-miterlimit="10" d="M 5.071066 0.00172536 L 1.312507 1.37843 L 2.560145 0.00172536 L 1.312507 -1.37889 Z M 5.071066 0.00172536 " transform="matrix(0, -0.998762, -0.998762, 0, 488.435317, 233.752288)"/>
<g fill="rgb(35.68573%, 38.430786%, 44.706726%)" fill-opacity="1">
<use xlink:href="#glyph-2-2" x="293.775866" y="261.1083"/>
<use xlink:href="#glyph-2-6" x="296.243542" y="261.1083"/>
</g>
<g fill="rgb(35.68573%, 38.430786%, 44.706726%)" fill-opacity="1">
<use xlink:href="#glyph-2-12" x="303.009751" y="261.1083"/>
<use xlink:href="#glyph-2-3" x="308.333165" y="261.1083"/>
<use xlink:href="#glyph-2-12" x="310.691388" y="261.1083"/>
<use xlink:href="#glyph-2-6" x="316.014802" y="261.1083"/>
<use xlink:href="#glyph-2-2" x="320.790949" y="261.1083"/>
<use xlink:href="#glyph-2-3" x="323.258625" y="261.1083"/>
<use xlink:href="#glyph-2-1" x="325.616848" y="261.1083"/>
<use xlink:href="#glyph-2-6" x="330.850709" y="261.1083"/>
</g>
<g fill="rgb(35.68573%, 38.430786%, 44.706726%)" fill-opacity="1">
<use xlink:href="#glyph-2-2" x="337.616917" y="261.1083"/>
<use xlink:href="#glyph-2-7" x="340.084593" y="261.1083"/>
<use xlink:href="#glyph-2-3" x="345.278654" y="261.1083"/>
<use xlink:href="#glyph-2-21" x="347.636876" y="261.1083"/>
<use xlink:href="#glyph-2-22" x="350.612018" y="261.1083"/>
<use xlink:href="#glyph-2-23" x="358.562313" y="261.1083"/>
<use xlink:href="#glyph-2-22" x="363.34841" y="261.1083"/>
<use xlink:href="#glyph-2-6" x="371.298705" y="261.1083"/>
</g>
<g fill="rgb(35.68573%, 38.430786%, 44.706726%)" fill-opacity="1">
<use xlink:href="#glyph-2-6" x="378.064914" y="261.1083"/>
<use xlink:href="#glyph-2-10" x="382.841061" y="261.1083"/>
<use xlink:href="#glyph-2-15" x="386.841084" y="261.1083"/>
</g>
<g fill="rgb(35.68573%, 38.430786%, 44.706726%)" fill-opacity="1">
<use xlink:href="#glyph-2-15" x="392.064995" y="261.1083"/>
</g>
<g fill="rgb(35.68573%, 38.430786%, 44.706726%)" fill-opacity="1">
<use xlink:href="#glyph-2-6" x="395.189392" y="261.1083"/>
<use xlink:href="#glyph-2-10" x="399.965539" y="261.1083"/>
<use xlink:href="#glyph-2-15" x="403.965562" y="261.1083"/>
</g>
<g fill="rgb(35.68573%, 38.430786%, 44.706726%)" fill-opacity="1">
<use xlink:href="#glyph-2-14" x="407.089958" y="261.1083"/>
</g>
<g fill="rgb(35.68573%, 38.430786%, 44.706726%)" fill-opacity="1">
<use xlink:href="#glyph-2-6" x="413.866117" y="261.1083"/>
</g>
<g fill="rgb(35.68573%, 38.430786%, 44.706726%)" fill-opacity="1">
<use xlink:href="#glyph-2-15" x="418.473109" y="261.1083"/>
</g>
<g fill="rgb(35.68573%, 38.430786%, 44.706726%)" fill-opacity="1">
<use xlink:href="#glyph-2-2" x="423.69702" y="261.1083"/>
<use xlink:href="#glyph-2-3" x="426.164696" y="261.1083"/>
<use xlink:href="#glyph-2-4" x="428.522919" y="261.1083"/>
<use xlink:href="#glyph-2-5" x="432.990607" y="261.1083"/>
</g>
<g fill="rgb(35.68573%, 38.430786%, 44.706726%)" fill-opacity="1">
<use xlink:href="#glyph-2-14" x="436.294108" y="261.1083"/>
</g>
<g fill="rgb(35.68573%, 38.430786%, 44.706726%)" fill-opacity="1">
<use xlink:href="#glyph-2-13" x="443.070267" y="261.1083"/>
<use xlink:href="#glyph-2-7" x="448.413582" y="261.1083"/>
<use xlink:href="#glyph-2-15" x="453.607642" y="261.1083"/>
</g>
<g fill="rgb(35.68573%, 38.430786%, 44.706726%)" fill-opacity="1">
<use xlink:href="#glyph-2-0" x="456.732038" y="261.1083"/>
<use xlink:href="#glyph-2-22" x="461.846496" y="261.1083"/>
<use xlink:href="#glyph-2-13" x="469.796791" y="261.1083"/>
<use xlink:href="#glyph-2-15" x="475.140106" y="261.1083"/>
<use xlink:href="#glyph-2-3" x="478.373955" y="261.1083"/>
<use xlink:href="#glyph-2-9" x="480.732178" y="261.1083"/>
<use xlink:href="#glyph-2-7" x="486.045642" y="261.1083"/>
<use xlink:href="#glyph-2-6" x="491.239702" y="261.1083"/>
<use xlink:href="#glyph-2-22" x="496.015849" y="261.1083"/>
<use xlink:href="#glyph-2-6" x="503.966144" y="261.1083"/>
<use xlink:href="#glyph-2-1" x="508.742291" y="261.1083"/>
<use xlink:href="#glyph-2-15" x="513.976152" y="261.1083"/>
</g>
<g fill="rgb(35.68573%, 38.430786%, 44.706726%)" fill-opacity="1">
<use xlink:href="#glyph-2-24" x="519.200063" y="261.1083"/>
</g>
<g fill="rgb(35.68573%, 38.430786%, 44.706726%)" fill-opacity="1">
<use xlink:href="#glyph-2-25" x="377.676871" y="273.049499"/>
<use xlink:href="#glyph-2-26" x="382.005255" y="273.049499"/>
<use xlink:href="#glyph-2-13" x="387.209265" y="273.049499"/>
<use xlink:href="#glyph-2-9" x="392.55258" y="273.049499"/>
<use xlink:href="#glyph-2-7" x="397.866044" y="273.049499"/>
<use xlink:href="#glyph-2-6" x="403.060104" y="273.049499"/>
</g>
<g fill="rgb(35.68573%, 38.430786%, 44.706726%)" fill-opacity="1">
<use xlink:href="#glyph-2-25" x="409.826312" y="273.049499"/>
</g>
<g fill="rgb(35.68573%, 38.430786%, 44.706726%)" fill-opacity="1">
<use xlink:href="#glyph-2-0" x="414.035292" y="273.049499"/>
<use xlink:href="#glyph-2-22" x="419.14975" y="273.049499"/>
<use xlink:href="#glyph-2-22" x="427.100045" y="273.049499"/>
<use xlink:href="#glyph-2-3" x="435.05034" y="273.049499"/>
<use xlink:href="#glyph-2-15" x="437.408562" y="273.049499"/>
</g>
</svg>
