<?xml version="1.0" encoding="UTF-8"?>
<svg xmlns="http://www.w3.org/2000/svg" xmlns:xlink="http://www.w3.org/1999/xlink" width="664.618pt" height="200.49pt" viewBox="0 0 664.618 200.49">
<defs>
<g>
<g id="glyph-0-0">
<path d="M 1.859375 0 L 2.828125 0 L 4.53125 -4.828125 L 3.71875 -4.828125 L 2.8125 -2.09375 C 2.65625 -1.625 2.5 -1.140625 2.359375 -0.671875 L 2.328125 -0.671875 C 2.171875 -1.140625 2.03125 -1.625 1.875 -2.09375 L 0.96875 -4.828125 L 0.125 -4.828125 Z M 1.859375 0 "/>
</g>
<g id="glyph-0-1">
<path d="M 2.765625 0.125 C 3.421875 0.125 3.9375 -0.078125 4.359375 -0.375 L 4.078125 -0.90625 C 3.734375 -0.671875 3.328125 -0.546875 2.859375 -0.546875 C 1.953125 -0.546875 1.34375 -1.203125 1.265625 -2.203125 L 4.515625 -2.203125 C 4.546875 -2.359375 4.5625 -2.5 4.5625 -2.6875 C 4.5625 -4.078125 3.859375 -4.953125 2.625 -4.953125 C 1.515625 -4.953125 0.453125 -3.984375 0.453125 -2.421875 C 0.453125 -0.8125 1.46875 0.125 2.765625 0.125 Z M 1.265625 -2.828125 C 1.375 -3.75 1.96875 -4.296875 2.640625 -4.296875 C 3.375 -4.296875 3.828125 -3.78125 3.828125 -2.828125 Z M 1.265625 -2.828125 "/>
</g>
<g id="glyph-0-2">
<path d="M 0.8125 0 L 1.640625 0 L 1.640625 -3.09375 C 1.96875 -3.921875 2.453125 -4.203125 2.859375 -4.203125 C 3.046875 -4.203125 3.15625 -4.1875 3.296875 -4.140625 L 3.484375 -4.84375 C 3.328125 -4.921875 3.1875 -4.953125 2.96875 -4.953125 C 2.421875 -4.953125 1.921875 -4.5625 1.59375 -3.953125 L 1.5625 -3.953125 L 1.484375 -4.828125 L 0.8125 -4.828125 Z M 0.8125 0 "/>
</g>
<g id="glyph-0-3">
<path d="M 2.078125 0.125 C 3.21875 0.125 3.84375 -0.53125 3.84375 -1.328125 C 3.84375 -2.203125 3.125 -2.53125 2.359375 -2.796875 C 1.765625 -3 1.34375 -3.1875 1.34375 -3.625 C 1.34375 -3.96875 1.609375 -4.3125 2.21875 -4.3125 C 2.65625 -4.3125 3 -4.171875 3.34375 -3.921875 L 3.71875 -4.40625 C 3.34375 -4.71875 2.828125 -4.953125 2.21875 -4.953125 C 1.15625 -4.953125 0.546875 -4.359375 0.546875 -3.578125 C 0.546875 -2.78125 1.25 -2.4375 1.96875 -2.171875 C 2.515625 -1.984375 3.046875 -1.765625 3.046875 -1.265625 C 3.046875 -0.859375 2.75 -0.53125 2.109375 -0.53125 C 1.515625 -0.53125 1.078125 -0.703125 0.65625 -1.046875 L 0.28125 -0.578125 C 0.71875 -0.140625 1.375 0.125 2.078125 0.125 Z M 2.078125 0.125 "/>
</g>
<g id="glyph-0-4">
<path d="M 0.390625 0 L 4.484375 0 L 4.484375 -0.703125 L 2.59375 -0.703125 C 2.265625 -0.703125 1.875 -0.6875 1.53125 -0.65625 C 3.078125 -2.21875 4.1875 -3.375 4.1875 -4.59375 C 4.1875 -5.71875 3.453125 -6.453125 2.28125 -6.453125 C 1.453125 -6.453125 0.890625 -6.078125 0.375 -5.46875 L 0.828125 -5.03125 C 1.1875 -5.453125 1.65625 -5.78125 2.171875 -5.78125 C 2.984375 -5.78125 3.375 -5.28125 3.375 -4.546875 C 3.375 -3.53125 2.28125 -2.359375 0.390625 -0.5 Z M 0.390625 0 "/>
</g>
<g id="glyph-0-5">
<path d="M 2.46875 0.125 C 3.734375 0.125 4.5 -1.0625 4.5 -3.1875 C 4.5 -5.3125 3.734375 -6.453125 2.46875 -6.453125 C 1.203125 -6.453125 0.4375 -5.3125 0.4375 -3.1875 C 0.4375 -1.0625 1.203125 0.125 2.46875 0.125 Z M 2.46875 -0.546875 C 1.734375 -0.546875 1.25 -1.328125 1.25 -3.1875 C 1.25 -5.046875 1.734375 -5.796875 2.46875 -5.796875 C 3.203125 -5.796875 3.703125 -5.046875 3.703125 -3.1875 C 3.703125 -1.328125 3.203125 -0.546875 2.46875 -0.546875 Z M 2.46875 -0.546875 "/>
</g>
<g id="glyph-0-6">
<path d="M 2.34375 0.125 C 3.515625 0.125 4.4375 -0.5625 4.4375 -1.6875 C 4.4375 -2.5625 3.828125 -3.125 3.078125 -3.296875 L 3.078125 -3.34375 C 3.75 -3.59375 4.21875 -4.078125 4.21875 -4.84375 C 4.21875 -5.875 3.421875 -6.453125 2.3125 -6.453125 C 1.5625 -6.453125 0.984375 -6.125 0.5 -5.671875 L 0.9375 -5.140625 C 1.3125 -5.515625 1.765625 -5.78125 2.28125 -5.78125 C 2.96875 -5.78125 3.375 -5.390625 3.375 -4.796875 C 3.375 -4.125 2.921875 -3.609375 1.578125 -3.609375 L 1.578125 -2.984375 C 3.09375 -2.984375 3.609375 -2.46875 3.609375 -1.71875 C 3.609375 -1.015625 3.0625 -0.5625 2.296875 -0.5625 C 1.546875 -0.5625 1.046875 -0.921875 0.671875 -1.3125 L 0.265625 -0.78125 C 0.6875 -0.3125 1.328125 0.125 2.34375 0.125 Z M 2.34375 0.125 "/>
</g>
<g id="glyph-0-7">
<path d="M 0.40625 -2.171875 L 2.6875 -2.171875 L 2.6875 -2.8125 L 0.40625 -2.8125 Z M 0.40625 -2.171875 "/>
</g>
<g id="glyph-0-8">
<path d="M 0.78125 0 L 4.359375 0 L 4.359375 -0.6875 L 3.0625 -0.6875 L 3.0625 -6.34375 L 2.421875 -6.34375 C 2.078125 -6.125 1.65625 -5.96875 1.078125 -5.875 L 1.078125 -5.34375 L 2.234375 -5.34375 L 2.234375 -0.6875 L 0.78125 -0.6875 Z M 0.78125 0 "/>
</g>
<g id="glyph-0-9">
<path d="M 2.328125 0.125 C 3.421875 0.125 4.46875 -0.65625 4.46875 -2.03125 C 4.46875 -3.40625 3.578125 -4.015625 2.5 -4.015625 C 2.109375 -4.015625 1.828125 -3.921875 1.53125 -3.75 L 1.703125 -5.625 L 4.15625 -5.625 L 4.15625 -6.34375 L 0.96875 -6.34375 L 0.765625 -3.296875 L 1.203125 -3.015625 C 1.578125 -3.265625 1.84375 -3.390625 2.28125 -3.390625 C 3.09375 -3.390625 3.625 -2.875 3.625 -2 C 3.625 -1.125 3.015625 -0.5625 2.25 -0.5625 C 1.5 -0.5625 1.03125 -0.921875 0.640625 -1.296875 L 0.25 -0.75 C 0.6875 -0.3125 1.3125 0.125 2.328125 0.125 Z M 2.328125 0.125 "/>
</g>
<g id="glyph-0-10">
<path d="M 3.453125 0.125 C 4.328125 0.125 5.046875 -0.203125 5.46875 -0.640625 L 5.46875 -3.375 L 3.328125 -3.375 L 3.328125 -2.6875 L 4.703125 -2.6875 L 4.703125 -1 C 4.453125 -0.75 4 -0.609375 3.53125 -0.609375 C 2.140625 -0.609375 1.375 -1.640625 1.375 -3.28125 C 1.375 -4.90625 2.21875 -5.90625 3.53125 -5.90625 C 4.1875 -5.90625 4.59375 -5.65625 4.921875 -5.3125 L 5.390625 -5.828125 C 5.015625 -6.234375 4.40625 -6.640625 3.515625 -6.640625 C 1.78125 -6.640625 0.515625 -5.359375 0.515625 -3.265625 C 0.515625 -1.140625 1.734375 0.125 3.453125 0.125 Z M 3.453125 0.125 "/>
</g>
<g id="glyph-0-11">
<path d="M 2.6875 0.125 C 3.875 0.125 4.9375 -0.8125 4.9375 -2.40625 C 4.9375 -4.03125 3.875 -4.953125 2.6875 -4.953125 C 1.515625 -4.953125 0.453125 -4.03125 0.453125 -2.40625 C 0.453125 -0.8125 1.515625 0.125 2.6875 0.125 Z M 2.6875 -0.5625 C 1.875 -0.5625 1.3125 -1.296875 1.3125 -2.40625 C 1.3125 -3.515625 1.875 -4.265625 2.6875 -4.265625 C 3.53125 -4.265625 4.078125 -3.515625 4.078125 -2.40625 C 4.078125 -1.296875 3.53125 -0.5625 2.6875 -0.5625 Z M 2.6875 -0.5625 "/>
</g>
<g id="glyph-0-12">
<path d="M 2.4375 2.21875 C 3.9375 2.21875 4.890625 1.453125 4.890625 0.546875 C 4.890625 -0.25 4.328125 -0.609375 3.203125 -0.609375 L 2.265625 -0.609375 C 1.625 -0.609375 1.421875 -0.828125 1.421875 -1.125 C 1.421875 -1.390625 1.546875 -1.546875 1.734375 -1.703125 C 1.953125 -1.59375 2.203125 -1.53125 2.4375 -1.53125 C 3.421875 -1.53125 4.21875 -2.171875 4.21875 -3.203125 C 4.21875 -3.625 4.046875 -3.96875 3.828125 -4.1875 L 4.8125 -4.1875 L 4.8125 -4.828125 L 3.125 -4.828125 C 2.953125 -4.90625 2.71875 -4.953125 2.4375 -4.953125 C 1.453125 -4.953125 0.625 -4.28125 0.625 -3.234375 C 0.625 -2.65625 0.9375 -2.1875 1.25 -1.921875 L 1.25 -1.890625 C 1 -1.71875 0.71875 -1.40625 0.71875 -1 C 0.71875 -0.609375 0.921875 -0.359375 1.15625 -0.203125 L 1.15625 -0.171875 C 0.71875 0.125 0.453125 0.515625 0.453125 0.921875 C 0.453125 1.765625 1.265625 2.21875 2.4375 2.21875 Z M 2.4375 -2.09375 C 1.890625 -2.09375 1.421875 -2.53125 1.421875 -3.234375 C 1.421875 -3.9375 1.875 -4.359375 2.4375 -4.359375 C 3.015625 -4.359375 3.46875 -3.921875 3.46875 -3.234375 C 3.46875 -2.53125 3 -2.09375 2.4375 -2.09375 Z M 2.5625 1.65625 C 1.6875 1.65625 1.15625 1.328125 1.15625 0.8125 C 1.15625 0.53125 1.3125 0.25 1.65625 0 C 1.875 0.0625 2.09375 0.078125 2.28125 0.078125 L 3.109375 0.078125 C 3.75 0.078125 4.078125 0.234375 4.078125 0.671875 C 4.078125 1.171875 3.484375 1.65625 2.5625 1.65625 Z M 2.5625 1.65625 "/>
</g>
<g id="glyph-0-13">
<path d="M 1.671875 0.125 C 1.890625 0.125 2.03125 0.09375 2.15625 0.03125 L 2.046875 -0.59375 C 1.96875 -0.5625 1.921875 -0.5625 1.875 -0.5625 C 1.75 -0.5625 1.640625 -0.65625 1.640625 -0.921875 L 1.640625 -7.078125 L 0.8125 -7.078125 L 0.8125 -0.96875 C 0.8125 -0.28125 1.0625 0.125 1.671875 0.125 Z M 1.671875 0.125 "/>
</g>
<g id="glyph-0-14">
<path d="M 0.671875 1.6875 C 1.484375 1.359375 1.984375 0.6875 1.984375 -0.171875 C 1.984375 -0.78125 1.71875 -1.140625 1.28125 -1.140625 C 0.953125 -1.140625 0.671875 -0.921875 0.671875 -0.5625 C 0.671875 -0.1875 0.9375 0.015625 1.265625 0.015625 C 1.296875 0.015625 1.328125 0.015625 1.375 0 C 1.375 0.53125 1.03125 0.96875 0.46875 1.21875 Z M 0.671875 1.6875 "/>
</g>
<g id="glyph-0-15">
<path d="M 0.8125 0 L 1.640625 0 L 1.640625 -4.828125 L 0.8125 -4.828125 Z M 1.234375 -5.828125 C 1.546875 -5.828125 1.78125 -6.03125 1.78125 -6.359375 C 1.78125 -6.671875 1.546875 -6.890625 1.234375 -6.890625 C 0.921875 -6.890625 0.6875 -6.671875 0.6875 -6.359375 C 0.6875 -6.03125 0.921875 -5.828125 1.234375 -5.828125 Z M 1.234375 -5.828125 "/>
</g>
<g id="glyph-0-16">
<path d="M 0.8125 0 L 1.640625 0 L 1.640625 -3.5 C 2.109375 -3.984375 2.46875 -4.234375 2.953125 -4.234375 C 3.59375 -4.234375 3.859375 -3.859375 3.859375 -2.953125 L 3.859375 0 L 4.6875 0 L 4.6875 -3.0625 C 4.6875 -4.296875 4.234375 -4.953125 3.203125 -4.953125 C 2.546875 -4.953125 2.046875 -4.59375 1.59375 -4.140625 L 1.5625 -4.140625 L 1.484375 -4.828125 L 0.8125 -4.828125 Z M 0.8125 0 "/>
</g>
<g id="glyph-0-17">
<path d="M 2.328125 0.125 C 2.65625 0.125 2.984375 0.03125 3.25 -0.09375 L 3.078125 -0.671875 C 2.875 -0.59375 2.703125 -0.5625 2.53125 -0.5625 C 1.984375 -0.5625 1.78125 -0.890625 1.78125 -1.484375 L 1.78125 -4.15625 L 3.09375 -4.15625 L 3.09375 -4.828125 L 1.78125 -4.828125 L 1.78125 -6.375 L 1.09375 -6.375 L 1 -4.828125 L 0.234375 -4.78125 L 0.234375 -4.15625 L 0.953125 -4.15625 L 0.953125 -1.5 C 0.953125 -0.53125 1.296875 0.125 2.328125 0.125 Z M 2.328125 0.125 "/>
</g>
<g id="glyph-0-18">
<path d="M 0.953125 0 L 1.78125 0 L 1.78125 -4.15625 L 2.796875 -4.15625 L 2.796875 -4.828125 L 1.78125 -4.828125 L 1.78125 -5.578125 C 1.78125 -6.203125 2 -6.53125 2.453125 -6.53125 C 2.625 -6.53125 2.796875 -6.484375 2.984375 -6.421875 L 3.171875 -7.03125 C 2.96875 -7.125 2.65625 -7.1875 2.359375 -7.1875 C 1.40625 -7.1875 0.953125 -6.5625 0.953125 -5.578125 L 0.953125 -4.828125 L 0.296875 -4.78125 L 0.296875 -4.15625 L 0.953125 -4.15625 Z M 0.953125 0 "/>
</g>
<g id="glyph-0-19">
<path d="M 2.46875 0.125 C 3.03125 0.125 3.546875 -0.203125 3.921875 -0.5625 L 3.953125 -0.5625 L 4.03125 0 L 4.703125 0 L 4.703125 -7.078125 L 3.875 -7.078125 L 3.875 -5.21875 L 3.921875 -4.390625 C 3.484375 -4.734375 3.125 -4.953125 2.5625 -4.953125 C 1.453125 -4.953125 0.46875 -3.96875 0.46875 -2.40625 C 0.46875 -0.796875 1.25 0.125 2.46875 0.125 Z M 2.640625 -0.578125 C 1.796875 -0.578125 1.328125 -1.265625 1.328125 -2.421875 C 1.328125 -3.515625 1.9375 -4.25 2.703125 -4.25 C 3.09375 -4.25 3.46875 -4.125 3.875 -3.75 L 3.875 -1.234375 C 3.484375 -0.796875 3.09375 -0.578125 2.640625 -0.578125 Z M 2.640625 -0.578125 "/>
</g>
<g id="glyph-0-20">
<path d="M 2.21875 0.125 C 2.890625 0.125 3.375 -0.234375 3.8125 -0.75 L 3.84375 -0.75 L 3.921875 0 L 4.59375 0 L 4.59375 -4.828125 L 3.765625 -4.828125 L 3.765625 -1.40625 C 3.3125 -0.84375 2.96875 -0.59375 2.484375 -0.59375 C 1.84375 -0.59375 1.5625 -0.984375 1.5625 -1.875 L 1.5625 -4.828125 L 0.75 -4.828125 L 0.75 -1.765625 C 0.75 -0.53125 1.203125 0.125 2.21875 0.125 Z M 2.21875 0.125 "/>
</g>
<g id="glyph-0-21">
<path d="M 2.71875 0.125 C 3.296875 0.125 3.84375 -0.09375 4.28125 -0.5 L 3.921875 -1.03125 C 3.640625 -0.765625 3.234375 -0.5625 2.796875 -0.5625 C 1.90625 -0.5625 1.3125 -1.296875 1.3125 -2.40625 C 1.3125 -3.515625 1.953125 -4.265625 2.828125 -4.265625 C 3.203125 -4.265625 3.515625 -4.109375 3.78125 -3.859375 L 4.1875 -4.375 C 3.859375 -4.703125 3.421875 -4.953125 2.78125 -4.953125 C 1.546875 -4.953125 0.453125 -4.03125 0.453125 -2.40625 C 0.453125 -0.8125 1.4375 0.125 2.71875 0.125 Z M 2.71875 0.125 "/>
</g>
<g id="glyph-0-22">
<path d="M 0.8125 0 L 1.640625 0 L 1.640625 -3.5 C 2.109375 -3.984375 2.46875 -4.234375 2.953125 -4.234375 C 3.59375 -4.234375 3.859375 -3.859375 3.859375 -2.953125 L 3.859375 0 L 4.6875 0 L 4.6875 -3.0625 C 4.6875 -4.296875 4.234375 -4.953125 3.203125 -4.953125 C 2.546875 -4.953125 2.0625 -4.59375 1.609375 -4.15625 L 1.640625 -5.140625 L 1.640625 -7.078125 L 0.8125 -7.078125 Z M 0.8125 0 "/>
</g>
<g id="glyph-0-23">
<path d="M 1.03125 -2.40625 L 2.515625 -4.5625 C 2.6875 -4.875 2.875 -5.15625 3.03125 -5.453125 L 3.078125 -5.453125 C 3.046875 -5.125 3.015625 -4.578125 3.015625 -4.25 L 3.015625 -2.40625 Z M 3.015625 0 L 3.796875 0 L 3.796875 -1.75 L 4.65625 -1.75 L 4.65625 -2.40625 L 3.796875 -2.40625 L 3.796875 -6.34375 L 2.875 -6.34375 L 0.171875 -2.296875 L 0.171875 -1.75 L 3.015625 -1.75 Z M 3.015625 0 "/>
</g>
<g id="glyph-0-24">
<path d="M 0.8125 2.03125 L 1.640625 2.03125 L 1.640625 0.40625 L 1.625 -0.4375 C 2.0625 -0.09375 2.515625 0.125 2.953125 0.125 C 4.046875 0.125 5.046875 -0.84375 5.046875 -2.484375 C 5.046875 -3.984375 4.375 -4.953125 3.125 -4.953125 C 2.578125 -4.953125 2.03125 -4.640625 1.59375 -4.265625 L 1.5625 -4.265625 L 1.484375 -4.828125 L 0.8125 -4.828125 Z M 2.8125 -0.578125 C 2.5 -0.578125 2.078125 -0.703125 1.640625 -1.078125 L 1.640625 -3.59375 C 2.109375 -4.03125 2.515625 -4.25 2.921875 -4.25 C 3.828125 -4.25 4.1875 -3.546875 4.1875 -2.484375 C 4.1875 -1.296875 3.609375 -0.578125 2.8125 -0.578125 Z M 2.8125 -0.578125 "/>
</g>
<g id="glyph-0-25">
<path d="M 2.765625 0.125 C 3.421875 0.125 3.9375 -0.078125 4.359375 -0.375 L 4.078125 -0.90625 C 3.734375 -0.671875 3.328125 -0.546875 2.859375 -0.546875 C 1.953125 -0.546875 1.34375 -1.203125 1.265625 -2.203125 L 4.515625 -2.203125 C 4.546875 -2.359375 4.5625 -2.5 4.5625 -2.6875 C 4.5625 -4.078125 3.859375 -4.953125 2.625 -4.953125 C 1.515625 -4.953125 0.453125 -3.984375 0.453125 -2.421875 C 0.453125 -0.8125 1.46875 0.125 2.765625 0.125 Z M 1.265625 -2.828125 C 1.375 -3.75 1.96875 -4.296875 2.640625 -4.296875 C 3.375 -4.296875 3.828125 -3.78125 3.828125 -2.828125 Z M 2.203125 -5.6875 L 3.96875 -7.21875 L 3.46875 -7.765625 L 1.78125 -6.109375 Z M 2.203125 -5.6875 "/>
</g>
<g id="glyph-0-26">
<path d="M 0.890625 0 L 2.984375 0 C 4.4375 0 5.453125 -0.625 5.453125 -1.90625 C 5.453125 -2.796875 4.90625 -3.3125 4.125 -3.46875 L 4.125 -3.515625 C 4.734375 -3.703125 5.078125 -4.28125 5.078125 -4.921875 C 5.078125 -6.078125 4.15625 -6.515625 2.828125 -6.515625 L 0.890625 -6.515625 Z M 1.734375 -3.75 L 1.734375 -5.859375 L 2.71875 -5.859375 C 3.734375 -5.859375 4.25 -5.578125 4.25 -4.8125 C 4.25 -4.15625 3.796875 -3.75 2.6875 -3.75 Z M 1.734375 -0.671875 L 1.734375 -3.109375 L 2.859375 -3.109375 C 4 -3.109375 4.625 -2.75 4.625 -1.9375 C 4.625 -1.0625 3.96875 -0.671875 2.859375 -0.671875 Z M 1.734375 -0.671875 "/>
</g>
<g id="glyph-0-27">
<path d="M 1.171875 -4.421875 C 1.171875 -5.25 1.65625 -5.796875 2.265625 -5.796875 C 3.078125 -5.796875 3.5625 -5.140625 3.65625 -3.921875 C 3.265625 -3.328125 2.75 -3.078125 2.328125 -3.078125 C 1.5625 -3.078125 1.171875 -3.59375 1.171875 -4.421875 Z M 2.03125 0.125 C 3.3125 0.125 4.46875 -0.859375 4.46875 -3.40625 C 4.46875 -5.453125 3.515625 -6.453125 2.265625 -6.453125 C 1.25 -6.453125 0.390625 -5.640625 0.390625 -4.421875 C 0.390625 -3.125 1.109375 -2.46875 2.203125 -2.46875 C 2.71875 -2.46875 3.28125 -2.765625 3.671875 -3.265625 C 3.640625 -1.25 2.90625 -0.5625 2 -0.5625 C 1.609375 -0.5625 1.21875 -0.765625 0.96875 -1.0625 L 0.5 -0.546875 C 0.859375 -0.171875 1.359375 0.125 2.03125 0.125 Z M 2.03125 0.125 "/>
</g>
<g id="glyph-0-28">
<path d="M 2.140625 -1.03125 L 2.796875 -1.03125 L 2.796875 -2.96875 L 4.59375 -2.96875 L 4.59375 -3.59375 L 2.796875 -3.59375 L 2.796875 -5.53125 L 2.140625 -5.53125 L 2.140625 -3.59375 L 0.34375 -3.59375 L 0.34375 -2.96875 L 2.140625 -2.96875 Z M 2.140625 -1.03125 "/>
</g>
<g id="glyph-0-29">
<path d="M 0.8125 0 L 1.625 0 L 1.625 -1.265625 L 2.53125 -2.3125 L 3.9375 0 L 4.828125 0 L 3.015625 -2.875 L 4.625 -4.828125 L 3.703125 -4.828125 L 1.65625 -2.3125 L 1.625 -2.3125 L 1.625 -7.078125 L 0.8125 -7.078125 Z M 0.8125 0 "/>
</g>
<g id="glyph-0-30">
<path d="M 0.90625 2.078125 C 1.875 2.078125 2.375 1.34375 2.71875 0.390625 L 4.53125 -4.828125 L 3.734375 -4.828125 L 2.859375 -2.171875 C 2.734375 -1.734375 2.59375 -1.25 2.46875 -0.8125 L 2.421875 -0.8125 C 2.265625 -1.25 2.109375 -1.75 1.953125 -2.171875 L 0.96875 -4.828125 L 0.125 -4.828125 L 2.0625 0.015625 L 1.953125 0.375 C 1.75 0.96875 1.40625 1.390625 0.859375 1.390625 C 0.75 1.390625 0.625 1.375 0.5 1.328125 L 0.328125 1.984375 C 0.484375 2.03125 0.671875 2.078125 0.90625 2.078125 Z M 0.90625 2.078125 "/>
</g>
<g id="glyph-0-31">
<path d="M 2.03125 -3.640625 C 2.25 -4.359375 2.46875 -5.078125 2.65625 -5.828125 L 2.703125 -5.828125 C 2.90625 -5.078125 3.125 -4.359375 3.359375 -3.640625 L 3.671875 -2.65625 L 1.71875 -2.65625 Z M 0.03125 0 L 0.875 0 L 1.5 -1.984375 L 3.875 -1.984375 L 4.484375 0 L 5.375 0 L 3.1875 -6.515625 L 2.21875 -6.515625 Z M 0.03125 0 "/>
</g>
<g id="glyph-0-32">
<path d="M 1.921875 0.125 C 2.53125 0.125 3.0625 -0.1875 3.515625 -0.578125 L 3.546875 -0.578125 L 3.625 0 L 4.296875 0 L 4.296875 -2.96875 C 4.296875 -4.15625 3.796875 -4.953125 2.625 -4.953125 C 1.84375 -4.953125 1.171875 -4.625 0.71875 -4.328125 L 1.046875 -3.765625 C 1.421875 -4.015625 1.921875 -4.265625 2.484375 -4.265625 C 3.265625 -4.265625 3.46875 -3.671875 3.484375 -3.078125 C 1.40625 -2.84375 0.515625 -2.328125 0.515625 -1.25 C 0.515625 -0.375 1.125 0.125 1.921875 0.125 Z M 2.15625 -0.5625 C 1.6875 -0.5625 1.328125 -0.765625 1.328125 -1.296875 C 1.328125 -1.921875 1.84375 -2.296875 3.484375 -2.484375 L 3.484375 -1.171875 C 3.015625 -0.765625 2.625 -0.5625 2.15625 -0.5625 Z M 2.15625 -0.5625 "/>
</g>
<g id="glyph-0-33">
<path d="M 0.8125 0 L 1.640625 0 L 1.640625 -3.5 C 2.09375 -4 2.484375 -4.234375 2.84375 -4.234375 C 3.453125 -4.234375 3.734375 -3.859375 3.734375 -2.953125 L 3.734375 0 L 4.5625 0 L 4.5625 -3.5 C 5.015625 -4 5.390625 -4.234375 5.78125 -4.234375 C 6.375 -4.234375 6.671875 -3.859375 6.671875 -2.953125 L 6.671875 0 L 7.5 0 L 7.5 -3.0625 C 7.5 -4.296875 7.015625 -4.953125 6.015625 -4.953125 C 5.4375 -4.953125 4.921875 -4.578125 4.4375 -4.03125 C 4.234375 -4.59375 3.828125 -4.953125 3.09375 -4.953125 C 2.515625 -4.953125 2.015625 -4.59375 1.59375 -4.140625 L 1.5625 -4.140625 L 1.484375 -4.828125 L 0.8125 -4.828125 Z M 0.8125 0 "/>
</g>
<g id="glyph-0-34">
<path d="M 1.921875 0.125 C 2.53125 0.125 3.0625 -0.1875 3.515625 -0.578125 L 3.546875 -0.578125 L 3.625 0 L 4.296875 0 L 4.296875 -2.96875 C 4.296875 -4.15625 3.796875 -4.953125 2.625 -4.953125 C 1.84375 -4.953125 1.171875 -4.625 0.71875 -4.328125 L 1.046875 -3.765625 C 1.421875 -4.015625 1.921875 -4.265625 2.484375 -4.265625 C 3.265625 -4.265625 3.46875 -3.671875 3.484375 -3.078125 C 1.40625 -2.84375 0.515625 -2.328125 0.515625 -1.25 C 0.515625 -0.375 1.125 0.125 1.921875 0.125 Z M 2.15625 -0.5625 C 1.6875 -0.5625 1.328125 -0.765625 1.328125 -1.296875 C 1.328125 -1.921875 1.84375 -2.296875 3.484375 -2.484375 L 3.484375 -1.171875 C 3.015625 -0.765625 2.625 -0.5625 2.15625 -0.5625 Z M 3.078125 -5.6875 L 3.5 -6.109375 L 1.8125 -7.765625 L 1.296875 -7.21875 Z M 3.078125 -5.6875 "/>
</g>
<g id="glyph-0-35">
<path d="M 0.890625 0 L 2.5625 0 C 4.53125 0 5.609375 -1.21875 5.609375 -3.296875 C 5.609375 -5.359375 4.53125 -6.515625 2.53125 -6.515625 L 0.890625 -6.515625 Z M 1.734375 -0.6875 L 1.734375 -5.828125 L 2.46875 -5.828125 C 3.984375 -5.828125 4.734375 -4.921875 4.734375 -3.296875 C 4.734375 -1.640625 3.984375 -0.6875 2.46875 -0.6875 Z M 1.734375 -0.6875 "/>
</g>
<g id="glyph-1-0">
<path d="M 0.890625 0 L 3.828125 0 C 5.515625 0 6.859375 -0.703125 6.859375 -2.28125 C 6.859375 -3.328125 6.265625 -3.90625 5.46875 -4.109375 L 5.46875 -4.15625 C 6.109375 -4.40625 6.484375 -5.15625 6.484375 -5.828125 C 6.484375 -7.328125 5.203125 -7.765625 3.59375 -7.765625 L 0.890625 -7.765625 Z M 2.75 -4.671875 L 2.75 -6.34375 L 3.546875 -6.34375 C 4.296875 -6.34375 4.671875 -6.109375 4.671875 -5.5625 C 4.671875 -5.015625 4.328125 -4.671875 3.53125 -4.671875 Z M 2.75 -1.421875 L 2.75 -3.3125 L 3.6875 -3.3125 C 4.609375 -3.3125 5.0625 -3.0625 5.0625 -2.40625 C 5.0625 -1.75 4.59375 -1.421875 3.6875 -1.421875 Z M 2.75 -1.421875 "/>
</g>
<g id="glyph-1-1">
<path d="M 3.3125 0.140625 C 4.828125 0.140625 6.21875 -1 6.21875 -2.96875 C 6.21875 -4.9375 4.828125 -6.0625 3.3125 -6.0625 C 1.8125 -6.0625 0.421875 -4.9375 0.421875 -2.96875 C 0.421875 -1 1.8125 0.140625 3.3125 0.140625 Z M 3.3125 -1.34375 C 2.625 -1.34375 2.296875 -1.984375 2.296875 -2.96875 C 2.296875 -3.953125 2.625 -4.59375 3.3125 -4.59375 C 4 -4.59375 4.328125 -3.953125 4.328125 -2.96875 C 4.328125 -1.984375 4 -1.34375 3.3125 -1.34375 Z M 3.3125 -1.34375 "/>
</g>
<g id="glyph-1-2">
<path d="M 0.75 0 L 2.59375 0 L 2.59375 -3.390625 C 2.890625 -4.171875 3.4375 -4.453125 3.875 -4.453125 C 4.140625 -4.453125 4.265625 -4.4375 4.484375 -4.390625 L 4.828125 -5.953125 C 4.65625 -6.03125 4.453125 -6.0625 4.109375 -6.0625 C 3.515625 -6.0625 2.859375 -5.703125 2.4375 -4.90625 L 2.390625 -4.90625 L 2.25 -5.921875 L 0.75 -5.921875 Z M 0.75 0 "/>
</g>
<g id="glyph-1-3">
<path d="M 2.875 2.484375 C 4.9375 2.484375 6.234375 1.609375 6.234375 0.359375 C 6.234375 -0.71875 5.40625 -1.15625 3.953125 -1.15625 L 3 -1.15625 C 2.375 -1.15625 2.140625 -1.28125 2.140625 -1.578125 C 2.140625 -1.765625 2.1875 -1.859375 2.328125 -1.984375 C 2.59375 -1.90625 2.828125 -1.875 3.03125 -1.875 C 4.34375 -1.875 5.390625 -2.484375 5.390625 -3.859375 C 5.390625 -4.15625 5.3125 -4.421875 5.203125 -4.59375 L 6.140625 -4.59375 L 6.140625 -5.921875 L 3.953125 -5.921875 C 3.6875 -6.015625 3.359375 -6.0625 3.03125 -6.0625 C 1.734375 -6.0625 0.546875 -5.359375 0.546875 -3.921875 C 0.546875 -3.234375 0.9375 -2.6875 1.34375 -2.390625 L 1.34375 -2.34375 C 0.96875 -2.078125 0.6875 -1.640625 0.6875 -1.234375 C 0.6875 -0.734375 0.921875 -0.421875 1.234375 -0.21875 L 1.234375 -0.171875 C 0.671875 0.125 0.390625 0.515625 0.390625 1 C 0.390625 2.0625 1.5 2.484375 2.875 2.484375 Z M 3.03125 -2.984375 C 2.59375 -2.984375 2.28125 -3.296875 2.28125 -3.921875 C 2.28125 -4.53125 2.59375 -4.84375 3.03125 -4.84375 C 3.46875 -4.84375 3.78125 -4.53125 3.78125 -3.921875 C 3.78125 -3.296875 3.46875 -2.984375 3.03125 -2.984375 Z M 3.171875 1.34375 C 2.40625 1.34375 1.90625 1.125 1.90625 0.703125 C 1.90625 0.515625 2 0.34375 2.1875 0.171875 C 2.375 0.21875 2.59375 0.25 3.03125 0.25 L 3.59375 0.25 C 4.15625 0.25 4.46875 0.328125 4.46875 0.671875 C 4.46875 1.0625 3.921875 1.34375 3.171875 1.34375 Z M 3.171875 1.34375 "/>
</g>
<g id="glyph-1-4">
<path d="M 4.09375 0.140625 C 6.203125 0.140625 7.640625 -1.375 7.640625 -3.90625 C 7.640625 -6.453125 6.203125 -7.90625 4.09375 -7.90625 C 1.984375 -7.90625 0.53125 -6.46875 0.53125 -3.90625 C 0.53125 -1.375 1.984375 0.140625 4.09375 0.140625 Z M 4.09375 -1.453125 C 3.078125 -1.453125 2.4375 -2.40625 2.4375 -3.90625 C 2.4375 -5.421875 3.078125 -6.3125 4.09375 -6.3125 C 5.109375 -6.3125 5.75 -5.421875 5.75 -3.90625 C 5.75 -2.40625 5.109375 -1.453125 4.09375 -1.453125 Z M 4.09375 -1.453125 "/>
</g>
<g id="glyph-1-5">
<path d="M 0.75 0 L 2.59375 0 L 2.59375 -3.96875 C 2.9375 -4.328125 3.265625 -4.5 3.546875 -4.5 C 4.015625 -4.5 4.234375 -4.25 4.234375 -3.4375 L 4.234375 0 L 6.078125 0 L 6.078125 -3.96875 C 6.4375 -4.328125 6.75 -4.5 7.03125 -4.5 C 7.5 -4.5 7.71875 -4.25 7.71875 -3.4375 L 7.71875 0 L 9.5625 0 L 9.5625 -3.671875 C 9.5625 -5.15625 8.984375 -6.0625 7.703125 -6.0625 C 6.921875 -6.0625 6.359375 -5.609375 5.859375 -5.09375 C 5.5625 -5.71875 5.046875 -6.0625 4.21875 -6.0625 C 3.4375 -6.0625 2.90625 -5.65625 2.4375 -5.1875 L 2.390625 -5.1875 L 2.25 -5.921875 L 0.75 -5.921875 Z M 0.75 0 "/>
</g>
<g id="glyph-1-6">
<path d="M 3.421875 0.140625 C 4.125 0.140625 4.9375 -0.078125 5.5625 -0.53125 L 4.953125 -1.640625 C 4.546875 -1.390625 4.109375 -1.265625 3.6875 -1.265625 C 2.9375 -1.265625 2.375 -1.609375 2.203125 -2.40625 L 5.703125 -2.40625 C 5.734375 -2.578125 5.765625 -2.890625 5.765625 -3.21875 C 5.765625 -4.828125 4.9375 -6.0625 3.21875 -6.0625 C 1.796875 -6.0625 0.421875 -4.890625 0.421875 -2.96875 C 0.421875 -0.984375 1.734375 0.140625 3.421875 0.140625 Z M 2.1875 -3.640625 C 2.296875 -4.34375 2.734375 -4.671875 3.265625 -4.671875 C 3.9375 -4.671875 4.203125 -4.234375 4.203125 -3.640625 Z M 2.1875 -3.640625 "/>
</g>
<g id="glyph-1-7">
<path d="M 2.25 0.140625 C 2.921875 0.140625 3.453125 -0.15625 3.953125 -0.59375 L 4 -0.59375 L 4.125 0 L 5.625 0 L 5.625 -3.359375 C 5.625 -5.21875 4.765625 -6.0625 3.25 -6.0625 C 2.3125 -6.0625 1.46875 -5.765625 0.6875 -5.296875 L 1.328125 -4.09375 C 1.9375 -4.4375 2.40625 -4.609375 2.890625 -4.609375 C 3.5 -4.609375 3.75 -4.3125 3.796875 -3.828125 C 1.453125 -3.59375 0.484375 -2.90625 0.484375 -1.65625 C 0.484375 -0.671875 1.171875 0.140625 2.25 0.140625 Z M 2.890625 -1.28125 C 2.484375 -1.28125 2.25 -1.453125 2.25 -1.796875 C 2.25 -2.21875 2.609375 -2.546875 3.796875 -2.6875 L 3.796875 -1.75 C 3.5 -1.46875 3.25 -1.28125 2.890625 -1.28125 Z M 2.890625 -1.28125 "/>
</g>
<g id="glyph-1-8">
<path d="M 0.890625 0 L 2.75 0 L 2.75 -2.03125 L 3.59375 -3.1875 L 5.4375 0 L 7.46875 0 L 4.6875 -4.65625 L 7.015625 -7.765625 L 5 -7.765625 L 2.796875 -4.6875 L 2.75 -4.6875 L 2.75 -7.765625 L 0.890625 -7.765625 Z M 0.890625 0 "/>
</g>
<g id="glyph-1-9">
<path d="M 2.546875 0.140625 C 3.34375 0.140625 3.90625 -0.21875 4.390625 -0.8125 L 4.4375 -0.8125 L 4.5625 0 L 6.0625 0 L 6.0625 -5.921875 L 4.21875 -5.921875 L 4.21875 -2.03125 C 3.90625 -1.59375 3.640625 -1.4375 3.234375 -1.4375 C 2.75 -1.4375 2.546875 -1.671875 2.546875 -2.484375 L 2.546875 -5.921875 L 0.6875 -5.921875 L 0.6875 -2.25 C 0.6875 -0.78125 1.234375 0.140625 2.546875 0.140625 Z M 2.546875 0.140625 "/>
</g>
<g id="glyph-1-10">
<path d="M 3.921875 0.140625 C 5.203125 0.140625 6.40625 -1.03125 6.40625 -3.0625 C 6.40625 -4.890625 5.515625 -6.0625 4.078125 -6.0625 C 3.53125 -6.0625 3 -5.828125 2.546875 -5.4375 L 2.59375 -6.328125 L 2.59375 -8.328125 L 0.75 -8.328125 L 0.75 0 L 2.1875 0 L 2.34375 -0.625 L 2.390625 -0.625 C 2.84375 -0.125 3.390625 0.140625 3.921875 0.140625 Z M 3.484375 -1.375 C 3.1875 -1.375 2.890625 -1.453125 2.59375 -1.71875 L 2.59375 -4.0625 C 2.90625 -4.40625 3.1875 -4.5625 3.546875 -4.5625 C 4.203125 -4.5625 4.5 -4.078125 4.5 -3.046875 C 4.5 -1.84375 4.046875 -1.375 3.484375 -1.375 Z M 3.484375 -1.375 "/>
</g>
<g id="glyph-1-11">
<path d="M 0.75 0 L 2.59375 0 L 2.59375 -3.96875 C 2.953125 -4.296875 3.203125 -4.5 3.625 -4.5 C 4.09375 -4.5 4.3125 -4.25 4.3125 -3.4375 L 4.3125 0 L 6.15625 0 L 6.15625 -3.671875 C 6.15625 -5.15625 5.609375 -6.0625 4.328125 -6.0625 C 3.515625 -6.0625 2.921875 -5.65625 2.4375 -5.1875 L 2.390625 -5.1875 L 2.25 -5.921875 L 0.75 -5.921875 Z M 0.75 0 "/>
</g>
<g id="glyph-1-12">
<path d="M 3.078125 0.140625 C 3.65625 0.140625 4.109375 0.03125 4.421875 -0.09375 L 4.140625 -1.390625 C 3.984375 -1.328125 3.78125 -1.296875 3.59375 -1.296875 C 3.140625 -1.296875 2.84375 -1.546875 2.84375 -2.21875 L 2.84375 -4.484375 L 4.234375 -4.484375 L 4.234375 -5.921875 L 2.84375 -5.921875 L 2.84375 -7.734375 L 1.3125 -7.734375 L 1.09375 -5.921875 L 0.1875 -5.859375 L 0.1875 -4.484375 L 0.984375 -4.484375 L 0.984375 -2.1875 C 0.984375 -0.796875 1.59375 0.140625 3.078125 0.140625 Z M 3.078125 0.140625 "/>
</g>
<g id="glyph-1-13">
<path d="M 2.53125 0.140625 C 4.140625 0.140625 5 -0.703125 5 -1.78125 C 5 -2.765625 4.28125 -3.296875 3.375 -3.59375 C 2.625 -3.828125 2.28125 -3.96875 2.28125 -4.28125 C 2.28125 -4.546875 2.484375 -4.703125 2.921875 -4.703125 C 3.328125 -4.703125 3.765625 -4.59375 4.203125 -4.28125 L 4.984375 -5.3125 C 4.46875 -5.75 3.734375 -6.0625 2.859375 -6.0625 C 1.484375 -6.0625 0.578125 -5.3125 0.578125 -4.203125 C 0.578125 -3.28125 1.28125 -2.734375 2.140625 -2.4375 C 2.765625 -2.1875 3.265625 -2.03125 3.265625 -1.6875 C 3.265625 -1.390625 3.0625 -1.21875 2.5625 -1.21875 C 2.09375 -1.21875 1.5625 -1.359375 1.015625 -1.78125 L 0.234375 -0.75 C 0.828125 -0.171875 1.734375 0.140625 2.53125 0.140625 Z M 2.53125 0.140625 "/>
</g>
<g id="glyph-1-14">
<path d="M 0.890625 0 L 2.5625 0 L 2.5625 -2.6875 C 2.5625 -3.453125 2.40625 -4.78125 2.3125 -5.546875 L 2.359375 -5.546875 L 2.984375 -3.515625 L 4.015625 -0.65625 L 5.0625 -0.65625 L 6.109375 -3.515625 L 6.765625 -5.546875 L 6.8125 -5.546875 C 6.71875 -4.78125 6.5625 -3.453125 6.5625 -2.6875 L 6.5625 0 L 8.234375 0 L 8.234375 -7.765625 L 6.21875 -7.765625 L 5.03125 -4.390625 C 4.875 -3.9375 4.75 -3.46875 4.609375 -2.984375 L 4.5625 -2.984375 C 4.421875 -3.46875 4.296875 -3.9375 4.15625 -4.390625 L 2.921875 -7.765625 L 0.890625 -7.765625 Z M 0.890625 0 "/>
</g>
<g id="glyph-1-15">
<path d="M 0.890625 0 L 3.234375 0 C 5.5 0 7.0625 -1.234375 7.0625 -3.90625 C 7.0625 -6.609375 5.5 -7.765625 3.125 -7.765625 L 0.890625 -7.765625 Z M 2.75 -1.484375 L 2.75 -6.265625 L 3.015625 -6.265625 C 4.265625 -6.265625 5.15625 -5.765625 5.15625 -3.90625 C 5.15625 -2.078125 4.265625 -1.484375 3.015625 -1.484375 Z M 2.75 -1.484375 "/>
</g>
<g id="glyph-1-16">
<path d="M 3.359375 0.140625 C 4 0.140625 4.75 -0.03125 5.3125 -0.5625 L 4.609375 -1.71875 C 4.296875 -1.484375 3.96875 -1.34375 3.578125 -1.34375 C 2.84375 -1.34375 2.296875 -1.984375 2.296875 -2.96875 C 2.296875 -3.953125 2.8125 -4.59375 3.640625 -4.59375 C 3.90625 -4.59375 4.125 -4.5 4.40625 -4.296875 L 5.25 -5.4375 C 4.8125 -5.8125 4.25 -6.0625 3.53125 -6.0625 C 1.890625 -6.0625 0.421875 -4.9375 0.421875 -2.96875 C 0.421875 -1 1.6875 0.140625 3.359375 0.140625 Z M 3.359375 0.140625 "/>
</g>
<g id="glyph-1-17">
<path d="M 0.75 0 L 2.578125 0 L 2.578125 -1.46875 L 3.25 -2.25 L 4.546875 0 L 6.546875 0 L 4.34375 -3.453125 L 6.40625 -5.921875 L 4.375 -5.921875 L 2.609375 -3.6875 L 2.578125 -3.6875 L 2.578125 -8.328125 L 0.75 -8.328125 Z M 0.75 0 "/>
</g>
<g id="glyph-1-18">
<path d="M 3.296875 0.140625 C 5.171875 0.140625 6.265625 -0.984375 6.265625 -2.28125 C 6.265625 -3.375 5.6875 -4.015625 4.71875 -4.40625 L 3.75 -4.796875 C 3.0625 -5.0625 2.578125 -5.21875 2.578125 -5.671875 C 2.578125 -6.078125 2.9375 -6.3125 3.515625 -6.3125 C 4 -6.3125 4.546875 -6.109375 5.0625 -5.734375 L 6.03125 -6.9375 C 5.359375 -7.5625 4.453125 -7.90625 3.515625 -7.90625 C 1.875 -7.90625 0.703125 -6.859375 0.703125 -5.5625 C 0.703125 -4.4375 1.453125 -3.75 2.28125 -3.4375 L 3.265625 -3 C 3.953125 -2.734375 4.359375 -2.59375 4.359375 -2.140625 C 4.359375 -1.71875 4.046875 -1.453125 3.34375 -1.453125 C 2.6875 -1.453125 1.9375 -1.71875 1.390625 -2.1875 L 0.40625 -0.984375 C 1.21875 -0.21875 2.25 0.140625 3.296875 0.140625 Z M 3.296875 0.140625 "/>
</g>
<g id="glyph-1-19">
<path d="M 1.75 0 L 3.890625 0 L 4.34375 -2.28125 C 4.453125 -2.828125 4.53125 -3.34375 4.625 -4.03125 L 4.671875 -4.03125 C 4.765625 -3.34375 4.859375 -2.828125 4.96875 -2.28125 L 5.453125 0 L 7.640625 0 L 9.03125 -5.921875 L 7.328125 -5.921875 L 6.8125 -3.25 C 6.703125 -2.6875 6.65625 -2.109375 6.546875 -1.46875 L 6.5 -1.46875 C 6.390625 -2.109375 6.28125 -2.6875 6.15625 -3.25 L 5.515625 -5.921875 L 3.890625 -5.921875 L 3.28125 -3.25 C 3.140625 -2.6875 3.046875 -2.109375 2.9375 -1.46875 L 2.890625 -1.46875 C 2.8125 -2.109375 2.734375 -2.6875 2.640625 -3.25 L 2.109375 -5.921875 L 0.28125 -5.921875 Z M 1.75 0 "/>
</g>
<g id="glyph-2-0">
<path d="M 2.578125 -1.234375 L 3.359375 -1.234375 L 3.359375 -3.5625 L 5.515625 -3.5625 L 5.515625 -4.296875 L 3.359375 -4.296875 L 3.359375 -6.625 L 2.578125 -6.625 L 2.578125 -4.296875 L 0.40625 -4.296875 L 0.40625 -3.5625 L 2.578125 -3.5625 Z M 2.578125 -1.234375 "/>
</g>
<g id="glyph-2-1">
<path d="M 1.0625 0 L 1.984375 0 L 1.984375 -4.3125 C 1.984375 -5 1.890625 -5.96875 1.84375 -6.65625 L 1.890625 -6.65625 L 2.5 -4.828125 L 3.953125 -0.78125 L 4.6875 -0.78125 L 6.15625 -4.828125 L 6.765625 -6.65625 L 6.8125 -6.65625 C 6.75 -5.96875 6.671875 -5 6.671875 -4.3125 L 6.671875 0 L 7.609375 0 L 7.609375 -7.828125 L 6.359375 -7.828125 L 4.875 -3.640625 C 4.6875 -3.09375 4.546875 -2.59375 4.359375 -2 L 4.3125 -2 C 4.15625 -2.59375 3.984375 -3.09375 3.796875 -3.640625 L 2.3125 -7.828125 L 1.0625 -7.828125 Z M 1.0625 0 "/>
</g>
<g id="glyph-2-2">
<path d="M 2.3125 0.140625 C 3.046875 0.140625 3.671875 -0.21875 4.21875 -0.6875 L 4.25 -0.6875 L 4.34375 0 L 5.15625 0 L 5.15625 -3.5625 C 5.15625 -5 4.546875 -5.9375 3.140625 -5.9375 C 2.21875 -5.9375 1.40625 -5.546875 0.875 -5.1875 L 1.25 -4.515625 C 1.703125 -4.8125 2.3125 -5.109375 2.984375 -5.109375 C 3.921875 -5.109375 4.15625 -4.40625 4.171875 -3.6875 C 1.6875 -3.40625 0.625 -2.796875 0.625 -1.5 C 0.625 -0.453125 1.34375 0.140625 2.3125 0.140625 Z M 2.59375 -0.671875 C 2.03125 -0.671875 1.578125 -0.921875 1.578125 -1.5625 C 1.578125 -2.3125 2.21875 -2.75 4.171875 -2.984375 L 4.171875 -1.40625 C 3.609375 -0.921875 3.140625 -0.671875 2.59375 -0.671875 Z M 2.59375 -0.671875 "/>
</g>
<g id="glyph-2-3">
<path d="M 0.984375 0 L 1.96875 0 L 1.96875 -3.71875 C 2.359375 -4.703125 2.9375 -5.046875 3.4375 -5.046875 C 3.65625 -5.046875 3.796875 -5.015625 3.953125 -4.96875 L 4.171875 -5.8125 C 4 -5.90625 3.8125 -5.9375 3.546875 -5.9375 C 2.90625 -5.9375 2.3125 -5.46875 1.90625 -4.75 L 1.875 -4.75 L 1.78125 -5.796875 L 0.984375 -5.796875 Z M 0.984375 0 "/>
</g>
<g id="glyph-2-4">
<path d="M 2.796875 0.140625 C 3.1875 0.140625 3.59375 0.03125 3.90625 -0.109375 L 3.703125 -0.8125 C 3.453125 -0.703125 3.25 -0.671875 3.03125 -0.671875 C 2.375 -0.671875 2.140625 -1.078125 2.140625 -1.78125 L 2.140625 -5 L 3.703125 -5 L 3.703125 -5.796875 L 2.140625 -5.796875 L 2.140625 -7.65625 L 1.3125 -7.65625 L 1.1875 -5.796875 L 0.28125 -5.734375 L 0.28125 -5 L 1.140625 -5 L 1.140625 -1.796875 C 1.140625 -0.640625 1.5625 0.140625 2.796875 0.140625 Z M 2.796875 0.140625 "/>
</g>
<g id="glyph-2-5">
<path d="M 0.984375 0 L 1.96875 0 L 1.96875 -4.203125 C 2.546875 -4.78125 2.953125 -5.078125 3.546875 -5.078125 C 4.296875 -5.078125 4.640625 -4.625 4.640625 -3.546875 L 4.640625 0 L 5.625 0 L 5.625 -3.671875 C 5.625 -5.15625 5.078125 -5.9375 3.84375 -5.9375 C 3.046875 -5.9375 2.46875 -5.515625 1.9375 -4.984375 L 1.96875 -6.171875 L 1.96875 -8.484375 L 0.984375 -8.484375 Z M 0.984375 0 "/>
</g>
<g id="glyph-2-6">
<path d="M 3.234375 0.140625 C 4.65625 0.140625 5.921875 -0.96875 5.921875 -2.890625 C 5.921875 -4.828125 4.65625 -5.9375 3.234375 -5.9375 C 1.8125 -5.9375 0.546875 -4.828125 0.546875 -2.890625 C 0.546875 -0.96875 1.8125 0.140625 3.234375 0.140625 Z M 3.234375 -0.671875 C 2.234375 -0.671875 1.578125 -1.5625 1.578125 -2.890625 C 1.578125 -4.21875 2.234375 -5.109375 3.234375 -5.109375 C 4.234375 -5.109375 4.90625 -4.21875 4.90625 -2.890625 C 4.90625 -1.5625 4.234375 -0.671875 3.234375 -0.671875 Z M 3.234375 -0.671875 "/>
</g>
<g id="glyph-2-7">
<path d="M 0.984375 0 L 1.96875 0 L 1.96875 -4.203125 C 2.546875 -4.78125 2.953125 -5.078125 3.546875 -5.078125 C 4.296875 -5.078125 4.640625 -4.625 4.640625 -3.546875 L 4.640625 0 L 5.625 0 L 5.625 -3.671875 C 5.625 -5.15625 5.078125 -5.9375 3.84375 -5.9375 C 3.046875 -5.9375 2.453125 -5.515625 1.90625 -4.953125 L 1.875 -4.953125 L 1.78125 -5.796875 L 0.984375 -5.796875 Z M 0.984375 0 "/>
</g>
<g id="glyph-3-0">
<path d="M 0.75 0 L 4.8125 0 L 4.8125 -1.296875 L 2.296875 -1.296875 L 2.296875 -6.46875 L 0.75 -6.46875 Z M 0.75 0 "/>
</g>
<g id="glyph-3-1">
<path d="M 0.75 0 L 2.296875 0 L 2.296875 -6.46875 L 0.75 -6.46875 Z M 0.75 0 "/>
</g>
<g id="glyph-3-2">
<path d="M 3.640625 0.125 C 4.5625 0.125 5.359375 -0.234375 5.796875 -0.671875 L 5.796875 -3.6875 L 3.40625 -3.6875 L 3.40625 -2.421875 L 4.4375 -2.421875 L 4.4375 -1.375 C 4.296875 -1.265625 4.046875 -1.21875 3.8125 -1.21875 C 2.609375 -1.21875 2.03125 -1.953125 2.03125 -3.25 C 2.03125 -4.5 2.71875 -5.25 3.671875 -5.25 C 4.21875 -5.25 4.5625 -5.09375 4.875 -4.8125 L 5.6875 -5.75 C 5.25 -6.21875 4.578125 -6.59375 3.625 -6.59375 C 1.890625 -6.59375 0.453125 -5.34375 0.453125 -3.1875 C 0.453125 -1 1.859375 0.125 3.640625 0.125 Z M 3.640625 0.125 "/>
</g>
<g id="glyph-3-3">
<path d="M 0.75 0 L 2.21875 0 L 2.21875 -2.171875 C 2.21875 -2.953125 2.09375 -3.84375 2.015625 -4.5625 L 2.0625 -4.5625 C 2.25 -4.046875 2.46875 -3.53125 2.6875 -3.09375 L 4.28125 0 L 5.875 0 L 5.875 -6.46875 L 4.40625 -6.46875 L 4.40625 -4.296875 C 4.40625 -3.53125 4.53125 -2.609375 4.609375 -1.90625 L 4.578125 -1.90625 C 4.375 -2.421875 4.15625 -2.9375 3.9375 -3.375 L 2.34375 -6.46875 L 0.75 -6.46875 Z M 0.75 0 "/>
</g>
<g id="glyph-3-4">
<path d="M 0.75 0 L 4.9375 0 L 4.9375 -1.296875 L 2.296875 -1.296875 L 2.296875 -2.671875 L 4.46875 -2.671875 L 4.46875 -3.96875 L 2.296875 -3.96875 L 2.296875 -5.171875 L 4.84375 -5.171875 L 4.84375 -6.46875 L 0.75 -6.46875 Z M 2.28125 -6.734375 L 4.53125 -7.921875 L 3.890625 -8.90625 L 1.734375 -7.5 Z M 2.28125 -6.734375 "/>
</g>
<g id="glyph-3-5">
<path d="M 0.75 0 L 4.9375 0 L 4.9375 -1.296875 L 2.296875 -1.296875 L 2.296875 -2.671875 L 4.46875 -2.671875 L 4.46875 -3.96875 L 2.296875 -3.96875 L 2.296875 -5.171875 L 4.84375 -5.171875 L 4.84375 -6.46875 L 0.75 -6.46875 Z M 0.75 0 "/>
</g>
<g id="glyph-3-6">
<path d="M 3.40625 0.125 C 5.171875 0.125 6.375 -1.140625 6.375 -3.265625 C 6.375 -5.375 5.171875 -6.59375 3.40625 -6.59375 C 1.65625 -6.59375 0.453125 -5.390625 0.453125 -3.265625 C 0.453125 -1.140625 1.65625 0.125 3.40625 0.125 Z M 3.40625 -1.21875 C 2.5625 -1.21875 2.03125 -2 2.03125 -3.265625 C 2.03125 -4.515625 2.5625 -5.25 3.40625 -5.25 C 4.265625 -5.25 4.796875 -4.515625 4.796875 -3.265625 C 4.796875 -2 4.265625 -1.21875 3.40625 -1.21875 Z M 3.40625 -1.21875 "/>
</g>
</g>
</defs>
<path fill-rule="nonzero" fill="rgb(90.194702%, 92.547607%, 96.076965%)" fill-opacity="1" stroke-width="0.69739" stroke-linecap="round" stroke-linejoin="round" stroke="rgb(12.156677%, 22.744751%, 40.783691%)" stroke-opacity="1" stroke-miterlimit="10" d="M 66.040892 28.345814 L -66.040333 28.345814 C -67.140782 28.345814 -68.033672 27.452924 -68.033672 26.352475 L -68.033672 -26.35548 C -68.033672 -27.455928 -67.140782 -28.344903 -66.040333 -28.344903 L 66.040892 -28.344903 C 67.14134 -28.344903 68.034231 -27.455928 68.034231 -26.35548 L 68.034231 26.352475 C 68.034231 27.452924 67.14134 28.345814 66.040892 28.345814 Z M 66.040892 28.345814 " transform="matrix(0.997463, 0, 0, -0.997463, 74.821987, 57.95358)"/>
<g fill="rgb(35.68573%, 38.430786%, 44.706726%)" fill-opacity="1">
<use xlink:href="#glyph-0-0" x="43.966476" y="46.724145"/>
</g>
<g fill="rgb(35.68573%, 38.430786%, 44.706726%)" fill-opacity="1">
<use xlink:href="#glyph-0-1" x="48.577412" y="46.724145"/>
<use xlink:href="#glyph-0-2" x="53.506344" y="46.724145"/>
</g>
<g fill="rgb(35.68573%, 38.430786%, 44.706726%)" fill-opacity="1">
<use xlink:href="#glyph-0-3" x="56.924796" y="46.724145"/>
</g>
<g fill="rgb(35.68573%, 38.430786%, 44.706726%)" fill-opacity="1">
<use xlink:href="#glyph-0-4" x="63.076023" y="46.724145"/>
<use xlink:href="#glyph-0-5" x="68.014892" y="46.724145"/>
<use xlink:href="#glyph-0-5" x="72.95376" y="46.724145"/>
<use xlink:href="#glyph-0-6" x="77.892629" y="46.724145"/>
<use xlink:href="#glyph-0-7" x="82.831498" y="46.724145"/>
<use xlink:href="#glyph-0-4" x="85.922017" y="46.724145"/>
<use xlink:href="#glyph-0-5" x="90.860886" y="46.724145"/>
<use xlink:href="#glyph-0-8" x="95.799755" y="46.724145"/>
<use xlink:href="#glyph-0-9" x="100.738624" y="46.724145"/>
</g>
<g fill="rgb(12.156677%, 14.118958%, 18.824768%)" fill-opacity="1">
<use xlink:href="#glyph-1-0" x="62.318792" y="60.635757"/>
<use xlink:href="#glyph-1-1" x="69.557168" y="60.635757"/>
<use xlink:href="#glyph-1-2" x="76.199301" y="60.635757"/>
</g>
<g fill="rgb(12.156677%, 14.118958%, 18.824768%)" fill-opacity="1">
<use xlink:href="#glyph-1-3" x="80.909612" y="60.635757"/>
</g>
<g fill="rgb(35.68573%, 38.430786%, 44.706726%)" fill-opacity="1">
<use xlink:href="#glyph-0-10" x="42.958042" y="73.417244"/>
<use xlink:href="#glyph-0-11" x="49.089394" y="73.417244"/>
<use xlink:href="#glyph-0-11" x="54.475444" y="73.417244"/>
<use xlink:href="#glyph-0-12" x="59.861494" y="73.417244"/>
<use xlink:href="#glyph-0-13" x="64.879861" y="73.417244"/>
<use xlink:href="#glyph-0-1" x="67.413889" y="73.417244"/>
<use xlink:href="#glyph-0-14" x="72.34282" y="73.417244"/>
</g>
<g fill="rgb(35.68573%, 38.430786%, 44.706726%)" fill-opacity="1">
<use xlink:href="#glyph-0-15" x="76.814633" y="73.417244"/>
<use xlink:href="#glyph-0-16" x="79.269161" y="73.417244"/>
<use xlink:href="#glyph-0-17" x="84.704898" y="73.417244"/>
</g>
<g fill="rgb(35.68573%, 38.430786%, 44.706726%)" fill-opacity="1">
<use xlink:href="#glyph-0-1" x="87.934541" y="73.417244"/>
<use xlink:href="#glyph-0-2" x="92.863472" y="73.417244"/>
<use xlink:href="#glyph-0-16" x="96.321674" y="73.417244"/>
<use xlink:href="#glyph-0-1" x="101.757411" y="73.417244"/>
</g>
<path fill-rule="nonzero" fill="rgb(90.194702%, 92.547607%, 96.076965%)" fill-opacity="1" stroke-width="0.69739" stroke-linecap="round" stroke-linejoin="round" stroke="rgb(12.156677%, 22.744751%, 40.783691%)" stroke-opacity="1" stroke-miterlimit="10" d="M 230.450237 28.345814 L 98.369012 28.345814 C 97.268564 28.345814 96.379589 27.452924 96.379589 26.352475 L 96.379589 -26.35548 C 96.379589 -27.455928 97.268564 -28.344903 98.369012 -28.344903 L 230.450237 -28.344903 C 231.550686 -28.344903 232.443576 -27.455928 232.443576 -26.35548 L 232.443576 26.352475 C 232.443576 27.452924 231.550686 28.345814 230.450237 28.345814 Z M 230.450237 28.345814 " transform="matrix(0.997463, 0, 0, -0.997463, 74.821987, 57.95358)"/>
<g fill="rgb(35.68573%, 38.430786%, 44.706726%)" fill-opacity="1">
<use xlink:href="#glyph-0-4" x="228.93496" y="47.777465"/>
<use xlink:href="#glyph-0-5" x="233.873828" y="47.777465"/>
<use xlink:href="#glyph-0-8" x="238.812697" y="47.777465"/>
<use xlink:href="#glyph-0-6" x="243.751566" y="47.777465"/>
</g>
<g fill="rgb(12.156677%, 14.118958%, 18.824768%)" fill-opacity="1">
<use xlink:href="#glyph-1-4" x="220.287956" y="61.689077"/>
<use xlink:href="#glyph-1-5" x="228.480318" y="61.689077"/>
<use xlink:href="#glyph-1-6" x="238.747602" y="61.689077"/>
</g>
<g fill="rgb(12.156677%, 14.118958%, 18.824768%)" fill-opacity="1">
<use xlink:href="#glyph-1-3" x="244.829268" y="61.689077"/>
</g>
<g fill="rgb(12.156677%, 14.118958%, 18.824768%)" fill-opacity="1">
<use xlink:href="#glyph-1-7" x="251.018258" y="61.689077"/>
</g>
<g fill="rgb(35.68573%, 38.430786%, 44.706726%)" fill-opacity="1">
<use xlink:href="#glyph-0-2" x="195.894008" y="74.470564"/>
</g>
<g fill="rgb(35.68573%, 38.430786%, 44.706726%)" fill-opacity="1">
<use xlink:href="#glyph-0-1" x="199.252836" y="74.470564"/>
<use xlink:href="#glyph-0-18" x="204.181768" y="74.470564"/>
</g>
<g fill="rgb(35.68573%, 38.430786%, 44.706726%)" fill-opacity="1">
<use xlink:href="#glyph-0-11" x="206.984104" y="74.470564"/>
<use xlink:href="#glyph-0-16" x="212.370154" y="74.470564"/>
<use xlink:href="#glyph-0-17" x="217.805891" y="74.470564"/>
</g>
<g fill="rgb(35.68573%, 38.430786%, 44.706726%)" fill-opacity="1">
<use xlink:href="#glyph-0-1" x="221.035533" y="74.470564"/>
</g>
<g fill="rgb(35.68573%, 38.430786%, 44.706726%)" fill-opacity="1">
<use xlink:href="#glyph-0-19" x="227.951937" y="74.470564"/>
<use xlink:href="#glyph-0-20" x="233.467172" y="74.470564"/>
</g>
<g fill="rgb(35.68573%, 38.430786%, 44.706726%)" fill-opacity="1">
<use xlink:href="#glyph-0-3" x="240.86057" y="74.470564"/>
<use xlink:href="#glyph-0-21" x="245.024324" y="74.470564"/>
<use xlink:href="#glyph-0-22" x="249.555761" y="74.470564"/>
<use xlink:href="#glyph-0-1" x="254.961686" y="74.470564"/>
<use xlink:href="#glyph-0-19" x="259.890617" y="74.470564"/>
<use xlink:href="#glyph-0-20" x="265.405853" y="74.470564"/>
<use xlink:href="#glyph-0-13" x="270.811778" y="74.470564"/>
<use xlink:href="#glyph-0-1" x="273.345805" y="74.470564"/>
<use xlink:href="#glyph-0-2" x="278.274736" y="74.470564"/>
</g>
<path fill-rule="nonzero" fill="rgb(12.156677%, 22.744751%, 40.783691%)" fill-opacity="1" stroke-width="0.69739" stroke-linecap="round" stroke-linejoin="round" stroke="rgb(12.156677%, 22.744751%, 40.783691%)" stroke-opacity="1" stroke-miterlimit="10" d="M 411.867581 28.345814 L 268.448996 28.345814 C 267.348547 28.345814 266.459573 27.452924 266.459573 26.352475 L 266.459573 -26.35548 C 266.459573 -27.455928 267.348547 -28.344903 268.448996 -28.344903 L 411.867581 -28.344903 C 412.96803 -28.344903 413.86092 -27.455928 413.86092 -26.35548 L 413.86092 26.352475 C 413.86092 27.452924 412.96803 28.345814 411.867581 28.345814 Z M 411.867581 28.345814 " transform="matrix(0.997463, 0, 0, -0.997463, 74.821987, 57.95358)"/>
<g fill="rgb(100%, 100%, 100%)" fill-opacity="1">
<use xlink:href="#glyph-0-4" x="392.813092" y="46.582505"/>
<use xlink:href="#glyph-0-5" x="397.75196" y="46.582505"/>
<use xlink:href="#glyph-0-8" x="402.690829" y="46.582505"/>
<use xlink:href="#glyph-0-23" x="407.629698" y="46.582505"/>
<use xlink:href="#glyph-0-7" x="412.568567" y="46.582505"/>
<use xlink:href="#glyph-0-4" x="415.659086" y="46.582505"/>
<use xlink:href="#glyph-0-5" x="420.597955" y="46.582505"/>
<use xlink:href="#glyph-0-8" x="425.536824" y="46.582505"/>
<use xlink:href="#glyph-0-9" x="430.475692" y="46.582505"/>
</g>
<g fill="rgb(100%, 100%, 100%)" fill-opacity="1">
<use xlink:href="#glyph-1-8" x="383.706257" y="60.495114"/>
</g>
<g fill="rgb(100%, 100%, 100%)" fill-opacity="1">
<use xlink:href="#glyph-1-9" x="390.956558" y="60.495114"/>
<use xlink:href="#glyph-1-10" x="397.777564" y="60.495114"/>
<use xlink:href="#glyph-1-6" x="404.634344" y="60.495114"/>
<use xlink:href="#glyph-1-2" x="410.835259" y="60.495114"/>
<use xlink:href="#glyph-1-11" x="415.664818" y="60.495114"/>
<use xlink:href="#glyph-1-6" x="422.521598" y="60.495114"/>
</g>
<g fill="rgb(100%, 100%, 100%)" fill-opacity="1">
<use xlink:href="#glyph-1-12" x="428.603265" y="60.495114"/>
</g>
<g fill="rgb(100%, 100%, 100%)" fill-opacity="1">
<use xlink:href="#glyph-1-6" x="433.003529" y="60.495114"/>
<use xlink:href="#glyph-1-13" x="439.204444" y="60.495114"/>
</g>
<g fill="rgb(100%, 100%, 100%)" fill-opacity="1">
<use xlink:href="#glyph-0-11" x="354.227245" y="73.558883"/>
<use xlink:href="#glyph-0-24" x="359.613295" y="73.558883"/>
<use xlink:href="#glyph-0-1" x="365.128531" y="73.558883"/>
<use xlink:href="#glyph-0-16" x="370.057462" y="73.558883"/>
</g>
<g fill="rgb(100%, 100%, 100%)" fill-opacity="1">
<use xlink:href="#glyph-0-3" x="377.480671" y="73.558883"/>
<use xlink:href="#glyph-0-11" x="381.644426" y="73.558883"/>
<use xlink:href="#glyph-0-20" x="387.030476" y="73.558883"/>
<use xlink:href="#glyph-0-2" x="392.436401" y="73.558883"/>
</g>
<g fill="rgb(100%, 100%, 100%)" fill-opacity="1">
<use xlink:href="#glyph-0-21" x="395.795229" y="73.558883"/>
</g>
<g fill="rgb(100%, 100%, 100%)" fill-opacity="1">
<use xlink:href="#glyph-0-1" x="400.117981" y="73.558883"/>
<use xlink:href="#glyph-0-14" x="405.046913" y="73.558883"/>
</g>
<g fill="rgb(100%, 100%, 100%)" fill-opacity="1">
<use xlink:href="#glyph-0-22" x="409.518725" y="73.558883"/>
<use xlink:href="#glyph-0-25" x="414.92465" y="73.558883"/>
<use xlink:href="#glyph-0-2" x="419.853581" y="73.558883"/>
<use xlink:href="#glyph-0-15" x="423.311783" y="73.558883"/>
<use xlink:href="#glyph-0-17" x="425.766312" y="73.558883"/>
<use xlink:href="#glyph-0-15" x="429.135077" y="73.558883"/>
<use xlink:href="#glyph-0-1" x="431.589606" y="73.558883"/>
<use xlink:href="#glyph-0-2" x="436.518537" y="73.558883"/>
</g>
<g fill="rgb(100%, 100%, 100%)" fill-opacity="1">
<use xlink:href="#glyph-0-19" x="441.964211" y="73.558883"/>
<use xlink:href="#glyph-0-1" x="447.479447" y="73.558883"/>
</g>
<g fill="rgb(100%, 100%, 100%)" fill-opacity="1">
<use xlink:href="#glyph-0-26" x="454.395851" y="73.558883"/>
<use xlink:href="#glyph-0-11" x="460.239019" y="73.558883"/>
<use xlink:href="#glyph-0-2" x="465.625069" y="73.558883"/>
</g>
<g fill="rgb(100%, 100%, 100%)" fill-opacity="1">
<use xlink:href="#glyph-0-12" x="468.983898" y="73.558883"/>
</g>
<path fill="none" stroke-width="0.79701" stroke-linecap="round" stroke-linejoin="round" stroke="rgb(12.156677%, 22.744751%, 40.783691%)" stroke-opacity="1" stroke-miterlimit="10" d="M 68.382771 0.000455709 L 92.154024 0.000455709 " transform="matrix(0.997463, 0, 0, -0.997463, 74.821987, 57.95358)"/>
<path fill-rule="nonzero" fill="rgb(12.156677%, 22.744751%, 40.783691%)" fill-opacity="1" stroke-width="0.79701" stroke-linecap="round" stroke-linejoin="miter" stroke="rgb(12.156677%, 22.744751%, 40.783691%)" stroke-opacity="1" stroke-miterlimit="10" d="M 5.070645 0.000455709 L 1.311106 1.378953 L 2.560369 0.000455709 L 1.311106 -1.378042 Z M 5.070645 0.000455709 " transform="matrix(0.997463, 0, 0, -0.997463, 164.387533, 57.95358)"/>
<path fill="none" stroke-width="0.79701" stroke-linecap="round" stroke-linejoin="round" stroke="rgb(12.156677%, 22.744751%, 40.783691%)" stroke-opacity="1" stroke-miterlimit="10" d="M 232.792117 0.000455709 L 262.234008 0.000455709 " transform="matrix(0.997463, 0, 0, -0.997463, 74.821987, 57.95358)"/>
<path fill-rule="nonzero" fill="rgb(12.156677%, 22.744751%, 40.783691%)" fill-opacity="1" stroke-width="0.79701" stroke-linecap="round" stroke-linejoin="miter" stroke="rgb(12.156677%, 22.744751%, 40.783691%)" stroke-opacity="1" stroke-miterlimit="10" d="M 5.070629 0.000455709 L 1.31109 1.378953 L 2.560353 0.000455709 L 1.31109 -1.378042 Z M 5.070629 0.000455709 " transform="matrix(0.997463, 0, 0, -0.997463, 334.035987, 57.95358)"/>
<path fill-rule="nonzero" fill="rgb(100%, 100%, 100%)" fill-opacity="1" stroke-width="0.69739" stroke-linecap="round" stroke-linejoin="round" stroke="rgb(78.823853%, 80.39093%, 83.921814%)" stroke-opacity="1" stroke-miterlimit="10" d="M 230.450237 -79.368898 L 98.369012 -79.368898 C 97.268564 -79.368898 96.379589 -80.261789 96.379589 -81.362237 L 96.379589 -134.070192 C 96.379589 -135.170641 97.268564 -136.063531 98.369012 -136.063531 L 230.450237 -136.063531 C 231.550686 -136.063531 232.443576 -135.170641 232.443576 -134.070192 L 232.443576 -81.362237 C 232.443576 -80.261789 231.550686 -79.368898 230.450237 -79.368898 Z M 230.450237 -79.368898 " transform="matrix(0.997463, 0, 0, -0.997463, 74.821987, 57.95358)"/>
<g fill="rgb(35.68573%, 38.430786%, 44.706726%)" fill-opacity="1">
<use xlink:href="#glyph-0-4" x="226.466239" y="154.240648"/>
<use xlink:href="#glyph-0-5" x="231.405108" y="154.240648"/>
<use xlink:href="#glyph-0-5" x="236.343977" y="154.240648"/>
<use xlink:href="#glyph-0-27" x="241.282846" y="154.240648"/>
<use xlink:href="#glyph-0-28" x="246.221714" y="154.240648"/>
</g>
<g fill="rgb(12.156677%, 14.118958%, 18.824768%)" fill-opacity="1">
<use xlink:href="#glyph-1-14" x="193.236767" y="168.153257"/>
<use xlink:href="#glyph-1-6" x="202.371192" y="168.153257"/>
<use xlink:href="#glyph-1-13" x="208.572107" y="168.153257"/>
<use xlink:href="#glyph-1-1" x="213.890583" y="168.153257"/>
</g>
<g fill="rgb(12.156677%, 14.118958%, 18.824768%)" fill-opacity="1">
<use xlink:href="#glyph-1-13" x="220.473093" y="168.153257"/>
</g>
<g fill="rgb(12.156677%, 14.118958%, 18.824768%)" fill-opacity="1">
<use xlink:href="#glyph-2-0" x="228.17589" y="168.153257"/>
</g>
<g fill="rgb(12.156677%, 14.118958%, 18.824768%)" fill-opacity="1">
<use xlink:href="#glyph-2-1" x="236.487501" y="168.153257"/>
<use xlink:href="#glyph-2-2" x="245.156857" y="168.153257"/>
<use xlink:href="#glyph-2-3" x="251.166974" y="168.153257"/>
</g>
<g fill="rgb(12.156677%, 14.118958%, 18.824768%)" fill-opacity="1">
<use xlink:href="#glyph-2-2" x="255.030621" y="168.153257"/>
</g>
<g fill="rgb(12.156677%, 14.118958%, 18.824768%)" fill-opacity="1">
<use xlink:href="#glyph-2-4" x="260.873791" y="168.153257"/>
<use xlink:href="#glyph-2-5" x="264.91631" y="168.153257"/>
<use xlink:href="#glyph-2-6" x="271.403421" y="168.153257"/>
<use xlink:href="#glyph-2-7" x="277.866682" y="168.153257"/>
</g>
<g fill="rgb(35.68573%, 38.430786%, 44.706726%)" fill-opacity="1">
<use xlink:href="#glyph-0-26" x="193.627773" y="180.934744"/>
<use xlink:href="#glyph-0-1" x="199.470941" y="180.934744"/>
<use xlink:href="#glyph-0-2" x="204.399873" y="180.934744"/>
<use xlink:href="#glyph-0-29" x="207.858075" y="180.934744"/>
</g>
<g fill="rgb(35.68573%, 38.430786%, 44.706726%)" fill-opacity="1">
<use xlink:href="#glyph-0-1" x="212.598196" y="180.934744"/>
<use xlink:href="#glyph-0-13" x="217.527128" y="180.934744"/>
<use xlink:href="#glyph-0-1" x="220.061155" y="180.934744"/>
</g>
<g fill="rgb(35.68573%, 38.430786%, 44.706726%)" fill-opacity="1">
<use xlink:href="#glyph-0-30" x="225.039773" y="180.934744"/>
</g>
<g fill="rgb(35.68573%, 38.430786%, 44.706726%)" fill-opacity="1">
<use xlink:href="#glyph-0-14" x="229.342651" y="180.934744"/>
</g>
<g fill="rgb(35.68573%, 38.430786%, 44.706726%)" fill-opacity="1">
<use xlink:href="#glyph-0-24" x="233.814463" y="180.934744"/>
<use xlink:href="#glyph-0-20" x="239.329699" y="180.934744"/>
<use xlink:href="#glyph-0-15" x="244.735624" y="180.934744"/>
<use xlink:href="#glyph-0-3" x="247.190152" y="180.934744"/>
</g>
<g fill="rgb(35.68573%, 38.430786%, 44.706726%)" fill-opacity="1">
<use xlink:href="#glyph-0-31" x="253.341379" y="180.934744"/>
<use xlink:href="#glyph-0-24" x="258.747304" y="180.934744"/>
</g>
<g fill="rgb(35.68573%, 38.430786%, 44.706726%)" fill-opacity="1">
<use xlink:href="#glyph-0-32" x="264.123416" y="180.934744"/>
<use xlink:href="#glyph-0-21" x="269.131847" y="180.934744"/>
<use xlink:href="#glyph-0-22" x="273.663284" y="180.934744"/>
<use xlink:href="#glyph-0-1" x="279.069208" y="180.934744"/>
</g>
<path fill-rule="nonzero" fill="rgb(100%, 100%, 100%)" fill-opacity="1" stroke-width="0.69739" stroke-linecap="round" stroke-linejoin="round" stroke="rgb(78.823853%, 80.39093%, 83.921814%)" stroke-opacity="1" stroke-miterlimit="10" d="M 581.947565 -79.368898 L 449.870256 -79.368898 C 448.769807 -79.368898 447.876917 -80.261789 447.876917 -81.362237 L 447.876917 -134.070192 C 447.876917 -135.170641 448.769807 -136.063531 449.870256 -136.063531 L 581.947565 -136.063531 C 583.048013 -136.063531 583.940904 -135.170641 583.940904 -134.070192 L 583.940904 -81.362237 C 583.940904 -80.261789 583.048013 -79.368898 581.947565 -79.368898 Z M 581.947565 -79.368898 " transform="matrix(0.997463, 0, 0, -0.997463, 74.821987, 57.95358)"/>
<g fill="rgb(35.68573%, 38.430786%, 44.706726%)" fill-opacity="1">
<use xlink:href="#glyph-0-4" x="579.538107" y="154.166835"/>
<use xlink:href="#glyph-0-5" x="584.476975" y="154.166835"/>
<use xlink:href="#glyph-0-8" x="589.415844" y="154.166835"/>
<use xlink:href="#glyph-0-9" x="594.354713" y="154.166835"/>
</g>
<g fill="rgb(12.156677%, 14.118958%, 18.824768%)" fill-opacity="1">
<use xlink:href="#glyph-1-15" x="551.023641" y="168.078447"/>
<use xlink:href="#glyph-1-1" x="558.619761" y="168.078447"/>
<use xlink:href="#glyph-1-16" x="565.261895" y="168.078447"/>
<use xlink:href="#glyph-1-17" x="570.854643" y="168.078447"/>
</g>
<g fill="rgb(12.156677%, 14.118958%, 18.824768%)" fill-opacity="1">
<use xlink:href="#glyph-1-6" x="577.115182" y="168.078447"/>
<use xlink:href="#glyph-1-2" x="583.316097" y="168.078447"/>
</g>
<g fill="rgb(12.156677%, 14.118958%, 18.824768%)" fill-opacity="1">
<use xlink:href="#glyph-1-18" x="590.530622" y="168.078447"/>
<use xlink:href="#glyph-1-19" x="597.184681" y="168.078447"/>
</g>
<g fill="rgb(12.156677%, 14.118958%, 18.824768%)" fill-opacity="1">
<use xlink:href="#glyph-1-7" x="606.390654" y="168.078447"/>
<use xlink:href="#glyph-1-2" x="612.710817" y="168.078447"/>
<use xlink:href="#glyph-1-5" x="617.540376" y="168.078447"/>
</g>
<g fill="rgb(35.68573%, 38.430786%, 44.706726%)" fill-opacity="1">
<use xlink:href="#glyph-0-3" x="539.554815" y="180.859934"/>
<use xlink:href="#glyph-0-15" x="543.718569" y="180.859934"/>
<use xlink:href="#glyph-0-33" x="546.173098" y="180.859934"/>
<use xlink:href="#glyph-0-24" x="554.41117" y="180.859934"/>
<use xlink:href="#glyph-0-13" x="559.926406" y="180.859934"/>
<use xlink:href="#glyph-0-1" x="562.460433" y="180.859934"/>
<use xlink:href="#glyph-0-14" x="567.389365" y="180.859934"/>
</g>
<g fill="rgb(35.68573%, 38.430786%, 44.706726%)" fill-opacity="1">
<use xlink:href="#glyph-0-15" x="571.861178" y="180.859934"/>
<use xlink:href="#glyph-0-16" x="574.315706" y="180.859934"/>
<use xlink:href="#glyph-0-17" x="579.751443" y="180.859934"/>
</g>
<g fill="rgb(35.68573%, 38.430786%, 44.706726%)" fill-opacity="1">
<use xlink:href="#glyph-0-25" x="582.981085" y="180.859934"/>
</g>
<g fill="rgb(35.68573%, 38.430786%, 44.706726%)" fill-opacity="1">
<use xlink:href="#glyph-0-12" x="587.810643" y="180.859934"/>
<use xlink:href="#glyph-0-2" x="592.829011" y="180.859934"/>
</g>
<g fill="rgb(35.68573%, 38.430786%, 44.706726%)" fill-opacity="1">
<use xlink:href="#glyph-0-25" x="596.187839" y="180.859934"/>
</g>
<g fill="rgb(35.68573%, 38.430786%, 44.706726%)" fill-opacity="1">
<use xlink:href="#glyph-0-34" x="603.104243" y="180.859934"/>
</g>
<g fill="rgb(35.68573%, 38.430786%, 44.706726%)" fill-opacity="1">
<use xlink:href="#glyph-0-35" x="610.110083" y="180.859934"/>
<use xlink:href="#glyph-0-11" x="616.231497" y="180.859934"/>
<use xlink:href="#glyph-0-21" x="621.617547" y="180.859934"/>
<use xlink:href="#glyph-0-29" x="626.148984" y="180.859934"/>
</g>
<g fill="rgb(35.68573%, 38.430786%, 44.706726%)" fill-opacity="1">
<use xlink:href="#glyph-0-1" x="630.889106" y="180.859934"/>
<use xlink:href="#glyph-0-2" x="635.818037" y="180.859934"/>
</g>
<path fill="none" stroke-width="0.79701" stroke-linecap="round" stroke-linejoin="round" stroke="rgb(35.68573%, 38.430786%, 44.706726%)" stroke-opacity="1" stroke-dasharray="2.98883 1.99255" stroke-miterlimit="10" d="M 232.792117 -107.718173 L 317.483568 -107.718173 L 317.483568 -32.570468 " transform="matrix(0.997463, 0, 0, -0.997463, 74.821987, 57.95358)"/>
<path fill-rule="nonzero" fill="rgb(35.68573%, 38.430786%, 44.706726%)" fill-opacity="1" stroke-width="0.79701" stroke-linecap="round" stroke-linejoin="miter" stroke="rgb(35.68573%, 38.430786%, 44.706726%)" stroke-opacity="1" stroke-miterlimit="10" d="M 5.071293 -0.000948158 L 1.311754 1.37755 L 2.561017 -0.000948158 L 1.311754 -1.379446 Z M 5.071293 -0.000948158 " transform="matrix(0, -0.997463, -0.997463, 0, 391.499054, 92.796707)"/>
<g fill="rgb(12.156677%, 14.118958%, 18.824768%)" fill-opacity="1">
<use xlink:href="#glyph-0-21" x="326.440927" y="160.85981"/>
</g>
<g fill="rgb(12.156677%, 14.118958%, 18.824768%)" fill-opacity="1">
<use xlink:href="#glyph-0-11" x="330.763679" y="160.85981"/>
<use xlink:href="#glyph-0-16" x="336.149729" y="160.85981"/>
<use xlink:href="#glyph-0-21" x="341.585466" y="160.85981"/>
<use xlink:href="#glyph-0-20" x="346.116903" y="160.85981"/>
<use xlink:href="#glyph-0-2" x="351.522828" y="160.85981"/>
<use xlink:href="#glyph-0-2" x="354.98103" y="160.85981"/>
</g>
<g fill="rgb(12.156677%, 14.118958%, 18.824768%)" fill-opacity="1">
<use xlink:href="#glyph-0-1" x="358.339858" y="160.85981"/>
<use xlink:href="#glyph-0-16" x="363.268789" y="160.85981"/>
<use xlink:href="#glyph-0-17" x="368.704526" y="160.85981"/>
</g>
<path fill="none" stroke-width="0.79701" stroke-linecap="round" stroke-linejoin="round" stroke="rgb(35.68573%, 38.430786%, 44.706726%)" stroke-opacity="1" stroke-dasharray="2.98883 1.99255" stroke-miterlimit="10" d="M 515.90891 -79.020357 L 515.90891 0.000455709 L 418.086486 0.000455709 " transform="matrix(0.997463, 0, 0, -0.997463, 74.821987, 57.95358)"/>
<path fill-rule="nonzero" fill="rgb(35.68573%, 38.430786%, 44.706726%)" fill-opacity="1" stroke-width="0.79701" stroke-linecap="round" stroke-linejoin="miter" stroke="rgb(35.68573%, 38.430786%, 44.706726%)" stroke-opacity="1" stroke-miterlimit="10" d="M 5.070266 -0.000455709 L 1.310726 1.378042 L 2.55999 -0.000455709 L 1.310726 -1.378953 Z M 5.070266 -0.000455709 " transform="matrix(-0.997463, 0, 0, 0.997463, 494.201932, 57.95358)"/>
<g fill="rgb(12.156677%, 14.118958%, 18.824768%)" fill-opacity="1">
<use xlink:href="#glyph-0-21" x="515.87904" y="53.417119"/>
</g>
<g fill="rgb(12.156677%, 14.118958%, 18.824768%)" fill-opacity="1">
<use xlink:href="#glyph-0-11" x="520.201793" y="53.417119"/>
<use xlink:href="#glyph-0-16" x="525.587843" y="53.417119"/>
<use xlink:href="#glyph-0-21" x="531.02358" y="53.417119"/>
<use xlink:href="#glyph-0-20" x="535.555017" y="53.417119"/>
<use xlink:href="#glyph-0-2" x="540.960941" y="53.417119"/>
<use xlink:href="#glyph-0-2" x="544.419143" y="53.417119"/>
</g>
<g fill="rgb(12.156677%, 14.118958%, 18.824768%)" fill-opacity="1">
<use xlink:href="#glyph-0-1" x="547.777971" y="53.417119"/>
<use xlink:href="#glyph-0-16" x="552.706903" y="53.417119"/>
<use xlink:href="#glyph-0-17" x="558.14264" y="53.417119"/>
</g>
<g fill="rgb(12.156677%, 22.744751%, 40.783691%)" fill-opacity="1">
<use xlink:href="#glyph-3-0" x="9.640793" y="17.703965"/>
<use xlink:href="#glyph-3-1" x="14.828096" y="17.703965"/>
<use xlink:href="#glyph-3-2" x="17.868928" y="17.703965"/>
<use xlink:href="#glyph-3-3" x="24.22884" y="17.703965"/>
<use xlink:href="#glyph-3-4" x="30.85706" y="17.703965"/>
<use xlink:href="#glyph-3-5" x="36.322609" y="17.703965"/>
</g>
<g fill="rgb(12.156677%, 22.744751%, 40.783691%)" fill-opacity="1">
<use xlink:href="#glyph-3-2" x="43.77563" y="17.703965"/>
<use xlink:href="#glyph-3-6" x="50.135542" y="17.703965"/>
<use xlink:href="#glyph-3-6" x="56.962509" y="17.703965"/>
<use xlink:href="#glyph-3-2" x="63.789477" y="17.703965"/>
<use xlink:href="#glyph-3-0" x="70.149388" y="17.703965"/>
<use xlink:href="#glyph-3-5" x="75.336691" y="17.703965"/>
</g>
</svg>
